G75*
%MOIN*%
%OFA0B0*%
%FSLAX24Y24*%
%IPPOS*%
%LPD*%
%AMOC8*
5,1,8,0,0,1.08239X$1,22.5*
%
%ADD10C,0.0050*%
%ADD11C,0.0030*%
%ADD12C,0.0160*%
%ADD13C,0.0040*%
%ADD14C,0.0020*%
%ADD15C,0.0080*%
%ADD16R,0.0660X0.0380*%
%ADD17C,0.0060*%
%ADD18C,0.0992*%
%ADD19C,0.0000*%
%ADD20C,0.0070*%
%ADD21R,0.0150X0.0200*%
%ADD22R,0.1300X0.0200*%
%ADD23C,0.0051*%
%ADD24C,0.0110*%
%ADD25C,0.0100*%
%ADD26C,0.0178*%
%ADD27R,0.2600X0.1000*%
%ADD28R,0.0380X0.0660*%
D10*
X037325Y021210D02*
X037975Y020560D01*
X038425Y020560D01*
X038325Y020460D01*
X038425Y020560D02*
X038325Y020660D01*
X052300Y027410D02*
X052375Y027335D01*
X052450Y027335D01*
X052525Y027410D01*
X052525Y027560D01*
X052600Y027635D01*
X052675Y027635D01*
X052750Y027560D01*
X052750Y027410D01*
X052675Y027335D01*
X052300Y027410D02*
X052300Y027560D01*
X052375Y027635D01*
X052300Y027795D02*
X052600Y027795D01*
X052750Y027946D01*
X052600Y028096D01*
X052300Y028096D01*
X052375Y028256D02*
X052300Y028331D01*
X052300Y028481D01*
X052375Y028556D01*
X052450Y028556D01*
X052750Y028256D01*
X052750Y028556D01*
X055100Y027785D02*
X055550Y027785D01*
X055550Y027635D02*
X055550Y027935D01*
X055250Y027635D02*
X055100Y027785D01*
X052750Y034335D02*
X052750Y034635D01*
X052750Y034485D02*
X052300Y034485D01*
X052450Y034335D01*
X052525Y034795D02*
X052525Y035021D01*
X052600Y035096D01*
X052675Y035096D01*
X052750Y035021D01*
X052750Y034870D01*
X052675Y034795D01*
X052525Y034795D01*
X052375Y034946D01*
X052300Y035096D01*
X038525Y037410D02*
X036525Y037410D01*
X036525Y039410D01*
X038525Y039410D01*
X038525Y037410D01*
X066535Y037790D02*
X067505Y037790D01*
X067505Y036030D02*
X066535Y036030D01*
X075420Y031530D02*
X075495Y031455D01*
X075570Y031455D01*
X075645Y031530D01*
X075645Y031905D01*
X075570Y031905D02*
X075720Y031905D01*
X075880Y031905D02*
X076106Y031905D01*
X076181Y031830D01*
X076181Y031680D01*
X076106Y031605D01*
X075880Y031605D01*
X075880Y031455D02*
X075880Y031905D01*
X076341Y031680D02*
X076566Y031680D01*
X076641Y031605D01*
X076641Y031530D01*
X076566Y031455D01*
X076416Y031455D01*
X076341Y031530D01*
X076341Y031680D01*
X076491Y031830D01*
X076641Y031905D01*
X082600Y032675D02*
X083050Y032675D01*
X083050Y032525D02*
X083050Y032825D01*
X082750Y032525D02*
X082600Y032675D01*
X085400Y032614D02*
X085700Y032614D01*
X085850Y032464D01*
X085700Y032314D01*
X085400Y032314D01*
X085475Y032154D02*
X085400Y032079D01*
X085400Y031929D01*
X085475Y031854D01*
X085550Y031854D01*
X085625Y031929D01*
X085625Y032079D01*
X085700Y032154D01*
X085775Y032154D01*
X085850Y032079D01*
X085850Y031929D01*
X085775Y031854D01*
X085850Y032775D02*
X085850Y033075D01*
X085850Y032925D02*
X085400Y032925D01*
X085550Y032775D01*
X084875Y029975D02*
X084800Y029975D01*
X084725Y029900D01*
X084725Y029675D01*
X084875Y029675D01*
X084950Y029750D01*
X084950Y029900D01*
X084875Y029975D01*
X084575Y029825D02*
X084725Y029675D01*
X084575Y029825D02*
X084500Y029975D01*
X060900Y014100D02*
X060825Y014175D01*
X060900Y014100D02*
X060900Y013950D01*
X060825Y013875D01*
X060525Y013875D01*
X060450Y013950D01*
X060450Y014100D01*
X060525Y014175D01*
X060450Y013718D02*
X060450Y013568D01*
X060450Y013643D02*
X060900Y013643D01*
X060900Y013568D02*
X060900Y013718D01*
X060675Y013257D02*
X060675Y013107D01*
X060900Y013107D02*
X060450Y013107D01*
X060450Y013408D01*
X060450Y012947D02*
X060450Y012647D01*
X060900Y012647D01*
X060900Y012947D01*
X060675Y012797D02*
X060675Y012647D01*
X060675Y012487D02*
X060750Y012412D01*
X060750Y012186D01*
X060900Y012186D02*
X060450Y012186D01*
X060450Y012412D01*
X060525Y012487D01*
X060675Y012487D01*
X060750Y012337D02*
X060900Y012487D01*
X060750Y012026D02*
X060450Y012026D01*
X060750Y012026D02*
X060900Y011876D01*
X060750Y011726D01*
X060450Y011726D01*
D11*
X038718Y039625D02*
X038656Y039687D01*
X038656Y039934D01*
X038594Y039872D02*
X038718Y039872D01*
X038473Y039872D02*
X038288Y039872D01*
X038226Y039810D01*
X038288Y039748D01*
X038411Y039748D01*
X038473Y039687D01*
X038411Y039625D01*
X038226Y039625D01*
X038105Y039625D02*
X037919Y039625D01*
X037858Y039687D01*
X037919Y039748D01*
X038105Y039748D01*
X038105Y039810D02*
X038105Y039625D01*
X038105Y039810D02*
X038043Y039872D01*
X037919Y039872D01*
X037736Y039872D02*
X037674Y039872D01*
X037551Y039748D01*
X037551Y039625D02*
X037551Y039872D01*
X037429Y039872D02*
X037305Y039872D01*
X037367Y039934D02*
X037367Y039687D01*
X037429Y039625D01*
X037184Y039625D02*
X037184Y039810D01*
X037122Y039872D01*
X036937Y039872D01*
X036937Y039625D01*
X036816Y039687D02*
X036816Y039810D01*
X036754Y039872D01*
X036630Y039872D01*
X036569Y039810D01*
X036569Y039687D01*
X036630Y039625D01*
X036754Y039625D01*
X036816Y039687D01*
X036447Y039687D02*
X036385Y039625D01*
X036262Y039625D01*
X036200Y039687D01*
X036200Y039934D01*
X036262Y039995D01*
X036385Y039995D01*
X036447Y039934D01*
D12*
X075325Y023410D02*
X075525Y023410D01*
X075525Y023210D01*
X075525Y023410D02*
X075725Y023410D01*
X075525Y023410D02*
X075525Y023610D01*
X073925Y015110D02*
X073925Y014910D01*
X074125Y014910D01*
X073925Y014910D02*
X073725Y014910D01*
X073925Y014910D02*
X073925Y014710D01*
D13*
X079511Y019096D02*
X079511Y021419D01*
X080416Y022324D01*
X080731Y022324D01*
X081519Y022324D02*
X081834Y022324D01*
X082739Y021419D01*
X082739Y019096D01*
X081519Y019096D01*
X080731Y019096D02*
X079511Y019096D01*
X081761Y018074D02*
X082981Y018074D01*
X083769Y018074D02*
X084989Y018074D01*
X084989Y015751D01*
X084084Y014846D01*
X083769Y014846D01*
X082981Y014846D02*
X082666Y014846D01*
X081761Y015751D01*
X081761Y018074D01*
X083021Y017976D02*
X082944Y017956D01*
X082869Y017933D01*
X082795Y017905D01*
X082723Y017874D01*
X082652Y017839D01*
X082583Y017801D01*
X082517Y017759D01*
X082452Y017714D01*
X082390Y017666D01*
X082330Y017614D01*
X082273Y017560D01*
X082219Y017503D01*
X082167Y017443D01*
X082119Y017381D01*
X082074Y017316D01*
X082033Y017249D01*
X081995Y017180D01*
X081960Y017109D01*
X081929Y017037D01*
X081901Y016963D01*
X081878Y016888D01*
X081858Y016812D01*
X081842Y016734D01*
X081830Y016656D01*
X081822Y016578D01*
X081818Y016499D01*
X081818Y016421D01*
X081822Y016342D01*
X081830Y016264D01*
X081842Y016186D01*
X081858Y016108D01*
X081878Y016032D01*
X081901Y015957D01*
X081929Y015883D01*
X081960Y015811D01*
X081995Y015740D01*
X082033Y015671D01*
X082074Y015604D01*
X082119Y015539D01*
X082167Y015477D01*
X082219Y015417D01*
X082273Y015360D01*
X082330Y015306D01*
X082390Y015254D01*
X082452Y015206D01*
X082517Y015161D01*
X082583Y015119D01*
X082652Y015081D01*
X082723Y015046D01*
X082795Y015015D01*
X082869Y014987D01*
X082944Y014964D01*
X083021Y014944D01*
X083729Y014944D02*
X083806Y014964D01*
X083881Y014987D01*
X083955Y015015D01*
X084027Y015046D01*
X084098Y015081D01*
X084167Y015119D01*
X084233Y015161D01*
X084298Y015206D01*
X084360Y015254D01*
X084420Y015306D01*
X084477Y015360D01*
X084531Y015417D01*
X084583Y015477D01*
X084631Y015539D01*
X084676Y015604D01*
X084717Y015671D01*
X084755Y015740D01*
X084790Y015811D01*
X084821Y015883D01*
X084849Y015957D01*
X084872Y016032D01*
X084892Y016108D01*
X084908Y016186D01*
X084920Y016264D01*
X084928Y016342D01*
X084932Y016421D01*
X084932Y016499D01*
X084928Y016578D01*
X084920Y016656D01*
X084908Y016734D01*
X084892Y016812D01*
X084872Y016888D01*
X084849Y016963D01*
X084821Y017037D01*
X084790Y017109D01*
X084755Y017180D01*
X084717Y017249D01*
X084676Y017316D01*
X084631Y017381D01*
X084583Y017443D01*
X084531Y017503D01*
X084477Y017560D01*
X084420Y017614D01*
X084360Y017666D01*
X084298Y017714D01*
X084233Y017759D01*
X084167Y017801D01*
X084098Y017839D01*
X084027Y017874D01*
X083955Y017905D01*
X083881Y017933D01*
X083806Y017956D01*
X083729Y017976D01*
X081479Y019194D02*
X081556Y019214D01*
X081631Y019237D01*
X081705Y019265D01*
X081777Y019296D01*
X081848Y019331D01*
X081917Y019369D01*
X081983Y019411D01*
X082048Y019456D01*
X082110Y019504D01*
X082170Y019556D01*
X082227Y019610D01*
X082281Y019667D01*
X082333Y019727D01*
X082381Y019789D01*
X082426Y019854D01*
X082467Y019921D01*
X082505Y019990D01*
X082540Y020061D01*
X082571Y020133D01*
X082599Y020207D01*
X082622Y020282D01*
X082642Y020358D01*
X082658Y020436D01*
X082670Y020514D01*
X082678Y020592D01*
X082682Y020671D01*
X082682Y020749D01*
X082678Y020828D01*
X082670Y020906D01*
X082658Y020984D01*
X082642Y021062D01*
X082622Y021138D01*
X082599Y021213D01*
X082571Y021287D01*
X082540Y021359D01*
X082505Y021430D01*
X082467Y021499D01*
X082426Y021566D01*
X082381Y021631D01*
X082333Y021693D01*
X082281Y021753D01*
X082227Y021810D01*
X082170Y021864D01*
X082110Y021916D01*
X082048Y021964D01*
X081983Y022009D01*
X081917Y022051D01*
X081848Y022089D01*
X081777Y022124D01*
X081705Y022155D01*
X081631Y022183D01*
X081556Y022206D01*
X081479Y022226D01*
X080771Y022226D02*
X080694Y022206D01*
X080619Y022183D01*
X080545Y022155D01*
X080473Y022124D01*
X080402Y022089D01*
X080333Y022051D01*
X080267Y022009D01*
X080202Y021964D01*
X080140Y021916D01*
X080080Y021864D01*
X080023Y021810D01*
X079969Y021753D01*
X079917Y021693D01*
X079869Y021631D01*
X079824Y021566D01*
X079783Y021499D01*
X079745Y021430D01*
X079710Y021359D01*
X079679Y021287D01*
X079651Y021213D01*
X079628Y021138D01*
X079608Y021062D01*
X079592Y020984D01*
X079580Y020906D01*
X079572Y020828D01*
X079568Y020749D01*
X079568Y020671D01*
X079572Y020592D01*
X079580Y020514D01*
X079592Y020436D01*
X079608Y020358D01*
X079628Y020282D01*
X079651Y020207D01*
X079679Y020133D01*
X079710Y020061D01*
X079745Y019990D01*
X079783Y019921D01*
X079824Y019854D01*
X079869Y019789D01*
X079917Y019727D01*
X079969Y019667D01*
X080023Y019610D01*
X080080Y019556D01*
X080140Y019504D01*
X080202Y019456D01*
X080267Y019411D01*
X080333Y019369D01*
X080402Y019331D01*
X080473Y019296D01*
X080545Y019265D01*
X080619Y019237D01*
X080694Y019214D01*
X080771Y019194D01*
X035252Y035980D02*
X034945Y035980D01*
X035098Y035980D02*
X035098Y036440D01*
X034945Y036287D01*
X034728Y029147D02*
X034805Y029071D01*
X034805Y028917D01*
X034728Y028840D01*
X034805Y028687D02*
X034345Y028380D01*
X034345Y028687D02*
X034805Y028380D01*
X034421Y028840D02*
X034345Y028917D01*
X034345Y029071D01*
X034421Y029147D01*
X034498Y029147D01*
X034575Y029071D01*
X034651Y029147D01*
X034728Y029147D01*
X034575Y029071D02*
X034575Y028994D01*
X034498Y013147D02*
X034421Y013147D01*
X034345Y013071D01*
X034345Y012917D01*
X034421Y012840D01*
X034345Y012687D02*
X034805Y012380D01*
X034805Y012687D02*
X034345Y012380D01*
X034805Y012840D02*
X034498Y013147D01*
X034805Y013147D02*
X034805Y012840D01*
D14*
X035065Y017580D02*
X035065Y017760D01*
X035155Y017760D01*
X035185Y017730D01*
X035185Y017670D01*
X035155Y017640D01*
X035065Y017640D01*
X035125Y017640D02*
X035185Y017580D01*
X035249Y017580D02*
X035369Y017700D01*
X035369Y017730D01*
X035339Y017760D01*
X035279Y017760D01*
X035249Y017730D01*
X035249Y017580D02*
X035369Y017580D01*
X035433Y017610D02*
X035553Y017730D01*
X035553Y017610D01*
X035523Y017580D01*
X035463Y017580D01*
X035433Y017610D01*
X035433Y017730D01*
X035463Y017760D01*
X035523Y017760D01*
X035553Y017730D01*
X036235Y018270D02*
X036295Y018330D01*
X036235Y018390D01*
X036415Y018390D01*
X036415Y018454D02*
X036235Y018454D01*
X036235Y018544D01*
X036265Y018574D01*
X036325Y018574D01*
X036355Y018544D01*
X036355Y018454D01*
X036355Y018514D02*
X036415Y018574D01*
X036415Y018638D02*
X036415Y018758D01*
X036415Y018698D02*
X036235Y018698D01*
X036295Y018638D01*
X036235Y018270D02*
X036415Y018270D01*
X036790Y018015D02*
X036790Y017895D01*
X036880Y017895D01*
X036850Y017955D01*
X036850Y017985D01*
X036880Y018015D01*
X036940Y018015D01*
X036970Y017985D01*
X036970Y017925D01*
X036940Y017895D01*
X036970Y017831D02*
X036910Y017771D01*
X036910Y017801D02*
X036910Y017710D01*
X036970Y017710D02*
X036790Y017710D01*
X036790Y017801D01*
X036820Y017831D01*
X036880Y017831D01*
X036910Y017801D01*
X036940Y017646D02*
X036970Y017616D01*
X036970Y017556D01*
X036940Y017526D01*
X036820Y017526D01*
X036790Y017556D01*
X036790Y017616D01*
X036820Y017646D01*
X038072Y017569D02*
X038252Y017569D01*
X038252Y017689D01*
X038222Y017753D02*
X038252Y017783D01*
X038252Y017843D01*
X038222Y017873D01*
X038162Y017873D01*
X038132Y017843D01*
X038132Y017813D01*
X038162Y017753D01*
X038072Y017753D01*
X038072Y017873D01*
X038102Y017504D02*
X038072Y017474D01*
X038072Y017414D01*
X038102Y017384D01*
X038222Y017384D01*
X038252Y017414D01*
X038252Y017474D01*
X038222Y017504D01*
X038532Y017420D02*
X038532Y017600D01*
X038593Y017540D01*
X038653Y017600D01*
X038653Y017420D01*
X038717Y017420D02*
X038717Y017600D01*
X038807Y017600D01*
X038837Y017570D01*
X038837Y017510D01*
X038807Y017480D01*
X038717Y017480D01*
X038777Y017480D02*
X038837Y017420D01*
X038901Y017450D02*
X038931Y017420D01*
X038991Y017420D01*
X039021Y017450D01*
X039021Y017480D01*
X038991Y017510D01*
X038961Y017510D01*
X038991Y017510D02*
X039021Y017540D01*
X039021Y017570D01*
X038991Y017600D01*
X038931Y017600D01*
X038901Y017570D01*
X039732Y017600D02*
X039793Y017540D01*
X039853Y017600D01*
X039853Y017420D01*
X039917Y017420D02*
X039917Y017600D01*
X040007Y017600D01*
X040037Y017570D01*
X040037Y017510D01*
X040007Y017480D01*
X039917Y017480D01*
X039977Y017480D02*
X040037Y017420D01*
X040101Y017510D02*
X040221Y017510D01*
X040191Y017420D02*
X040191Y017600D01*
X040101Y017510D01*
X039732Y017420D02*
X039732Y017600D01*
X040967Y018173D02*
X041028Y018233D01*
X040967Y018293D01*
X041148Y018293D01*
X041118Y018357D02*
X041148Y018387D01*
X041148Y018447D01*
X041118Y018477D01*
X041148Y018541D02*
X041148Y018662D01*
X041148Y018602D02*
X040967Y018602D01*
X041028Y018541D01*
X040997Y018477D02*
X040967Y018447D01*
X040967Y018387D01*
X040997Y018357D01*
X041118Y018357D01*
X041148Y018173D02*
X040967Y018173D01*
X042099Y018233D02*
X042099Y018113D01*
X042129Y018083D01*
X042189Y018083D01*
X042219Y018113D01*
X042283Y018083D02*
X042404Y018083D01*
X042468Y018173D02*
X042588Y018173D01*
X042558Y018263D02*
X042468Y018173D01*
X042558Y018083D02*
X042558Y018263D01*
X042547Y018520D02*
X042517Y018550D01*
X042547Y018520D02*
X042607Y018520D01*
X042637Y018550D01*
X042637Y018610D01*
X042607Y018640D01*
X042577Y018640D01*
X042517Y018610D01*
X042517Y018700D01*
X042637Y018700D01*
X042701Y018610D02*
X042821Y018610D01*
X042791Y018520D02*
X042791Y018700D01*
X042701Y018610D01*
X042453Y018610D02*
X042423Y018580D01*
X042332Y018580D01*
X042332Y018520D02*
X042332Y018700D01*
X042423Y018700D01*
X042453Y018670D01*
X042453Y018610D01*
X042393Y018580D02*
X042453Y018520D01*
X042283Y018263D02*
X042283Y018083D01*
X042219Y018233D02*
X042189Y018263D01*
X042129Y018263D01*
X042099Y018233D01*
X043098Y019470D02*
X043098Y019650D01*
X043158Y019590D01*
X043218Y019650D01*
X043218Y019470D01*
X043282Y019500D02*
X043312Y019470D01*
X043373Y019470D01*
X043403Y019500D01*
X043403Y019620D01*
X043373Y019650D01*
X043312Y019650D01*
X043282Y019620D01*
X043282Y019500D01*
X043467Y019470D02*
X043467Y019650D01*
X043587Y019470D01*
X043587Y019650D01*
X043651Y019590D02*
X043711Y019650D01*
X043711Y019470D01*
X043651Y019470D02*
X043771Y019470D01*
X044719Y019122D02*
X044721Y019141D01*
X044727Y019160D01*
X044736Y019177D01*
X044749Y019192D01*
X044764Y019203D01*
X044782Y019212D01*
X044800Y019217D01*
X044820Y019218D01*
X044839Y019215D01*
X044857Y019208D01*
X044874Y019198D01*
X044888Y019185D01*
X044899Y019169D01*
X044907Y019151D01*
X044911Y019132D01*
X044911Y019112D01*
X044907Y019093D01*
X044899Y019075D01*
X044888Y019059D01*
X044874Y019046D01*
X044857Y019036D01*
X044839Y019029D01*
X044820Y019026D01*
X044800Y019027D01*
X044782Y019032D01*
X044764Y019041D01*
X044749Y019052D01*
X044736Y019067D01*
X044727Y019084D01*
X044721Y019103D01*
X044719Y019122D01*
X045335Y018633D02*
X045515Y018633D01*
X045515Y018693D02*
X045515Y018572D01*
X045395Y018572D02*
X045335Y018633D01*
X045335Y018508D02*
X045335Y018388D01*
X045515Y018388D01*
X045485Y018324D02*
X045335Y018324D01*
X045425Y018388D02*
X045425Y018448D01*
X045485Y018324D02*
X045515Y018294D01*
X045515Y018234D01*
X045485Y018204D01*
X045335Y018204D01*
X045365Y018140D02*
X045335Y018110D01*
X045335Y018020D01*
X045515Y018020D01*
X045515Y018110D01*
X045485Y018140D01*
X045455Y018140D01*
X045425Y018110D01*
X045425Y018020D01*
X045425Y018110D02*
X045395Y018140D01*
X045365Y018140D01*
X045115Y017606D02*
X045115Y017486D01*
X045115Y017546D02*
X044935Y017546D01*
X044995Y017486D01*
X045025Y017422D02*
X045085Y017422D01*
X045115Y017392D01*
X045115Y017332D01*
X045085Y017302D01*
X045025Y017302D02*
X044995Y017362D01*
X044995Y017392D01*
X045025Y017422D01*
X044935Y017422D02*
X044935Y017302D01*
X045025Y017302D01*
X045025Y017238D02*
X045055Y017208D01*
X045055Y017118D01*
X045055Y017178D02*
X045115Y017238D01*
X045025Y017238D02*
X044965Y017238D01*
X044935Y017208D01*
X044935Y017118D01*
X045115Y017118D01*
X043965Y016966D02*
X043844Y016966D01*
X043935Y017056D01*
X043935Y016876D01*
X043780Y016876D02*
X043720Y016936D01*
X043750Y016936D02*
X043660Y016936D01*
X043660Y016876D02*
X043660Y017056D01*
X043750Y017056D01*
X043780Y017026D01*
X043780Y016966D01*
X043750Y016936D01*
X043596Y016906D02*
X043566Y016876D01*
X043506Y016876D01*
X043476Y016906D01*
X043476Y017026D01*
X043506Y017056D01*
X043566Y017056D01*
X043596Y017026D01*
X045435Y016150D02*
X045525Y016150D01*
X045555Y016120D01*
X045555Y016060D01*
X045525Y016030D01*
X045435Y016030D01*
X045495Y016030D02*
X045555Y015970D01*
X045619Y016000D02*
X045649Y015970D01*
X045709Y015970D01*
X045739Y016000D01*
X045739Y016060D01*
X045709Y016090D01*
X045679Y016090D01*
X045619Y016060D01*
X045619Y016150D01*
X045739Y016150D01*
X045803Y016120D02*
X045833Y016150D01*
X045893Y016150D01*
X045923Y016120D01*
X045923Y016090D01*
X045893Y016060D01*
X045923Y016030D01*
X045923Y016000D01*
X045893Y015970D01*
X045833Y015970D01*
X045803Y016000D01*
X045863Y016060D02*
X045893Y016060D01*
X045435Y015970D02*
X045435Y016150D01*
X046285Y017120D02*
X046285Y017210D01*
X046315Y017240D01*
X046375Y017240D01*
X046405Y017210D01*
X046405Y017120D01*
X046465Y017120D02*
X046285Y017120D01*
X046405Y017180D02*
X046465Y017240D01*
X046435Y017304D02*
X046465Y017334D01*
X046465Y017394D01*
X046435Y017424D01*
X046375Y017424D01*
X046345Y017394D01*
X046345Y017364D01*
X046375Y017304D01*
X046285Y017304D01*
X046285Y017424D01*
X046315Y017488D02*
X046285Y017518D01*
X046285Y017578D01*
X046315Y017608D01*
X046345Y017608D01*
X046465Y017488D01*
X046465Y017608D01*
X046497Y019523D02*
X046618Y019523D01*
X046648Y019553D01*
X046648Y019613D01*
X046618Y019643D01*
X046648Y019707D02*
X046648Y019827D01*
X046618Y019891D02*
X046648Y019921D01*
X046648Y019982D01*
X046618Y020012D01*
X046588Y020012D01*
X046558Y019982D01*
X046558Y019952D01*
X046558Y019982D02*
X046528Y020012D01*
X046497Y020012D01*
X046467Y019982D01*
X046467Y019921D01*
X046497Y019891D01*
X046467Y019707D02*
X046648Y019707D01*
X046497Y019643D02*
X046467Y019613D01*
X046467Y019553D01*
X046497Y019523D01*
X045405Y020266D02*
X045375Y020236D01*
X045314Y020236D01*
X045284Y020266D01*
X045220Y020236D02*
X045160Y020296D01*
X045190Y020296D02*
X045100Y020296D01*
X045100Y020236D02*
X045100Y020416D01*
X045190Y020416D01*
X045220Y020386D01*
X045220Y020326D01*
X045190Y020296D01*
X045284Y020386D02*
X045314Y020416D01*
X045375Y020416D01*
X045405Y020386D01*
X045405Y020356D01*
X045375Y020326D01*
X045405Y020296D01*
X045405Y020266D01*
X045375Y020326D02*
X045345Y020326D01*
X045036Y020386D02*
X045006Y020416D01*
X044946Y020416D01*
X044916Y020386D01*
X044916Y020266D01*
X044946Y020236D01*
X045006Y020236D01*
X045036Y020266D01*
X045720Y021126D02*
X045840Y021126D01*
X045870Y021156D01*
X045870Y021216D01*
X045840Y021246D01*
X045810Y021310D02*
X045810Y021401D01*
X045780Y021431D01*
X045720Y021431D01*
X045690Y021401D01*
X045690Y021310D01*
X045870Y021310D01*
X045810Y021371D02*
X045870Y021431D01*
X045870Y021495D02*
X045750Y021615D01*
X045720Y021615D01*
X045690Y021585D01*
X045690Y021525D01*
X045720Y021495D01*
X045870Y021495D02*
X045870Y021615D01*
X045720Y021246D02*
X045690Y021216D01*
X045690Y021156D01*
X045720Y021126D01*
X046947Y021283D02*
X046977Y021253D01*
X047098Y021253D01*
X047128Y021283D01*
X047128Y021343D01*
X047098Y021373D01*
X047128Y021437D02*
X047128Y021557D01*
X047128Y021621D02*
X047008Y021742D01*
X046977Y021742D01*
X046947Y021712D01*
X046947Y021651D01*
X046977Y021621D01*
X047128Y021621D02*
X047128Y021742D01*
X047128Y021437D02*
X046947Y021437D01*
X046977Y021373D02*
X046947Y021343D01*
X046947Y021283D01*
X047517Y021500D02*
X047519Y021519D01*
X047525Y021538D01*
X047534Y021555D01*
X047547Y021570D01*
X047562Y021581D01*
X047580Y021590D01*
X047598Y021595D01*
X047618Y021596D01*
X047637Y021593D01*
X047655Y021586D01*
X047672Y021576D01*
X047686Y021563D01*
X047697Y021547D01*
X047705Y021529D01*
X047709Y021510D01*
X047709Y021490D01*
X047705Y021471D01*
X047697Y021453D01*
X047686Y021437D01*
X047672Y021424D01*
X047655Y021414D01*
X047637Y021407D01*
X047618Y021404D01*
X047598Y021405D01*
X047580Y021410D01*
X047562Y021419D01*
X047547Y021430D01*
X047534Y021445D01*
X047525Y021462D01*
X047519Y021481D01*
X047517Y021500D01*
X047835Y021920D02*
X047835Y021980D01*
X047835Y021950D02*
X048015Y021950D01*
X048015Y021920D02*
X048015Y021980D01*
X047985Y022043D02*
X048015Y022073D01*
X048015Y022133D01*
X047985Y022163D01*
X047985Y022227D02*
X048015Y022227D01*
X047985Y022227D02*
X047865Y022347D01*
X047835Y022347D01*
X047835Y022227D01*
X047865Y022163D02*
X047835Y022133D01*
X047835Y022073D01*
X047865Y022043D01*
X047985Y022043D01*
X049935Y021500D02*
X050025Y021500D01*
X050055Y021470D01*
X050055Y021410D01*
X050025Y021380D01*
X049935Y021380D01*
X049995Y021380D02*
X050055Y021320D01*
X050119Y021350D02*
X050149Y021320D01*
X050209Y021320D01*
X050239Y021350D01*
X050239Y021410D01*
X050209Y021440D01*
X050179Y021440D01*
X050119Y021410D01*
X050119Y021500D01*
X050239Y021500D01*
X050303Y021470D02*
X050333Y021500D01*
X050393Y021500D01*
X050423Y021470D01*
X050303Y021350D01*
X050333Y021320D01*
X050393Y021320D01*
X050423Y021350D01*
X050423Y021470D01*
X050303Y021470D02*
X050303Y021350D01*
X049935Y021320D02*
X049935Y021500D01*
X050891Y021995D02*
X050921Y021964D01*
X050981Y021964D01*
X051011Y021995D01*
X051075Y021995D02*
X051105Y021964D01*
X051165Y021964D01*
X051195Y021995D01*
X051195Y022025D01*
X051165Y022055D01*
X051075Y022055D01*
X051075Y021995D01*
X051075Y022055D02*
X051135Y022115D01*
X051195Y022145D01*
X051011Y022115D02*
X050981Y022145D01*
X050921Y022145D01*
X050891Y022115D01*
X050891Y021995D01*
X051185Y022780D02*
X051185Y022960D01*
X051275Y022960D01*
X051305Y022930D01*
X051305Y022870D01*
X051275Y022840D01*
X051185Y022840D01*
X051245Y022840D02*
X051305Y022780D01*
X051369Y022810D02*
X051399Y022780D01*
X051459Y022780D01*
X051489Y022810D01*
X051489Y022870D01*
X051459Y022900D01*
X051429Y022900D01*
X051369Y022870D01*
X051369Y022960D01*
X051489Y022960D01*
X051835Y023960D02*
X051835Y024140D01*
X051925Y024140D01*
X051955Y024110D01*
X051955Y024050D01*
X051925Y024020D01*
X051835Y024020D01*
X051895Y024020D02*
X051955Y023960D01*
X052019Y024050D02*
X052139Y024050D01*
X052109Y023960D02*
X052109Y024140D01*
X052019Y024050D01*
X050845Y024155D02*
X050725Y024155D01*
X050815Y024245D01*
X050815Y024064D01*
X050661Y024095D02*
X050631Y024064D01*
X050571Y024064D01*
X050541Y024095D01*
X050541Y024215D01*
X050571Y024245D01*
X050631Y024245D01*
X050661Y024215D01*
X049759Y024260D02*
X049729Y024230D01*
X049759Y024260D02*
X049759Y024320D01*
X049729Y024350D01*
X049669Y024350D01*
X049639Y024320D01*
X049639Y024290D01*
X049669Y024230D01*
X049579Y024230D01*
X049579Y024350D01*
X049609Y024165D02*
X049579Y024135D01*
X049579Y024075D01*
X049609Y024045D01*
X049729Y024045D01*
X049759Y024075D01*
X049759Y024135D01*
X049729Y024165D01*
X048368Y024103D02*
X048368Y024073D01*
X048338Y024043D01*
X048368Y024013D01*
X048368Y023983D01*
X048338Y023953D01*
X048278Y023953D01*
X048248Y023983D01*
X048184Y023983D02*
X048154Y023953D01*
X048093Y023953D01*
X048063Y023983D01*
X048063Y024103D01*
X048093Y024133D01*
X048154Y024133D01*
X048184Y024103D01*
X048248Y024103D02*
X048278Y024133D01*
X048338Y024133D01*
X048368Y024103D01*
X048338Y024043D02*
X048308Y024043D01*
X047221Y024270D02*
X047101Y024270D01*
X047221Y024390D01*
X047221Y024420D01*
X047191Y024450D01*
X047131Y024450D01*
X047101Y024420D01*
X047037Y024420D02*
X047037Y024360D01*
X047007Y024330D01*
X046917Y024330D01*
X046977Y024330D02*
X047037Y024270D01*
X046917Y024270D02*
X046917Y024450D01*
X047007Y024450D01*
X047037Y024420D01*
X046975Y024150D02*
X047005Y024120D01*
X047005Y024060D01*
X046975Y024030D01*
X046885Y024030D01*
X046945Y024030D02*
X047005Y023970D01*
X047069Y023970D02*
X047189Y023970D01*
X047129Y023970D02*
X047129Y024150D01*
X047069Y024090D01*
X046975Y024150D02*
X046885Y024150D01*
X046885Y023970D01*
X046909Y025070D02*
X046849Y025070D01*
X046819Y025100D01*
X046849Y025160D02*
X046909Y025160D01*
X046939Y025130D01*
X046939Y025100D01*
X046909Y025070D01*
X047003Y025070D02*
X047123Y025190D01*
X047123Y025220D01*
X047093Y025250D01*
X047033Y025250D01*
X047003Y025220D01*
X046939Y025220D02*
X046909Y025250D01*
X046849Y025250D01*
X046819Y025220D01*
X046819Y025190D01*
X046849Y025160D01*
X046755Y025160D02*
X046725Y025130D01*
X046635Y025130D01*
X046695Y025130D02*
X046755Y025070D01*
X046755Y025160D02*
X046755Y025220D01*
X046725Y025250D01*
X046635Y025250D01*
X046635Y025070D01*
X047003Y025070D02*
X047123Y025070D01*
X047103Y026270D02*
X047223Y026270D01*
X047163Y026270D02*
X047163Y026450D01*
X047103Y026390D01*
X047039Y026420D02*
X047009Y026450D01*
X046949Y026450D01*
X046919Y026420D01*
X046919Y026390D01*
X046949Y026360D01*
X047009Y026360D01*
X047039Y026330D01*
X047039Y026300D01*
X047009Y026270D01*
X046949Y026270D01*
X046919Y026300D01*
X046855Y026270D02*
X046795Y026330D01*
X046825Y026330D02*
X046735Y026330D01*
X046735Y026270D02*
X046735Y026450D01*
X046825Y026450D01*
X046855Y026420D01*
X046855Y026360D01*
X046825Y026330D01*
X047427Y028437D02*
X047487Y028437D01*
X047517Y028467D01*
X047581Y028437D02*
X047701Y028437D01*
X047641Y028437D02*
X047641Y028617D01*
X047581Y028557D01*
X047517Y028587D02*
X047487Y028617D01*
X047427Y028617D01*
X047397Y028587D01*
X047397Y028467D01*
X047427Y028437D01*
X047470Y030926D02*
X047590Y030926D01*
X047620Y030956D01*
X047620Y031016D01*
X047590Y031046D01*
X047560Y031110D02*
X047560Y031201D01*
X047530Y031231D01*
X047470Y031231D01*
X047440Y031201D01*
X047440Y031110D01*
X047620Y031110D01*
X047560Y031171D02*
X047620Y031231D01*
X047620Y031295D02*
X047620Y031415D01*
X047620Y031355D02*
X047440Y031355D01*
X047500Y031295D01*
X047470Y031479D02*
X047440Y031509D01*
X047440Y031569D01*
X047470Y031599D01*
X047500Y031599D01*
X047620Y031479D01*
X047620Y031599D01*
X047470Y031046D02*
X047440Y031016D01*
X047440Y030956D01*
X047470Y030926D01*
X049167Y031003D02*
X049197Y030973D01*
X049318Y030973D01*
X049348Y031003D01*
X049348Y031063D01*
X049318Y031093D01*
X049348Y031157D02*
X049348Y031277D01*
X049348Y031341D02*
X049348Y031462D01*
X049348Y031402D02*
X049167Y031402D01*
X049228Y031341D01*
X049197Y031526D02*
X049167Y031556D01*
X049167Y031616D01*
X049197Y031646D01*
X049228Y031646D01*
X049348Y031526D01*
X049348Y031646D01*
X049348Y031157D02*
X049167Y031157D01*
X049197Y031093D02*
X049167Y031063D01*
X049167Y031003D01*
X050974Y032400D02*
X051094Y032400D01*
X051154Y032460D01*
X051094Y032520D01*
X050974Y032520D01*
X050974Y032584D02*
X050974Y032675D01*
X051004Y032705D01*
X051064Y032705D01*
X051094Y032675D01*
X051094Y032584D01*
X051154Y032584D02*
X050974Y032584D01*
X051094Y032645D02*
X051154Y032705D01*
X051154Y032769D02*
X051154Y032889D01*
X051124Y032953D02*
X051154Y032983D01*
X051154Y033043D01*
X051124Y033073D01*
X051064Y033073D01*
X051064Y033013D01*
X051004Y033073D02*
X050974Y033043D01*
X050974Y032983D01*
X051004Y032953D01*
X051124Y032953D01*
X051064Y032829D02*
X051064Y032769D01*
X050974Y032769D02*
X051154Y032769D01*
X050974Y032769D02*
X050974Y032889D01*
X051034Y033137D02*
X050974Y033197D01*
X051154Y033197D01*
X051154Y033137D02*
X051154Y033257D01*
X049648Y033277D02*
X049648Y033157D01*
X049528Y033277D01*
X049497Y033277D01*
X049467Y033247D01*
X049467Y033187D01*
X049497Y033157D01*
X049497Y033093D02*
X049467Y033063D01*
X049467Y033003D01*
X049497Y032973D01*
X049618Y032973D01*
X049648Y033003D01*
X049648Y033063D01*
X049618Y033093D01*
X056785Y029746D02*
X056965Y029746D01*
X056965Y029686D02*
X056965Y029806D01*
X056845Y029686D02*
X056785Y029746D01*
X056875Y029622D02*
X056875Y029502D01*
X056785Y029592D01*
X056965Y029592D01*
X056965Y029438D02*
X056905Y029378D01*
X056905Y029408D02*
X056905Y029318D01*
X056965Y029318D02*
X056785Y029318D01*
X056785Y029408D01*
X056815Y029438D01*
X056875Y029438D01*
X056905Y029408D01*
X058935Y030368D02*
X058935Y030458D01*
X058965Y030488D01*
X059025Y030488D01*
X059055Y030458D01*
X059055Y030368D01*
X059055Y030428D02*
X059115Y030488D01*
X059025Y030552D02*
X059025Y030672D01*
X059085Y030736D02*
X058965Y030856D01*
X059085Y030856D01*
X059115Y030826D01*
X059115Y030766D01*
X059085Y030736D01*
X058965Y030736D01*
X058935Y030766D01*
X058935Y030826D01*
X058965Y030856D01*
X058935Y030642D02*
X059025Y030552D01*
X059115Y030642D02*
X058935Y030642D01*
X058935Y030368D02*
X059115Y030368D01*
X059885Y030400D02*
X059945Y030400D01*
X059915Y030400D02*
X059915Y030220D01*
X059885Y030220D02*
X059945Y030220D01*
X060008Y030250D02*
X060038Y030220D01*
X060098Y030220D01*
X060128Y030250D01*
X060192Y030250D02*
X060222Y030220D01*
X060282Y030220D01*
X060312Y030250D01*
X060312Y030280D01*
X060282Y030310D01*
X060252Y030310D01*
X060282Y030310D02*
X060312Y030340D01*
X060312Y030370D01*
X060282Y030400D01*
X060222Y030400D01*
X060192Y030370D01*
X060128Y030370D02*
X060098Y030400D01*
X060038Y030400D01*
X060008Y030370D01*
X060008Y030250D01*
X061202Y029493D02*
X061382Y029493D01*
X061382Y029433D02*
X061382Y029553D01*
X061262Y029433D02*
X061202Y029493D01*
X061232Y029369D02*
X061262Y029369D01*
X061292Y029339D01*
X061322Y029369D01*
X061352Y029369D01*
X061382Y029339D01*
X061382Y029279D01*
X061352Y029249D01*
X061352Y029184D02*
X061382Y029154D01*
X061382Y029094D01*
X061352Y029064D01*
X061232Y029064D01*
X061202Y029094D01*
X061202Y029154D01*
X061232Y029184D01*
X061232Y029249D02*
X061202Y029279D01*
X061202Y029339D01*
X061232Y029369D01*
X061292Y029339D02*
X061292Y029309D01*
X062185Y028900D02*
X062275Y028900D01*
X062305Y028870D01*
X062305Y028810D01*
X062275Y028780D01*
X062185Y028780D01*
X062245Y028780D02*
X062305Y028720D01*
X062369Y028810D02*
X062489Y028810D01*
X062553Y028750D02*
X062553Y028720D01*
X062553Y028750D02*
X062673Y028870D01*
X062673Y028900D01*
X062553Y028900D01*
X062459Y028900D02*
X062369Y028810D01*
X062459Y028720D02*
X062459Y028900D01*
X062185Y028900D02*
X062185Y028720D01*
X062035Y026306D02*
X062065Y026276D01*
X062065Y026216D01*
X062035Y026186D01*
X062005Y026186D01*
X061975Y026216D01*
X061975Y026276D01*
X062005Y026306D01*
X062035Y026306D01*
X061975Y026276D02*
X061945Y026306D01*
X061915Y026306D01*
X061885Y026276D01*
X061885Y026216D01*
X061915Y026186D01*
X061945Y026186D01*
X061975Y026216D01*
X061975Y026122D02*
X061975Y026002D01*
X061885Y026092D01*
X062065Y026092D01*
X062065Y025938D02*
X062005Y025878D01*
X062005Y025908D02*
X062005Y025818D01*
X062065Y025818D02*
X061885Y025818D01*
X061885Y025908D01*
X061915Y025938D01*
X061975Y025938D01*
X062005Y025908D01*
X061465Y025938D02*
X061405Y025878D01*
X061405Y025908D02*
X061405Y025818D01*
X061465Y025818D02*
X061285Y025818D01*
X061285Y025908D01*
X061315Y025938D01*
X061375Y025938D01*
X061405Y025908D01*
X061375Y026002D02*
X061375Y026122D01*
X061345Y026186D02*
X061375Y026216D01*
X061375Y026306D01*
X061435Y026306D02*
X061315Y026306D01*
X061285Y026276D01*
X061285Y026216D01*
X061315Y026186D01*
X061345Y026186D01*
X061435Y026186D02*
X061465Y026216D01*
X061465Y026276D01*
X061435Y026306D01*
X061465Y026092D02*
X061285Y026092D01*
X061375Y026002D01*
X059323Y026200D02*
X059293Y026170D01*
X059233Y026170D01*
X059203Y026200D01*
X059263Y026260D02*
X059293Y026260D01*
X059323Y026230D01*
X059323Y026200D01*
X059293Y026260D02*
X059323Y026290D01*
X059323Y026320D01*
X059293Y026350D01*
X059233Y026350D01*
X059203Y026320D01*
X059139Y026260D02*
X059019Y026260D01*
X059109Y026350D01*
X059109Y026170D01*
X058955Y026170D02*
X058895Y026230D01*
X058925Y026230D02*
X058835Y026230D01*
X058835Y026170D02*
X058835Y026350D01*
X058925Y026350D01*
X058955Y026320D01*
X058955Y026260D01*
X058925Y026230D01*
X058021Y025420D02*
X057991Y025450D01*
X057931Y025450D01*
X057901Y025420D01*
X057901Y025390D01*
X057931Y025360D01*
X058021Y025360D01*
X058021Y025300D02*
X058021Y025420D01*
X058021Y025300D02*
X057991Y025270D01*
X057931Y025270D01*
X057901Y025300D01*
X057837Y025300D02*
X057807Y025270D01*
X057747Y025270D01*
X057717Y025300D01*
X057653Y025270D02*
X057593Y025330D01*
X057623Y025330D02*
X057532Y025330D01*
X057532Y025270D02*
X057532Y025450D01*
X057623Y025450D01*
X057653Y025420D01*
X057653Y025360D01*
X057623Y025330D01*
X057717Y025420D02*
X057747Y025450D01*
X057807Y025450D01*
X057837Y025420D01*
X057837Y025390D01*
X057807Y025360D01*
X057837Y025330D01*
X057837Y025300D01*
X057807Y025360D02*
X057777Y025360D01*
X057115Y026670D02*
X056935Y026670D01*
X056935Y026760D01*
X056965Y026790D01*
X057025Y026790D01*
X057055Y026760D01*
X057055Y026670D01*
X057055Y026730D02*
X057115Y026790D01*
X057025Y026854D02*
X057025Y026974D01*
X057025Y027038D02*
X056995Y027098D01*
X056995Y027128D01*
X057025Y027158D01*
X057085Y027158D01*
X057115Y027128D01*
X057115Y027068D01*
X057085Y027038D01*
X057025Y027038D02*
X056935Y027038D01*
X056935Y027158D01*
X056935Y026944D02*
X057025Y026854D01*
X057115Y026944D02*
X056935Y026944D01*
X056315Y027218D02*
X056135Y027218D01*
X056135Y027308D01*
X056165Y027338D01*
X056225Y027338D01*
X056255Y027308D01*
X056255Y027218D01*
X056255Y027278D02*
X056315Y027338D01*
X056225Y027402D02*
X056225Y027522D01*
X056225Y027586D02*
X056225Y027706D01*
X056315Y027676D02*
X056135Y027676D01*
X056225Y027586D01*
X056315Y027492D02*
X056135Y027492D01*
X056225Y027402D01*
X057079Y027783D02*
X057109Y027753D01*
X057169Y027753D01*
X057199Y027783D01*
X057263Y027783D02*
X057293Y027753D01*
X057354Y027753D01*
X057384Y027783D01*
X057384Y027813D01*
X057354Y027843D01*
X057324Y027843D01*
X057354Y027843D02*
X057384Y027873D01*
X057384Y027903D01*
X057354Y027933D01*
X057293Y027933D01*
X057263Y027903D01*
X057199Y027903D02*
X057169Y027933D01*
X057109Y027933D01*
X057079Y027903D01*
X057079Y027783D01*
X057448Y027783D02*
X057568Y027903D01*
X057568Y027783D01*
X057538Y027753D01*
X057478Y027753D01*
X057448Y027783D01*
X057448Y027903D01*
X057478Y027933D01*
X057538Y027933D01*
X057568Y027903D01*
X055965Y025406D02*
X055965Y025286D01*
X055965Y025346D02*
X055785Y025346D01*
X055845Y025286D01*
X055815Y025222D02*
X055785Y025192D01*
X055785Y025132D01*
X055815Y025102D01*
X055935Y025102D01*
X055965Y025132D01*
X055965Y025192D01*
X055935Y025222D01*
X055965Y025038D02*
X055845Y025038D01*
X055785Y024978D01*
X055845Y024918D01*
X055965Y024918D01*
X055935Y024853D02*
X055815Y024853D01*
X055785Y024823D01*
X055785Y024733D01*
X055965Y024733D01*
X055965Y024823D01*
X055935Y024853D01*
X055875Y024918D02*
X055875Y025038D01*
X055768Y023173D02*
X055708Y023173D01*
X055678Y023143D01*
X055614Y023143D02*
X055584Y023173D01*
X055493Y023173D01*
X055493Y022993D01*
X055584Y022993D01*
X055614Y023023D01*
X055614Y023143D01*
X055678Y023023D02*
X055708Y022993D01*
X055768Y022993D01*
X055798Y023023D01*
X055798Y023053D01*
X055768Y023083D01*
X055738Y023083D01*
X055768Y023083D02*
X055798Y023113D01*
X055798Y023143D01*
X055768Y023173D01*
X055429Y023143D02*
X055399Y023173D01*
X055339Y023173D01*
X055309Y023143D01*
X055309Y023023D01*
X055339Y022993D01*
X055399Y022993D01*
X055429Y023023D01*
X056025Y022860D02*
X056115Y022860D01*
X056145Y022830D01*
X056145Y022770D01*
X056115Y022740D01*
X056025Y022740D01*
X056085Y022740D02*
X056145Y022680D01*
X056209Y022680D02*
X056329Y022800D01*
X056329Y022830D01*
X056299Y022860D01*
X056239Y022860D01*
X056209Y022830D01*
X056209Y022680D02*
X056329Y022680D01*
X056393Y022710D02*
X056423Y022680D01*
X056483Y022680D01*
X056513Y022710D01*
X056513Y022740D01*
X056483Y022770D01*
X056453Y022770D01*
X056483Y022770D02*
X056513Y022800D01*
X056513Y022830D01*
X056483Y022860D01*
X056423Y022860D01*
X056393Y022830D01*
X056025Y022860D02*
X056025Y022680D01*
X057255Y022236D02*
X057345Y022146D01*
X057345Y022266D01*
X057435Y022236D02*
X057255Y022236D01*
X057285Y022082D02*
X057255Y022052D01*
X057255Y021992D01*
X057285Y021962D01*
X057285Y021898D02*
X057345Y021898D01*
X057375Y021868D01*
X057375Y021778D01*
X057375Y021838D02*
X057435Y021898D01*
X057435Y021962D02*
X057315Y022082D01*
X057285Y022082D01*
X057435Y022082D02*
X057435Y021962D01*
X057285Y021898D02*
X057255Y021868D01*
X057255Y021778D01*
X057435Y021778D01*
X054530Y021795D02*
X054500Y021764D01*
X054440Y021764D01*
X054410Y021795D01*
X054410Y021825D01*
X054440Y021855D01*
X054500Y021855D01*
X054530Y021825D01*
X054530Y021795D01*
X054500Y021855D02*
X054530Y021885D01*
X054530Y021915D01*
X054500Y021945D01*
X054440Y021945D01*
X054410Y021915D01*
X054410Y021885D01*
X054440Y021855D01*
X054345Y021855D02*
X054315Y021825D01*
X054225Y021825D01*
X054285Y021825D02*
X054345Y021764D01*
X054345Y021855D02*
X054345Y021915D01*
X054315Y021945D01*
X054225Y021945D01*
X054225Y021764D01*
X054161Y021795D02*
X054131Y021764D01*
X054071Y021764D01*
X054041Y021795D01*
X054041Y021915D01*
X054071Y021945D01*
X054131Y021945D01*
X054161Y021915D01*
X052952Y024964D02*
X052832Y024964D01*
X052802Y024994D01*
X052802Y025054D01*
X052832Y025084D01*
X052802Y025149D02*
X052982Y025149D01*
X052982Y025269D01*
X052952Y025333D02*
X052922Y025333D01*
X052892Y025363D01*
X052892Y025423D01*
X052922Y025453D01*
X052952Y025453D01*
X052982Y025423D01*
X052982Y025363D01*
X052952Y025333D01*
X052892Y025363D02*
X052862Y025333D01*
X052832Y025333D01*
X052802Y025363D01*
X052802Y025423D01*
X052832Y025453D01*
X052862Y025453D01*
X052892Y025423D01*
X052952Y025084D02*
X052982Y025054D01*
X052982Y024994D01*
X052952Y024964D01*
X048632Y019653D02*
X048632Y019533D01*
X048632Y019593D02*
X048452Y019593D01*
X048512Y019533D01*
X048632Y019469D02*
X048632Y019349D01*
X048452Y019349D01*
X048482Y019284D02*
X048452Y019254D01*
X048452Y019194D01*
X048482Y019164D01*
X048602Y019164D01*
X048632Y019194D01*
X048632Y019254D01*
X048602Y019284D01*
X049529Y019245D02*
X049529Y019335D01*
X049559Y019365D01*
X049619Y019365D01*
X049649Y019335D01*
X049649Y019245D01*
X049709Y019245D02*
X049529Y019245D01*
X049559Y019181D02*
X049529Y019151D01*
X049529Y019091D01*
X049559Y019061D01*
X049679Y019061D01*
X049709Y019091D01*
X049709Y019151D01*
X049679Y019181D01*
X049649Y019305D02*
X049709Y019365D01*
X049709Y019430D02*
X049709Y019550D01*
X049709Y019490D02*
X049529Y019490D01*
X049589Y019430D01*
X044821Y023470D02*
X044701Y023470D01*
X044761Y023470D02*
X044761Y023650D01*
X044701Y023590D01*
X044637Y023590D02*
X044607Y023560D01*
X044517Y023560D01*
X044607Y023560D02*
X044637Y023530D01*
X044637Y023500D01*
X044607Y023470D01*
X044517Y023470D01*
X044517Y023650D01*
X044607Y023650D01*
X044637Y023620D01*
X044637Y023590D01*
X044453Y023650D02*
X044332Y023650D01*
X044332Y023470D01*
X044268Y023470D02*
X044208Y023530D01*
X044178Y023470D02*
X044148Y023500D01*
X044148Y023620D01*
X044178Y023650D01*
X044238Y023650D01*
X044268Y023620D01*
X044268Y023500D01*
X044238Y023470D01*
X044178Y023470D01*
X044332Y023560D02*
X044393Y023560D01*
X040048Y022082D02*
X040018Y022112D01*
X039988Y022112D01*
X039958Y022082D01*
X039958Y021991D01*
X040018Y021991D01*
X040048Y022021D01*
X040048Y022082D01*
X039958Y021991D02*
X039897Y022052D01*
X039867Y022112D01*
X040048Y021927D02*
X040048Y021807D01*
X039867Y021807D01*
X039897Y021743D02*
X039867Y021713D01*
X039867Y021653D01*
X039897Y021623D01*
X040018Y021623D01*
X040048Y021653D01*
X040048Y021713D01*
X040018Y021743D01*
X038821Y021600D02*
X038761Y021570D01*
X038701Y021510D01*
X038791Y021510D01*
X038821Y021480D01*
X038821Y021450D01*
X038791Y021420D01*
X038731Y021420D01*
X038701Y021450D01*
X038701Y021510D01*
X038637Y021510D02*
X038607Y021480D01*
X038517Y021480D01*
X038577Y021480D02*
X038637Y021420D01*
X038637Y021510D02*
X038637Y021570D01*
X038607Y021600D01*
X038517Y021600D01*
X038517Y021420D01*
X038453Y021420D02*
X038453Y021600D01*
X038393Y021540D01*
X038332Y021600D01*
X038332Y021420D01*
X037462Y021410D02*
X037342Y021410D01*
X037432Y021500D01*
X037432Y021320D01*
X037278Y021350D02*
X037248Y021320D01*
X037188Y021320D01*
X037158Y021350D01*
X037158Y021470D01*
X037188Y021500D01*
X037248Y021500D01*
X037278Y021470D01*
X037095Y021500D02*
X037035Y021500D01*
X037065Y021500D02*
X037065Y021320D01*
X037035Y021320D02*
X037095Y021320D01*
X036171Y021350D02*
X036141Y021320D01*
X036081Y021320D01*
X036051Y021350D01*
X036051Y021380D01*
X036081Y021410D01*
X036141Y021410D01*
X036171Y021380D01*
X036171Y021350D01*
X036141Y021410D02*
X036171Y021440D01*
X036171Y021470D01*
X036141Y021500D01*
X036081Y021500D01*
X036051Y021470D01*
X036051Y021440D01*
X036081Y021410D01*
X035987Y021410D02*
X035957Y021380D01*
X035867Y021380D01*
X035927Y021380D02*
X035987Y021320D01*
X035987Y021410D02*
X035987Y021470D01*
X035957Y021500D01*
X035867Y021500D01*
X035867Y021320D01*
X035803Y021320D02*
X035803Y021500D01*
X035743Y021440D01*
X035682Y021500D01*
X035682Y021320D01*
X034415Y021302D02*
X034235Y021302D01*
X034235Y021392D01*
X034265Y021422D01*
X034325Y021422D01*
X034355Y021392D01*
X034355Y021302D01*
X034355Y021362D02*
X034415Y021422D01*
X034415Y021486D02*
X034385Y021486D01*
X034265Y021606D01*
X034235Y021606D01*
X034235Y021486D01*
X034235Y021238D02*
X034415Y021238D01*
X034415Y021118D02*
X034235Y021118D01*
X034295Y021178D01*
X034235Y021238D01*
X035065Y019768D02*
X035035Y019738D01*
X035035Y019678D01*
X035065Y019648D01*
X035095Y019648D01*
X035125Y019678D01*
X035125Y019768D01*
X035185Y019768D02*
X035065Y019768D01*
X035185Y019768D02*
X035215Y019738D01*
X035215Y019678D01*
X035185Y019648D01*
X035215Y019584D02*
X035155Y019524D01*
X035155Y019554D02*
X035155Y019464D01*
X035215Y019464D02*
X035035Y019464D01*
X035035Y019554D01*
X035065Y019584D01*
X035125Y019584D01*
X035155Y019554D01*
X035215Y019400D02*
X035035Y019400D01*
X035095Y019340D01*
X035035Y019280D01*
X035215Y019280D01*
X037132Y020420D02*
X037132Y020600D01*
X037193Y020540D01*
X037253Y020600D01*
X037253Y020420D01*
X037317Y020420D02*
X037317Y020600D01*
X037407Y020600D01*
X037437Y020570D01*
X037437Y020510D01*
X037407Y020480D01*
X037317Y020480D01*
X037377Y020480D02*
X037437Y020420D01*
X037501Y020420D02*
X037621Y020540D01*
X037621Y020570D01*
X037591Y020600D01*
X037531Y020600D01*
X037501Y020570D01*
X037501Y020420D02*
X037621Y020420D01*
X039439Y019498D02*
X039441Y019517D01*
X039447Y019536D01*
X039456Y019553D01*
X039469Y019568D01*
X039484Y019579D01*
X039502Y019588D01*
X039520Y019593D01*
X039540Y019594D01*
X039559Y019591D01*
X039577Y019584D01*
X039594Y019574D01*
X039608Y019561D01*
X039619Y019545D01*
X039627Y019527D01*
X039631Y019508D01*
X039631Y019488D01*
X039627Y019469D01*
X039619Y019451D01*
X039608Y019435D01*
X039594Y019422D01*
X039577Y019412D01*
X039559Y019405D01*
X039540Y019402D01*
X039520Y019403D01*
X039502Y019408D01*
X039484Y019417D01*
X039469Y019428D01*
X039456Y019443D01*
X039447Y019460D01*
X039441Y019479D01*
X039439Y019498D01*
X042065Y020360D02*
X042065Y020540D01*
X042125Y020480D01*
X042185Y020540D01*
X042185Y020360D01*
X042249Y020360D02*
X042249Y020540D01*
X042339Y020540D01*
X042369Y020510D01*
X042369Y020450D01*
X042339Y020420D01*
X042249Y020420D01*
X042309Y020420D02*
X042369Y020360D01*
X042433Y020390D02*
X042463Y020360D01*
X042523Y020360D01*
X042553Y020390D01*
X042553Y020450D01*
X042523Y020480D01*
X042493Y020480D01*
X042433Y020450D01*
X042433Y020540D01*
X042553Y020540D01*
X042535Y021076D02*
X042474Y021076D01*
X042444Y021106D01*
X042444Y021166D01*
X042535Y021166D01*
X042565Y021136D01*
X042565Y021106D01*
X042535Y021076D01*
X042444Y021166D02*
X042505Y021226D01*
X042565Y021256D01*
X042380Y021226D02*
X042380Y021166D01*
X042350Y021136D01*
X042260Y021136D01*
X042320Y021136D02*
X042380Y021076D01*
X042260Y021076D02*
X042260Y021256D01*
X042350Y021256D01*
X042380Y021226D01*
X042196Y021226D02*
X042166Y021256D01*
X042106Y021256D01*
X042076Y021226D01*
X042076Y021106D01*
X042106Y021076D01*
X042166Y021076D01*
X042196Y021106D01*
X036742Y023570D02*
X036622Y023570D01*
X036682Y023570D02*
X036682Y023750D01*
X036622Y023690D01*
X036558Y023750D02*
X036437Y023750D01*
X036497Y023750D02*
X036497Y023570D01*
X036373Y023600D02*
X036373Y023750D01*
X036253Y023750D02*
X036253Y023600D01*
X036283Y023570D01*
X036343Y023570D01*
X036373Y023600D01*
X036189Y023600D02*
X036189Y023720D01*
X036159Y023750D01*
X036099Y023750D01*
X036069Y023720D01*
X036069Y023600D01*
X036099Y023570D01*
X036159Y023570D01*
X036189Y023600D01*
X036005Y023570D02*
X035885Y023570D01*
X035885Y023750D01*
X034465Y023206D02*
X034465Y023086D01*
X034465Y023146D02*
X034285Y023146D01*
X034345Y023086D01*
X034375Y023022D02*
X034375Y022902D01*
X034465Y022902D02*
X034285Y022902D01*
X034285Y022838D02*
X034285Y022778D01*
X034285Y022808D02*
X034435Y022808D01*
X034465Y022778D01*
X034465Y022748D01*
X034435Y022718D01*
X034465Y022653D02*
X034405Y022593D01*
X034405Y022623D02*
X034405Y022533D01*
X034465Y022533D02*
X034285Y022533D01*
X034285Y022623D01*
X034315Y022653D01*
X034375Y022653D01*
X034405Y022623D01*
X034465Y023022D02*
X034285Y023022D01*
X030415Y022574D02*
X030415Y022454D01*
X030415Y022514D02*
X030235Y022514D01*
X030295Y022454D01*
X030235Y022390D02*
X030415Y022270D01*
X030415Y022390D02*
X030235Y022270D01*
X056185Y015650D02*
X056275Y015650D01*
X056305Y015620D01*
X056305Y015560D01*
X056275Y015530D01*
X056185Y015530D01*
X056245Y015530D02*
X056305Y015470D01*
X056369Y015500D02*
X056399Y015470D01*
X056459Y015470D01*
X056489Y015500D01*
X056489Y015530D01*
X056459Y015560D01*
X056429Y015560D01*
X056459Y015560D02*
X056489Y015590D01*
X056489Y015620D01*
X056459Y015650D01*
X056399Y015650D01*
X056369Y015620D01*
X056185Y015650D02*
X056185Y015470D01*
X056553Y015470D02*
X056553Y015500D01*
X056673Y015620D01*
X056673Y015650D01*
X056553Y015650D01*
X057385Y017318D02*
X057385Y017408D01*
X057415Y017438D01*
X057475Y017438D01*
X057505Y017408D01*
X057505Y017318D01*
X057505Y017378D02*
X057565Y017438D01*
X057565Y017502D02*
X057565Y017622D01*
X057565Y017562D02*
X057385Y017562D01*
X057445Y017502D01*
X057415Y017686D02*
X057385Y017716D01*
X057385Y017776D01*
X057415Y017806D01*
X057445Y017806D01*
X057565Y017686D01*
X057565Y017806D01*
X057565Y017318D02*
X057385Y017318D01*
X056865Y017370D02*
X056685Y017370D01*
X056685Y017460D01*
X056715Y017490D01*
X056775Y017490D01*
X056805Y017460D01*
X056805Y017370D01*
X056805Y017430D02*
X056865Y017490D01*
X056835Y017554D02*
X056865Y017584D01*
X056865Y017644D01*
X056835Y017674D01*
X056805Y017674D01*
X056775Y017644D01*
X056775Y017614D01*
X056775Y017644D02*
X056745Y017674D01*
X056715Y017674D01*
X056685Y017644D01*
X056685Y017584D01*
X056715Y017554D01*
X056775Y017738D02*
X056775Y017828D01*
X056805Y017858D01*
X056835Y017858D01*
X056865Y017828D01*
X056865Y017768D01*
X056835Y017738D01*
X056775Y017738D01*
X056715Y017798D01*
X056685Y017858D01*
X057005Y013310D02*
X057007Y013388D01*
X057013Y013465D01*
X057023Y013542D01*
X057037Y013618D01*
X057054Y013694D01*
X057076Y013769D01*
X057101Y013842D01*
X057130Y013914D01*
X057163Y013984D01*
X057199Y014053D01*
X057239Y014120D01*
X057282Y014184D01*
X057328Y014247D01*
X057377Y014307D01*
X057430Y014364D01*
X057485Y014419D01*
X057543Y014470D01*
X057604Y014519D01*
X057666Y014564D01*
X057732Y014607D01*
X057799Y014645D01*
X057868Y014681D01*
X057939Y014712D01*
X058011Y014741D01*
X058085Y014765D01*
X058160Y014785D01*
X058236Y014802D01*
X058312Y014815D01*
X058389Y014824D01*
X058467Y014829D01*
X058544Y014830D01*
X058622Y014827D01*
X058699Y014820D01*
X058776Y014809D01*
X058852Y014794D01*
X058928Y014776D01*
X059002Y014753D01*
X059075Y014727D01*
X059147Y014697D01*
X059217Y014663D01*
X059285Y014626D01*
X059351Y014586D01*
X059415Y014542D01*
X059477Y014495D01*
X059536Y014445D01*
X059593Y014392D01*
X059647Y014336D01*
X059698Y014277D01*
X059746Y014216D01*
X059790Y014152D01*
X059832Y014087D01*
X059870Y014019D01*
X059904Y013949D01*
X059935Y013878D01*
X059962Y013805D01*
X059985Y013731D01*
X060005Y013656D01*
X060021Y013580D01*
X060033Y013504D01*
X060041Y013426D01*
X060045Y013349D01*
X060045Y013271D01*
X060041Y013194D01*
X060033Y013116D01*
X060021Y013040D01*
X060005Y012964D01*
X059985Y012889D01*
X059962Y012815D01*
X059935Y012742D01*
X059904Y012671D01*
X059870Y012601D01*
X059832Y012533D01*
X059790Y012468D01*
X059746Y012404D01*
X059698Y012343D01*
X059647Y012284D01*
X059593Y012228D01*
X059536Y012175D01*
X059477Y012125D01*
X059415Y012078D01*
X059351Y012034D01*
X059285Y011994D01*
X059217Y011957D01*
X059147Y011923D01*
X059075Y011893D01*
X059002Y011867D01*
X058928Y011844D01*
X058852Y011826D01*
X058776Y011811D01*
X058699Y011800D01*
X058622Y011793D01*
X058544Y011790D01*
X058467Y011791D01*
X058389Y011796D01*
X058312Y011805D01*
X058236Y011818D01*
X058160Y011835D01*
X058085Y011855D01*
X058011Y011879D01*
X057939Y011908D01*
X057868Y011939D01*
X057799Y011975D01*
X057732Y012013D01*
X057666Y012056D01*
X057604Y012101D01*
X057543Y012150D01*
X057485Y012201D01*
X057430Y012256D01*
X057377Y012313D01*
X057328Y012373D01*
X057282Y012436D01*
X057239Y012500D01*
X057199Y012567D01*
X057163Y012636D01*
X057130Y012706D01*
X057101Y012778D01*
X057076Y012851D01*
X057054Y012926D01*
X057037Y013002D01*
X057023Y013078D01*
X057013Y013155D01*
X057007Y013232D01*
X057005Y013310D01*
X067994Y015570D02*
X068054Y015570D01*
X068024Y015570D02*
X068024Y015750D01*
X067994Y015750D02*
X068054Y015750D01*
X068117Y015720D02*
X068117Y015600D01*
X068147Y015570D01*
X068207Y015570D01*
X068237Y015600D01*
X068301Y015570D02*
X068421Y015570D01*
X068361Y015570D02*
X068361Y015750D01*
X068301Y015690D01*
X068237Y015720D02*
X068207Y015750D01*
X068147Y015750D01*
X068117Y015720D01*
X073735Y015654D02*
X073735Y015744D01*
X073765Y015774D01*
X073825Y015774D01*
X073855Y015744D01*
X073855Y015654D01*
X073915Y015654D02*
X073735Y015654D01*
X073765Y015590D02*
X073735Y015560D01*
X073735Y015500D01*
X073765Y015470D01*
X073885Y015470D01*
X073915Y015500D01*
X073915Y015560D01*
X073885Y015590D01*
X073885Y015838D02*
X073915Y015868D01*
X073915Y015928D01*
X073885Y015958D01*
X073855Y015958D01*
X073825Y015928D01*
X073825Y015898D01*
X073825Y015928D02*
X073795Y015958D01*
X073765Y015958D01*
X073735Y015928D01*
X073735Y015868D01*
X073765Y015838D01*
X075882Y018520D02*
X076003Y018520D01*
X076067Y018520D02*
X076067Y018700D01*
X076187Y018520D01*
X076187Y018700D01*
X076251Y018640D02*
X076311Y018700D01*
X076311Y018520D01*
X076251Y018520D02*
X076371Y018520D01*
X075882Y018520D02*
X075882Y018700D01*
X080290Y017835D02*
X080290Y017775D01*
X080320Y017745D01*
X080290Y017681D02*
X080470Y017681D01*
X080290Y017560D01*
X080470Y017560D01*
X080440Y017496D02*
X080470Y017466D01*
X080470Y017406D01*
X080440Y017376D01*
X080320Y017376D01*
X080290Y017406D01*
X080290Y017466D01*
X080320Y017496D01*
X080470Y017745D02*
X080350Y017865D01*
X080320Y017865D01*
X080290Y017835D01*
X080470Y017865D02*
X080470Y017745D01*
X084197Y016635D02*
X084377Y016635D01*
X084377Y016575D02*
X084377Y016695D01*
X084257Y016575D02*
X084197Y016635D01*
X084227Y016511D02*
X084287Y016511D01*
X084317Y016481D01*
X084317Y016391D01*
X084377Y016391D02*
X084197Y016391D01*
X084197Y016481D01*
X084227Y016511D01*
X084227Y016327D02*
X084197Y016297D01*
X084197Y016237D01*
X084227Y016207D01*
X084347Y016207D01*
X084377Y016237D01*
X084377Y016297D01*
X084347Y016327D01*
X084309Y013550D02*
X084309Y013430D01*
X084189Y013550D01*
X084159Y013550D01*
X084129Y013520D01*
X084129Y013460D01*
X084159Y013430D01*
X084159Y013365D02*
X084219Y013365D01*
X084249Y013335D01*
X084249Y013245D01*
X084309Y013245D02*
X084129Y013245D01*
X084129Y013335D01*
X084159Y013365D01*
X084159Y013181D02*
X084129Y013151D01*
X084129Y013091D01*
X084159Y013061D01*
X084279Y013061D01*
X084309Y013091D01*
X084309Y013151D01*
X084279Y013181D01*
X080621Y013420D02*
X080501Y013420D01*
X080561Y013420D02*
X080561Y013600D01*
X080501Y013540D01*
X080437Y013510D02*
X080407Y013480D01*
X080317Y013480D01*
X080317Y013420D02*
X080317Y013600D01*
X080407Y013600D01*
X080437Y013570D01*
X080437Y013510D01*
X080253Y013420D02*
X080132Y013420D01*
X080132Y013600D01*
X089825Y013360D02*
X091425Y013360D01*
X091425Y014860D01*
X089825Y014860D01*
X089825Y015360D02*
X091425Y015360D01*
X091425Y018860D01*
X089825Y018860D01*
X089825Y019360D02*
X091425Y019360D01*
X091425Y022860D01*
X089825Y022860D01*
X089825Y023360D02*
X091425Y023360D01*
X091425Y026860D01*
X089825Y026860D01*
X089825Y027360D02*
X091425Y027360D01*
X091425Y030860D01*
X089825Y030860D01*
X089825Y031360D02*
X091425Y031360D01*
X091425Y034860D01*
X089825Y034860D01*
X089825Y035360D02*
X091425Y035360D01*
X091425Y038860D01*
X089825Y038860D01*
X089825Y039360D02*
X091425Y039360D01*
X091425Y040860D01*
X089825Y040860D01*
X089825Y041360D02*
X091425Y041360D01*
X091425Y042360D01*
X089825Y042360D01*
X082465Y040876D02*
X082465Y040816D01*
X082435Y040786D01*
X082375Y040786D01*
X082375Y040876D01*
X082405Y040906D01*
X082435Y040906D01*
X082465Y040876D01*
X082375Y040786D02*
X082315Y040846D01*
X082285Y040906D01*
X082285Y040662D02*
X082465Y040662D01*
X082465Y040602D02*
X082465Y040722D01*
X082345Y040602D02*
X082285Y040662D01*
X082315Y040538D02*
X082375Y040538D01*
X082405Y040508D01*
X082405Y040418D01*
X082405Y040478D02*
X082465Y040538D01*
X082465Y040418D02*
X082285Y040418D01*
X082285Y040508D01*
X082315Y040538D01*
X081765Y041270D02*
X081585Y041270D01*
X081585Y041360D01*
X081615Y041390D01*
X081675Y041390D01*
X081705Y041360D01*
X081705Y041270D01*
X081705Y041330D02*
X081765Y041390D01*
X081765Y041454D02*
X081765Y041574D01*
X081765Y041514D02*
X081585Y041514D01*
X081645Y041454D01*
X081675Y041638D02*
X081645Y041698D01*
X081645Y041728D01*
X081675Y041758D01*
X081735Y041758D01*
X081765Y041728D01*
X081765Y041668D01*
X081735Y041638D01*
X081675Y041638D02*
X081585Y041638D01*
X081585Y041758D01*
X081553Y041970D02*
X081553Y042000D01*
X081673Y042120D01*
X081673Y042150D01*
X081553Y042150D01*
X081429Y042150D02*
X081429Y041970D01*
X081369Y041970D02*
X081489Y041970D01*
X081369Y042090D02*
X081429Y042150D01*
X081305Y042120D02*
X081305Y042060D01*
X081275Y042030D01*
X081185Y042030D01*
X081245Y042030D02*
X081305Y041970D01*
X081185Y041970D02*
X081185Y042150D01*
X081275Y042150D01*
X081305Y042120D01*
X081285Y042470D02*
X081285Y042650D01*
X081375Y042650D01*
X081405Y042620D01*
X081405Y042560D01*
X081375Y042530D01*
X081285Y042530D01*
X081345Y042530D02*
X081405Y042470D01*
X081469Y042470D02*
X081589Y042590D01*
X081589Y042620D01*
X081559Y042650D01*
X081499Y042650D01*
X081469Y042620D01*
X081469Y042470D02*
X081589Y042470D01*
X081653Y042470D02*
X081773Y042590D01*
X081773Y042620D01*
X081743Y042650D01*
X081683Y042650D01*
X081653Y042620D01*
X081653Y042470D02*
X081773Y042470D01*
X080065Y041558D02*
X080065Y041438D01*
X080065Y041498D02*
X079885Y041498D01*
X079945Y041438D01*
X079945Y041374D02*
X079915Y041374D01*
X079885Y041344D01*
X079885Y041284D01*
X079915Y041254D01*
X079915Y041190D02*
X079975Y041190D01*
X080005Y041160D01*
X080005Y041070D01*
X080065Y041070D02*
X079885Y041070D01*
X079885Y041160D01*
X079915Y041190D01*
X080005Y041130D02*
X080065Y041190D01*
X080065Y041254D02*
X079945Y041374D01*
X080065Y041374D02*
X080065Y041254D01*
X079896Y040667D02*
X079926Y040637D01*
X079926Y040607D01*
X079896Y040577D01*
X079836Y040577D01*
X079806Y040607D01*
X079806Y040637D01*
X079836Y040667D01*
X079896Y040667D01*
X079896Y040577D02*
X079926Y040547D01*
X079926Y040517D01*
X079896Y040487D01*
X079836Y040487D01*
X079806Y040517D01*
X079806Y040547D01*
X079836Y040577D01*
X079742Y040607D02*
X079742Y040637D01*
X079712Y040667D01*
X079652Y040667D01*
X079622Y040637D01*
X079558Y040637D02*
X079528Y040667D01*
X079468Y040667D01*
X079438Y040637D01*
X079438Y040517D01*
X079468Y040487D01*
X079528Y040487D01*
X079558Y040517D01*
X079622Y040487D02*
X079742Y040607D01*
X079742Y040487D02*
X079622Y040487D01*
X080485Y039676D02*
X080515Y039706D01*
X080635Y039586D01*
X080665Y039616D01*
X080665Y039676D01*
X080635Y039706D01*
X080515Y039706D01*
X080485Y039676D02*
X080485Y039616D01*
X080515Y039586D01*
X080635Y039586D01*
X080635Y039522D02*
X080665Y039492D01*
X080665Y039432D01*
X080635Y039402D01*
X080515Y039522D01*
X080635Y039522D01*
X080515Y039522D02*
X080485Y039492D01*
X080485Y039432D01*
X080515Y039402D01*
X080635Y039402D01*
X080665Y039338D02*
X080665Y039218D01*
X080665Y039278D02*
X080485Y039278D01*
X080545Y039218D01*
X080575Y039153D02*
X080605Y039123D01*
X080605Y039033D01*
X080665Y039033D02*
X080485Y039033D01*
X080485Y039123D01*
X080515Y039153D01*
X080575Y039153D01*
X080605Y039093D02*
X080665Y039153D01*
X081185Y039118D02*
X081185Y039208D01*
X081215Y039238D01*
X081275Y039238D01*
X081305Y039208D01*
X081305Y039118D01*
X081305Y039178D02*
X081365Y039238D01*
X081365Y039302D02*
X081365Y039422D01*
X081365Y039362D02*
X081185Y039362D01*
X081245Y039302D01*
X081275Y039486D02*
X081275Y039606D01*
X081365Y039576D02*
X081185Y039576D01*
X081275Y039486D01*
X081365Y039118D02*
X081185Y039118D01*
X077865Y037376D02*
X077865Y037316D01*
X077835Y037286D01*
X077775Y037286D02*
X077745Y037346D01*
X077745Y037376D01*
X077775Y037406D01*
X077835Y037406D01*
X077865Y037376D01*
X077775Y037286D02*
X077685Y037286D01*
X077685Y037406D01*
X077715Y037222D02*
X077685Y037192D01*
X077685Y037132D01*
X077715Y037102D01*
X077715Y037038D02*
X077775Y037038D01*
X077805Y037008D01*
X077805Y036918D01*
X077805Y036978D02*
X077865Y037038D01*
X077865Y037102D02*
X077745Y037222D01*
X077715Y037222D01*
X077865Y037222D02*
X077865Y037102D01*
X077715Y037038D02*
X077685Y037008D01*
X077685Y036918D01*
X077865Y036918D01*
X077909Y035933D02*
X077879Y035903D01*
X077879Y035783D01*
X077909Y035753D01*
X077969Y035753D01*
X077999Y035783D01*
X078063Y035753D02*
X078184Y035753D01*
X078248Y035783D02*
X078278Y035753D01*
X078338Y035753D01*
X078368Y035783D01*
X078368Y035903D01*
X078338Y035933D01*
X078278Y035933D01*
X078248Y035903D01*
X078248Y035873D01*
X078278Y035843D01*
X078368Y035843D01*
X078063Y035933D02*
X078063Y035753D01*
X077999Y035903D02*
X077969Y035933D01*
X077909Y035933D01*
X076965Y036306D02*
X076965Y036426D01*
X076935Y036456D01*
X076874Y036456D01*
X076844Y036426D01*
X076844Y036396D01*
X076874Y036366D01*
X076965Y036366D01*
X076965Y036306D02*
X076935Y036276D01*
X076874Y036276D01*
X076844Y036306D01*
X076780Y036276D02*
X076720Y036336D01*
X076750Y036336D02*
X076660Y036336D01*
X076660Y036276D02*
X076660Y036456D01*
X076750Y036456D01*
X076780Y036426D01*
X076780Y036366D01*
X076750Y036336D01*
X076596Y036306D02*
X076566Y036276D01*
X076506Y036276D01*
X076476Y036306D01*
X076476Y036426D01*
X076506Y036456D01*
X076566Y036456D01*
X076596Y036426D01*
X073695Y036520D02*
X073695Y036550D01*
X073665Y036580D01*
X073515Y036580D01*
X073515Y036550D02*
X073515Y036610D01*
X073515Y036674D02*
X073515Y036764D01*
X073545Y036794D01*
X073605Y036794D01*
X073635Y036764D01*
X073635Y036674D01*
X073695Y036674D02*
X073515Y036674D01*
X073545Y036858D02*
X073515Y036888D01*
X073515Y036948D01*
X073545Y036978D01*
X073575Y036978D01*
X073605Y036948D01*
X073635Y036978D01*
X073665Y036978D01*
X073695Y036948D01*
X073695Y036888D01*
X073665Y036858D01*
X073605Y036918D02*
X073605Y036948D01*
X073695Y036520D02*
X073665Y036490D01*
X069595Y037520D02*
X069595Y037550D01*
X069565Y037580D01*
X069415Y037580D01*
X069415Y037550D02*
X069415Y037610D01*
X069415Y037674D02*
X069415Y037764D01*
X069445Y037794D01*
X069505Y037794D01*
X069535Y037764D01*
X069535Y037674D01*
X069595Y037674D02*
X069415Y037674D01*
X069475Y037858D02*
X069415Y037918D01*
X069595Y037918D01*
X069595Y037858D02*
X069595Y037978D01*
X069595Y037520D02*
X069565Y037490D01*
X067462Y035850D02*
X067402Y035820D01*
X067342Y035760D01*
X067432Y035760D01*
X067462Y035730D01*
X067462Y035700D01*
X067432Y035670D01*
X067372Y035670D01*
X067342Y035700D01*
X067342Y035760D01*
X067278Y035700D02*
X067248Y035670D01*
X067188Y035670D01*
X067158Y035700D01*
X067158Y035820D01*
X067188Y035850D01*
X067248Y035850D01*
X067278Y035820D01*
X067095Y035850D02*
X067035Y035850D01*
X067065Y035850D02*
X067065Y035670D01*
X067035Y035670D02*
X067095Y035670D01*
X066068Y035403D02*
X066038Y035433D01*
X065978Y035433D01*
X065948Y035403D01*
X065948Y035373D01*
X065978Y035343D01*
X066068Y035343D01*
X066068Y035283D02*
X066068Y035403D01*
X066068Y035283D02*
X066038Y035253D01*
X065978Y035253D01*
X065948Y035283D01*
X065884Y035253D02*
X065763Y035253D01*
X065884Y035373D01*
X065884Y035403D01*
X065854Y035433D01*
X065793Y035433D01*
X065763Y035403D01*
X065699Y035403D02*
X065669Y035433D01*
X065609Y035433D01*
X065579Y035403D01*
X065579Y035283D01*
X065609Y035253D01*
X065669Y035253D01*
X065699Y035283D01*
X065669Y038353D02*
X065699Y038383D01*
X065669Y038353D02*
X065609Y038353D01*
X065579Y038383D01*
X065579Y038503D01*
X065609Y038533D01*
X065669Y038533D01*
X065699Y038503D01*
X065763Y038533D02*
X065854Y038533D01*
X065884Y038503D01*
X065884Y038383D01*
X065854Y038353D01*
X065763Y038353D01*
X065763Y038533D01*
X065948Y038533D02*
X066068Y038533D01*
X066068Y038503D01*
X065948Y038383D01*
X065948Y038353D01*
X065965Y039202D02*
X065785Y039202D01*
X065785Y039292D01*
X065815Y039322D01*
X065875Y039322D01*
X065905Y039292D01*
X065905Y039202D01*
X065905Y039262D02*
X065965Y039322D01*
X065935Y039386D02*
X065965Y039416D01*
X065965Y039476D01*
X065935Y039506D01*
X065815Y039506D01*
X065785Y039476D01*
X065785Y039416D01*
X065815Y039386D01*
X065845Y039386D01*
X065875Y039416D01*
X065875Y039506D01*
X065365Y039770D02*
X065185Y039770D01*
X065185Y039860D01*
X065215Y039890D01*
X065275Y039890D01*
X065305Y039860D01*
X065305Y039770D01*
X065305Y039830D02*
X065365Y039890D01*
X065335Y039954D02*
X065365Y039984D01*
X065365Y040044D01*
X065335Y040074D01*
X065305Y040074D01*
X065275Y040044D01*
X065275Y040014D01*
X065275Y040044D02*
X065245Y040074D01*
X065215Y040074D01*
X065185Y040044D01*
X065185Y039984D01*
X065215Y039954D01*
X064965Y039974D02*
X064965Y039854D01*
X064965Y039914D02*
X064785Y039914D01*
X064845Y039854D01*
X064875Y039790D02*
X064905Y039760D01*
X064905Y039670D01*
X064965Y039670D02*
X064785Y039670D01*
X064785Y039760D01*
X064815Y039790D01*
X064875Y039790D01*
X064905Y039730D02*
X064965Y039790D01*
X064935Y040038D02*
X064815Y040158D01*
X064935Y040158D01*
X064965Y040128D01*
X064965Y040068D01*
X064935Y040038D01*
X064815Y040038D01*
X064785Y040068D01*
X064785Y040128D01*
X064815Y040158D01*
X066102Y041510D02*
X066132Y041480D01*
X066252Y041480D01*
X066282Y041510D01*
X066282Y041570D01*
X066252Y041600D01*
X066282Y041664D02*
X066282Y041784D01*
X066282Y041849D02*
X066282Y041969D01*
X066282Y041909D02*
X066102Y041909D01*
X066162Y041849D01*
X066162Y042033D02*
X066102Y042093D01*
X066282Y042093D01*
X066282Y042033D02*
X066282Y042153D01*
X066282Y041664D02*
X066102Y041664D01*
X066132Y041600D02*
X066102Y041570D01*
X066102Y041510D01*
X065159Y042570D02*
X065099Y042570D01*
X065069Y042600D01*
X065069Y042630D01*
X065099Y042660D01*
X065159Y042660D01*
X065189Y042630D01*
X065189Y042600D01*
X065159Y042570D01*
X065159Y042660D02*
X065189Y042690D01*
X065189Y042720D01*
X065159Y042750D01*
X065099Y042750D01*
X065069Y042720D01*
X065069Y042690D01*
X065099Y042660D01*
X065005Y042660D02*
X064975Y042630D01*
X064885Y042630D01*
X064945Y042630D02*
X065005Y042570D01*
X065005Y042660D02*
X065005Y042720D01*
X064975Y042750D01*
X064885Y042750D01*
X064885Y042570D01*
X066002Y043510D02*
X066032Y043480D01*
X066152Y043480D01*
X066182Y043510D01*
X066182Y043570D01*
X066152Y043600D01*
X066182Y043664D02*
X066002Y043664D01*
X066032Y043600D02*
X066002Y043570D01*
X066002Y043510D01*
X066182Y043664D02*
X066182Y043784D01*
X066182Y043849D02*
X066182Y043969D01*
X066182Y043909D02*
X066002Y043909D01*
X066062Y043849D01*
X066032Y044033D02*
X066002Y044063D01*
X066002Y044123D01*
X066032Y044153D01*
X066152Y044033D01*
X066182Y044063D01*
X066182Y044123D01*
X066152Y044153D01*
X066032Y044153D01*
X066032Y044033D02*
X066152Y044033D01*
X065089Y044720D02*
X064969Y044600D01*
X064969Y044570D01*
X064905Y044570D02*
X064845Y044630D01*
X064875Y044630D02*
X064785Y044630D01*
X064785Y044570D02*
X064785Y044750D01*
X064875Y044750D01*
X064905Y044720D01*
X064905Y044660D01*
X064875Y044630D01*
X064969Y044750D02*
X065089Y044750D01*
X065089Y044720D01*
X062235Y044686D02*
X062235Y044566D01*
X062115Y044686D01*
X062085Y044686D01*
X062055Y044656D01*
X062055Y044596D01*
X062085Y044566D01*
X062085Y044502D02*
X062145Y044502D01*
X062175Y044472D01*
X062175Y044382D01*
X062235Y044382D02*
X062055Y044382D01*
X062055Y044472D01*
X062085Y044502D01*
X062055Y044318D02*
X062055Y044258D01*
X062055Y044288D02*
X062205Y044288D01*
X062235Y044258D01*
X062235Y044228D01*
X062205Y044198D01*
X053821Y042450D02*
X053701Y042450D01*
X053701Y042360D01*
X053761Y042390D01*
X053791Y042390D01*
X053821Y042360D01*
X053821Y042300D01*
X053791Y042270D01*
X053731Y042270D01*
X053701Y042300D01*
X053637Y042300D02*
X053607Y042270D01*
X053547Y042270D01*
X053517Y042300D01*
X053453Y042270D02*
X053393Y042330D01*
X053423Y042330D02*
X053332Y042330D01*
X053332Y042270D02*
X053332Y042450D01*
X053423Y042450D01*
X053453Y042420D01*
X053453Y042360D01*
X053423Y042330D01*
X053517Y042420D02*
X053547Y042450D01*
X053607Y042450D01*
X053637Y042420D01*
X053637Y042390D01*
X053607Y042360D01*
X053637Y042330D01*
X053637Y042300D01*
X053607Y042360D02*
X053577Y042360D01*
X053607Y041450D02*
X053637Y041420D01*
X053637Y041390D01*
X053607Y041360D01*
X053637Y041330D01*
X053637Y041300D01*
X053607Y041270D01*
X053547Y041270D01*
X053517Y041300D01*
X053453Y041270D02*
X053393Y041330D01*
X053423Y041330D02*
X053332Y041330D01*
X053332Y041270D02*
X053332Y041450D01*
X053423Y041450D01*
X053453Y041420D01*
X053453Y041360D01*
X053423Y041330D01*
X053517Y041420D02*
X053547Y041450D01*
X053607Y041450D01*
X053607Y041360D02*
X053577Y041360D01*
X053701Y041360D02*
X053821Y041360D01*
X053791Y041270D02*
X053791Y041450D01*
X053701Y041360D01*
X053731Y040450D02*
X053791Y040450D01*
X053821Y040420D01*
X053821Y040390D01*
X053791Y040360D01*
X053821Y040330D01*
X053821Y040300D01*
X053791Y040270D01*
X053731Y040270D01*
X053701Y040300D01*
X053637Y040300D02*
X053607Y040270D01*
X053547Y040270D01*
X053517Y040300D01*
X053453Y040270D02*
X053393Y040330D01*
X053423Y040330D02*
X053332Y040330D01*
X053332Y040270D02*
X053332Y040450D01*
X053423Y040450D01*
X053453Y040420D01*
X053453Y040360D01*
X053423Y040330D01*
X053517Y040420D02*
X053547Y040450D01*
X053607Y040450D01*
X053637Y040420D01*
X053637Y040390D01*
X053607Y040360D01*
X053637Y040330D01*
X053637Y040300D01*
X053607Y040360D02*
X053577Y040360D01*
X053701Y040420D02*
X053731Y040450D01*
X053761Y040360D02*
X053791Y040360D01*
X053791Y039450D02*
X053731Y039450D01*
X053701Y039420D01*
X053637Y039420D02*
X053637Y039390D01*
X053607Y039360D01*
X053637Y039330D01*
X053637Y039300D01*
X053607Y039270D01*
X053547Y039270D01*
X053517Y039300D01*
X053453Y039270D02*
X053393Y039330D01*
X053423Y039330D02*
X053332Y039330D01*
X053332Y039270D02*
X053332Y039450D01*
X053423Y039450D01*
X053453Y039420D01*
X053453Y039360D01*
X053423Y039330D01*
X053517Y039420D02*
X053547Y039450D01*
X053607Y039450D01*
X053637Y039420D01*
X053607Y039360D02*
X053577Y039360D01*
X053701Y039270D02*
X053821Y039390D01*
X053821Y039420D01*
X053791Y039450D01*
X053821Y039270D02*
X053701Y039270D01*
X049095Y041120D02*
X049095Y041150D01*
X049065Y041180D01*
X048915Y041180D01*
X048915Y041150D02*
X048915Y041210D01*
X048915Y041274D02*
X048915Y041364D01*
X048945Y041394D01*
X049005Y041394D01*
X049035Y041364D01*
X049035Y041274D01*
X049095Y041274D02*
X048915Y041274D01*
X049005Y041458D02*
X049005Y041578D01*
X049095Y041548D02*
X048915Y041548D01*
X049005Y041458D01*
X049095Y041120D02*
X049065Y041090D01*
X037571Y037620D02*
X037451Y037620D01*
X037511Y037620D02*
X037511Y037800D01*
X037451Y037740D01*
X037387Y037800D02*
X037267Y037800D01*
X037327Y037800D02*
X037327Y037620D01*
X035591Y039870D02*
X035531Y039870D01*
X035501Y039900D01*
X035621Y040020D01*
X035621Y039900D01*
X035591Y039870D01*
X035501Y039900D02*
X035501Y040020D01*
X035531Y040050D01*
X035591Y040050D01*
X035621Y040020D01*
X035437Y040020D02*
X035437Y039990D01*
X035407Y039960D01*
X035437Y039930D01*
X035437Y039900D01*
X035407Y039870D01*
X035347Y039870D01*
X035317Y039900D01*
X035253Y039870D02*
X035193Y039930D01*
X035223Y039930D02*
X035132Y039930D01*
X035132Y039870D02*
X035132Y040050D01*
X035223Y040050D01*
X035253Y040020D01*
X035253Y039960D01*
X035223Y039930D01*
X035317Y040020D02*
X035347Y040050D01*
X035407Y040050D01*
X035437Y040020D01*
X035407Y039960D02*
X035377Y039960D01*
X035407Y041870D02*
X035347Y041870D01*
X035317Y041900D01*
X035253Y041870D02*
X035193Y041930D01*
X035223Y041930D02*
X035132Y041930D01*
X035132Y041870D02*
X035132Y042050D01*
X035223Y042050D01*
X035253Y042020D01*
X035253Y041960D01*
X035223Y041930D01*
X035317Y042020D02*
X035347Y042050D01*
X035407Y042050D01*
X035437Y042020D01*
X035437Y041990D01*
X035407Y041960D01*
X035437Y041930D01*
X035437Y041900D01*
X035407Y041870D01*
X035407Y041960D02*
X035377Y041960D01*
X035501Y041990D02*
X035561Y042050D01*
X035561Y041870D01*
X035501Y041870D02*
X035621Y041870D01*
X067035Y020017D02*
X067035Y019957D01*
X067065Y019927D01*
X067065Y019863D02*
X067035Y019833D01*
X067035Y019773D01*
X067065Y019743D01*
X067185Y019743D01*
X067215Y019773D01*
X067215Y019833D01*
X067185Y019863D01*
X067215Y019927D02*
X067095Y020047D01*
X067065Y020047D01*
X067035Y020017D01*
X067215Y020047D02*
X067215Y019927D01*
X067215Y019680D02*
X067215Y019620D01*
X067215Y019650D02*
X067035Y019650D01*
X067035Y019620D02*
X067035Y019680D01*
X075385Y022448D02*
X075415Y022418D01*
X075535Y022418D01*
X075565Y022448D01*
X075565Y022508D01*
X075535Y022538D01*
X075565Y022602D02*
X075385Y022602D01*
X075565Y022722D01*
X075385Y022722D01*
X075415Y022786D02*
X075385Y022816D01*
X075385Y022876D01*
X075415Y022906D01*
X075445Y022906D01*
X075475Y022876D01*
X075505Y022906D01*
X075535Y022906D01*
X075565Y022876D01*
X075565Y022816D01*
X075535Y022786D01*
X075475Y022846D02*
X075475Y022876D01*
X075415Y022538D02*
X075385Y022508D01*
X075385Y022448D01*
X080323Y021059D02*
X080503Y021059D01*
X080503Y020999D02*
X080503Y021119D01*
X080383Y020999D02*
X080323Y021059D01*
X080323Y020935D02*
X080503Y020935D01*
X080323Y020815D01*
X080503Y020815D01*
X080473Y020751D02*
X080503Y020721D01*
X080503Y020661D01*
X080473Y020631D01*
X080353Y020631D01*
X080323Y020661D01*
X080323Y020721D01*
X080353Y020751D01*
X089825Y012860D02*
X091425Y012860D01*
X091425Y011860D01*
X089825Y011860D01*
X093135Y010894D02*
X093135Y010834D01*
X093165Y010804D01*
X093135Y010740D02*
X093135Y010680D01*
X093135Y010710D02*
X093285Y010710D01*
X093315Y010680D01*
X093315Y010650D01*
X093285Y010620D01*
X093315Y010804D02*
X093195Y010924D01*
X093165Y010924D01*
X093135Y010894D01*
X093315Y010924D02*
X093315Y010804D01*
X082493Y029970D02*
X082433Y029970D01*
X082403Y030000D01*
X082403Y030030D01*
X082433Y030060D01*
X082493Y030060D01*
X082523Y030030D01*
X082523Y030000D01*
X082493Y029970D01*
X082493Y030060D02*
X082523Y030090D01*
X082523Y030120D01*
X082493Y030150D01*
X082433Y030150D01*
X082403Y030120D01*
X082403Y030090D01*
X082433Y030060D01*
X082339Y030030D02*
X082339Y030000D01*
X082309Y029970D01*
X082249Y029970D01*
X082219Y030000D01*
X082155Y029970D02*
X082095Y030030D01*
X082125Y030030D02*
X082035Y030030D01*
X082035Y029970D02*
X082035Y030150D01*
X082125Y030150D01*
X082155Y030120D01*
X082155Y030060D01*
X082125Y030030D01*
X082219Y030120D02*
X082249Y030150D01*
X082309Y030150D01*
X082339Y030120D01*
X082339Y030090D01*
X082309Y030060D01*
X082339Y030030D01*
X082309Y030060D02*
X082279Y030060D01*
X082065Y030720D02*
X081885Y030720D01*
X081885Y030810D01*
X081915Y030840D01*
X081975Y030840D01*
X082005Y030810D01*
X082005Y030720D01*
X082005Y030780D02*
X082065Y030840D01*
X081975Y030904D02*
X081975Y031024D01*
X081915Y031088D02*
X081885Y031118D01*
X081885Y031178D01*
X081915Y031208D01*
X081945Y031208D01*
X082065Y031088D01*
X082065Y031208D01*
X082065Y030994D02*
X081885Y030994D01*
X081975Y030904D01*
X080415Y031970D02*
X080235Y031970D01*
X080235Y032060D01*
X080265Y032090D01*
X080325Y032090D01*
X080355Y032060D01*
X080355Y031970D01*
X080355Y032030D02*
X080415Y032090D01*
X080325Y032154D02*
X080325Y032274D01*
X080325Y032338D02*
X080325Y032428D01*
X080355Y032458D01*
X080385Y032458D01*
X080415Y032428D01*
X080415Y032368D01*
X080385Y032338D01*
X080325Y032338D01*
X080265Y032398D01*
X080235Y032458D01*
X080235Y032244D02*
X080325Y032154D01*
X080415Y032244D02*
X080235Y032244D01*
X079573Y032250D02*
X079573Y032220D01*
X079453Y032100D01*
X079453Y032070D01*
X079389Y032070D02*
X079269Y032070D01*
X079389Y032190D01*
X079389Y032220D01*
X079359Y032250D01*
X079299Y032250D01*
X079269Y032220D01*
X079205Y032220D02*
X079205Y032160D01*
X079175Y032130D01*
X079085Y032130D01*
X079145Y032130D02*
X079205Y032070D01*
X079085Y032070D02*
X079085Y032250D01*
X079175Y032250D01*
X079205Y032220D01*
X079453Y032250D02*
X079573Y032250D01*
X079135Y031106D02*
X079105Y031106D01*
X079075Y031076D01*
X079075Y030986D01*
X079135Y030986D01*
X079165Y031016D01*
X079165Y031076D01*
X079135Y031106D01*
X079015Y031046D02*
X079075Y030986D01*
X079045Y030922D02*
X079015Y030922D01*
X078985Y030892D01*
X078985Y030832D01*
X079015Y030802D01*
X079015Y030738D02*
X079075Y030738D01*
X079105Y030708D01*
X079105Y030618D01*
X079105Y030678D02*
X079165Y030738D01*
X079165Y030802D02*
X079045Y030922D01*
X079165Y030922D02*
X079165Y030802D01*
X079015Y030738D02*
X078985Y030708D01*
X078985Y030618D01*
X079165Y030618D01*
X079015Y031046D02*
X078985Y031106D01*
X084032Y034170D02*
X084032Y034350D01*
X084123Y034350D01*
X084153Y034320D01*
X084153Y034260D01*
X084123Y034230D01*
X084032Y034230D01*
X084093Y034230D02*
X084153Y034170D01*
X084217Y034170D02*
X084337Y034170D01*
X084277Y034170D02*
X084277Y034350D01*
X084217Y034290D01*
X084401Y034290D02*
X084401Y034320D01*
X084431Y034350D01*
X084491Y034350D01*
X084521Y034320D01*
X084521Y034290D01*
X084491Y034260D01*
X084431Y034260D01*
X084401Y034290D01*
X084431Y034260D02*
X084401Y034230D01*
X084401Y034200D01*
X084431Y034170D01*
X084491Y034170D01*
X084521Y034200D01*
X084521Y034230D01*
X084491Y034260D01*
X083506Y035687D02*
X083506Y035717D01*
X083626Y035837D01*
X083626Y035867D01*
X083506Y035867D01*
X083442Y035837D02*
X083412Y035867D01*
X083352Y035867D01*
X083322Y035837D01*
X083258Y035837D02*
X083228Y035867D01*
X083168Y035867D01*
X083138Y035837D01*
X083138Y035717D01*
X083168Y035687D01*
X083228Y035687D01*
X083258Y035717D01*
X083322Y035687D02*
X083442Y035807D01*
X083442Y035837D01*
X083442Y035687D02*
X083322Y035687D01*
X084212Y036310D02*
X084212Y036490D01*
X084303Y036490D01*
X084333Y036460D01*
X084333Y036400D01*
X084303Y036370D01*
X084212Y036370D01*
X084273Y036370D02*
X084333Y036310D01*
X084397Y036310D02*
X084517Y036310D01*
X084457Y036310D02*
X084457Y036490D01*
X084397Y036430D01*
X084581Y036430D02*
X084611Y036400D01*
X084701Y036400D01*
X084701Y036340D02*
X084701Y036460D01*
X084671Y036490D01*
X084611Y036490D01*
X084581Y036460D01*
X084581Y036430D01*
X084581Y036340D02*
X084611Y036310D01*
X084671Y036310D01*
X084701Y036340D01*
X080672Y035800D02*
X080552Y035800D01*
X080552Y035710D01*
X080612Y035740D01*
X080642Y035740D01*
X080672Y035710D01*
X080672Y035650D01*
X080642Y035620D01*
X080582Y035620D01*
X080552Y035650D01*
X080488Y035650D02*
X080458Y035620D01*
X080398Y035620D01*
X080368Y035650D01*
X080368Y035770D01*
X080398Y035800D01*
X080458Y035800D01*
X080488Y035770D01*
X080305Y035800D02*
X080245Y035800D01*
X080275Y035800D02*
X080275Y035620D01*
X080245Y035620D02*
X080305Y035620D01*
X079558Y042566D02*
X079558Y042656D01*
X079528Y042686D01*
X079408Y042686D01*
X079378Y042656D01*
X079378Y042566D01*
X079558Y042566D01*
X079558Y042750D02*
X079438Y042870D01*
X079408Y042870D01*
X079378Y042840D01*
X079378Y042780D01*
X079408Y042750D01*
X079558Y042750D02*
X079558Y042870D01*
D15*
X071830Y018376D02*
X067819Y018376D01*
X071609Y015116D02*
X071609Y011104D01*
X034032Y012246D02*
X028461Y012246D01*
X028461Y017974D01*
X034032Y017974D01*
X034032Y012246D01*
X028421Y012590D02*
X025016Y012590D01*
X025016Y017630D01*
X028431Y017630D01*
X024977Y017039D02*
X020114Y017039D01*
X020114Y013181D01*
X024967Y013181D01*
X025016Y020590D02*
X025016Y025630D01*
X028431Y025630D01*
X028461Y025974D02*
X028461Y020246D01*
X034032Y020246D01*
X034032Y025974D01*
X028461Y025974D01*
X028461Y028246D02*
X034032Y028246D01*
X034032Y033974D01*
X028461Y033974D01*
X028461Y028246D01*
X028421Y028590D02*
X025016Y028590D01*
X025016Y033630D01*
X028431Y033630D01*
X024977Y033039D02*
X020114Y033039D01*
X020114Y029181D01*
X024967Y029181D01*
X024977Y025039D02*
X020114Y025039D01*
X020114Y021181D01*
X024967Y021181D01*
X025016Y020590D02*
X028421Y020590D01*
D16*
X071905Y014110D03*
X071905Y013110D03*
X071905Y012110D03*
D17*
X058725Y015110D02*
X058725Y015410D01*
X058325Y015410D01*
X058325Y015110D01*
X056725Y013310D02*
X056727Y013394D01*
X056733Y013479D01*
X056743Y013562D01*
X056757Y013646D01*
X056774Y013728D01*
X056796Y013810D01*
X056821Y013890D01*
X056850Y013969D01*
X056883Y014047D01*
X056919Y014123D01*
X056959Y014198D01*
X057003Y014270D01*
X057049Y014341D01*
X057099Y014409D01*
X057152Y014474D01*
X057208Y014537D01*
X057267Y014598D01*
X057329Y014655D01*
X057393Y014710D01*
X057460Y014761D01*
X057529Y014810D01*
X057601Y014855D01*
X057674Y014896D01*
X057749Y014934D01*
X057826Y014969D01*
X057905Y015000D01*
X057985Y015027D01*
X058066Y015050D01*
X058148Y015070D01*
X058231Y015086D01*
X058314Y015098D01*
X058399Y015106D01*
X058483Y015110D01*
X058567Y015110D01*
X058651Y015106D01*
X058736Y015098D01*
X058819Y015086D01*
X058902Y015070D01*
X058984Y015050D01*
X059065Y015027D01*
X059145Y015000D01*
X059224Y014969D01*
X059301Y014934D01*
X059376Y014896D01*
X059449Y014855D01*
X059521Y014810D01*
X059590Y014761D01*
X059657Y014710D01*
X059721Y014655D01*
X059783Y014598D01*
X059842Y014537D01*
X059898Y014474D01*
X059951Y014409D01*
X060001Y014341D01*
X060047Y014270D01*
X060091Y014198D01*
X060131Y014123D01*
X060167Y014047D01*
X060200Y013969D01*
X060229Y013890D01*
X060254Y013810D01*
X060276Y013728D01*
X060293Y013646D01*
X060307Y013562D01*
X060317Y013479D01*
X060323Y013394D01*
X060325Y013310D01*
X060323Y013226D01*
X060317Y013141D01*
X060307Y013058D01*
X060293Y012974D01*
X060276Y012892D01*
X060254Y012810D01*
X060229Y012730D01*
X060200Y012651D01*
X060167Y012573D01*
X060131Y012497D01*
X060091Y012422D01*
X060047Y012350D01*
X060001Y012279D01*
X059951Y012211D01*
X059898Y012146D01*
X059842Y012083D01*
X059783Y012022D01*
X059721Y011965D01*
X059657Y011910D01*
X059590Y011859D01*
X059521Y011810D01*
X059449Y011765D01*
X059376Y011724D01*
X059301Y011686D01*
X059224Y011651D01*
X059145Y011620D01*
X059065Y011593D01*
X058984Y011570D01*
X058902Y011550D01*
X058819Y011534D01*
X058736Y011522D01*
X058651Y011514D01*
X058567Y011510D01*
X058483Y011510D01*
X058399Y011514D01*
X058314Y011522D01*
X058231Y011534D01*
X058148Y011550D01*
X058066Y011570D01*
X057985Y011593D01*
X057905Y011620D01*
X057826Y011651D01*
X057749Y011686D01*
X057674Y011724D01*
X057601Y011765D01*
X057529Y011810D01*
X057460Y011859D01*
X057393Y011910D01*
X057329Y011965D01*
X057267Y012022D01*
X057208Y012083D01*
X057152Y012146D01*
X057099Y012211D01*
X057049Y012279D01*
X057003Y012350D01*
X056959Y012422D01*
X056919Y012497D01*
X056883Y012573D01*
X056850Y012651D01*
X056821Y012730D01*
X056796Y012810D01*
X056774Y012892D01*
X056757Y012974D01*
X056743Y013058D01*
X056733Y013141D01*
X056727Y013226D01*
X056725Y013310D01*
X045864Y018199D02*
X045864Y019222D01*
X045862Y019242D01*
X045858Y019262D01*
X045850Y019280D01*
X045840Y019297D01*
X045827Y019313D01*
X045811Y019326D01*
X045794Y019336D01*
X045776Y019344D01*
X045756Y019348D01*
X045736Y019350D01*
X044713Y019350D01*
X044693Y019348D01*
X044673Y019344D01*
X044655Y019336D01*
X044638Y019326D01*
X044622Y019313D01*
X044609Y019297D01*
X044599Y019280D01*
X044591Y019262D01*
X044587Y019242D01*
X044585Y019222D01*
X044585Y019238D02*
X044585Y018199D01*
X044587Y018179D01*
X044591Y018159D01*
X044599Y018141D01*
X044609Y018124D01*
X044622Y018108D01*
X044638Y018095D01*
X044655Y018085D01*
X044673Y018077D01*
X044693Y018073D01*
X044713Y018071D01*
X045736Y018071D01*
X045756Y018073D01*
X045776Y018077D01*
X045794Y018085D01*
X045811Y018095D01*
X045827Y018108D01*
X045840Y018124D01*
X045850Y018141D01*
X045858Y018159D01*
X045862Y018179D01*
X045864Y018199D01*
X047497Y021270D02*
X048536Y021270D01*
X048556Y021272D01*
X048576Y021276D01*
X048594Y021284D01*
X048611Y021294D01*
X048627Y021307D01*
X048640Y021323D01*
X048650Y021340D01*
X048658Y021358D01*
X048662Y021378D01*
X048664Y021398D01*
X048664Y022421D01*
X048662Y022441D01*
X048658Y022461D01*
X048650Y022479D01*
X048640Y022496D01*
X048627Y022512D01*
X048611Y022525D01*
X048594Y022535D01*
X048576Y022543D01*
X048556Y022547D01*
X048536Y022549D01*
X047513Y022549D01*
X047493Y022547D01*
X047473Y022543D01*
X047455Y022535D01*
X047438Y022525D01*
X047422Y022512D01*
X047409Y022496D01*
X047399Y022479D01*
X047391Y022461D01*
X047387Y022441D01*
X047385Y022421D01*
X047385Y021398D01*
X047387Y021378D01*
X047391Y021358D01*
X047399Y021340D01*
X047409Y021323D01*
X047422Y021307D01*
X047438Y021294D01*
X047455Y021284D01*
X047473Y021276D01*
X047493Y021272D01*
X047513Y021270D01*
X039765Y020421D02*
X039765Y019382D01*
X039765Y019398D02*
X039763Y019378D01*
X039759Y019358D01*
X039751Y019340D01*
X039741Y019323D01*
X039728Y019307D01*
X039712Y019294D01*
X039695Y019284D01*
X039677Y019276D01*
X039657Y019272D01*
X039637Y019270D01*
X038614Y019270D01*
X038594Y019272D01*
X038574Y019276D01*
X038556Y019284D01*
X038539Y019294D01*
X038523Y019307D01*
X038510Y019323D01*
X038500Y019340D01*
X038492Y019358D01*
X038488Y019378D01*
X038486Y019398D01*
X038486Y020421D01*
X038488Y020441D01*
X038492Y020461D01*
X038500Y020479D01*
X038510Y020496D01*
X038523Y020512D01*
X038539Y020525D01*
X038556Y020535D01*
X038574Y020543D01*
X038594Y020547D01*
X038614Y020549D01*
X039637Y020549D01*
X039657Y020547D01*
X039677Y020543D01*
X039695Y020535D01*
X039712Y020525D01*
X039728Y020512D01*
X039741Y020496D01*
X039751Y020479D01*
X039759Y020461D01*
X039763Y020441D01*
X039765Y020421D01*
X052925Y027560D02*
X052925Y028060D01*
X053175Y028310D01*
X052925Y028560D01*
X052925Y029060D01*
X053175Y029310D01*
X052925Y029560D01*
X052925Y030060D01*
X053175Y030310D01*
X052925Y030560D01*
X052925Y031060D01*
X053175Y031310D01*
X052925Y031560D01*
X052925Y032060D01*
X053175Y032310D01*
X052925Y032560D01*
X052925Y033060D01*
X053175Y033310D01*
X052925Y033560D01*
X052925Y034060D01*
X053175Y034310D01*
X052925Y034560D01*
X052925Y035060D01*
X053175Y035310D01*
X054675Y035310D01*
X054925Y035060D01*
X054925Y034560D01*
X054675Y034310D01*
X054925Y034060D01*
X054925Y033560D01*
X054675Y033310D01*
X054925Y033060D01*
X054925Y032560D01*
X054675Y032310D01*
X054925Y032060D01*
X054925Y031560D01*
X054675Y031310D01*
X054925Y031060D01*
X054925Y030560D01*
X054675Y030310D01*
X054925Y030060D01*
X054925Y029560D01*
X054675Y029310D01*
X054925Y029060D01*
X054925Y028560D01*
X054675Y028310D01*
X054925Y028060D01*
X054925Y027560D01*
X054675Y027310D01*
X053175Y027310D01*
X052925Y027560D01*
X070025Y034860D02*
X070275Y034610D01*
X070775Y034610D01*
X071025Y034860D01*
X071025Y035360D01*
X070775Y035610D01*
X071025Y035860D01*
X071025Y036360D01*
X070775Y036610D01*
X070275Y036610D01*
X070025Y036360D01*
X070025Y035860D01*
X070275Y035610D01*
X070775Y035610D01*
X070275Y035610D02*
X070025Y035360D01*
X070025Y034860D01*
X070275Y036610D02*
X070025Y036860D01*
X070025Y037360D01*
X070275Y037610D01*
X070025Y037860D01*
X070025Y038360D01*
X070275Y038610D01*
X070025Y038860D01*
X070025Y039360D01*
X070275Y039610D01*
X070025Y039860D01*
X070025Y040360D01*
X070275Y040610D01*
X070775Y040610D01*
X071025Y040360D01*
X071025Y039860D01*
X070775Y039610D01*
X071025Y039360D01*
X071025Y038860D01*
X070775Y038610D01*
X071025Y038360D01*
X071025Y037860D01*
X070775Y037610D01*
X071025Y037360D01*
X071025Y036860D01*
X070775Y036610D01*
X070775Y037610D02*
X070275Y037610D01*
X070275Y038610D02*
X070775Y038610D01*
X070775Y039610D02*
X070275Y039610D01*
X074025Y037460D02*
X074275Y037710D01*
X074775Y037710D01*
X075025Y037460D01*
X075025Y036960D01*
X074775Y036710D01*
X075025Y036460D01*
X075025Y035960D01*
X074775Y035710D01*
X074275Y035710D01*
X074025Y035960D01*
X074025Y036460D01*
X074275Y036710D01*
X074025Y036960D01*
X074025Y037460D01*
X074275Y036710D02*
X074775Y036710D01*
X079345Y036750D02*
X079345Y034130D01*
X082105Y034130D01*
X082105Y036890D01*
X079485Y036890D01*
X079345Y036750D01*
X079504Y036590D02*
X079506Y036613D01*
X079512Y036636D01*
X079521Y036657D01*
X079534Y036677D01*
X079550Y036694D01*
X079568Y036708D01*
X079588Y036719D01*
X079610Y036727D01*
X079633Y036731D01*
X079657Y036731D01*
X079680Y036727D01*
X079702Y036719D01*
X079722Y036708D01*
X079740Y036694D01*
X079756Y036677D01*
X079769Y036657D01*
X079778Y036636D01*
X079784Y036613D01*
X079786Y036590D01*
X079784Y036567D01*
X079778Y036544D01*
X079769Y036523D01*
X079756Y036503D01*
X079740Y036486D01*
X079722Y036472D01*
X079702Y036461D01*
X079680Y036453D01*
X079657Y036449D01*
X079633Y036449D01*
X079610Y036453D01*
X079588Y036461D01*
X079568Y036472D01*
X079550Y036486D01*
X079534Y036503D01*
X079521Y036523D01*
X079512Y036544D01*
X079506Y036567D01*
X079504Y036590D01*
X083225Y032960D02*
X083475Y033210D01*
X084975Y033210D01*
X085225Y032960D01*
X085225Y032460D01*
X084975Y032210D01*
X085225Y031960D01*
X085225Y031460D01*
X084975Y031210D01*
X085225Y030960D01*
X085225Y030460D01*
X084975Y030210D01*
X083475Y030210D01*
X083225Y030460D01*
X083225Y030960D01*
X083475Y031210D01*
X083225Y031460D01*
X083225Y031960D01*
X083475Y032210D01*
X083225Y032460D01*
X083225Y032960D01*
X078425Y030960D02*
X078425Y030460D01*
X078175Y030210D01*
X077675Y030210D01*
X077425Y030460D01*
X077175Y030210D01*
X076675Y030210D01*
X076425Y030460D01*
X076175Y030210D01*
X075675Y030210D01*
X075425Y030460D01*
X075425Y030960D01*
X075675Y031210D01*
X076175Y031210D01*
X076425Y030960D01*
X076675Y031210D01*
X077175Y031210D01*
X077425Y030960D01*
X077675Y031210D01*
X078175Y031210D01*
X078425Y030960D01*
X077425Y030960D02*
X077425Y030460D01*
X076425Y030460D02*
X076425Y030960D01*
X089825Y030860D02*
X089825Y027360D01*
X089825Y026860D01*
X089825Y023360D01*
X089825Y022860D01*
X089825Y019360D01*
X089825Y018860D01*
X089825Y015360D01*
X089825Y014860D01*
X089825Y013360D01*
X089825Y012860D01*
X089825Y011860D01*
X089825Y010610D01*
X090825Y010610D01*
X091455Y009980D01*
X091455Y008610D01*
X092075Y008610D01*
X092075Y009610D01*
X094325Y009610D01*
X094325Y044610D01*
X092075Y044610D01*
X092075Y045610D01*
X091455Y045610D01*
X091455Y044110D01*
X090955Y043610D01*
X089825Y043610D01*
X089825Y042360D01*
X089825Y041360D01*
X089825Y040860D01*
X089825Y039360D01*
X089825Y038860D01*
X089825Y035360D01*
X089825Y034860D01*
X089825Y031360D01*
X089825Y030860D01*
X090355Y042640D02*
X090649Y042640D01*
X090502Y042640D02*
X090502Y043080D01*
X090355Y042934D01*
X089825Y043610D02*
X089325Y043610D01*
X089325Y045610D01*
X091455Y045610D01*
X089825Y044610D02*
X089827Y044654D01*
X089833Y044698D01*
X089843Y044741D01*
X089856Y044783D01*
X089873Y044824D01*
X089894Y044863D01*
X089918Y044900D01*
X089945Y044935D01*
X089975Y044967D01*
X090008Y044997D01*
X090044Y045023D01*
X090081Y045047D01*
X090121Y045066D01*
X090162Y045083D01*
X090205Y045095D01*
X090248Y045104D01*
X090292Y045109D01*
X090336Y045110D01*
X090380Y045107D01*
X090424Y045100D01*
X090467Y045089D01*
X090509Y045075D01*
X090549Y045057D01*
X090588Y045035D01*
X090624Y045011D01*
X090658Y044983D01*
X090690Y044952D01*
X090719Y044918D01*
X090745Y044882D01*
X090767Y044844D01*
X090786Y044804D01*
X090801Y044762D01*
X090813Y044720D01*
X090821Y044676D01*
X090825Y044632D01*
X090825Y044588D01*
X090821Y044544D01*
X090813Y044500D01*
X090801Y044458D01*
X090786Y044416D01*
X090767Y044376D01*
X090745Y044338D01*
X090719Y044302D01*
X090690Y044268D01*
X090658Y044237D01*
X090624Y044209D01*
X090588Y044185D01*
X090549Y044163D01*
X090509Y044145D01*
X090467Y044131D01*
X090424Y044120D01*
X090380Y044113D01*
X090336Y044110D01*
X090292Y044111D01*
X090248Y044116D01*
X090205Y044125D01*
X090162Y044137D01*
X090121Y044154D01*
X090081Y044173D01*
X090044Y044197D01*
X090008Y044223D01*
X089975Y044253D01*
X089945Y044285D01*
X089918Y044320D01*
X089894Y044357D01*
X089873Y044396D01*
X089856Y044437D01*
X089843Y044479D01*
X089833Y044522D01*
X089827Y044566D01*
X089825Y044610D01*
X089002Y043580D02*
X089149Y043434D01*
X089149Y043140D01*
X089149Y043360D02*
X088855Y043360D01*
X088855Y043434D02*
X089002Y043580D01*
X088855Y043434D02*
X088855Y043140D01*
X087649Y043213D02*
X087575Y043140D01*
X087428Y043140D01*
X087355Y043213D01*
X087355Y043507D01*
X087428Y043580D01*
X087575Y043580D01*
X087649Y043507D01*
X061825Y043460D02*
X061825Y042960D01*
X061575Y042710D01*
X061075Y042710D01*
X060825Y042960D01*
X060825Y043460D01*
X061075Y043710D01*
X060825Y043960D01*
X060825Y044460D01*
X061075Y044710D01*
X061575Y044710D01*
X061825Y044460D01*
X061825Y043960D01*
X061575Y043710D01*
X061825Y043460D01*
X061575Y043710D02*
X061075Y043710D01*
X061075Y042710D02*
X060825Y042460D01*
X060825Y041960D01*
X061075Y041710D01*
X060825Y041460D01*
X060825Y040960D01*
X061075Y040710D01*
X060825Y040460D01*
X060825Y039960D01*
X061075Y039710D01*
X061575Y039710D01*
X061825Y039960D01*
X061825Y040460D01*
X061575Y040710D01*
X061075Y040710D01*
X061575Y040710D02*
X061825Y040960D01*
X061825Y041460D01*
X061575Y041710D01*
X061075Y041710D01*
X061575Y041710D02*
X061825Y041960D01*
X061825Y042460D01*
X061575Y042710D01*
X050725Y042460D02*
X050475Y042210D01*
X050725Y041960D01*
X050725Y041460D01*
X050475Y041210D01*
X050725Y040960D01*
X050725Y040460D01*
X050475Y040210D01*
X050725Y039960D01*
X050725Y039460D01*
X050475Y039210D01*
X050725Y038960D01*
X050725Y038460D01*
X050475Y038210D01*
X049975Y038210D01*
X049725Y038460D01*
X049725Y038960D01*
X049975Y039210D01*
X049725Y039460D01*
X049725Y039960D01*
X049975Y040210D01*
X050475Y040210D01*
X049975Y040210D02*
X049725Y040460D01*
X049725Y040960D01*
X049975Y041210D01*
X049725Y041460D01*
X049725Y041960D01*
X049975Y042210D01*
X049725Y042460D01*
X049725Y042960D01*
X049975Y043210D01*
X050475Y043210D01*
X050725Y042960D01*
X050725Y042460D01*
X050475Y042210D02*
X049975Y042210D01*
X049975Y041210D02*
X050475Y041210D01*
X050475Y039210D02*
X049975Y039210D01*
X049975Y043210D02*
X049725Y043460D01*
X049725Y043960D01*
X049975Y044210D01*
X049725Y044460D01*
X049725Y044960D01*
X049975Y045210D01*
X050475Y045210D01*
X050725Y044960D01*
X050725Y044460D01*
X050475Y044210D01*
X050725Y043960D01*
X050725Y043460D01*
X050475Y043210D01*
X050475Y044210D02*
X049975Y044210D01*
X032525Y045910D02*
X032525Y035610D01*
X028425Y035610D01*
X028425Y010860D01*
X031075Y010860D01*
X031075Y008310D01*
X029825Y008310D01*
X029825Y006010D01*
X028225Y006010D01*
X028225Y008610D01*
X027525Y008610D01*
X027525Y045610D01*
X027525Y048210D01*
X028225Y048210D01*
X029825Y048210D01*
X029825Y045910D01*
X032525Y045910D01*
X028225Y045610D02*
X027525Y045610D01*
X028225Y045610D02*
X028225Y048210D01*
X090355Y011507D02*
X090428Y011580D01*
X090575Y011580D01*
X090649Y011507D01*
X090649Y011434D01*
X090575Y011360D01*
X090649Y011287D01*
X090649Y011213D01*
X090575Y011140D01*
X090428Y011140D01*
X090355Y011213D01*
X090502Y011360D02*
X090575Y011360D01*
X090815Y011507D02*
X090889Y011580D01*
X091036Y011580D01*
X091109Y011507D01*
X091109Y011434D01*
X090815Y011140D01*
X091109Y011140D01*
X089825Y010610D02*
X089325Y010610D01*
X089325Y008610D01*
X091455Y008610D01*
X089825Y009610D02*
X089827Y009654D01*
X089833Y009698D01*
X089843Y009741D01*
X089856Y009783D01*
X089873Y009824D01*
X089894Y009863D01*
X089918Y009900D01*
X089945Y009935D01*
X089975Y009967D01*
X090008Y009997D01*
X090044Y010023D01*
X090081Y010047D01*
X090121Y010066D01*
X090162Y010083D01*
X090205Y010095D01*
X090248Y010104D01*
X090292Y010109D01*
X090336Y010110D01*
X090380Y010107D01*
X090424Y010100D01*
X090467Y010089D01*
X090509Y010075D01*
X090549Y010057D01*
X090588Y010035D01*
X090624Y010011D01*
X090658Y009983D01*
X090690Y009952D01*
X090719Y009918D01*
X090745Y009882D01*
X090767Y009844D01*
X090786Y009804D01*
X090801Y009762D01*
X090813Y009720D01*
X090821Y009676D01*
X090825Y009632D01*
X090825Y009588D01*
X090821Y009544D01*
X090813Y009500D01*
X090801Y009458D01*
X090786Y009416D01*
X090767Y009376D01*
X090745Y009338D01*
X090719Y009302D01*
X090690Y009268D01*
X090658Y009237D01*
X090624Y009209D01*
X090588Y009185D01*
X090549Y009163D01*
X090509Y009145D01*
X090467Y009131D01*
X090424Y009120D01*
X090380Y009113D01*
X090336Y009110D01*
X090292Y009111D01*
X090248Y009116D01*
X090205Y009125D01*
X090162Y009137D01*
X090121Y009154D01*
X090081Y009173D01*
X090044Y009197D01*
X090008Y009223D01*
X089975Y009253D01*
X089945Y009285D01*
X089918Y009320D01*
X089894Y009357D01*
X089873Y009396D01*
X089856Y009437D01*
X089843Y009479D01*
X089833Y009522D01*
X089827Y009566D01*
X089825Y009610D01*
X030975Y009610D02*
X030375Y008610D01*
X029275Y008610D01*
X028675Y009610D01*
X029275Y010610D01*
X030375Y010610D01*
X030975Y009610D01*
X029275Y009610D02*
X029277Y009657D01*
X029283Y009703D01*
X029293Y009749D01*
X029306Y009793D01*
X029324Y009837D01*
X029345Y009878D01*
X029369Y009918D01*
X029397Y009956D01*
X029428Y009991D01*
X029462Y010023D01*
X029498Y010052D01*
X029537Y010078D01*
X029577Y010101D01*
X029620Y010120D01*
X029664Y010136D01*
X029709Y010148D01*
X029755Y010156D01*
X029802Y010160D01*
X029848Y010160D01*
X029895Y010156D01*
X029941Y010148D01*
X029986Y010136D01*
X030030Y010120D01*
X030073Y010101D01*
X030113Y010078D01*
X030152Y010052D01*
X030188Y010023D01*
X030222Y009991D01*
X030253Y009956D01*
X030281Y009918D01*
X030305Y009878D01*
X030326Y009837D01*
X030344Y009793D01*
X030357Y009749D01*
X030367Y009703D01*
X030373Y009657D01*
X030375Y009610D01*
X030373Y009563D01*
X030367Y009517D01*
X030357Y009471D01*
X030344Y009427D01*
X030326Y009383D01*
X030305Y009342D01*
X030281Y009302D01*
X030253Y009264D01*
X030222Y009229D01*
X030188Y009197D01*
X030152Y009168D01*
X030113Y009142D01*
X030073Y009119D01*
X030030Y009100D01*
X029986Y009084D01*
X029941Y009072D01*
X029895Y009064D01*
X029848Y009060D01*
X029802Y009060D01*
X029755Y009064D01*
X029709Y009072D01*
X029664Y009084D01*
X029620Y009100D01*
X029577Y009119D01*
X029537Y009142D01*
X029498Y009168D01*
X029462Y009197D01*
X029428Y009229D01*
X029397Y009264D01*
X029369Y009302D01*
X029345Y009342D01*
X029324Y009383D01*
X029306Y009427D01*
X029293Y009471D01*
X029283Y009517D01*
X029277Y009563D01*
X029275Y009610D01*
X027525Y008610D02*
X027525Y006010D01*
X028225Y006010D01*
D18*
X021900Y015110D03*
X021900Y023110D03*
X021900Y031110D03*
D19*
X028425Y035610D02*
X028425Y007420D01*
X091425Y007420D01*
X091425Y046800D01*
X032525Y046800D01*
X032525Y035610D01*
X028425Y035610D01*
X030931Y033110D02*
X030933Y033149D01*
X030939Y033188D01*
X030949Y033226D01*
X030962Y033263D01*
X030979Y033298D01*
X030999Y033332D01*
X031023Y033363D01*
X031050Y033392D01*
X031079Y033418D01*
X031111Y033441D01*
X031145Y033461D01*
X031181Y033477D01*
X031218Y033489D01*
X031257Y033498D01*
X031296Y033503D01*
X031335Y033504D01*
X031374Y033501D01*
X031413Y033494D01*
X031450Y033483D01*
X031487Y033469D01*
X031522Y033451D01*
X031555Y033430D01*
X031586Y033405D01*
X031614Y033378D01*
X031639Y033348D01*
X031661Y033315D01*
X031680Y033281D01*
X031695Y033245D01*
X031707Y033207D01*
X031715Y033169D01*
X031719Y033130D01*
X031719Y033090D01*
X031715Y033051D01*
X031707Y033013D01*
X031695Y032975D01*
X031680Y032939D01*
X031661Y032905D01*
X031639Y032872D01*
X031614Y032842D01*
X031586Y032815D01*
X031555Y032790D01*
X031522Y032769D01*
X031487Y032751D01*
X031450Y032737D01*
X031413Y032726D01*
X031374Y032719D01*
X031335Y032716D01*
X031296Y032717D01*
X031257Y032722D01*
X031218Y032731D01*
X031181Y032743D01*
X031145Y032759D01*
X031111Y032779D01*
X031079Y032802D01*
X031050Y032828D01*
X031023Y032857D01*
X030999Y032888D01*
X030979Y032922D01*
X030962Y032957D01*
X030949Y032994D01*
X030939Y033032D01*
X030933Y033071D01*
X030931Y033110D01*
X030931Y029110D02*
X030933Y029149D01*
X030939Y029188D01*
X030949Y029226D01*
X030962Y029263D01*
X030979Y029298D01*
X030999Y029332D01*
X031023Y029363D01*
X031050Y029392D01*
X031079Y029418D01*
X031111Y029441D01*
X031145Y029461D01*
X031181Y029477D01*
X031218Y029489D01*
X031257Y029498D01*
X031296Y029503D01*
X031335Y029504D01*
X031374Y029501D01*
X031413Y029494D01*
X031450Y029483D01*
X031487Y029469D01*
X031522Y029451D01*
X031555Y029430D01*
X031586Y029405D01*
X031614Y029378D01*
X031639Y029348D01*
X031661Y029315D01*
X031680Y029281D01*
X031695Y029245D01*
X031707Y029207D01*
X031715Y029169D01*
X031719Y029130D01*
X031719Y029090D01*
X031715Y029051D01*
X031707Y029013D01*
X031695Y028975D01*
X031680Y028939D01*
X031661Y028905D01*
X031639Y028872D01*
X031614Y028842D01*
X031586Y028815D01*
X031555Y028790D01*
X031522Y028769D01*
X031487Y028751D01*
X031450Y028737D01*
X031413Y028726D01*
X031374Y028719D01*
X031335Y028716D01*
X031296Y028717D01*
X031257Y028722D01*
X031218Y028731D01*
X031181Y028743D01*
X031145Y028759D01*
X031111Y028779D01*
X031079Y028802D01*
X031050Y028828D01*
X031023Y028857D01*
X030999Y028888D01*
X030979Y028922D01*
X030962Y028957D01*
X030949Y028994D01*
X030939Y029032D01*
X030933Y029071D01*
X030931Y029110D01*
X030931Y025110D02*
X030933Y025149D01*
X030939Y025188D01*
X030949Y025226D01*
X030962Y025263D01*
X030979Y025298D01*
X030999Y025332D01*
X031023Y025363D01*
X031050Y025392D01*
X031079Y025418D01*
X031111Y025441D01*
X031145Y025461D01*
X031181Y025477D01*
X031218Y025489D01*
X031257Y025498D01*
X031296Y025503D01*
X031335Y025504D01*
X031374Y025501D01*
X031413Y025494D01*
X031450Y025483D01*
X031487Y025469D01*
X031522Y025451D01*
X031555Y025430D01*
X031586Y025405D01*
X031614Y025378D01*
X031639Y025348D01*
X031661Y025315D01*
X031680Y025281D01*
X031695Y025245D01*
X031707Y025207D01*
X031715Y025169D01*
X031719Y025130D01*
X031719Y025090D01*
X031715Y025051D01*
X031707Y025013D01*
X031695Y024975D01*
X031680Y024939D01*
X031661Y024905D01*
X031639Y024872D01*
X031614Y024842D01*
X031586Y024815D01*
X031555Y024790D01*
X031522Y024769D01*
X031487Y024751D01*
X031450Y024737D01*
X031413Y024726D01*
X031374Y024719D01*
X031335Y024716D01*
X031296Y024717D01*
X031257Y024722D01*
X031218Y024731D01*
X031181Y024743D01*
X031145Y024759D01*
X031111Y024779D01*
X031079Y024802D01*
X031050Y024828D01*
X031023Y024857D01*
X030999Y024888D01*
X030979Y024922D01*
X030962Y024957D01*
X030949Y024994D01*
X030939Y025032D01*
X030933Y025071D01*
X030931Y025110D01*
X030931Y021110D02*
X030933Y021149D01*
X030939Y021188D01*
X030949Y021226D01*
X030962Y021263D01*
X030979Y021298D01*
X030999Y021332D01*
X031023Y021363D01*
X031050Y021392D01*
X031079Y021418D01*
X031111Y021441D01*
X031145Y021461D01*
X031181Y021477D01*
X031218Y021489D01*
X031257Y021498D01*
X031296Y021503D01*
X031335Y021504D01*
X031374Y021501D01*
X031413Y021494D01*
X031450Y021483D01*
X031487Y021469D01*
X031522Y021451D01*
X031555Y021430D01*
X031586Y021405D01*
X031614Y021378D01*
X031639Y021348D01*
X031661Y021315D01*
X031680Y021281D01*
X031695Y021245D01*
X031707Y021207D01*
X031715Y021169D01*
X031719Y021130D01*
X031719Y021090D01*
X031715Y021051D01*
X031707Y021013D01*
X031695Y020975D01*
X031680Y020939D01*
X031661Y020905D01*
X031639Y020872D01*
X031614Y020842D01*
X031586Y020815D01*
X031555Y020790D01*
X031522Y020769D01*
X031487Y020751D01*
X031450Y020737D01*
X031413Y020726D01*
X031374Y020719D01*
X031335Y020716D01*
X031296Y020717D01*
X031257Y020722D01*
X031218Y020731D01*
X031181Y020743D01*
X031145Y020759D01*
X031111Y020779D01*
X031079Y020802D01*
X031050Y020828D01*
X031023Y020857D01*
X030999Y020888D01*
X030979Y020922D01*
X030962Y020957D01*
X030949Y020994D01*
X030939Y021032D01*
X030933Y021071D01*
X030931Y021110D01*
X030931Y017110D02*
X030933Y017149D01*
X030939Y017188D01*
X030949Y017226D01*
X030962Y017263D01*
X030979Y017298D01*
X030999Y017332D01*
X031023Y017363D01*
X031050Y017392D01*
X031079Y017418D01*
X031111Y017441D01*
X031145Y017461D01*
X031181Y017477D01*
X031218Y017489D01*
X031257Y017498D01*
X031296Y017503D01*
X031335Y017504D01*
X031374Y017501D01*
X031413Y017494D01*
X031450Y017483D01*
X031487Y017469D01*
X031522Y017451D01*
X031555Y017430D01*
X031586Y017405D01*
X031614Y017378D01*
X031639Y017348D01*
X031661Y017315D01*
X031680Y017281D01*
X031695Y017245D01*
X031707Y017207D01*
X031715Y017169D01*
X031719Y017130D01*
X031719Y017090D01*
X031715Y017051D01*
X031707Y017013D01*
X031695Y016975D01*
X031680Y016939D01*
X031661Y016905D01*
X031639Y016872D01*
X031614Y016842D01*
X031586Y016815D01*
X031555Y016790D01*
X031522Y016769D01*
X031487Y016751D01*
X031450Y016737D01*
X031413Y016726D01*
X031374Y016719D01*
X031335Y016716D01*
X031296Y016717D01*
X031257Y016722D01*
X031218Y016731D01*
X031181Y016743D01*
X031145Y016759D01*
X031111Y016779D01*
X031079Y016802D01*
X031050Y016828D01*
X031023Y016857D01*
X030999Y016888D01*
X030979Y016922D01*
X030962Y016957D01*
X030949Y016994D01*
X030939Y017032D01*
X030933Y017071D01*
X030931Y017110D01*
X030931Y013110D02*
X030933Y013149D01*
X030939Y013188D01*
X030949Y013226D01*
X030962Y013263D01*
X030979Y013298D01*
X030999Y013332D01*
X031023Y013363D01*
X031050Y013392D01*
X031079Y013418D01*
X031111Y013441D01*
X031145Y013461D01*
X031181Y013477D01*
X031218Y013489D01*
X031257Y013498D01*
X031296Y013503D01*
X031335Y013504D01*
X031374Y013501D01*
X031413Y013494D01*
X031450Y013483D01*
X031487Y013469D01*
X031522Y013451D01*
X031555Y013430D01*
X031586Y013405D01*
X031614Y013378D01*
X031639Y013348D01*
X031661Y013315D01*
X031680Y013281D01*
X031695Y013245D01*
X031707Y013207D01*
X031715Y013169D01*
X031719Y013130D01*
X031719Y013090D01*
X031715Y013051D01*
X031707Y013013D01*
X031695Y012975D01*
X031680Y012939D01*
X031661Y012905D01*
X031639Y012872D01*
X031614Y012842D01*
X031586Y012815D01*
X031555Y012790D01*
X031522Y012769D01*
X031487Y012751D01*
X031450Y012737D01*
X031413Y012726D01*
X031374Y012719D01*
X031335Y012716D01*
X031296Y012717D01*
X031257Y012722D01*
X031218Y012731D01*
X031181Y012743D01*
X031145Y012759D01*
X031111Y012779D01*
X031079Y012802D01*
X031050Y012828D01*
X031023Y012857D01*
X030999Y012888D01*
X030979Y012922D01*
X030962Y012957D01*
X030949Y012994D01*
X030939Y013032D01*
X030933Y013071D01*
X030931Y013110D01*
X029275Y009610D02*
X029277Y009657D01*
X029283Y009703D01*
X029293Y009749D01*
X029306Y009793D01*
X029324Y009837D01*
X029345Y009878D01*
X029369Y009918D01*
X029397Y009956D01*
X029428Y009991D01*
X029462Y010023D01*
X029498Y010052D01*
X029537Y010078D01*
X029577Y010101D01*
X029620Y010120D01*
X029664Y010136D01*
X029709Y010148D01*
X029755Y010156D01*
X029802Y010160D01*
X029848Y010160D01*
X029895Y010156D01*
X029941Y010148D01*
X029986Y010136D01*
X030030Y010120D01*
X030073Y010101D01*
X030113Y010078D01*
X030152Y010052D01*
X030188Y010023D01*
X030222Y009991D01*
X030253Y009956D01*
X030281Y009918D01*
X030305Y009878D01*
X030326Y009837D01*
X030344Y009793D01*
X030357Y009749D01*
X030367Y009703D01*
X030373Y009657D01*
X030375Y009610D01*
X030373Y009563D01*
X030367Y009517D01*
X030357Y009471D01*
X030344Y009427D01*
X030326Y009383D01*
X030305Y009342D01*
X030281Y009302D01*
X030253Y009264D01*
X030222Y009229D01*
X030188Y009197D01*
X030152Y009168D01*
X030113Y009142D01*
X030073Y009119D01*
X030030Y009100D01*
X029986Y009084D01*
X029941Y009072D01*
X029895Y009064D01*
X029848Y009060D01*
X029802Y009060D01*
X029755Y009064D01*
X029709Y009072D01*
X029664Y009084D01*
X029620Y009100D01*
X029577Y009119D01*
X029537Y009142D01*
X029498Y009168D01*
X029462Y009197D01*
X029428Y009229D01*
X029397Y009264D01*
X029369Y009302D01*
X029345Y009342D01*
X029324Y009383D01*
X029306Y009427D01*
X029293Y009471D01*
X029283Y009517D01*
X029277Y009563D01*
X029275Y009610D01*
X089775Y009610D02*
X089777Y009657D01*
X089783Y009703D01*
X089793Y009749D01*
X089806Y009793D01*
X089824Y009837D01*
X089845Y009878D01*
X089869Y009918D01*
X089897Y009956D01*
X089928Y009991D01*
X089962Y010023D01*
X089998Y010052D01*
X090037Y010078D01*
X090077Y010101D01*
X090120Y010120D01*
X090164Y010136D01*
X090209Y010148D01*
X090255Y010156D01*
X090302Y010160D01*
X090348Y010160D01*
X090395Y010156D01*
X090441Y010148D01*
X090486Y010136D01*
X090530Y010120D01*
X090573Y010101D01*
X090613Y010078D01*
X090652Y010052D01*
X090688Y010023D01*
X090722Y009991D01*
X090753Y009956D01*
X090781Y009918D01*
X090805Y009878D01*
X090826Y009837D01*
X090844Y009793D01*
X090857Y009749D01*
X090867Y009703D01*
X090873Y009657D01*
X090875Y009610D01*
X090873Y009563D01*
X090867Y009517D01*
X090857Y009471D01*
X090844Y009427D01*
X090826Y009383D01*
X090805Y009342D01*
X090781Y009302D01*
X090753Y009264D01*
X090722Y009229D01*
X090688Y009197D01*
X090652Y009168D01*
X090613Y009142D01*
X090573Y009119D01*
X090530Y009100D01*
X090486Y009084D01*
X090441Y009072D01*
X090395Y009064D01*
X090348Y009060D01*
X090302Y009060D01*
X090255Y009064D01*
X090209Y009072D01*
X090164Y009084D01*
X090120Y009100D01*
X090077Y009119D01*
X090037Y009142D01*
X089998Y009168D01*
X089962Y009197D01*
X089928Y009229D01*
X089897Y009264D01*
X089869Y009302D01*
X089845Y009342D01*
X089824Y009383D01*
X089806Y009427D01*
X089793Y009471D01*
X089783Y009517D01*
X089777Y009563D01*
X089775Y009610D01*
X089775Y044610D02*
X089777Y044657D01*
X089783Y044703D01*
X089793Y044749D01*
X089806Y044793D01*
X089824Y044837D01*
X089845Y044878D01*
X089869Y044918D01*
X089897Y044956D01*
X089928Y044991D01*
X089962Y045023D01*
X089998Y045052D01*
X090037Y045078D01*
X090077Y045101D01*
X090120Y045120D01*
X090164Y045136D01*
X090209Y045148D01*
X090255Y045156D01*
X090302Y045160D01*
X090348Y045160D01*
X090395Y045156D01*
X090441Y045148D01*
X090486Y045136D01*
X090530Y045120D01*
X090573Y045101D01*
X090613Y045078D01*
X090652Y045052D01*
X090688Y045023D01*
X090722Y044991D01*
X090753Y044956D01*
X090781Y044918D01*
X090805Y044878D01*
X090826Y044837D01*
X090844Y044793D01*
X090857Y044749D01*
X090867Y044703D01*
X090873Y044657D01*
X090875Y044610D01*
X090873Y044563D01*
X090867Y044517D01*
X090857Y044471D01*
X090844Y044427D01*
X090826Y044383D01*
X090805Y044342D01*
X090781Y044302D01*
X090753Y044264D01*
X090722Y044229D01*
X090688Y044197D01*
X090652Y044168D01*
X090613Y044142D01*
X090573Y044119D01*
X090530Y044100D01*
X090486Y044084D01*
X090441Y044072D01*
X090395Y044064D01*
X090348Y044060D01*
X090302Y044060D01*
X090255Y044064D01*
X090209Y044072D01*
X090164Y044084D01*
X090120Y044100D01*
X090077Y044119D01*
X090037Y044142D01*
X089998Y044168D01*
X089962Y044197D01*
X089928Y044229D01*
X089897Y044264D01*
X089869Y044302D01*
X089845Y044342D01*
X089824Y044383D01*
X089806Y044427D01*
X089793Y044471D01*
X089783Y044517D01*
X089777Y044563D01*
X089775Y044610D01*
D20*
X091909Y042902D02*
X091909Y042692D01*
X092014Y042587D01*
X091909Y042902D02*
X092014Y043007D01*
X092120Y043007D01*
X092540Y042587D01*
X092540Y043007D01*
X092909Y042794D02*
X092909Y042584D01*
X093014Y042479D01*
X093435Y042479D01*
X093540Y042584D01*
X093540Y042794D01*
X093435Y042899D01*
X093014Y042899D02*
X092909Y042794D01*
X092540Y042362D02*
X092540Y041942D01*
X092540Y042152D02*
X091909Y042152D01*
X092120Y041942D01*
X092330Y041718D02*
X092225Y041613D01*
X092225Y041297D01*
X092435Y041297D01*
X092540Y041403D01*
X092540Y041613D01*
X092435Y041718D01*
X092330Y041718D01*
X092014Y041508D02*
X092225Y041297D01*
X092014Y041508D02*
X091909Y041718D01*
X091909Y040863D02*
X092540Y040863D01*
X092540Y040653D02*
X092540Y041073D01*
X093120Y040968D02*
X093120Y040863D01*
X093330Y040653D01*
X093540Y040653D02*
X093120Y040653D01*
X093225Y040429D02*
X093120Y040324D01*
X093120Y040113D01*
X093225Y040008D01*
X093435Y040008D01*
X093540Y040113D01*
X093540Y040324D01*
X093435Y040429D01*
X093225Y040429D01*
X093225Y039789D02*
X093225Y039579D01*
X093014Y039684D02*
X092909Y039789D01*
X093014Y039684D02*
X093540Y039684D01*
X093540Y039354D02*
X093120Y039354D01*
X093120Y038934D02*
X093435Y038934D01*
X093540Y039039D01*
X093540Y039354D01*
X093540Y038710D02*
X093225Y038710D01*
X093120Y038605D01*
X093120Y038395D01*
X093330Y038395D02*
X093330Y038710D01*
X093540Y038710D02*
X093540Y038395D01*
X093435Y038290D01*
X093330Y038395D01*
X093330Y038065D02*
X093435Y038065D01*
X093540Y037960D01*
X093540Y037645D01*
X092909Y037645D01*
X092909Y037960D01*
X093014Y038065D01*
X093120Y038065D01*
X093225Y037960D01*
X093225Y037645D01*
X093225Y037960D02*
X093330Y038065D01*
X092540Y037960D02*
X092435Y038065D01*
X092014Y038065D01*
X091909Y037960D01*
X091909Y037645D01*
X092540Y037645D01*
X092540Y037960D01*
X092540Y038290D02*
X092540Y038500D01*
X092540Y038395D02*
X091909Y038395D01*
X091909Y038290D02*
X091909Y038500D01*
X091909Y038719D02*
X092540Y039140D01*
X091909Y039140D01*
X091909Y038719D02*
X092540Y038719D01*
X092225Y040008D02*
X092225Y040429D01*
X092120Y040653D02*
X091909Y040863D01*
X091909Y040324D02*
X092225Y040008D01*
X092540Y040324D02*
X091909Y040324D01*
X093120Y041190D02*
X093120Y041295D01*
X093225Y041400D01*
X093120Y041505D01*
X093225Y041610D01*
X093540Y041610D01*
X093540Y041400D02*
X093225Y041400D01*
X093120Y041190D02*
X093540Y041190D01*
D21*
X089750Y041610D03*
X089750Y040610D03*
X089750Y039610D03*
X089750Y038610D03*
X089750Y037610D03*
X089750Y036610D03*
X089750Y035610D03*
X089750Y034610D03*
X089750Y033610D03*
X089750Y032610D03*
X089750Y031610D03*
X089750Y030610D03*
X089750Y029610D03*
X089750Y028610D03*
X089750Y027610D03*
X089750Y026610D03*
X089750Y025610D03*
X089750Y024610D03*
X089750Y023610D03*
X089750Y022610D03*
X089750Y021610D03*
X089750Y020610D03*
X089750Y019610D03*
X089750Y018610D03*
X089750Y017610D03*
X089750Y016610D03*
X089750Y015610D03*
X089750Y014610D03*
X089750Y013610D03*
X089750Y012610D03*
X089750Y011610D03*
X089750Y042610D03*
D22*
X088325Y042610D03*
X088325Y041610D03*
X088325Y040610D03*
X088325Y039610D03*
X088325Y038610D03*
X088325Y037610D03*
X088325Y036610D03*
X088325Y035610D03*
X088325Y034610D03*
X088325Y033610D03*
X088325Y032610D03*
X088325Y031610D03*
X088325Y030610D03*
X088325Y029610D03*
X088325Y028610D03*
X088325Y027610D03*
X088325Y026610D03*
X088325Y025610D03*
X088325Y024610D03*
X088325Y023610D03*
X088325Y022610D03*
X088325Y021610D03*
X088325Y020610D03*
X088325Y019610D03*
X088325Y018610D03*
X088325Y017610D03*
X088325Y016610D03*
X088325Y015610D03*
X088325Y014610D03*
X088325Y013610D03*
X088325Y012610D03*
X088325Y011610D03*
D23*
X028325Y007425D02*
X001524Y007493D01*
X002292Y007491D02*
X002397Y008514D01*
X002420Y008514D02*
X002292Y007491D01*
X002192Y008515D01*
X002169Y008515D02*
X002420Y008514D01*
X002346Y008515D02*
X002292Y007491D01*
X002244Y008515D01*
X002169Y008515D02*
X002292Y007491D01*
X002392Y046866D01*
X002492Y045842D01*
X002515Y045842D02*
X002392Y046866D01*
X002287Y045843D01*
X002264Y045843D02*
X002515Y045842D01*
X002441Y045842D02*
X002392Y046866D01*
X002338Y045843D01*
X002264Y045843D02*
X002392Y046866D01*
X001624Y046868D02*
X028425Y046800D01*
X028425Y054378D01*
X028425Y053610D02*
X029449Y053712D01*
X029449Y053736D02*
X029449Y053484D01*
X028425Y053610D01*
X029449Y053508D01*
X029449Y053559D02*
X028425Y053610D01*
X029449Y053661D01*
X029449Y053736D02*
X028425Y053610D01*
X091425Y053610D01*
X090401Y053508D01*
X090401Y053484D02*
X091425Y053610D01*
X090401Y053712D01*
X090401Y053736D02*
X090401Y053484D01*
X090401Y053559D02*
X091425Y053610D01*
X090401Y053661D01*
X090401Y053736D02*
X091425Y053610D01*
X091425Y054378D02*
X091425Y046800D01*
X028425Y043360D02*
X008057Y043360D01*
X008825Y043360D02*
X008927Y042336D01*
X008951Y042336D02*
X008825Y043360D01*
X008723Y042336D01*
X008699Y042336D02*
X008951Y042336D01*
X008876Y042336D02*
X008825Y043360D01*
X008774Y042336D01*
X008699Y042336D02*
X008825Y043360D01*
X008825Y010860D01*
X008927Y011884D01*
X008951Y011884D02*
X008825Y010860D01*
X008723Y011884D01*
X008699Y011884D02*
X008951Y011884D01*
X008876Y011884D02*
X008825Y010860D01*
X008774Y011884D01*
X008699Y011884D02*
X008825Y010860D01*
X008057Y010860D02*
X028425Y010860D01*
D24*
X008374Y024910D02*
X008163Y024698D01*
X007951Y024698D01*
X007740Y024910D01*
X007740Y025333D01*
X007951Y025544D01*
X008163Y025544D01*
X008374Y025333D01*
X008374Y024910D01*
X007740Y024910D02*
X007528Y024698D01*
X007317Y024698D01*
X007105Y024910D01*
X007105Y025333D01*
X007317Y025544D01*
X007528Y025544D01*
X007740Y025333D01*
X007317Y025967D02*
X007105Y026178D01*
X007105Y026601D01*
X007317Y026813D01*
X007528Y026813D01*
X008374Y025967D01*
X008374Y026813D01*
X008374Y027236D02*
X008374Y027447D01*
X008163Y027447D01*
X008163Y027236D01*
X008374Y027236D01*
X008163Y027870D02*
X008374Y028082D01*
X008374Y028505D01*
X008163Y028716D01*
X007740Y028716D01*
X007528Y028505D01*
X007528Y028293D01*
X007740Y027870D01*
X007105Y027870D01*
X007105Y028716D01*
X007105Y029139D02*
X007740Y029139D01*
X007528Y029562D01*
X007528Y029773D01*
X007740Y029985D01*
X008163Y029985D01*
X008374Y029773D01*
X008374Y029350D01*
X008163Y029139D01*
X007105Y029139D02*
X007105Y029985D01*
X001904Y029929D02*
X001907Y030775D01*
X001905Y030352D02*
X000636Y030357D01*
X001058Y029932D01*
X000845Y029510D02*
X001688Y028661D01*
X001900Y028872D01*
X001902Y029295D01*
X001691Y029507D01*
X000845Y029510D01*
X000633Y029299D01*
X000631Y028876D01*
X000842Y028664D01*
X001688Y028661D01*
X001687Y028238D02*
X001898Y028238D01*
X001897Y028026D01*
X001686Y028027D01*
X001687Y028238D01*
X001684Y027604D02*
X000838Y027607D01*
X001681Y026758D01*
X001894Y026969D01*
X001895Y027392D01*
X001684Y027604D01*
X000838Y027607D02*
X000626Y027396D01*
X000625Y026973D01*
X000835Y026761D01*
X001681Y026758D01*
X001680Y026335D02*
X001891Y026123D01*
X001889Y025700D01*
X001677Y025489D01*
X000834Y026338D01*
X001680Y026335D01*
X000834Y026338D02*
X000622Y026127D01*
X000620Y025704D01*
X000831Y025492D01*
X001677Y025489D01*
X001887Y025066D02*
X001884Y024220D01*
X001886Y024643D02*
X000617Y024647D01*
X001038Y024223D01*
X056965Y054061D02*
X057811Y054061D01*
X057388Y054061D02*
X057388Y055330D01*
X056965Y054907D01*
X058234Y054695D02*
X058868Y054695D01*
X059080Y054484D01*
X059080Y054272D01*
X058868Y054061D01*
X058445Y054061D01*
X058234Y054272D01*
X058234Y054695D01*
X058657Y055118D01*
X059080Y055330D01*
X059502Y055118D02*
X059714Y055330D01*
X060137Y055330D01*
X060348Y055118D01*
X059502Y054272D01*
X059714Y054061D01*
X060137Y054061D01*
X060348Y054272D01*
X060348Y055118D01*
X059502Y055118D02*
X059502Y054272D01*
X060771Y054272D02*
X060771Y054061D01*
X060983Y054061D01*
X060983Y054272D01*
X060771Y054272D01*
X061406Y054272D02*
X061617Y054061D01*
X062040Y054061D01*
X062252Y054272D01*
X062252Y055118D01*
X061406Y054272D01*
X061406Y055118D01*
X061617Y055330D01*
X062040Y055330D01*
X062252Y055118D01*
X062674Y055118D02*
X062886Y055330D01*
X063309Y055330D01*
X063520Y055118D01*
X063520Y054907D01*
X062674Y054061D01*
X063520Y054061D01*
D25*
X051121Y031025D02*
X051249Y030897D01*
X049507Y031025D02*
X049379Y030897D01*
X049379Y029283D02*
X049507Y029155D01*
X051121Y029155D02*
X051249Y029283D01*
D26*
X049566Y029342D03*
D27*
X076375Y019460D03*
X078875Y014710D03*
D28*
X070825Y018080D03*
X069825Y018080D03*
X068825Y018080D03*
M02*
