G75*
%MOIN*%
%OFA0B0*%
%FSLAX24Y24*%
%IPPOS*%
%LPD*%
%AMOC8*
5,1,8,0,0,1.08239X$1,22.5*
%
%ADD10C,0.0531*%
%ADD11C,0.0630*%
%ADD12C,0.0600*%
%ADD13C,0.0480*%
%ADD14C,0.0240*%
%ADD15C,0.0360*%
%ADD16C,0.0080*%
%ADD17C,0.0300*%
%ADD18C,0.0250*%
%ADD19C,0.0400*%
%ADD20C,0.0160*%
%ADD21C,0.0200*%
%ADD22C,0.0150*%
D10*
X033325Y014110D03*
X033325Y015110D03*
X033325Y022110D03*
X033325Y023110D03*
X033325Y030110D03*
X033325Y031110D03*
D11*
X087325Y030610D03*
X087325Y029610D03*
X087325Y028610D03*
X087325Y027610D03*
X087325Y026610D03*
X087325Y025610D03*
X087325Y024610D03*
X087325Y023610D03*
X087325Y022610D03*
X087325Y021610D03*
X087325Y020610D03*
X087325Y019610D03*
X087325Y018610D03*
X087325Y017610D03*
X087325Y016610D03*
X087325Y015610D03*
X087325Y014610D03*
X087325Y013610D03*
X087325Y012610D03*
X087325Y011610D03*
X089325Y011610D03*
X089325Y012610D03*
X089325Y013610D03*
X089325Y014610D03*
X089325Y015610D03*
X089325Y016610D03*
X089325Y017610D03*
X089325Y018610D03*
X089325Y019610D03*
X089325Y020610D03*
X089325Y021610D03*
X089325Y022610D03*
X089325Y023610D03*
X089325Y024610D03*
X089325Y025610D03*
X089325Y026610D03*
X089325Y027610D03*
X089325Y028610D03*
X089325Y029610D03*
X089325Y030610D03*
X089325Y031610D03*
X089325Y032610D03*
X089325Y033610D03*
X089325Y034610D03*
X089325Y035610D03*
X089325Y036610D03*
X089325Y037610D03*
X089325Y038610D03*
X089325Y039610D03*
X089325Y040610D03*
X089325Y041610D03*
X089325Y042610D03*
X087325Y042610D03*
X087325Y041610D03*
X087325Y040610D03*
X087325Y039610D03*
X087325Y038610D03*
X087325Y037610D03*
X087325Y036610D03*
X087325Y035610D03*
X087325Y034610D03*
X087325Y033610D03*
X087325Y032610D03*
X087325Y031610D03*
D12*
X084725Y031710D03*
X083725Y031710D03*
X083725Y030710D03*
X084725Y030710D03*
X084725Y032710D03*
X083725Y032710D03*
X077925Y030710D03*
X076925Y030710D03*
X075925Y030710D03*
X070525Y035110D03*
X070525Y036110D03*
X070525Y037110D03*
X070525Y038110D03*
X070525Y039110D03*
X070525Y040110D03*
X074525Y037210D03*
X074525Y036210D03*
X061325Y040210D03*
X061325Y041210D03*
X061325Y042210D03*
X061325Y043210D03*
X061325Y044210D03*
X050225Y043710D03*
X050225Y044710D03*
X050225Y042710D03*
X050225Y041710D03*
X050225Y040710D03*
X050225Y039710D03*
X050225Y038710D03*
X053425Y034810D03*
X054425Y034810D03*
X054425Y033810D03*
X053425Y033810D03*
X053425Y032810D03*
X054425Y032810D03*
X054425Y031810D03*
X054425Y030810D03*
X053425Y030810D03*
X053425Y031810D03*
X053425Y029810D03*
X054425Y029810D03*
X054425Y028810D03*
X053425Y028810D03*
X053425Y027810D03*
X054425Y027810D03*
D13*
X070825Y016310D03*
X072725Y014810D03*
X059025Y013810D03*
X058025Y013810D03*
X058025Y012810D03*
X059025Y012810D03*
D14*
X029825Y014010D03*
X030125Y015610D03*
X032625Y016510D03*
X031925Y018910D03*
X033825Y019910D03*
X033425Y021110D03*
X034325Y022410D03*
X034625Y023610D03*
X035025Y024510D03*
X033325Y024110D03*
X031125Y023910D03*
X029725Y023510D03*
X029725Y027310D03*
X033325Y027210D03*
X035625Y028010D03*
X037325Y030010D03*
X038425Y028910D03*
X039625Y027710D03*
X041125Y027610D03*
X042225Y026410D03*
X043325Y027610D03*
X044525Y028210D03*
X045825Y028410D03*
X046725Y028310D03*
X047525Y027910D03*
X048225Y027710D03*
X049525Y027710D03*
X050725Y027810D03*
X051325Y027410D03*
X052625Y026910D03*
X053725Y026810D03*
X054225Y027110D03*
X055125Y027710D03*
X053925Y028310D03*
X055125Y028810D03*
X053925Y029310D03*
X055125Y029810D03*
X055225Y030410D03*
X053925Y030310D03*
X055125Y031810D03*
X053925Y032310D03*
X055125Y032810D03*
X053925Y033310D03*
X055125Y033810D03*
X053925Y034310D03*
X055225Y034810D03*
X055425Y036310D03*
X057125Y036410D03*
X058825Y036210D03*
X057925Y035210D03*
X058625Y034710D03*
X058425Y033610D03*
X057125Y033410D03*
X057125Y034410D03*
X060125Y032310D03*
X056725Y031410D03*
X057525Y028810D03*
X056525Y028610D03*
X059225Y028810D03*
X059375Y027460D03*
X057425Y026310D03*
X056625Y026310D03*
X058425Y025810D03*
X055175Y024660D03*
X054425Y025110D03*
X053425Y024610D03*
X053425Y024010D03*
X052675Y024560D03*
X051825Y024710D03*
X051825Y025310D03*
X051225Y025110D03*
X050825Y024610D03*
X050325Y025010D03*
X050025Y024210D03*
X049325Y024210D03*
X048725Y024210D03*
X047825Y024310D03*
X048225Y023210D03*
X049825Y022810D03*
X050525Y022010D03*
X050025Y020810D03*
X049725Y020310D03*
X049325Y020810D03*
X048025Y020310D03*
X047625Y020310D03*
X048225Y019610D03*
X049225Y019010D03*
X049225Y018410D03*
X048725Y017010D03*
X046675Y016460D03*
X044425Y017710D03*
X043025Y017010D03*
X042625Y017010D03*
X042925Y018210D03*
X040825Y016810D03*
X037925Y016110D03*
X037225Y017210D03*
X038125Y018210D03*
X036825Y018510D03*
X035675Y018760D03*
X037125Y021010D03*
X036425Y022110D03*
X037925Y022410D03*
X038325Y021910D03*
X039025Y021910D03*
X039625Y021610D03*
X040755Y021850D03*
X041625Y021810D03*
X041725Y022410D03*
X040125Y023410D03*
X038525Y023510D03*
X038625Y024610D03*
X037925Y024810D03*
X040425Y026010D03*
X042725Y024910D03*
X043925Y024810D03*
X045025Y025810D03*
X044325Y026510D03*
X045025Y027010D03*
X045825Y029210D03*
X048325Y029210D03*
X049425Y029210D03*
X048725Y030310D03*
X048225Y030310D03*
X048925Y031710D03*
X047625Y032010D03*
X046125Y031410D03*
X043525Y031610D03*
X041325Y030910D03*
X039925Y030510D03*
X042725Y029110D03*
X037325Y032410D03*
X035425Y031910D03*
X032825Y032510D03*
X029825Y031310D03*
X029525Y034510D03*
X033725Y035810D03*
X035925Y036410D03*
X036925Y036010D03*
X038525Y036010D03*
X039925Y036210D03*
X042325Y036210D03*
X039125Y037610D03*
X039025Y038310D03*
X036225Y039510D03*
X035525Y037910D03*
X039925Y040910D03*
X037125Y043010D03*
X036325Y041510D03*
X038625Y044010D03*
X036025Y044810D03*
X034025Y044310D03*
X042825Y043510D03*
X044425Y045010D03*
X046725Y042110D03*
X043925Y040510D03*
X047625Y039510D03*
X051725Y037210D03*
X052925Y036310D03*
X052025Y034810D03*
X051425Y034410D03*
X050325Y032610D03*
X049825Y032610D03*
X047525Y034210D03*
X046425Y036210D03*
X045225Y033410D03*
X041325Y033110D03*
X039325Y033510D03*
X051675Y029840D03*
X051025Y026010D03*
X052125Y025910D03*
X051325Y023610D03*
X052925Y022810D03*
X053325Y022410D03*
X053525Y023010D03*
X055425Y022610D03*
X055625Y021910D03*
X055025Y021810D03*
X056925Y022910D03*
X057925Y022460D03*
X058925Y023010D03*
X060325Y023410D03*
X062325Y023510D03*
X064525Y023610D03*
X067425Y023510D03*
X068625Y024410D03*
X068725Y026210D03*
X068525Y028310D03*
X070325Y030410D03*
X070625Y031710D03*
X068425Y031610D03*
X067325Y033910D03*
X067425Y035210D03*
X068625Y034910D03*
X068125Y035910D03*
X068425Y036510D03*
X068625Y037210D03*
X068125Y038710D03*
X067625Y039610D03*
X067025Y038910D03*
X068725Y039610D03*
X069325Y038710D03*
X071725Y039610D03*
X073325Y038610D03*
X073625Y037510D03*
X072325Y036910D03*
X071825Y036310D03*
X073425Y035010D03*
X073525Y033910D03*
X074825Y033710D03*
X075525Y034710D03*
X075925Y035810D03*
X076125Y036510D03*
X075525Y036710D03*
X076725Y034810D03*
X078025Y035010D03*
X078025Y033810D03*
X077025Y033810D03*
X079825Y034710D03*
X080525Y034410D03*
X080425Y033010D03*
X079925Y033110D03*
X078625Y031710D03*
X078725Y030410D03*
X080075Y030760D03*
X080825Y030860D03*
X080825Y030110D03*
X082975Y030060D03*
X085025Y028610D03*
X084825Y027410D03*
X084125Y027410D03*
X085325Y025810D03*
X086125Y024510D03*
X085925Y023610D03*
X083925Y023510D03*
X082225Y022610D03*
X081425Y023510D03*
X080225Y022910D03*
X079025Y021910D03*
X078125Y022010D03*
X077525Y021410D03*
X076125Y020810D03*
X075125Y022110D03*
X073625Y022010D03*
X073425Y023010D03*
X073525Y023810D03*
X075225Y023810D03*
X077925Y023510D03*
X081125Y026710D03*
X076725Y028810D03*
X078475Y029510D03*
X074325Y030610D03*
X073375Y031660D03*
X071025Y033710D03*
X065525Y036210D03*
X065225Y036710D03*
X065525Y037510D03*
X064925Y037910D03*
X064325Y037510D03*
X061725Y036910D03*
X063425Y035610D03*
X064525Y035310D03*
X058525Y040210D03*
X057825Y041110D03*
X059325Y041610D03*
X056625Y040310D03*
X053025Y039910D03*
X053025Y040910D03*
X053025Y041910D03*
X053025Y042910D03*
X051925Y045010D03*
X053925Y045310D03*
X058025Y043710D03*
X059425Y043810D03*
X064825Y043210D03*
X066125Y043210D03*
X067325Y043210D03*
X068125Y043410D03*
X069525Y043410D03*
X070525Y042910D03*
X072425Y041610D03*
X073525Y042160D03*
X073725Y040510D03*
X075625Y038610D03*
X077925Y040510D03*
X078625Y039610D03*
X080025Y039610D03*
X080125Y038810D03*
X079125Y037710D03*
X078625Y037110D03*
X080425Y036110D03*
X079725Y035710D03*
X081625Y035510D03*
X081525Y036410D03*
X082425Y037210D03*
X083225Y036810D03*
X083325Y036310D03*
X084125Y035210D03*
X085025Y035110D03*
X085125Y034710D03*
X085425Y035710D03*
X085025Y037110D03*
X085725Y038310D03*
X085025Y039110D03*
X085125Y040410D03*
X085225Y041910D03*
X082525Y039710D03*
X081925Y039810D03*
X078825Y041410D03*
X077325Y042110D03*
X075725Y043110D03*
X076325Y044110D03*
X074625Y044010D03*
X072625Y044146D03*
X068025Y041710D03*
X068825Y040410D03*
X065925Y041110D03*
X078725Y043810D03*
X084725Y044410D03*
X086725Y045010D03*
X081725Y038010D03*
X083825Y034110D03*
X085025Y033910D03*
X083225Y032210D03*
X082325Y032210D03*
X073325Y026610D03*
X071025Y023510D03*
X073425Y020910D03*
X074725Y018410D03*
X073825Y017410D03*
X076625Y017410D03*
X076925Y016810D03*
X078725Y017710D03*
X079525Y016310D03*
X081125Y016710D03*
X082325Y018410D03*
X084225Y018510D03*
X085525Y020210D03*
X085225Y021210D03*
X082625Y013710D03*
X083325Y012410D03*
X084125Y010310D03*
X088225Y010210D03*
X080225Y012710D03*
X077025Y012310D03*
X076125Y010710D03*
X078525Y010310D03*
X073425Y009810D03*
X066225Y010310D03*
X064625Y012910D03*
X064825Y014810D03*
X063625Y016610D03*
X062125Y014510D03*
X059125Y014810D03*
X058025Y014810D03*
X058025Y015910D03*
X058125Y016610D03*
X059225Y015810D03*
X056325Y017010D03*
X054825Y017460D03*
X054325Y016310D03*
X055825Y016010D03*
X053325Y018210D03*
X053425Y018910D03*
X052525Y019910D03*
X052725Y020910D03*
X056225Y019260D03*
X057375Y020960D03*
X058325Y021610D03*
X059425Y021710D03*
X059975Y020760D03*
X062625Y021110D03*
X065725Y021710D03*
X065425Y018510D03*
X059725Y018510D03*
X056325Y023710D03*
X062175Y027810D03*
X061725Y028310D03*
X062725Y027110D03*
X063825Y026210D03*
X064025Y030710D03*
X048525Y022010D03*
X046425Y020610D03*
X045425Y019210D03*
X044225Y019810D03*
X043825Y020810D03*
X043925Y022110D03*
X045625Y022010D03*
X041625Y019710D03*
X040425Y019310D03*
X046625Y018410D03*
X051825Y016310D03*
X049725Y014610D03*
X046925Y014710D03*
X044125Y013210D03*
X041025Y014010D03*
X038125Y013910D03*
X036325Y013110D03*
X032525Y010810D03*
X034925Y010210D03*
X039725Y010310D03*
X042225Y010310D03*
X044825Y010010D03*
X047325Y010610D03*
X051925Y009910D03*
X052925Y012010D03*
X052725Y013810D03*
X055825Y011810D03*
X061925Y011510D03*
X061825Y009510D03*
X029625Y019210D03*
D15*
X066525Y024410D03*
D16*
X055925Y022810D02*
X055925Y021610D01*
X048425Y021610D01*
X048425Y021799D01*
X048434Y021790D01*
X048616Y021790D01*
X048745Y021919D01*
X048745Y022101D01*
X048616Y022230D01*
X048434Y022230D01*
X048425Y022221D01*
X048425Y023099D01*
X048445Y023119D01*
X048445Y023301D01*
X048425Y023321D01*
X048425Y027599D01*
X048445Y027619D01*
X048445Y027801D01*
X048425Y027821D01*
X048425Y028999D01*
X048545Y029119D01*
X052325Y029119D01*
X052325Y029041D02*
X048467Y029041D01*
X048425Y028962D02*
X052325Y028962D01*
X052325Y028884D02*
X048425Y028884D01*
X048425Y028805D02*
X052325Y028805D01*
X052325Y028727D02*
X048425Y028727D01*
X048425Y028648D02*
X052325Y028648D01*
X052325Y028570D02*
X048425Y028570D01*
X048425Y028491D02*
X052325Y028491D01*
X052325Y028413D02*
X048425Y028413D01*
X048425Y028334D02*
X052325Y028334D01*
X052325Y028256D02*
X048425Y028256D01*
X048425Y028177D02*
X052325Y028177D01*
X052325Y028099D02*
X048425Y028099D01*
X048425Y028020D02*
X050624Y028020D01*
X050634Y028030D02*
X050505Y027901D01*
X050505Y027719D01*
X050634Y027590D01*
X050816Y027590D01*
X050945Y027719D01*
X050945Y027901D01*
X050816Y028030D01*
X050634Y028030D01*
X050545Y027942D02*
X048425Y027942D01*
X048425Y027863D02*
X050505Y027863D01*
X050505Y027785D02*
X048445Y027785D01*
X048445Y027706D02*
X050518Y027706D01*
X050596Y027628D02*
X048445Y027628D01*
X048425Y027549D02*
X051153Y027549D01*
X051105Y027501D02*
X051105Y027319D01*
X051234Y027190D01*
X051416Y027190D01*
X051545Y027319D01*
X051545Y027501D01*
X051416Y027630D01*
X051234Y027630D01*
X051105Y027501D01*
X051105Y027471D02*
X048425Y027471D01*
X048425Y027392D02*
X051105Y027392D01*
X051110Y027314D02*
X048425Y027314D01*
X048425Y027235D02*
X051189Y027235D01*
X051461Y027235D02*
X052325Y027235D01*
X052325Y027157D02*
X048425Y027157D01*
X048425Y027078D02*
X052325Y027078D01*
X052325Y027000D02*
X048425Y027000D01*
X048425Y026921D02*
X052325Y026921D01*
X052325Y026843D02*
X048425Y026843D01*
X048425Y026764D02*
X052325Y026764D01*
X052325Y026686D02*
X048425Y026686D01*
X048425Y026607D02*
X052325Y026607D01*
X052325Y026529D02*
X048425Y026529D01*
X048425Y026450D02*
X052325Y026450D01*
X052325Y026372D02*
X048425Y026372D01*
X048425Y026293D02*
X052325Y026293D01*
X052325Y026215D02*
X051131Y026215D01*
X051116Y026230D02*
X050934Y026230D01*
X050805Y026101D01*
X050805Y025919D01*
X050934Y025790D01*
X051116Y025790D01*
X051245Y025919D01*
X051245Y026101D01*
X051116Y026230D01*
X051210Y026136D02*
X052325Y026136D01*
X052325Y026058D02*
X051245Y026058D01*
X051245Y025979D02*
X052325Y025979D01*
X052325Y025901D02*
X051227Y025901D01*
X051148Y025822D02*
X052325Y025822D01*
X052325Y025744D02*
X048425Y025744D01*
X048425Y025822D02*
X050902Y025822D01*
X050823Y025901D02*
X048425Y025901D01*
X048425Y025979D02*
X050805Y025979D01*
X050805Y026058D02*
X048425Y026058D01*
X048425Y026136D02*
X050840Y026136D01*
X050918Y026215D02*
X048425Y026215D01*
X048425Y025665D02*
X052325Y025665D01*
X052325Y025587D02*
X048425Y025587D01*
X048425Y025508D02*
X051712Y025508D01*
X051734Y025530D02*
X051605Y025401D01*
X051605Y025219D01*
X051734Y025090D01*
X051916Y025090D01*
X052045Y025219D01*
X052045Y025401D01*
X051916Y025530D01*
X051734Y025530D01*
X051633Y025430D02*
X048425Y025430D01*
X048425Y025351D02*
X051605Y025351D01*
X051605Y025273D02*
X051374Y025273D01*
X051316Y025330D02*
X051134Y025330D01*
X051005Y025201D01*
X051005Y025019D01*
X051134Y024890D01*
X051316Y024890D01*
X051445Y025019D01*
X051445Y025201D01*
X051316Y025330D01*
X051445Y025194D02*
X051630Y025194D01*
X051708Y025116D02*
X051445Y025116D01*
X051445Y025037D02*
X052325Y025037D01*
X052325Y024959D02*
X051385Y024959D01*
X051605Y024801D02*
X051605Y024619D01*
X051734Y024490D01*
X051916Y024490D01*
X052045Y024619D01*
X052045Y024801D01*
X051916Y024930D01*
X051734Y024930D01*
X051605Y024801D01*
X051605Y024802D02*
X050945Y024802D01*
X050916Y024830D02*
X050734Y024830D01*
X050605Y024701D01*
X050605Y024519D01*
X050734Y024390D01*
X050916Y024390D01*
X051045Y024519D01*
X051045Y024701D01*
X050916Y024830D01*
X051023Y024723D02*
X051605Y024723D01*
X051605Y024645D02*
X051045Y024645D01*
X051045Y024566D02*
X051658Y024566D01*
X051684Y024880D02*
X050506Y024880D01*
X050545Y024919D02*
X050416Y024790D01*
X050234Y024790D01*
X050105Y024919D01*
X050105Y025101D01*
X050234Y025230D01*
X050416Y025230D01*
X050545Y025101D01*
X050545Y024919D01*
X050545Y024959D02*
X051065Y024959D01*
X051005Y025037D02*
X050545Y025037D01*
X050531Y025116D02*
X051005Y025116D01*
X051005Y025194D02*
X050452Y025194D01*
X050198Y025194D02*
X048425Y025194D01*
X048425Y025116D02*
X050119Y025116D01*
X050105Y025037D02*
X048425Y025037D01*
X048425Y024959D02*
X050105Y024959D01*
X050144Y024880D02*
X048425Y024880D01*
X048425Y024802D02*
X050222Y024802D01*
X050428Y024802D02*
X050705Y024802D01*
X050627Y024723D02*
X048425Y024723D01*
X048425Y024645D02*
X050605Y024645D01*
X050605Y024566D02*
X048425Y024566D01*
X048425Y024488D02*
X050636Y024488D01*
X050715Y024409D02*
X048425Y024409D01*
X048425Y024331D02*
X052325Y024331D01*
X052325Y024409D02*
X050935Y024409D01*
X051014Y024488D02*
X052325Y024488D01*
X052325Y024566D02*
X051992Y024566D01*
X052045Y024645D02*
X052325Y024645D01*
X052325Y024723D02*
X052045Y024723D01*
X052045Y024802D02*
X052325Y024802D01*
X052325Y024880D02*
X051966Y024880D01*
X051942Y025116D02*
X052325Y025116D01*
X052325Y025194D02*
X052020Y025194D01*
X052045Y025273D02*
X052325Y025273D01*
X052325Y025351D02*
X052045Y025351D01*
X052016Y025430D02*
X052325Y025430D01*
X052325Y025508D02*
X051938Y025508D01*
X052525Y025508D02*
X054625Y025508D01*
X054625Y025430D02*
X052525Y025430D01*
X052525Y025351D02*
X054625Y025351D01*
X054625Y025273D02*
X052525Y025273D01*
X052525Y025194D02*
X054625Y025194D01*
X054625Y025116D02*
X052525Y025116D01*
X052525Y025037D02*
X054625Y025037D01*
X054625Y024959D02*
X052525Y024959D01*
X052525Y024880D02*
X054625Y024880D01*
X054625Y024802D02*
X052525Y024802D01*
X052584Y024780D02*
X052525Y024721D01*
X052525Y026410D01*
X054625Y026410D01*
X054625Y022310D01*
X054525Y022210D01*
X052825Y022210D01*
X052525Y022510D01*
X052525Y024399D01*
X052584Y024340D01*
X052766Y024340D01*
X052895Y024469D01*
X052895Y024651D01*
X052766Y024780D01*
X052584Y024780D01*
X052527Y024723D02*
X052525Y024723D01*
X052823Y024723D02*
X054625Y024723D01*
X054625Y024645D02*
X052895Y024645D01*
X052895Y024566D02*
X054625Y024566D01*
X054625Y024488D02*
X052895Y024488D01*
X052835Y024409D02*
X054625Y024409D01*
X054625Y024331D02*
X052525Y024331D01*
X052525Y024252D02*
X054625Y024252D01*
X054625Y024174D02*
X052525Y024174D01*
X052525Y024095D02*
X054625Y024095D01*
X054625Y024017D02*
X052525Y024017D01*
X052525Y023938D02*
X054625Y023938D01*
X054625Y023860D02*
X052525Y023860D01*
X052525Y023781D02*
X054625Y023781D01*
X054625Y023703D02*
X052525Y023703D01*
X052525Y023624D02*
X054625Y023624D01*
X054625Y023546D02*
X052525Y023546D01*
X052525Y023467D02*
X054625Y023467D01*
X054625Y023389D02*
X052525Y023389D01*
X052525Y023310D02*
X054625Y023310D01*
X054625Y023232D02*
X052525Y023232D01*
X052525Y023153D02*
X054625Y023153D01*
X054625Y023075D02*
X052525Y023075D01*
X052525Y022996D02*
X054625Y022996D01*
X054625Y022918D02*
X052525Y022918D01*
X052525Y022839D02*
X054625Y022839D01*
X054625Y022761D02*
X052525Y022761D01*
X052525Y022682D02*
X054625Y022682D01*
X054625Y022604D02*
X052525Y022604D01*
X052525Y022525D02*
X054625Y022525D01*
X054625Y022447D02*
X052588Y022447D01*
X052667Y022368D02*
X054625Y022368D01*
X054604Y022290D02*
X052745Y022290D01*
X052824Y022211D02*
X054526Y022211D01*
X054825Y022211D02*
X055925Y022211D01*
X055925Y022133D02*
X054825Y022133D01*
X054825Y022054D02*
X055925Y022054D01*
X055925Y021976D02*
X048745Y021976D01*
X048745Y022054D02*
X052681Y022054D01*
X052725Y022010D02*
X054825Y022010D01*
X054825Y022810D01*
X055925Y022810D01*
X055925Y022761D02*
X054825Y022761D01*
X054825Y022682D02*
X055925Y022682D01*
X055925Y022604D02*
X054825Y022604D01*
X054825Y022525D02*
X055925Y022525D01*
X055925Y022447D02*
X054825Y022447D01*
X054825Y022368D02*
X055925Y022368D01*
X055925Y022290D02*
X054825Y022290D01*
X055925Y021897D02*
X048723Y021897D01*
X048645Y021819D02*
X055925Y021819D01*
X055925Y021740D02*
X048425Y021740D01*
X048425Y021662D02*
X055925Y021662D01*
X052725Y022010D02*
X052325Y022410D01*
X052325Y029810D01*
X051895Y029810D01*
X051895Y029749D01*
X051766Y029620D01*
X051584Y029620D01*
X051455Y029749D01*
X051455Y029810D01*
X048425Y029810D01*
X048425Y029421D01*
X048545Y029301D01*
X048545Y029119D01*
X048545Y029198D02*
X052325Y029198D01*
X052325Y029276D02*
X048545Y029276D01*
X048491Y029355D02*
X052325Y029355D01*
X052325Y029433D02*
X048425Y029433D01*
X048425Y029512D02*
X052325Y029512D01*
X052325Y029590D02*
X048425Y029590D01*
X048425Y029669D02*
X051535Y029669D01*
X051457Y029747D02*
X048425Y029747D01*
X048025Y029747D02*
X042225Y029747D01*
X042225Y029669D02*
X048025Y029669D01*
X048025Y029590D02*
X042225Y029590D01*
X042225Y029512D02*
X048025Y029512D01*
X048025Y029433D02*
X042225Y029433D01*
X042225Y029355D02*
X045658Y029355D01*
X045605Y029301D02*
X045605Y029119D01*
X042945Y029119D01*
X042945Y029041D02*
X045683Y029041D01*
X045734Y028990D02*
X045916Y028990D01*
X046045Y029119D01*
X048025Y029119D01*
X048025Y029041D02*
X045967Y029041D01*
X046045Y029119D02*
X046045Y029301D01*
X045916Y029430D01*
X045734Y029430D01*
X045605Y029301D01*
X045605Y029276D02*
X042870Y029276D01*
X042816Y029330D02*
X042634Y029330D01*
X042505Y029201D01*
X042505Y029019D01*
X042634Y028890D01*
X042816Y028890D01*
X042945Y029019D01*
X042945Y029201D01*
X042816Y029330D01*
X042945Y029198D02*
X045605Y029198D01*
X045605Y029119D02*
X045734Y028990D01*
X045734Y028630D02*
X045605Y028501D01*
X045605Y028319D01*
X045734Y028190D01*
X045916Y028190D01*
X046045Y028319D01*
X046045Y028501D01*
X045916Y028630D01*
X045734Y028630D01*
X045673Y028570D02*
X042225Y028570D01*
X042225Y028648D02*
X048025Y028648D01*
X048025Y028570D02*
X045976Y028570D01*
X046045Y028491D02*
X046595Y028491D01*
X046634Y028530D02*
X046505Y028401D01*
X046505Y028219D01*
X046634Y028090D01*
X046816Y028090D01*
X046945Y028219D01*
X046945Y028401D01*
X046816Y028530D01*
X046634Y028530D01*
X046516Y028413D02*
X046045Y028413D01*
X046045Y028334D02*
X046505Y028334D01*
X046505Y028256D02*
X045982Y028256D01*
X045668Y028256D02*
X044745Y028256D01*
X044745Y028301D02*
X044616Y028430D01*
X044434Y028430D01*
X044305Y028301D01*
X044305Y028119D01*
X044434Y027990D01*
X044616Y027990D01*
X044745Y028119D01*
X044745Y028301D01*
X044712Y028334D02*
X045605Y028334D01*
X045605Y028413D02*
X044633Y028413D01*
X044416Y028413D02*
X042225Y028413D01*
X042225Y028491D02*
X045605Y028491D01*
X044745Y028177D02*
X046547Y028177D01*
X046625Y028099D02*
X044725Y028099D01*
X044646Y028020D02*
X047324Y028020D01*
X047305Y028001D02*
X047305Y027819D01*
X047434Y027690D01*
X047616Y027690D01*
X047745Y027819D01*
X047745Y028001D01*
X047616Y028130D01*
X047434Y028130D01*
X047305Y028001D01*
X047305Y027942D02*
X042225Y027942D01*
X042225Y028020D02*
X044404Y028020D01*
X044325Y028099D02*
X042225Y028099D01*
X042225Y028177D02*
X044305Y028177D01*
X044305Y028256D02*
X042225Y028256D01*
X042225Y028334D02*
X044338Y028334D01*
X043545Y027701D02*
X043416Y027830D01*
X043234Y027830D01*
X043105Y027701D01*
X043105Y027519D01*
X043234Y027390D01*
X043416Y027390D01*
X043545Y027519D01*
X043545Y027701D01*
X043540Y027706D02*
X047418Y027706D01*
X047339Y027785D02*
X043461Y027785D01*
X043545Y027628D02*
X048005Y027628D01*
X048005Y027619D02*
X048014Y027610D01*
X046125Y027610D01*
X046125Y015410D01*
X073325Y015410D01*
X073325Y011010D01*
X035725Y011010D01*
X035725Y018540D01*
X035766Y018540D01*
X035895Y018669D01*
X035895Y018722D01*
X035993Y018810D01*
X042225Y018810D01*
X042225Y026190D01*
X042316Y026190D01*
X042445Y026319D01*
X042445Y026501D01*
X042316Y026630D01*
X042225Y026630D01*
X042225Y032310D01*
X050325Y032310D01*
X050325Y030010D01*
X048025Y030010D01*
X048025Y027821D01*
X048005Y027801D01*
X048005Y027619D01*
X048005Y027706D02*
X047632Y027706D01*
X047711Y027785D02*
X048005Y027785D01*
X048025Y027863D02*
X047745Y027863D01*
X047745Y027942D02*
X048025Y027942D01*
X048025Y028020D02*
X047726Y028020D01*
X047647Y028099D02*
X048025Y028099D01*
X048025Y028177D02*
X046903Y028177D01*
X046945Y028256D02*
X048025Y028256D01*
X048025Y028334D02*
X046945Y028334D01*
X046933Y028413D02*
X048025Y028413D01*
X048025Y028491D02*
X046855Y028491D01*
X046825Y028099D02*
X047402Y028099D01*
X047305Y027863D02*
X042225Y027863D01*
X042225Y027785D02*
X043188Y027785D01*
X043110Y027706D02*
X042225Y027706D01*
X042225Y027628D02*
X043105Y027628D01*
X043105Y027549D02*
X042225Y027549D01*
X042225Y027471D02*
X043153Y027471D01*
X043232Y027392D02*
X042225Y027392D01*
X042225Y027314D02*
X046125Y027314D01*
X046125Y027392D02*
X043418Y027392D01*
X043497Y027471D02*
X046125Y027471D01*
X046125Y027549D02*
X043545Y027549D01*
X044805Y027101D02*
X044805Y026919D01*
X044934Y026790D01*
X045116Y026790D01*
X045245Y026919D01*
X045245Y027101D01*
X045116Y027230D01*
X044934Y027230D01*
X044805Y027101D01*
X044805Y027078D02*
X042225Y027078D01*
X042225Y027000D02*
X044805Y027000D01*
X044805Y026921D02*
X042225Y026921D01*
X042225Y026843D02*
X044881Y026843D01*
X045169Y026843D02*
X046125Y026843D01*
X046125Y026921D02*
X045245Y026921D01*
X045245Y027000D02*
X046125Y027000D01*
X046125Y027078D02*
X045245Y027078D01*
X045189Y027157D02*
X046125Y027157D01*
X046125Y027235D02*
X042225Y027235D01*
X042225Y027157D02*
X044860Y027157D01*
X044416Y026730D02*
X044234Y026730D01*
X044105Y026601D01*
X044105Y026419D01*
X044234Y026290D01*
X044416Y026290D01*
X044545Y026419D01*
X044545Y026601D01*
X044416Y026730D01*
X044460Y026686D02*
X046125Y026686D01*
X046125Y026764D02*
X042225Y026764D01*
X042225Y026686D02*
X044189Y026686D01*
X044111Y026607D02*
X042339Y026607D01*
X042417Y026529D02*
X044105Y026529D01*
X044105Y026450D02*
X042445Y026450D01*
X042445Y026372D02*
X044152Y026372D01*
X044231Y026293D02*
X042419Y026293D01*
X042341Y026215D02*
X046125Y026215D01*
X046125Y026293D02*
X044419Y026293D01*
X044498Y026372D02*
X046125Y026372D01*
X046125Y026450D02*
X044545Y026450D01*
X044545Y026529D02*
X046125Y026529D01*
X046125Y026607D02*
X044539Y026607D01*
X044934Y026030D02*
X044805Y025901D01*
X044805Y025719D01*
X044934Y025590D01*
X045116Y025590D01*
X045245Y025719D01*
X045245Y025901D01*
X045116Y026030D01*
X044934Y026030D01*
X044883Y025979D02*
X042225Y025979D01*
X042225Y025901D02*
X044805Y025901D01*
X044805Y025822D02*
X042225Y025822D01*
X042225Y025744D02*
X044805Y025744D01*
X044859Y025665D02*
X042225Y025665D01*
X042225Y025587D02*
X046125Y025587D01*
X046125Y025665D02*
X045191Y025665D01*
X045245Y025744D02*
X046125Y025744D01*
X046125Y025822D02*
X045245Y025822D01*
X045245Y025901D02*
X046125Y025901D01*
X046125Y025979D02*
X045167Y025979D01*
X046125Y026058D02*
X042225Y026058D01*
X042225Y026136D02*
X046125Y026136D01*
X046125Y025508D02*
X042225Y025508D01*
X042225Y025430D02*
X046125Y025430D01*
X046125Y025351D02*
X042225Y025351D01*
X042225Y025273D02*
X046125Y025273D01*
X046125Y025194D02*
X042225Y025194D01*
X042225Y025116D02*
X042619Y025116D01*
X042634Y025130D02*
X042505Y025001D01*
X042505Y024819D01*
X042634Y024690D01*
X042816Y024690D01*
X042945Y024819D01*
X042945Y025001D01*
X042816Y025130D01*
X042634Y025130D01*
X042541Y025037D02*
X042225Y025037D01*
X042225Y024959D02*
X042505Y024959D01*
X042505Y024880D02*
X042225Y024880D01*
X042225Y024802D02*
X042522Y024802D01*
X042601Y024723D02*
X042225Y024723D01*
X042225Y024645D02*
X043779Y024645D01*
X043834Y024590D02*
X043705Y024719D01*
X043705Y024901D01*
X043834Y025030D01*
X044016Y025030D01*
X044145Y024901D01*
X044145Y024719D01*
X044016Y024590D01*
X043834Y024590D01*
X043705Y024723D02*
X042849Y024723D01*
X042928Y024802D02*
X043705Y024802D01*
X043705Y024880D02*
X042945Y024880D01*
X042945Y024959D02*
X043762Y024959D01*
X044088Y024959D02*
X046125Y024959D01*
X046125Y025037D02*
X042909Y025037D01*
X042831Y025116D02*
X046125Y025116D01*
X046125Y024880D02*
X044145Y024880D01*
X044145Y024802D02*
X046125Y024802D01*
X046125Y024723D02*
X044145Y024723D01*
X044071Y024645D02*
X046125Y024645D01*
X046125Y024566D02*
X042225Y024566D01*
X042225Y024488D02*
X046125Y024488D01*
X046125Y024409D02*
X042225Y024409D01*
X042225Y024331D02*
X046125Y024331D01*
X046125Y024252D02*
X042225Y024252D01*
X042225Y024174D02*
X046125Y024174D01*
X046125Y024095D02*
X042225Y024095D01*
X042225Y024017D02*
X046125Y024017D01*
X046125Y023938D02*
X042225Y023938D01*
X042225Y023860D02*
X046125Y023860D01*
X046125Y023781D02*
X042225Y023781D01*
X042225Y023703D02*
X046125Y023703D01*
X046125Y023624D02*
X042225Y023624D01*
X042225Y023546D02*
X046125Y023546D01*
X046125Y023467D02*
X042225Y023467D01*
X042225Y023389D02*
X046125Y023389D01*
X046125Y023310D02*
X042225Y023310D01*
X042225Y023232D02*
X046125Y023232D01*
X046125Y023153D02*
X042225Y023153D01*
X042225Y023075D02*
X046125Y023075D01*
X046125Y022996D02*
X042225Y022996D01*
X042225Y022918D02*
X046125Y022918D01*
X046125Y022839D02*
X042225Y022839D01*
X042225Y022761D02*
X046125Y022761D01*
X046125Y022682D02*
X042225Y022682D01*
X042225Y022604D02*
X046125Y022604D01*
X046125Y022525D02*
X042225Y022525D01*
X042225Y022447D02*
X046125Y022447D01*
X046125Y022368D02*
X042225Y022368D01*
X042225Y022290D02*
X043793Y022290D01*
X043834Y022330D02*
X043705Y022201D01*
X043705Y022019D01*
X043834Y021890D01*
X044016Y021890D01*
X044145Y022019D01*
X044145Y022201D01*
X044016Y022330D01*
X043834Y022330D01*
X043715Y022211D02*
X042225Y022211D01*
X042225Y022133D02*
X043705Y022133D01*
X043705Y022054D02*
X042225Y022054D01*
X042225Y021976D02*
X043748Y021976D01*
X043827Y021897D02*
X042225Y021897D01*
X042225Y021819D02*
X046125Y021819D01*
X046125Y021897D02*
X044023Y021897D01*
X044102Y021976D02*
X046125Y021976D01*
X046125Y022054D02*
X044145Y022054D01*
X044145Y022133D02*
X046125Y022133D01*
X046125Y022211D02*
X044135Y022211D01*
X044057Y022290D02*
X046125Y022290D01*
X046125Y021740D02*
X042225Y021740D01*
X042225Y021662D02*
X046125Y021662D01*
X046125Y021583D02*
X042225Y021583D01*
X042225Y021505D02*
X046125Y021505D01*
X046125Y021426D02*
X042225Y021426D01*
X042225Y021348D02*
X046125Y021348D01*
X046125Y021269D02*
X042225Y021269D01*
X042225Y021191D02*
X046125Y021191D01*
X046125Y021112D02*
X042225Y021112D01*
X042225Y021034D02*
X046125Y021034D01*
X046125Y020955D02*
X043991Y020955D01*
X044045Y020901D02*
X043916Y021030D01*
X043734Y021030D01*
X043605Y020901D01*
X043605Y020719D01*
X043734Y020590D01*
X043916Y020590D01*
X044045Y020719D01*
X044045Y020901D01*
X044045Y020877D02*
X046125Y020877D01*
X046125Y020798D02*
X044045Y020798D01*
X044045Y020720D02*
X046125Y020720D01*
X046125Y020641D02*
X043967Y020641D01*
X043683Y020641D02*
X042225Y020641D01*
X042225Y020563D02*
X046125Y020563D01*
X046125Y020484D02*
X042225Y020484D01*
X042225Y020406D02*
X046125Y020406D01*
X046125Y020327D02*
X042225Y020327D01*
X042225Y020249D02*
X046125Y020249D01*
X046125Y020170D02*
X042225Y020170D01*
X042225Y020092D02*
X046125Y020092D01*
X046125Y020013D02*
X044333Y020013D01*
X044316Y020030D02*
X044134Y020030D01*
X044005Y019901D01*
X044005Y019719D01*
X044134Y019590D01*
X044316Y019590D01*
X044445Y019719D01*
X044445Y019901D01*
X044316Y020030D01*
X044412Y019935D02*
X046125Y019935D01*
X046125Y019856D02*
X044445Y019856D01*
X044445Y019778D02*
X046125Y019778D01*
X046125Y019699D02*
X044425Y019699D01*
X044347Y019621D02*
X046125Y019621D01*
X046125Y019542D02*
X042225Y019542D01*
X042225Y019464D02*
X046125Y019464D01*
X046125Y019385D02*
X042225Y019385D01*
X042225Y019307D02*
X046125Y019307D01*
X046125Y019228D02*
X042225Y019228D01*
X042225Y019150D02*
X046125Y019150D01*
X046125Y019071D02*
X042225Y019071D01*
X042225Y018993D02*
X046125Y018993D01*
X046125Y018914D02*
X042225Y018914D01*
X042225Y018836D02*
X046125Y018836D01*
X046125Y018757D02*
X035934Y018757D01*
X035895Y018679D02*
X046125Y018679D01*
X046125Y018600D02*
X035826Y018600D01*
X035725Y018522D02*
X046125Y018522D01*
X046125Y018443D02*
X035725Y018443D01*
X035725Y018365D02*
X037968Y018365D01*
X037905Y018301D02*
X037905Y018119D01*
X038034Y017990D01*
X038216Y017990D01*
X038345Y018119D01*
X038345Y018301D01*
X038216Y018430D01*
X038034Y018430D01*
X037905Y018301D01*
X037905Y018286D02*
X035725Y018286D01*
X035725Y018208D02*
X037905Y018208D01*
X037905Y018129D02*
X035725Y018129D01*
X035725Y018051D02*
X037973Y018051D01*
X038277Y018051D02*
X042773Y018051D01*
X042834Y017990D02*
X043016Y017990D01*
X043145Y018119D01*
X043145Y018301D01*
X043016Y018430D01*
X042834Y018430D01*
X042705Y018301D01*
X042705Y018119D01*
X042834Y017990D01*
X042705Y018129D02*
X038345Y018129D01*
X038345Y018208D02*
X042705Y018208D01*
X042705Y018286D02*
X038345Y018286D01*
X038282Y018365D02*
X042768Y018365D01*
X043082Y018365D02*
X046125Y018365D01*
X046125Y018286D02*
X043145Y018286D01*
X043145Y018208D02*
X046125Y018208D01*
X046125Y018129D02*
X043145Y018129D01*
X043077Y018051D02*
X046125Y018051D01*
X046125Y017972D02*
X035725Y017972D01*
X035725Y017894D02*
X044297Y017894D01*
X044334Y017930D02*
X044205Y017801D01*
X044205Y017619D01*
X044334Y017490D01*
X044516Y017490D01*
X044645Y017619D01*
X044645Y017801D01*
X044516Y017930D01*
X044334Y017930D01*
X044219Y017815D02*
X035725Y017815D01*
X035725Y017737D02*
X044205Y017737D01*
X044205Y017658D02*
X035725Y017658D01*
X035725Y017580D02*
X044244Y017580D01*
X044323Y017501D02*
X035725Y017501D01*
X035725Y017423D02*
X037126Y017423D01*
X037134Y017430D02*
X037005Y017301D01*
X037005Y017119D01*
X037134Y016990D01*
X037316Y016990D01*
X037445Y017119D01*
X037445Y017301D01*
X037316Y017430D01*
X037134Y017430D01*
X037048Y017344D02*
X035725Y017344D01*
X035725Y017266D02*
X037005Y017266D01*
X037005Y017187D02*
X035725Y017187D01*
X035725Y017109D02*
X037015Y017109D01*
X037094Y017030D02*
X035725Y017030D01*
X035725Y016952D02*
X040655Y016952D01*
X040605Y016901D02*
X040734Y017030D01*
X040916Y017030D01*
X041045Y016901D01*
X041045Y016719D01*
X040916Y016590D01*
X040734Y016590D01*
X040605Y016719D01*
X040605Y016901D01*
X040605Y016873D02*
X035725Y016873D01*
X035725Y016795D02*
X040605Y016795D01*
X040608Y016716D02*
X035725Y016716D01*
X035725Y016638D02*
X040686Y016638D01*
X040964Y016638D02*
X046125Y016638D01*
X046125Y016716D02*
X041042Y016716D01*
X041045Y016795D02*
X042529Y016795D01*
X042534Y016790D02*
X042716Y016790D01*
X042825Y016899D01*
X042934Y016790D01*
X043116Y016790D01*
X043245Y016919D01*
X043245Y017101D01*
X043116Y017230D01*
X042934Y017230D01*
X042825Y017121D01*
X042716Y017230D01*
X042534Y017230D01*
X042405Y017101D01*
X042405Y016919D01*
X042534Y016790D01*
X042451Y016873D02*
X041045Y016873D01*
X040995Y016952D02*
X042405Y016952D01*
X042405Y017030D02*
X037356Y017030D01*
X037435Y017109D02*
X042412Y017109D01*
X042491Y017187D02*
X037445Y017187D01*
X037445Y017266D02*
X046125Y017266D01*
X046125Y017344D02*
X037402Y017344D01*
X037324Y017423D02*
X046125Y017423D01*
X046125Y017501D02*
X044527Y017501D01*
X044606Y017580D02*
X046125Y017580D01*
X046125Y017658D02*
X044645Y017658D01*
X044645Y017737D02*
X046125Y017737D01*
X046125Y017815D02*
X044631Y017815D01*
X044553Y017894D02*
X046125Y017894D01*
X046125Y017187D02*
X043159Y017187D01*
X043238Y017109D02*
X046125Y017109D01*
X046125Y017030D02*
X043245Y017030D01*
X043245Y016952D02*
X046125Y016952D01*
X046125Y016873D02*
X043199Y016873D01*
X043121Y016795D02*
X046125Y016795D01*
X046125Y016559D02*
X035725Y016559D01*
X035725Y016481D02*
X046125Y016481D01*
X046125Y016402D02*
X035725Y016402D01*
X035725Y016324D02*
X037827Y016324D01*
X037834Y016330D02*
X037705Y016201D01*
X037705Y016019D01*
X037834Y015890D01*
X038016Y015890D01*
X038145Y016019D01*
X038145Y016201D01*
X038016Y016330D01*
X037834Y016330D01*
X037749Y016245D02*
X035725Y016245D01*
X035725Y016167D02*
X037705Y016167D01*
X037705Y016088D02*
X035725Y016088D01*
X035725Y016010D02*
X037714Y016010D01*
X037793Y015931D02*
X035725Y015931D01*
X035725Y015853D02*
X046125Y015853D01*
X046125Y015931D02*
X038057Y015931D01*
X038136Y016010D02*
X046125Y016010D01*
X046125Y016088D02*
X038145Y016088D01*
X038145Y016167D02*
X046125Y016167D01*
X046125Y016245D02*
X038101Y016245D01*
X038023Y016324D02*
X046125Y016324D01*
X046125Y015774D02*
X035725Y015774D01*
X035725Y015696D02*
X046125Y015696D01*
X046125Y015617D02*
X035725Y015617D01*
X035725Y015539D02*
X046125Y015539D01*
X046125Y015460D02*
X035725Y015460D01*
X035725Y015382D02*
X073325Y015382D01*
X073325Y015303D02*
X035725Y015303D01*
X035725Y015225D02*
X073325Y015225D01*
X073325Y015146D02*
X035725Y015146D01*
X035725Y015068D02*
X073325Y015068D01*
X073325Y014989D02*
X064957Y014989D01*
X064916Y015030D02*
X064734Y015030D01*
X064605Y014901D01*
X064605Y014719D01*
X064734Y014590D01*
X064916Y014590D01*
X065045Y014719D01*
X065045Y014901D01*
X064916Y015030D01*
X065036Y014911D02*
X073325Y014911D01*
X073325Y014832D02*
X065045Y014832D01*
X065045Y014754D02*
X073325Y014754D01*
X073325Y014675D02*
X065001Y014675D01*
X064923Y014597D02*
X073325Y014597D01*
X073325Y014518D02*
X062345Y014518D01*
X062345Y014440D02*
X073325Y014440D01*
X073325Y014361D02*
X062287Y014361D01*
X062345Y014419D02*
X062216Y014290D01*
X062034Y014290D01*
X061905Y014419D01*
X061905Y014601D01*
X062034Y014730D01*
X062216Y014730D01*
X062345Y014601D01*
X062345Y014419D01*
X062345Y014597D02*
X064727Y014597D01*
X064649Y014675D02*
X062271Y014675D01*
X061979Y014675D02*
X059301Y014675D01*
X059345Y014719D02*
X059216Y014590D01*
X059034Y014590D01*
X058905Y014719D01*
X058905Y014901D01*
X059034Y015030D01*
X059216Y015030D01*
X059345Y014901D01*
X059345Y014719D01*
X059345Y014754D02*
X064605Y014754D01*
X064605Y014832D02*
X059345Y014832D01*
X059336Y014911D02*
X064614Y014911D01*
X064693Y014989D02*
X059257Y014989D01*
X058993Y014989D02*
X058157Y014989D01*
X058116Y015030D02*
X057934Y015030D01*
X057805Y014901D01*
X057805Y014719D01*
X057934Y014590D01*
X058116Y014590D01*
X058245Y014719D01*
X058245Y014901D01*
X058116Y015030D01*
X058236Y014911D02*
X058914Y014911D01*
X058905Y014832D02*
X058245Y014832D01*
X058245Y014754D02*
X058905Y014754D01*
X058949Y014675D02*
X058201Y014675D01*
X058123Y014597D02*
X059027Y014597D01*
X059223Y014597D02*
X061905Y014597D01*
X061905Y014518D02*
X049944Y014518D01*
X049945Y014519D02*
X049816Y014390D01*
X049634Y014390D01*
X049505Y014519D01*
X049505Y014701D01*
X049634Y014830D01*
X049816Y014830D01*
X049945Y014701D01*
X049945Y014519D01*
X049945Y014597D02*
X057927Y014597D01*
X057849Y014675D02*
X049945Y014675D01*
X049893Y014754D02*
X057805Y014754D01*
X057805Y014832D02*
X047114Y014832D01*
X047145Y014801D02*
X047016Y014930D01*
X046834Y014930D01*
X046705Y014801D01*
X046705Y014619D01*
X046834Y014490D01*
X047016Y014490D01*
X047145Y014619D01*
X047145Y014801D01*
X047145Y014754D02*
X049557Y014754D01*
X049505Y014675D02*
X047145Y014675D01*
X047123Y014597D02*
X049505Y014597D01*
X049506Y014518D02*
X047044Y014518D01*
X046806Y014518D02*
X035725Y014518D01*
X035725Y014440D02*
X049584Y014440D01*
X049866Y014440D02*
X061905Y014440D01*
X061963Y014361D02*
X035725Y014361D01*
X035725Y014283D02*
X073325Y014283D01*
X073325Y014204D02*
X041142Y014204D01*
X041116Y014230D02*
X040934Y014230D01*
X040805Y014101D01*
X040805Y013919D01*
X040934Y013790D01*
X041116Y013790D01*
X041245Y013919D01*
X041245Y014101D01*
X041116Y014230D01*
X041221Y014126D02*
X057898Y014126D01*
X057957Y014150D02*
X057832Y014098D01*
X057737Y014003D01*
X057685Y013878D01*
X057685Y013742D01*
X057737Y013617D01*
X057832Y013522D01*
X057957Y013470D01*
X058093Y013470D01*
X058218Y013522D01*
X058313Y013617D01*
X058365Y013742D01*
X058365Y013878D01*
X058313Y014003D01*
X058218Y014098D01*
X058093Y014150D01*
X057957Y014150D01*
X058152Y014126D02*
X058898Y014126D01*
X058957Y014150D02*
X058832Y014098D01*
X058737Y014003D01*
X058685Y013878D01*
X058685Y013742D01*
X058737Y013617D01*
X058832Y013522D01*
X058957Y013470D01*
X059093Y013470D01*
X059218Y013522D01*
X059313Y013617D01*
X059365Y013742D01*
X059365Y013878D01*
X059313Y014003D01*
X059218Y014098D01*
X059093Y014150D01*
X058957Y014150D01*
X059152Y014126D02*
X073325Y014126D01*
X073325Y014047D02*
X059269Y014047D01*
X059327Y013969D02*
X073325Y013969D01*
X073325Y013890D02*
X059360Y013890D01*
X059365Y013812D02*
X073325Y013812D01*
X073325Y013733D02*
X059361Y013733D01*
X059329Y013655D02*
X073325Y013655D01*
X073325Y013576D02*
X059272Y013576D01*
X059159Y013498D02*
X073325Y013498D01*
X073325Y013419D02*
X044227Y013419D01*
X044216Y013430D02*
X044345Y013301D01*
X044345Y013119D01*
X044216Y012990D01*
X044034Y012990D01*
X043905Y013119D01*
X043905Y013301D01*
X044034Y013430D01*
X044216Y013430D01*
X044306Y013341D02*
X073325Y013341D01*
X073325Y013262D02*
X044345Y013262D01*
X044345Y013184D02*
X058955Y013184D01*
X058985Y013184D02*
X059065Y013184D01*
X059065Y013189D02*
X059065Y012850D01*
X059404Y012850D01*
X059390Y012921D01*
X059362Y012990D01*
X059320Y013052D01*
X059267Y013105D01*
X059205Y013147D01*
X059136Y013175D01*
X059065Y013189D01*
X059095Y013184D02*
X073325Y013184D01*
X073325Y013105D02*
X064741Y013105D01*
X064716Y013130D02*
X064534Y013130D01*
X064405Y013001D01*
X064405Y012819D01*
X064534Y012690D01*
X064716Y012690D01*
X064845Y012819D01*
X064845Y013001D01*
X064716Y013130D01*
X064820Y013027D02*
X073325Y013027D01*
X073325Y012948D02*
X064845Y012948D01*
X064845Y012870D02*
X073325Y012870D01*
X073325Y012791D02*
X064817Y012791D01*
X064739Y012713D02*
X073325Y012713D01*
X073325Y012634D02*
X059363Y012634D01*
X059362Y012630D02*
X059390Y012699D01*
X059404Y012770D01*
X059065Y012770D01*
X059065Y012850D01*
X058985Y012850D01*
X058985Y013189D01*
X058914Y013175D01*
X058845Y013147D01*
X058783Y013105D01*
X058730Y013052D01*
X058688Y012990D01*
X058660Y012921D01*
X058645Y012850D01*
X058985Y012850D01*
X058985Y012770D01*
X059065Y012770D01*
X059065Y012431D01*
X059136Y012445D01*
X059205Y012473D01*
X059267Y012515D01*
X059320Y012568D01*
X059362Y012630D01*
X059393Y012713D02*
X064511Y012713D01*
X064433Y012791D02*
X059065Y012791D01*
X059065Y012713D02*
X058985Y012713D01*
X058985Y012770D02*
X058985Y012431D01*
X058914Y012445D01*
X058845Y012473D01*
X058783Y012515D01*
X058730Y012568D01*
X058688Y012630D01*
X058660Y012699D01*
X058645Y012770D01*
X058985Y012770D01*
X058985Y012791D02*
X058365Y012791D01*
X058365Y012742D02*
X058313Y012617D01*
X058218Y012522D01*
X058093Y012470D01*
X057957Y012470D01*
X057832Y012522D01*
X057737Y012617D01*
X057685Y012742D01*
X057685Y012878D01*
X057737Y013003D01*
X057832Y013098D01*
X057957Y013150D01*
X058093Y013150D01*
X058218Y013098D01*
X058313Y013003D01*
X058365Y012878D01*
X058365Y012742D01*
X058353Y012713D02*
X058657Y012713D01*
X058687Y012634D02*
X058320Y012634D01*
X058251Y012556D02*
X058742Y012556D01*
X058839Y012477D02*
X058109Y012477D01*
X057940Y012477D02*
X035725Y012477D01*
X035725Y012399D02*
X073325Y012399D01*
X073325Y012477D02*
X059211Y012477D01*
X059308Y012556D02*
X073325Y012556D01*
X073325Y012320D02*
X035725Y012320D01*
X035725Y012242D02*
X073325Y012242D01*
X073325Y012163D02*
X053083Y012163D01*
X053145Y012101D02*
X053016Y012230D01*
X052834Y012230D01*
X052705Y012101D01*
X052705Y011919D01*
X052834Y011790D01*
X053016Y011790D01*
X053145Y011919D01*
X053145Y012101D01*
X053145Y012085D02*
X073325Y012085D01*
X073325Y012006D02*
X055940Y012006D01*
X055916Y012030D02*
X055734Y012030D01*
X055605Y011901D01*
X055605Y011719D01*
X055734Y011590D01*
X055916Y011590D01*
X056045Y011719D01*
X056045Y011901D01*
X055916Y012030D01*
X056019Y011928D02*
X073325Y011928D01*
X073325Y011849D02*
X056045Y011849D01*
X056045Y011771D02*
X073325Y011771D01*
X073325Y011692D02*
X062054Y011692D01*
X062016Y011730D02*
X061834Y011730D01*
X061705Y011601D01*
X061705Y011419D01*
X061834Y011290D01*
X062016Y011290D01*
X062145Y011419D01*
X062145Y011601D01*
X062016Y011730D01*
X062133Y011614D02*
X073325Y011614D01*
X073325Y011535D02*
X062145Y011535D01*
X062145Y011457D02*
X073325Y011457D01*
X073325Y011378D02*
X062104Y011378D01*
X062026Y011300D02*
X073325Y011300D01*
X073325Y011221D02*
X035725Y011221D01*
X035725Y011143D02*
X073325Y011143D01*
X073325Y011064D02*
X035725Y011064D01*
X035725Y011300D02*
X061824Y011300D01*
X061746Y011378D02*
X035725Y011378D01*
X035725Y011457D02*
X061705Y011457D01*
X061705Y011535D02*
X035725Y011535D01*
X035725Y011614D02*
X055710Y011614D01*
X055632Y011692D02*
X035725Y011692D01*
X035725Y011771D02*
X055605Y011771D01*
X055605Y011849D02*
X053075Y011849D01*
X053145Y011928D02*
X055631Y011928D01*
X055710Y012006D02*
X053145Y012006D01*
X052775Y011849D02*
X035725Y011849D01*
X035725Y011928D02*
X052705Y011928D01*
X052705Y012006D02*
X035725Y012006D01*
X035725Y012085D02*
X052705Y012085D01*
X052767Y012163D02*
X035725Y012163D01*
X035725Y012556D02*
X057799Y012556D01*
X057730Y012634D02*
X035725Y012634D01*
X035725Y012713D02*
X057697Y012713D01*
X057685Y012791D02*
X035725Y012791D01*
X035725Y012870D02*
X057685Y012870D01*
X057714Y012948D02*
X036474Y012948D01*
X036416Y012890D02*
X036545Y013019D01*
X036545Y013201D01*
X036416Y013330D01*
X036234Y013330D01*
X036105Y013201D01*
X036105Y013019D01*
X036234Y012890D01*
X036416Y012890D01*
X036545Y013027D02*
X043997Y013027D01*
X043919Y013105D02*
X036545Y013105D01*
X036545Y013184D02*
X043905Y013184D01*
X043905Y013262D02*
X036484Y013262D01*
X036166Y013262D02*
X035725Y013262D01*
X035725Y013184D02*
X036105Y013184D01*
X036105Y013105D02*
X035725Y013105D01*
X035725Y013027D02*
X036105Y013027D01*
X036176Y012948D02*
X035725Y012948D01*
X035725Y013341D02*
X043944Y013341D01*
X044023Y013419D02*
X035725Y013419D01*
X035725Y013498D02*
X057891Y013498D01*
X057778Y013576D02*
X035725Y013576D01*
X035725Y013655D02*
X052569Y013655D01*
X052505Y013719D02*
X052634Y013590D01*
X052816Y013590D01*
X052945Y013719D01*
X052945Y013901D01*
X052816Y014030D01*
X052634Y014030D01*
X052505Y013901D01*
X052505Y013719D01*
X052505Y013733D02*
X038259Y013733D01*
X038216Y013690D02*
X038345Y013819D01*
X038345Y014001D01*
X038216Y014130D01*
X038034Y014130D01*
X037905Y014001D01*
X037905Y013819D01*
X038034Y013690D01*
X038216Y013690D01*
X038338Y013812D02*
X040912Y013812D01*
X040834Y013890D02*
X038345Y013890D01*
X038345Y013969D02*
X040805Y013969D01*
X040805Y014047D02*
X038299Y014047D01*
X038221Y014126D02*
X040829Y014126D01*
X040908Y014204D02*
X035725Y014204D01*
X035725Y014126D02*
X038029Y014126D01*
X037951Y014047D02*
X035725Y014047D01*
X035725Y013969D02*
X037905Y013969D01*
X037905Y013890D02*
X035725Y013890D01*
X035725Y013812D02*
X037912Y013812D01*
X037991Y013733D02*
X035725Y013733D01*
X035725Y014597D02*
X046727Y014597D01*
X046705Y014675D02*
X035725Y014675D01*
X035725Y014754D02*
X046705Y014754D01*
X046736Y014832D02*
X035725Y014832D01*
X035725Y014911D02*
X046814Y014911D01*
X047036Y014911D02*
X057814Y014911D01*
X057893Y014989D02*
X035725Y014989D01*
X041138Y013812D02*
X052505Y013812D01*
X052505Y013890D02*
X041216Y013890D01*
X041245Y013969D02*
X052572Y013969D01*
X052878Y013969D02*
X057723Y013969D01*
X057690Y013890D02*
X052945Y013890D01*
X052945Y013812D02*
X057685Y013812D01*
X057689Y013733D02*
X052945Y013733D01*
X052881Y013655D02*
X057721Y013655D01*
X057781Y014047D02*
X041245Y014047D01*
X044253Y013027D02*
X057761Y013027D01*
X057849Y013105D02*
X044331Y013105D01*
X042929Y016795D02*
X042721Y016795D01*
X042799Y016873D02*
X042851Y016873D01*
X042891Y017187D02*
X042759Y017187D01*
X042225Y019621D02*
X044103Y019621D01*
X044025Y019699D02*
X042225Y019699D01*
X042225Y019778D02*
X044005Y019778D01*
X044005Y019856D02*
X042225Y019856D01*
X042225Y019935D02*
X044038Y019935D01*
X044117Y020013D02*
X042225Y020013D01*
X042225Y020720D02*
X043605Y020720D01*
X043605Y020798D02*
X042225Y020798D01*
X042225Y020877D02*
X043605Y020877D01*
X043659Y020955D02*
X042225Y020955D01*
X048425Y022290D02*
X052445Y022290D01*
X052367Y022368D02*
X048425Y022368D01*
X048425Y022447D02*
X052325Y022447D01*
X052325Y022525D02*
X048425Y022525D01*
X048425Y022604D02*
X049720Y022604D01*
X049734Y022590D02*
X049916Y022590D01*
X050045Y022719D01*
X050045Y022901D01*
X049916Y023030D01*
X049734Y023030D01*
X049605Y022901D01*
X049605Y022719D01*
X049734Y022590D01*
X049642Y022682D02*
X048425Y022682D01*
X048425Y022761D02*
X049605Y022761D01*
X049605Y022839D02*
X048425Y022839D01*
X048425Y022918D02*
X049621Y022918D01*
X049700Y022996D02*
X048425Y022996D01*
X048425Y023075D02*
X052325Y023075D01*
X052325Y023153D02*
X048445Y023153D01*
X048445Y023232D02*
X052325Y023232D01*
X052325Y023310D02*
X048436Y023310D01*
X048425Y023389D02*
X052325Y023389D01*
X052325Y023467D02*
X051493Y023467D01*
X051545Y023519D02*
X051416Y023390D01*
X051234Y023390D01*
X051105Y023519D01*
X051105Y023701D01*
X051234Y023830D01*
X051416Y023830D01*
X051545Y023701D01*
X051545Y023519D01*
X051545Y023546D02*
X052325Y023546D01*
X052325Y023624D02*
X051545Y023624D01*
X051544Y023703D02*
X052325Y023703D01*
X052325Y023781D02*
X051465Y023781D01*
X051185Y023781D02*
X048425Y023781D01*
X048425Y023703D02*
X051106Y023703D01*
X051105Y023624D02*
X048425Y023624D01*
X048425Y023546D02*
X051105Y023546D01*
X051157Y023467D02*
X048425Y023467D01*
X048425Y023860D02*
X052325Y023860D01*
X052325Y023938D02*
X048425Y023938D01*
X048425Y024017D02*
X052325Y024017D01*
X052325Y024095D02*
X048425Y024095D01*
X048425Y024174D02*
X052325Y024174D01*
X052325Y024252D02*
X048425Y024252D01*
X048425Y025273D02*
X051076Y025273D01*
X052525Y025587D02*
X054625Y025587D01*
X054625Y025665D02*
X052525Y025665D01*
X052525Y025744D02*
X054625Y025744D01*
X054625Y025822D02*
X052525Y025822D01*
X052525Y025901D02*
X054625Y025901D01*
X054625Y025979D02*
X052525Y025979D01*
X052525Y026058D02*
X054625Y026058D01*
X054625Y026136D02*
X052525Y026136D01*
X052525Y026215D02*
X054625Y026215D01*
X054625Y026293D02*
X052525Y026293D01*
X052525Y026372D02*
X054625Y026372D01*
X052325Y027314D02*
X051540Y027314D01*
X051545Y027392D02*
X052325Y027392D01*
X052325Y027471D02*
X051545Y027471D01*
X051497Y027549D02*
X052325Y027549D01*
X052325Y027628D02*
X051418Y027628D01*
X051231Y027628D02*
X050854Y027628D01*
X050932Y027706D02*
X052325Y027706D01*
X052325Y027785D02*
X050945Y027785D01*
X050945Y027863D02*
X052325Y027863D01*
X052325Y027942D02*
X050904Y027942D01*
X050826Y028020D02*
X052325Y028020D01*
X052325Y029669D02*
X051815Y029669D01*
X051893Y029747D02*
X052325Y029747D01*
X050325Y030061D02*
X042225Y030061D01*
X042225Y029983D02*
X048025Y029983D01*
X048025Y029904D02*
X042225Y029904D01*
X042225Y029826D02*
X048025Y029826D01*
X048025Y029355D02*
X045991Y029355D01*
X046045Y029276D02*
X048025Y029276D01*
X048025Y029198D02*
X046045Y029198D01*
X048025Y028962D02*
X042888Y028962D01*
X042562Y028962D02*
X042225Y028962D01*
X042225Y028884D02*
X048025Y028884D01*
X048025Y028805D02*
X042225Y028805D01*
X042225Y028727D02*
X048025Y028727D01*
X050325Y030140D02*
X042225Y030140D01*
X042225Y030218D02*
X050325Y030218D01*
X050325Y030297D02*
X042225Y030297D01*
X042225Y030375D02*
X050325Y030375D01*
X050325Y030454D02*
X042225Y030454D01*
X042225Y030532D02*
X050325Y030532D01*
X050325Y030611D02*
X042225Y030611D01*
X042225Y030689D02*
X050325Y030689D01*
X050325Y030768D02*
X042225Y030768D01*
X042225Y030846D02*
X050325Y030846D01*
X050325Y030925D02*
X042225Y030925D01*
X042225Y031003D02*
X050325Y031003D01*
X050325Y031082D02*
X042225Y031082D01*
X042225Y031160D02*
X050325Y031160D01*
X050325Y031239D02*
X046265Y031239D01*
X046216Y031190D02*
X046345Y031319D01*
X046345Y031501D01*
X046216Y031630D01*
X046034Y031630D01*
X045905Y031501D01*
X045905Y031319D01*
X046034Y031190D01*
X046216Y031190D01*
X046343Y031317D02*
X050325Y031317D01*
X050325Y031396D02*
X046345Y031396D01*
X046345Y031474D02*
X050325Y031474D01*
X050325Y031553D02*
X049079Y031553D01*
X049016Y031490D02*
X049145Y031619D01*
X049145Y031801D01*
X049016Y031930D01*
X048834Y031930D01*
X048705Y031801D01*
X048705Y031619D01*
X048834Y031490D01*
X049016Y031490D01*
X049145Y031631D02*
X050325Y031631D01*
X050325Y031710D02*
X049145Y031710D01*
X049145Y031788D02*
X050325Y031788D01*
X050325Y031867D02*
X049079Y031867D01*
X048770Y031867D02*
X047793Y031867D01*
X047845Y031919D02*
X047716Y031790D01*
X047534Y031790D01*
X047405Y031919D01*
X047405Y032101D01*
X047534Y032230D01*
X047716Y032230D01*
X047845Y032101D01*
X047845Y031919D01*
X047845Y031945D02*
X050325Y031945D01*
X050325Y032024D02*
X047845Y032024D01*
X047844Y032102D02*
X050325Y032102D01*
X050325Y032181D02*
X047765Y032181D01*
X047484Y032181D02*
X042225Y032181D01*
X042225Y032259D02*
X050325Y032259D01*
X048705Y031788D02*
X043658Y031788D01*
X043616Y031830D02*
X043434Y031830D01*
X043305Y031701D01*
X043305Y031519D01*
X043434Y031390D01*
X043616Y031390D01*
X043745Y031519D01*
X043745Y031701D01*
X043616Y031830D01*
X043736Y031710D02*
X048705Y031710D01*
X048705Y031631D02*
X043745Y031631D01*
X043745Y031553D02*
X045956Y031553D01*
X045905Y031474D02*
X043700Y031474D01*
X043622Y031396D02*
X045905Y031396D01*
X045907Y031317D02*
X042225Y031317D01*
X042225Y031239D02*
X045985Y031239D01*
X046293Y031553D02*
X048771Y031553D01*
X047457Y031867D02*
X042225Y031867D01*
X042225Y031945D02*
X047405Y031945D01*
X047405Y032024D02*
X042225Y032024D01*
X042225Y032102D02*
X047406Y032102D01*
X043392Y031788D02*
X042225Y031788D01*
X042225Y031710D02*
X043313Y031710D01*
X043305Y031631D02*
X042225Y031631D01*
X042225Y031553D02*
X043305Y031553D01*
X043350Y031474D02*
X042225Y031474D01*
X042225Y031396D02*
X043428Y031396D01*
X042580Y029276D02*
X042225Y029276D01*
X042225Y029198D02*
X042505Y029198D01*
X042505Y029119D02*
X042225Y029119D01*
X042225Y029041D02*
X042505Y029041D01*
X049950Y022996D02*
X052325Y022996D01*
X052325Y022918D02*
X050029Y022918D01*
X050045Y022839D02*
X052325Y022839D01*
X052325Y022761D02*
X050045Y022761D01*
X050008Y022682D02*
X052325Y022682D01*
X052325Y022604D02*
X049930Y022604D01*
X048714Y022133D02*
X052602Y022133D01*
X052524Y022211D02*
X048635Y022211D01*
X058269Y014047D02*
X058781Y014047D01*
X058723Y013969D02*
X058327Y013969D01*
X058360Y013890D02*
X058690Y013890D01*
X058685Y013812D02*
X058365Y013812D01*
X058361Y013733D02*
X058689Y013733D01*
X058721Y013655D02*
X058329Y013655D01*
X058272Y013576D02*
X058778Y013576D01*
X058891Y013498D02*
X058159Y013498D01*
X058201Y013105D02*
X058783Y013105D01*
X058713Y013027D02*
X058289Y013027D01*
X058336Y012948D02*
X058671Y012948D01*
X058649Y012870D02*
X058365Y012870D01*
X058985Y012870D02*
X059065Y012870D01*
X059065Y012948D02*
X058985Y012948D01*
X058985Y013027D02*
X059065Y013027D01*
X059065Y013105D02*
X058985Y013105D01*
X059267Y013105D02*
X064509Y013105D01*
X064430Y013027D02*
X059337Y013027D01*
X059379Y012948D02*
X064405Y012948D01*
X064405Y012870D02*
X059401Y012870D01*
X059065Y012634D02*
X058985Y012634D01*
X058985Y012556D02*
X059065Y012556D01*
X059065Y012477D02*
X058985Y012477D01*
X061717Y011614D02*
X055940Y011614D01*
X056018Y011692D02*
X061796Y011692D01*
D17*
X066525Y015110D02*
X066625Y015010D01*
X066525Y015110D02*
X066525Y024410D01*
X055425Y021810D02*
X055325Y021810D01*
X055025Y021810D01*
X052125Y025910D02*
X052125Y026210D01*
X051925Y026410D01*
D18*
X055025Y031310D02*
X057525Y028810D01*
X055025Y031310D02*
X050125Y031310D01*
X045525Y021510D02*
X045425Y021410D01*
X045525Y021510D02*
X045425Y019210D01*
D19*
X054425Y025110D02*
X057725Y025110D01*
X058425Y025810D01*
X062325Y025810D01*
X062725Y026210D01*
X062725Y027110D01*
X048225Y030310D02*
X047625Y030310D01*
X047525Y030210D01*
D20*
X050325Y032610D02*
X050325Y034210D01*
X051825Y035710D01*
X059325Y035710D01*
X062725Y032310D01*
X078025Y032310D01*
X078625Y031710D01*
X080225Y032810D02*
X080425Y033010D01*
X080225Y032810D02*
X064025Y032810D01*
X058925Y037910D01*
X040225Y037910D01*
X038625Y039510D01*
X036225Y039510D01*
X037775Y039760D02*
X036325Y041210D01*
X036325Y041510D01*
X037775Y039760D02*
X038775Y039760D01*
X040325Y038210D01*
X059125Y038210D01*
X064225Y033110D01*
X079925Y033110D01*
X080525Y034410D02*
X066225Y034410D01*
X062725Y037910D01*
X062725Y040166D01*
X061925Y040966D01*
X061569Y040966D01*
X061325Y041210D01*
X058225Y044810D02*
X053325Y039910D01*
X053025Y039910D01*
X053025Y040910D02*
X053325Y040910D01*
X057525Y045110D01*
X081825Y045110D01*
X083425Y043510D01*
X083425Y038210D01*
X082425Y037210D01*
X083225Y036810D02*
X083725Y037310D01*
X083725Y043610D01*
X081925Y045410D01*
X056825Y045410D01*
X053325Y041910D01*
X053025Y041910D01*
X053025Y042910D02*
X053325Y042910D01*
X056125Y045710D01*
X082025Y045710D01*
X084025Y043710D01*
X084025Y037010D01*
X083325Y036310D01*
X085425Y035710D02*
X085925Y035210D01*
X085925Y025710D01*
X086625Y025010D01*
X086625Y009510D01*
X086125Y009010D01*
X043525Y009010D01*
X042225Y010310D01*
X046675Y016460D02*
X047125Y016910D01*
X047125Y021610D01*
X047925Y022410D01*
X048625Y022410D01*
X048225Y023210D02*
X048225Y023910D01*
X050025Y020810D02*
X053825Y017010D01*
X056325Y017010D01*
X056925Y022910D02*
X059425Y025410D01*
X083825Y025410D01*
X085625Y027210D01*
X085625Y034210D01*
X085125Y034710D01*
X081725Y038010D02*
X083125Y039410D01*
X083125Y043410D01*
X081725Y044810D01*
X058225Y044810D01*
X072625Y044146D02*
X072689Y044146D01*
X079125Y037710D01*
X078625Y037110D02*
X073575Y042160D01*
X073525Y042160D01*
X080825Y030860D02*
X077775Y027810D01*
X062175Y027810D01*
X059925Y029510D02*
X059225Y028810D01*
X058875Y028460D01*
X059375Y027460D02*
X078175Y027460D01*
X080825Y030110D01*
X078475Y029510D02*
X059925Y029510D01*
X041725Y022410D02*
X033325Y030810D01*
X033325Y031110D01*
X072725Y014810D02*
X076425Y014810D01*
X086125Y024510D01*
D21*
X058875Y028460D02*
X057425Y027010D01*
X057425Y026310D01*
X054425Y025110D02*
X054225Y025110D01*
X053425Y024610D02*
X053425Y024410D01*
X050625Y022110D02*
X050525Y022010D01*
X048225Y023910D02*
X047825Y024310D01*
X046825Y023310D01*
X046825Y018610D01*
X046625Y018410D01*
X045525Y021810D02*
X045525Y022010D01*
X045625Y022010D01*
X040755Y021850D02*
X040625Y021810D01*
X055325Y021810D02*
X055425Y021710D01*
X055425Y021210D01*
X058125Y018510D01*
X058125Y016610D01*
D22*
X040425Y019310D02*
X040385Y019270D01*
X036245Y019270D01*
X035675Y018760D01*
M02*
