G75*
%MOIN*%
%OFA0B0*%
%FSLAX24Y24*%
%IPPOS*%
%LPD*%
%AMOC8*
5,1,8,0,0,1.08239X$1,22.5*
%
%ADD10R,0.0630X0.1575*%
%ADD11R,0.0945X0.1024*%
%ADD12R,0.0630X0.0512*%
%ADD13R,0.4098X0.4252*%
%ADD14R,0.0850X0.0420*%
%ADD15R,0.0394X0.0157*%
%ADD16R,0.0291X0.0364*%
%ADD17R,0.0276X0.0354*%
%ADD18R,0.0364X0.0291*%
%ADD19R,0.0551X0.0394*%
%ADD20R,0.0709X0.0787*%
%ADD21R,0.0512X0.0630*%
%ADD22R,0.0236X0.0866*%
%ADD23R,0.0591X0.0512*%
%ADD24R,0.0512X0.0591*%
%ADD25R,0.0354X0.0276*%
%ADD26C,0.0059*%
%ADD27R,0.1220X0.1220*%
%ADD28R,0.0591X0.0787*%
%ADD29R,0.0500X0.0220*%
%ADD30R,0.0220X0.0500*%
%ADD31R,0.0551X0.0315*%
%ADD32R,0.0866X0.0709*%
%ADD33R,0.0157X0.0394*%
%ADD34R,0.1180X0.1100*%
%ADD35R,0.0236X0.0394*%
%ADD36R,0.1600X0.0500*%
%ADD37R,0.4252X0.4098*%
%ADD38R,0.0420X0.0850*%
%ADD39R,0.0866X0.0236*%
%ADD40R,0.0354X0.0433*%
%ADD41R,0.0354X0.0551*%
%ADD42R,0.0630X0.1063*%
D10*
X081125Y019312D03*
X083375Y017858D03*
X083375Y015062D03*
X081125Y022108D03*
D11*
X074375Y021200D03*
X074375Y023720D03*
X075125Y017220D03*
X075125Y014700D03*
D12*
X081125Y017266D03*
X081125Y018054D03*
X083375Y013804D03*
X083375Y013016D03*
X049225Y022816D03*
X049225Y023604D03*
X046325Y022004D03*
X046325Y021216D03*
X049075Y020304D03*
X049075Y019516D03*
X037425Y018504D03*
X037425Y017716D03*
X048225Y030816D03*
X048225Y031604D03*
D13*
X069475Y013110D03*
D14*
X072755Y013110D03*
X072755Y012110D03*
X072755Y014110D03*
D15*
X046115Y018327D03*
X046115Y018582D03*
X046115Y018838D03*
X046115Y019094D03*
X044334Y019094D03*
X044334Y018838D03*
X044334Y018582D03*
X044334Y018327D03*
X040016Y019526D03*
X040016Y019782D03*
X040016Y020038D03*
X040016Y020293D03*
X038234Y020293D03*
X038234Y020038D03*
X038234Y019782D03*
X038234Y019526D03*
D16*
X038195Y019166D03*
X038195Y018694D03*
X040625Y018696D03*
X040625Y018224D03*
X040025Y020774D03*
X040025Y021246D03*
X046125Y019946D03*
X046125Y019474D03*
X048475Y020074D03*
X048475Y020546D03*
X047025Y022174D03*
X047025Y022646D03*
X053425Y025074D03*
X053425Y025546D03*
X061225Y028274D03*
X061225Y028746D03*
X050025Y031524D03*
X050025Y031996D03*
X048875Y031246D03*
X048875Y030774D03*
X065725Y041674D03*
X065725Y042146D03*
X065625Y043674D03*
X065625Y044146D03*
D17*
X034849Y018120D03*
X035361Y018120D03*
X043269Y018660D03*
X043269Y019110D03*
X043781Y019110D03*
X043781Y018660D03*
X045419Y016460D03*
X045931Y016460D03*
X049119Y021360D03*
X049631Y021360D03*
X050269Y022810D03*
X050781Y022810D03*
X051719Y023610D03*
X052231Y023610D03*
X055769Y022360D03*
X056281Y022360D03*
X057469Y025810D03*
X057981Y025810D03*
X058869Y025810D03*
X059381Y025810D03*
X062169Y028360D03*
X062681Y028360D03*
X047281Y023610D03*
X047281Y023110D03*
X046769Y023110D03*
X046769Y023610D03*
X056269Y016010D03*
X056781Y016010D03*
X082119Y029510D03*
X082631Y029510D03*
X079581Y031710D03*
X079069Y031710D03*
X083869Y034710D03*
X084381Y034710D03*
X084269Y036010D03*
X084781Y036010D03*
X080881Y042010D03*
X080881Y042510D03*
X080369Y042510D03*
X080369Y042010D03*
X065281Y042210D03*
X064769Y042210D03*
X064669Y044210D03*
X065181Y044210D03*
X052981Y042410D03*
X052469Y042410D03*
X052469Y041410D03*
X052981Y041410D03*
X052981Y040410D03*
X052469Y040410D03*
X052469Y039410D03*
X052981Y039410D03*
X035681Y039510D03*
X035169Y039510D03*
X035169Y041510D03*
X035681Y041510D03*
D18*
X057089Y028310D03*
X057561Y028310D03*
X054961Y023060D03*
X054489Y023060D03*
X048461Y023610D03*
X047989Y023610D03*
X043861Y018210D03*
X043389Y018210D03*
X065689Y035810D03*
X066161Y035810D03*
X066161Y038010D03*
X065689Y038010D03*
X077989Y035410D03*
X078461Y035410D03*
X083089Y035410D03*
X083561Y035410D03*
X079961Y040110D03*
X079489Y040110D03*
D19*
X045958Y023384D03*
X045958Y022636D03*
X045092Y023010D03*
D20*
X036676Y023010D03*
X035574Y023010D03*
D21*
X040831Y021210D03*
X041619Y021210D03*
X044831Y019810D03*
X045619Y019810D03*
X043819Y017610D03*
X043031Y017610D03*
X049181Y022010D03*
X049969Y022010D03*
X049931Y023610D03*
X050719Y023610D03*
X054131Y022410D03*
X054919Y022410D03*
X076431Y035810D03*
X077219Y035810D03*
D22*
X055475Y025834D03*
X054975Y025834D03*
X054475Y025834D03*
X053975Y025834D03*
X053975Y023786D03*
X054475Y023786D03*
X054975Y023786D03*
X055475Y023786D03*
D23*
X040025Y018784D03*
X040025Y018036D03*
X038825Y018036D03*
X038825Y018784D03*
X037425Y019236D03*
X037425Y019984D03*
X036525Y019984D03*
X036525Y019236D03*
X035675Y019246D03*
X035675Y019994D03*
X034825Y020936D03*
X034825Y021684D03*
D24*
X035701Y020910D03*
X036449Y020910D03*
X038451Y021010D03*
X039199Y021010D03*
X040851Y020410D03*
X041599Y020410D03*
D25*
X045425Y017616D03*
X045425Y017104D03*
X045975Y017104D03*
X045975Y017616D03*
X056825Y016966D03*
X056825Y016454D03*
X057525Y016454D03*
X057525Y016966D03*
X056875Y021854D03*
X056875Y022366D03*
X061325Y026754D03*
X061325Y027266D03*
X061925Y027266D03*
X061925Y026754D03*
X057425Y026854D03*
X057425Y027366D03*
X056675Y027354D03*
X056675Y027866D03*
X057425Y029354D03*
X057425Y029866D03*
X059475Y030504D03*
X059475Y031016D03*
X065825Y039954D03*
X065825Y040466D03*
X065325Y040454D03*
X064825Y040454D03*
X064825Y040966D03*
X065325Y040966D03*
X077225Y037566D03*
X077225Y037054D03*
X080525Y040054D03*
X080525Y040566D03*
X080525Y040954D03*
X080525Y041466D03*
X081225Y041466D03*
X081225Y040954D03*
X081225Y040566D03*
X081225Y040054D03*
X081925Y040454D03*
X081925Y040966D03*
X080875Y032466D03*
X080875Y031954D03*
X081525Y031216D03*
X081525Y030704D03*
X079625Y030754D03*
X079625Y031266D03*
X034825Y023066D03*
X034825Y022554D03*
D26*
X049537Y029549D02*
X049537Y029609D01*
X049537Y029549D02*
X049241Y029549D01*
X049241Y029609D01*
X049537Y029609D01*
X049537Y029607D02*
X049241Y029607D01*
X049537Y029804D02*
X049537Y029864D01*
X049537Y029804D02*
X049241Y029804D01*
X049241Y029864D01*
X049537Y029864D01*
X049537Y029862D02*
X049241Y029862D01*
X049537Y030060D02*
X049537Y030120D01*
X049537Y030060D02*
X049241Y030060D01*
X049241Y030120D01*
X049537Y030120D01*
X049537Y030118D02*
X049241Y030118D01*
X049537Y030316D02*
X049537Y030376D01*
X049537Y030316D02*
X049241Y030316D01*
X049241Y030376D01*
X049537Y030376D01*
X049537Y030374D02*
X049241Y030374D01*
X049537Y030572D02*
X049537Y030632D01*
X049537Y030572D02*
X049241Y030572D01*
X049241Y030632D01*
X049537Y030632D01*
X049537Y030630D02*
X049241Y030630D01*
X049832Y030868D02*
X049832Y031164D01*
X049832Y030868D02*
X049772Y030868D01*
X049772Y031164D01*
X049832Y031164D01*
X049832Y030926D02*
X049772Y030926D01*
X049772Y030984D02*
X049832Y030984D01*
X049832Y031042D02*
X049772Y031042D01*
X049772Y031100D02*
X049832Y031100D01*
X049832Y031158D02*
X049772Y031158D01*
X050088Y031164D02*
X050088Y030868D01*
X050028Y030868D01*
X050028Y031164D01*
X050088Y031164D01*
X050088Y030926D02*
X050028Y030926D01*
X050028Y030984D02*
X050088Y030984D01*
X050088Y031042D02*
X050028Y031042D01*
X050028Y031100D02*
X050088Y031100D01*
X050088Y031158D02*
X050028Y031158D01*
X050344Y031164D02*
X050344Y030868D01*
X050284Y030868D01*
X050284Y031164D01*
X050344Y031164D01*
X050344Y030926D02*
X050284Y030926D01*
X050284Y030984D02*
X050344Y030984D01*
X050344Y031042D02*
X050284Y031042D01*
X050284Y031100D02*
X050344Y031100D01*
X050344Y031158D02*
X050284Y031158D01*
X050600Y031164D02*
X050600Y030868D01*
X050540Y030868D01*
X050540Y031164D01*
X050600Y031164D01*
X050600Y030926D02*
X050540Y030926D01*
X050540Y030984D02*
X050600Y030984D01*
X050600Y031042D02*
X050540Y031042D01*
X050540Y031100D02*
X050600Y031100D01*
X050600Y031158D02*
X050540Y031158D01*
X050856Y031164D02*
X050856Y030868D01*
X050796Y030868D01*
X050796Y031164D01*
X050856Y031164D01*
X050856Y030926D02*
X050796Y030926D01*
X050796Y030984D02*
X050856Y030984D01*
X050856Y031042D02*
X050796Y031042D01*
X050796Y031100D02*
X050856Y031100D01*
X050856Y031158D02*
X050796Y031158D01*
X051387Y030632D02*
X051387Y030572D01*
X051091Y030572D01*
X051091Y030632D01*
X051387Y030632D01*
X051387Y030630D02*
X051091Y030630D01*
X051387Y030376D02*
X051387Y030316D01*
X051091Y030316D01*
X051091Y030376D01*
X051387Y030376D01*
X051387Y030374D02*
X051091Y030374D01*
X051387Y030120D02*
X051387Y030060D01*
X051091Y030060D01*
X051091Y030120D01*
X051387Y030120D01*
X051387Y030118D02*
X051091Y030118D01*
X051387Y029864D02*
X051387Y029804D01*
X051091Y029804D01*
X051091Y029864D01*
X051387Y029864D01*
X051387Y029862D02*
X051091Y029862D01*
X051387Y029609D02*
X051387Y029549D01*
X051091Y029549D01*
X051091Y029609D01*
X051387Y029609D01*
X051387Y029607D02*
X051091Y029607D01*
X050856Y029313D02*
X050856Y029017D01*
X050796Y029017D01*
X050796Y029313D01*
X050856Y029313D01*
X050856Y029075D02*
X050796Y029075D01*
X050796Y029133D02*
X050856Y029133D01*
X050856Y029191D02*
X050796Y029191D01*
X050796Y029249D02*
X050856Y029249D01*
X050856Y029307D02*
X050796Y029307D01*
X050600Y029313D02*
X050600Y029017D01*
X050540Y029017D01*
X050540Y029313D01*
X050600Y029313D01*
X050600Y029075D02*
X050540Y029075D01*
X050540Y029133D02*
X050600Y029133D01*
X050600Y029191D02*
X050540Y029191D01*
X050540Y029249D02*
X050600Y029249D01*
X050600Y029307D02*
X050540Y029307D01*
X050344Y029313D02*
X050344Y029017D01*
X050284Y029017D01*
X050284Y029313D01*
X050344Y029313D01*
X050344Y029075D02*
X050284Y029075D01*
X050284Y029133D02*
X050344Y029133D01*
X050344Y029191D02*
X050284Y029191D01*
X050284Y029249D02*
X050344Y029249D01*
X050344Y029307D02*
X050284Y029307D01*
X050088Y029313D02*
X050088Y029017D01*
X050028Y029017D01*
X050028Y029313D01*
X050088Y029313D01*
X050088Y029075D02*
X050028Y029075D01*
X050028Y029133D02*
X050088Y029133D01*
X050088Y029191D02*
X050028Y029191D01*
X050028Y029249D02*
X050088Y029249D01*
X050088Y029307D02*
X050028Y029307D01*
X049832Y029313D02*
X049832Y029017D01*
X049772Y029017D01*
X049772Y029313D01*
X049832Y029313D01*
X049832Y029075D02*
X049772Y029075D01*
X049772Y029133D02*
X049832Y029133D01*
X049832Y029191D02*
X049772Y029191D01*
X049772Y029249D02*
X049832Y029249D01*
X049832Y029307D02*
X049772Y029307D01*
D27*
X050314Y030090D03*
D28*
X049515Y028460D03*
X048334Y028460D03*
D29*
X079035Y034408D03*
X079035Y034723D03*
X079035Y035038D03*
X079035Y035353D03*
X079035Y035667D03*
X079035Y035982D03*
X079035Y036297D03*
X079035Y036612D03*
X082415Y036612D03*
X082415Y036297D03*
X082415Y035982D03*
X082415Y035667D03*
X082415Y035353D03*
X082415Y035038D03*
X082415Y034723D03*
X082415Y034408D03*
D30*
X081827Y033820D03*
X081512Y033820D03*
X081197Y033820D03*
X080882Y033820D03*
X080567Y033820D03*
X080252Y033820D03*
X079938Y033820D03*
X079623Y033820D03*
X079623Y037200D03*
X079938Y037200D03*
X080252Y037200D03*
X080567Y037200D03*
X080882Y037200D03*
X081197Y037200D03*
X081512Y037200D03*
X081827Y037200D03*
D31*
X066245Y036910D03*
X066245Y036319D03*
X066245Y037501D03*
D32*
X067458Y036910D03*
D33*
X048408Y022801D03*
X048152Y022801D03*
X047897Y022801D03*
X047641Y022801D03*
X047641Y021019D03*
X047897Y021019D03*
X048152Y021019D03*
X048408Y021019D03*
D34*
X074350Y019460D03*
X078400Y019460D03*
X076850Y014710D03*
X080900Y014710D03*
D35*
X079975Y042277D03*
X079975Y043143D03*
D36*
X033925Y042460D03*
X033925Y041460D03*
X033925Y040460D03*
X033925Y039460D03*
X033925Y038460D03*
X033925Y037460D03*
X033925Y036460D03*
D37*
X069825Y020510D03*
D38*
X069825Y017230D03*
X070825Y017230D03*
X068825Y017230D03*
D39*
X060449Y026810D03*
X060449Y027310D03*
X060449Y027810D03*
X060449Y028310D03*
X060449Y028810D03*
X060449Y029310D03*
X060449Y029810D03*
X058401Y029810D03*
X058401Y029310D03*
X058401Y028810D03*
X058401Y028310D03*
X058401Y027810D03*
X058401Y027310D03*
X058401Y026810D03*
D40*
X038175Y037957D03*
X038175Y038863D03*
D41*
X036875Y038410D03*
D42*
X047874Y026310D03*
X048976Y026310D03*
X048976Y025110D03*
X047874Y025110D03*
M02*
