%
M48
M72
T01C0.0080
T02C0.0200
T03C0.0320
T04C0.0354
T05C0.0360
T06C0.0400
T07C0.0787
T08C0.1100
%
T01
X29825Y14010
X30125Y15610
X32625Y16510
X31925Y18910
X33825Y19910
X33425Y21110
X34325Y22410
X34625Y23610
X35025Y24510
X33325Y24110
X31125Y23910
X29725Y23510
X29725Y27310
X33325Y27210
X35625Y28010
X37325Y30010
X38425Y28910
X39625Y27710
X41125Y27610
X42225Y26410
X43325Y27610
X44525Y28210
X45825Y28410
X46725Y28310
X47525Y27910
X48225Y27710
X49525Y27710
X50725Y27810
X51325Y27410
X52625Y26910
X53725Y26810
X54225Y27110
X55125Y27710
X53925Y28310
X55125Y28810
X53925Y29310
X55125Y29810
X55225Y30410
X53925Y30310
X55125Y31810
X53925Y32310
X55125Y32810
X53925Y33310
X55125Y33810
X53925Y34310
X55225Y34810
X55425Y36310
X57125Y36410
X58825Y36210
X57925Y35210
X58625Y34710
X58425Y33610
X57125Y33410
X57125Y34410
X60125Y32310
X56725Y31410
X57525Y28810
X56525Y28610
X59225Y28810
X59375Y27460
X57425Y26310
X56625Y26310
X58425Y25810
X55175Y24660
X54425Y25110
X53425Y24610
X53425Y24010
X52675Y24560
X51825Y24710
X51825Y25310
X51225Y25110
X50825Y24610
X50325Y25010
X50025Y24210
X49325Y24210
X48725Y24210
X47825Y24310
X48225Y23210
X49825Y22810
X50525Y22010
X50025Y20810
X49725Y20310
X49325Y20810
X48025Y20310
X47625Y20310
X48225Y19610
X49225Y19010
X49225Y18410
X48725Y17010
X46675Y16460
X44425Y17710
X43025Y17010
X42625Y17010
X42925Y18210
X40825Y16810
X37925Y16110
X37225Y17210
X38125Y18210
X36825Y18510
X35675Y18760
X37125Y21010
X36425Y22110
X37925Y22410
X38325Y21910
X39025Y21910
X39625Y21610
X40755Y21850
X41625Y21810
X41725Y22410
X40125Y23410
X38525Y23510
X38625Y24610
X37925Y24810
X40425Y26010
X42725Y24910
X43925Y24810
X45025Y25810
X44325Y26510
X45025Y27010
X45825Y29210
X48325Y29210
X49425Y29210
X48725Y30310
X48225Y30310
X48925Y31710
X47625Y32010
X46125Y31410
X43525Y31610
X41325Y30910
X39925Y30510
X42725Y29110
X37325Y32410
X35425Y31910
X32825Y32510
X29825Y31310
X29525Y34510
X33725Y35810
X35925Y36410
X36925Y36010
X38525Y36010
X39925Y36210
X42325Y36210
X39125Y37610
X39025Y38310
X36225Y39510
X35525Y37910
X39925Y40910
X37125Y43010
X36325Y41510
X38625Y44010
X36025Y44810
X34025Y44310
X42825Y43510
X44425Y45010
X46725Y42110
X43925Y40510
X47625Y39510
X51725Y37210
X52925Y36310
X52025Y34810
X51425Y34410
X50325Y32610
X49825Y32610
X47525Y34210
X46425Y36210
X45225Y33410
X41325Y33110
X39325Y33510
X51675Y29840
X51025Y26010
X52125Y25910
X51325Y23610
X52925Y22810
X53325Y22410
X53525Y23010
X55425Y22610
X55625Y21910
X55025Y21810
X56925Y22910
X57925Y22460
X58925Y23010
X60325Y23410
X62325Y23510
X64525Y23610
X67425Y23510
X68625Y24410
X68725Y26210
X68525Y28310
X70325Y30410
X70625Y31710
X68425Y31610
X67325Y33910
X67425Y35210
X68625Y34910
X68125Y35910
X68425Y36510
X68625Y37210
X68125Y38710
X67625Y39610
X67025Y38910
X68725Y39610
X69325Y38710
X71725Y39610
X73325Y38610
X73625Y37510
X72325Y36910
X71825Y36310
X73425Y35010
X73525Y33910
X74825Y33710
X75525Y34710
X75925Y35810
X76125Y36510
X75525Y36710
X76725Y34810
X78025Y35010
X78025Y33810
X77025Y33810
X79825Y34710
X80525Y34410
X80425Y33010
X79925Y33110
X78625Y31710
X78725Y30410
X80075Y30760
X80825Y30860
X80825Y30110
X82975Y30060
X85025Y28610
X84825Y27410
X84125Y27410
X85325Y25810
X86125Y24510
X85925Y23610
X83925Y23510
X82225Y22610
X81425Y23510
X80225Y22910
X79025Y21910
X78125Y22010
X77525Y21410
X76125Y20810
X75125Y22110
X73625Y22010
X73425Y23010
X73525Y23810
X75225Y23810
X77925Y23510
X81125Y26710
X76725Y28810
X78475Y29510
X74325Y30610
X73375Y31660
X71025Y33710
X65525Y36210
X65225Y36710
X65525Y37510
X64925Y37910
X64325Y37510
X61725Y36910
X63425Y35610
X64525Y35310
X58525Y40210
X57825Y41110
X59325Y41610
X56625Y40310
X53025Y39910
X53025Y40910
X53025Y41910
X53025Y42910
X51925Y45010
X53925Y45310
X58025Y43710
X59425Y43810
X64825Y43210
X66125Y43210
X67325Y43210
X68125Y43410
X69525Y43410
X70525Y42910
X72425Y41610
X73525Y42160
X73725Y40510
X75625Y38610
X77925Y40510
X78625Y39610
X80025Y39610
X80125Y38810
X79125Y37710
X78625Y37110
X80425Y36110
X79725Y35710
X81625Y35510
X81525Y36410
X82425Y37210
X83225Y36810
X83325Y36310
X84125Y35210
X85025Y35110
X85125Y34710
X85425Y35710
X85025Y37110
X85725Y38310
X85025Y39110
X85125Y40410
X85225Y41910
X82525Y39710
X81925Y39810
X78825Y41410
X77325Y42110
X75725Y43110
X76325Y44110
X74625Y44010
X72625Y44146
X68025Y41710
X68825Y40410
X65925Y41110
X78725Y43810
X84725Y44410
X86725Y45010
X81725Y38010
X83825Y34110
X85025Y33910
X83225Y32210
X82325Y32210
X73325Y26610
X71025Y23510
X73425Y20910
X74725Y18410
X73825Y17410
X76625Y17410
X76925Y16810
X78725Y17710
X79525Y16310
X81125Y16710
X82325Y18410
X84225Y18510
X85525Y20210
X85225Y21210
X82625Y13710
X83325Y12410
X84125Y10310
X88225Y10210
X80225Y12710
X77025Y12310
X76125Y10710
X78525Y10310
X73425Y9810
X66225Y10310
X64625Y12910
X64825Y14810
X63625Y16610
X62125Y14510
X59125Y14810
X58025Y14810
X58025Y15910
X58125Y16610
X59225Y15810
X56325Y17010
X54825Y17460
X54325Y16310
X55825Y16010
X53325Y18210
X53425Y18910
X52525Y19910
X52725Y20910
X56225Y19260
X57375Y20960
X58325Y21610
X59425Y21710
X59975Y20760
X62625Y21110
X65725Y21710
X65425Y18510
X59725Y18510
X56325Y23710
X62175Y27810
X61725Y28310
X62725Y27110
X63825Y26210
X64025Y30710
X48525Y22010
X46425Y20610
X45425Y19210
X44225Y19810
X43825Y20810
X43925Y22110
X45625Y22010
X41625Y19710
X40425Y19310
X46625Y18410
X51825Y16310
X49725Y14610
X46925Y14710
X44125Y13210
X41025Y14010
X38125Y13910
X36325Y13110
X32525Y10810
X34925Y10210
X39725Y10310
X42225Y10310
X44825Y10010
X47325Y10610
X51925Y9910
X52925Y12010
X52725Y13810
X55825Y11810
X61925Y11510
X61825Y9510
X29625Y19210
T02
X66525Y24410
T03
X70825Y16310
X72725Y14810
X59025Y13810
X58025Y13810
X58025Y12810
X59025Y12810
T04
X33325Y14110
X33325Y15110
X33325Y22110
X33325Y23110
X33325Y30110
X33325Y31110
T05
X87325Y30610
X87325Y29610
X87325Y28610
X87325Y27610
X87325Y26610
X87325Y25610
X87325Y24610
X87325Y23610
X87325Y22610
X87325Y21610
X87325Y20610
X87325Y19610
X87325Y18610
X87325Y17610
X87325Y16610
X87325Y15610
X87325Y14610
X87325Y13610
X87325Y12610
X87325Y11610
X89325Y11610
X89325Y12610
X89325Y13610
X89325Y14610
X89325Y15610
X89325Y16610
X89325Y17610
X89325Y18610
X89325Y19610
X89325Y20610
X89325Y21610
X89325Y22610
X89325Y23610
X89325Y24610
X89325Y25610
X89325Y26610
X89325Y27610
X89325Y28610
X89325Y29610
X89325Y30610
X89325Y31610
X89325Y32610
X89325Y33610
X89325Y34610
X89325Y35610
X89325Y36610
X89325Y37610
X89325Y38610
X89325Y39610
X89325Y40610
X89325Y41610
X89325Y42610
X87325Y42610
X87325Y41610
X87325Y40610
X87325Y39610
X87325Y38610
X87325Y37610
X87325Y36610
X87325Y35610
X87325Y34610
X87325Y33610
X87325Y32610
X87325Y31610
T06
X84725Y31710
X83725Y31710
X83725Y30710
X84725Y30710
X84725Y32710
X83725Y32710
X77925Y30710
X76925Y30710
X75925Y30710
X70525Y35110
X70525Y36110
X70525Y37110
X70525Y38110
X70525Y39110
X70525Y40110
X74525Y37210
X74525Y36210
X61325Y40210
X61325Y41210
X61325Y42210
X61325Y43210
X61325Y44210
X50225Y43710
X50225Y44710
X50225Y42710
X50225Y41710
X50225Y40710
X50225Y39710
X50225Y38710
X53425Y34810
X54425Y34810
X54425Y33810
X53425Y33810
X53425Y32810
X54425Y32810
X54425Y31810
X54425Y30810
X53425Y30810
X53425Y31810
X53425Y29810
X54425Y29810
X54425Y28810
X53425Y28810
X53425Y27810
X54425Y27810
T07
X31325Y29110
X31325Y33110
X31325Y25110
X31325Y21110
X31325Y17110
X31325Y13110
T08
X29825Y9610
X90325Y9610
X90325Y44610
M30
