G75*
%MOIN*%
%OFA0B0*%
%FSLAX24Y24*%
%IPPOS*%
%LPD*%
%AMOC8*
5,1,8,0,0,1.08239X$1,22.5*
%
%ADD10C,0.0000*%
%ADD11C,0.0020*%
D10*
X028425Y007420D02*
X028425Y035610D01*
X032525Y035610D01*
X032525Y046800D01*
X091425Y046800D01*
X091425Y007420D01*
X028425Y007420D01*
X029275Y009610D02*
X029277Y009657D01*
X029283Y009703D01*
X029293Y009749D01*
X029306Y009793D01*
X029324Y009837D01*
X029345Y009878D01*
X029369Y009918D01*
X029397Y009956D01*
X029428Y009991D01*
X029462Y010023D01*
X029498Y010052D01*
X029537Y010078D01*
X029577Y010101D01*
X029620Y010120D01*
X029664Y010136D01*
X029709Y010148D01*
X029755Y010156D01*
X029802Y010160D01*
X029848Y010160D01*
X029895Y010156D01*
X029941Y010148D01*
X029986Y010136D01*
X030030Y010120D01*
X030073Y010101D01*
X030113Y010078D01*
X030152Y010052D01*
X030188Y010023D01*
X030222Y009991D01*
X030253Y009956D01*
X030281Y009918D01*
X030305Y009878D01*
X030326Y009837D01*
X030344Y009793D01*
X030357Y009749D01*
X030367Y009703D01*
X030373Y009657D01*
X030375Y009610D01*
X030373Y009563D01*
X030367Y009517D01*
X030357Y009471D01*
X030344Y009427D01*
X030326Y009383D01*
X030305Y009342D01*
X030281Y009302D01*
X030253Y009264D01*
X030222Y009229D01*
X030188Y009197D01*
X030152Y009168D01*
X030113Y009142D01*
X030073Y009119D01*
X030030Y009100D01*
X029986Y009084D01*
X029941Y009072D01*
X029895Y009064D01*
X029848Y009060D01*
X029802Y009060D01*
X029755Y009064D01*
X029709Y009072D01*
X029664Y009084D01*
X029620Y009100D01*
X029577Y009119D01*
X029537Y009142D01*
X029498Y009168D01*
X029462Y009197D01*
X029428Y009229D01*
X029397Y009264D01*
X029369Y009302D01*
X029345Y009342D01*
X029324Y009383D01*
X029306Y009427D01*
X029293Y009471D01*
X029283Y009517D01*
X029277Y009563D01*
X029275Y009610D01*
X030931Y013110D02*
X030933Y013149D01*
X030939Y013188D01*
X030949Y013226D01*
X030962Y013263D01*
X030979Y013298D01*
X030999Y013332D01*
X031023Y013363D01*
X031050Y013392D01*
X031079Y013418D01*
X031111Y013441D01*
X031145Y013461D01*
X031181Y013477D01*
X031218Y013489D01*
X031257Y013498D01*
X031296Y013503D01*
X031335Y013504D01*
X031374Y013501D01*
X031413Y013494D01*
X031450Y013483D01*
X031487Y013469D01*
X031522Y013451D01*
X031555Y013430D01*
X031586Y013405D01*
X031614Y013378D01*
X031639Y013348D01*
X031661Y013315D01*
X031680Y013281D01*
X031695Y013245D01*
X031707Y013207D01*
X031715Y013169D01*
X031719Y013130D01*
X031719Y013090D01*
X031715Y013051D01*
X031707Y013013D01*
X031695Y012975D01*
X031680Y012939D01*
X031661Y012905D01*
X031639Y012872D01*
X031614Y012842D01*
X031586Y012815D01*
X031555Y012790D01*
X031522Y012769D01*
X031487Y012751D01*
X031450Y012737D01*
X031413Y012726D01*
X031374Y012719D01*
X031335Y012716D01*
X031296Y012717D01*
X031257Y012722D01*
X031218Y012731D01*
X031181Y012743D01*
X031145Y012759D01*
X031111Y012779D01*
X031079Y012802D01*
X031050Y012828D01*
X031023Y012857D01*
X030999Y012888D01*
X030979Y012922D01*
X030962Y012957D01*
X030949Y012994D01*
X030939Y013032D01*
X030933Y013071D01*
X030931Y013110D01*
X030931Y017110D02*
X030933Y017149D01*
X030939Y017188D01*
X030949Y017226D01*
X030962Y017263D01*
X030979Y017298D01*
X030999Y017332D01*
X031023Y017363D01*
X031050Y017392D01*
X031079Y017418D01*
X031111Y017441D01*
X031145Y017461D01*
X031181Y017477D01*
X031218Y017489D01*
X031257Y017498D01*
X031296Y017503D01*
X031335Y017504D01*
X031374Y017501D01*
X031413Y017494D01*
X031450Y017483D01*
X031487Y017469D01*
X031522Y017451D01*
X031555Y017430D01*
X031586Y017405D01*
X031614Y017378D01*
X031639Y017348D01*
X031661Y017315D01*
X031680Y017281D01*
X031695Y017245D01*
X031707Y017207D01*
X031715Y017169D01*
X031719Y017130D01*
X031719Y017090D01*
X031715Y017051D01*
X031707Y017013D01*
X031695Y016975D01*
X031680Y016939D01*
X031661Y016905D01*
X031639Y016872D01*
X031614Y016842D01*
X031586Y016815D01*
X031555Y016790D01*
X031522Y016769D01*
X031487Y016751D01*
X031450Y016737D01*
X031413Y016726D01*
X031374Y016719D01*
X031335Y016716D01*
X031296Y016717D01*
X031257Y016722D01*
X031218Y016731D01*
X031181Y016743D01*
X031145Y016759D01*
X031111Y016779D01*
X031079Y016802D01*
X031050Y016828D01*
X031023Y016857D01*
X030999Y016888D01*
X030979Y016922D01*
X030962Y016957D01*
X030949Y016994D01*
X030939Y017032D01*
X030933Y017071D01*
X030931Y017110D01*
X030931Y021110D02*
X030933Y021149D01*
X030939Y021188D01*
X030949Y021226D01*
X030962Y021263D01*
X030979Y021298D01*
X030999Y021332D01*
X031023Y021363D01*
X031050Y021392D01*
X031079Y021418D01*
X031111Y021441D01*
X031145Y021461D01*
X031181Y021477D01*
X031218Y021489D01*
X031257Y021498D01*
X031296Y021503D01*
X031335Y021504D01*
X031374Y021501D01*
X031413Y021494D01*
X031450Y021483D01*
X031487Y021469D01*
X031522Y021451D01*
X031555Y021430D01*
X031586Y021405D01*
X031614Y021378D01*
X031639Y021348D01*
X031661Y021315D01*
X031680Y021281D01*
X031695Y021245D01*
X031707Y021207D01*
X031715Y021169D01*
X031719Y021130D01*
X031719Y021090D01*
X031715Y021051D01*
X031707Y021013D01*
X031695Y020975D01*
X031680Y020939D01*
X031661Y020905D01*
X031639Y020872D01*
X031614Y020842D01*
X031586Y020815D01*
X031555Y020790D01*
X031522Y020769D01*
X031487Y020751D01*
X031450Y020737D01*
X031413Y020726D01*
X031374Y020719D01*
X031335Y020716D01*
X031296Y020717D01*
X031257Y020722D01*
X031218Y020731D01*
X031181Y020743D01*
X031145Y020759D01*
X031111Y020779D01*
X031079Y020802D01*
X031050Y020828D01*
X031023Y020857D01*
X030999Y020888D01*
X030979Y020922D01*
X030962Y020957D01*
X030949Y020994D01*
X030939Y021032D01*
X030933Y021071D01*
X030931Y021110D01*
X030931Y025110D02*
X030933Y025149D01*
X030939Y025188D01*
X030949Y025226D01*
X030962Y025263D01*
X030979Y025298D01*
X030999Y025332D01*
X031023Y025363D01*
X031050Y025392D01*
X031079Y025418D01*
X031111Y025441D01*
X031145Y025461D01*
X031181Y025477D01*
X031218Y025489D01*
X031257Y025498D01*
X031296Y025503D01*
X031335Y025504D01*
X031374Y025501D01*
X031413Y025494D01*
X031450Y025483D01*
X031487Y025469D01*
X031522Y025451D01*
X031555Y025430D01*
X031586Y025405D01*
X031614Y025378D01*
X031639Y025348D01*
X031661Y025315D01*
X031680Y025281D01*
X031695Y025245D01*
X031707Y025207D01*
X031715Y025169D01*
X031719Y025130D01*
X031719Y025090D01*
X031715Y025051D01*
X031707Y025013D01*
X031695Y024975D01*
X031680Y024939D01*
X031661Y024905D01*
X031639Y024872D01*
X031614Y024842D01*
X031586Y024815D01*
X031555Y024790D01*
X031522Y024769D01*
X031487Y024751D01*
X031450Y024737D01*
X031413Y024726D01*
X031374Y024719D01*
X031335Y024716D01*
X031296Y024717D01*
X031257Y024722D01*
X031218Y024731D01*
X031181Y024743D01*
X031145Y024759D01*
X031111Y024779D01*
X031079Y024802D01*
X031050Y024828D01*
X031023Y024857D01*
X030999Y024888D01*
X030979Y024922D01*
X030962Y024957D01*
X030949Y024994D01*
X030939Y025032D01*
X030933Y025071D01*
X030931Y025110D01*
X030931Y029110D02*
X030933Y029149D01*
X030939Y029188D01*
X030949Y029226D01*
X030962Y029263D01*
X030979Y029298D01*
X030999Y029332D01*
X031023Y029363D01*
X031050Y029392D01*
X031079Y029418D01*
X031111Y029441D01*
X031145Y029461D01*
X031181Y029477D01*
X031218Y029489D01*
X031257Y029498D01*
X031296Y029503D01*
X031335Y029504D01*
X031374Y029501D01*
X031413Y029494D01*
X031450Y029483D01*
X031487Y029469D01*
X031522Y029451D01*
X031555Y029430D01*
X031586Y029405D01*
X031614Y029378D01*
X031639Y029348D01*
X031661Y029315D01*
X031680Y029281D01*
X031695Y029245D01*
X031707Y029207D01*
X031715Y029169D01*
X031719Y029130D01*
X031719Y029090D01*
X031715Y029051D01*
X031707Y029013D01*
X031695Y028975D01*
X031680Y028939D01*
X031661Y028905D01*
X031639Y028872D01*
X031614Y028842D01*
X031586Y028815D01*
X031555Y028790D01*
X031522Y028769D01*
X031487Y028751D01*
X031450Y028737D01*
X031413Y028726D01*
X031374Y028719D01*
X031335Y028716D01*
X031296Y028717D01*
X031257Y028722D01*
X031218Y028731D01*
X031181Y028743D01*
X031145Y028759D01*
X031111Y028779D01*
X031079Y028802D01*
X031050Y028828D01*
X031023Y028857D01*
X030999Y028888D01*
X030979Y028922D01*
X030962Y028957D01*
X030949Y028994D01*
X030939Y029032D01*
X030933Y029071D01*
X030931Y029110D01*
X030931Y033110D02*
X030933Y033149D01*
X030939Y033188D01*
X030949Y033226D01*
X030962Y033263D01*
X030979Y033298D01*
X030999Y033332D01*
X031023Y033363D01*
X031050Y033392D01*
X031079Y033418D01*
X031111Y033441D01*
X031145Y033461D01*
X031181Y033477D01*
X031218Y033489D01*
X031257Y033498D01*
X031296Y033503D01*
X031335Y033504D01*
X031374Y033501D01*
X031413Y033494D01*
X031450Y033483D01*
X031487Y033469D01*
X031522Y033451D01*
X031555Y033430D01*
X031586Y033405D01*
X031614Y033378D01*
X031639Y033348D01*
X031661Y033315D01*
X031680Y033281D01*
X031695Y033245D01*
X031707Y033207D01*
X031715Y033169D01*
X031719Y033130D01*
X031719Y033090D01*
X031715Y033051D01*
X031707Y033013D01*
X031695Y032975D01*
X031680Y032939D01*
X031661Y032905D01*
X031639Y032872D01*
X031614Y032842D01*
X031586Y032815D01*
X031555Y032790D01*
X031522Y032769D01*
X031487Y032751D01*
X031450Y032737D01*
X031413Y032726D01*
X031374Y032719D01*
X031335Y032716D01*
X031296Y032717D01*
X031257Y032722D01*
X031218Y032731D01*
X031181Y032743D01*
X031145Y032759D01*
X031111Y032779D01*
X031079Y032802D01*
X031050Y032828D01*
X031023Y032857D01*
X030999Y032888D01*
X030979Y032922D01*
X030962Y032957D01*
X030949Y032994D01*
X030939Y033032D01*
X030933Y033071D01*
X030931Y033110D01*
X089775Y044610D02*
X089777Y044657D01*
X089783Y044703D01*
X089793Y044749D01*
X089806Y044793D01*
X089824Y044837D01*
X089845Y044878D01*
X089869Y044918D01*
X089897Y044956D01*
X089928Y044991D01*
X089962Y045023D01*
X089998Y045052D01*
X090037Y045078D01*
X090077Y045101D01*
X090120Y045120D01*
X090164Y045136D01*
X090209Y045148D01*
X090255Y045156D01*
X090302Y045160D01*
X090348Y045160D01*
X090395Y045156D01*
X090441Y045148D01*
X090486Y045136D01*
X090530Y045120D01*
X090573Y045101D01*
X090613Y045078D01*
X090652Y045052D01*
X090688Y045023D01*
X090722Y044991D01*
X090753Y044956D01*
X090781Y044918D01*
X090805Y044878D01*
X090826Y044837D01*
X090844Y044793D01*
X090857Y044749D01*
X090867Y044703D01*
X090873Y044657D01*
X090875Y044610D01*
X090873Y044563D01*
X090867Y044517D01*
X090857Y044471D01*
X090844Y044427D01*
X090826Y044383D01*
X090805Y044342D01*
X090781Y044302D01*
X090753Y044264D01*
X090722Y044229D01*
X090688Y044197D01*
X090652Y044168D01*
X090613Y044142D01*
X090573Y044119D01*
X090530Y044100D01*
X090486Y044084D01*
X090441Y044072D01*
X090395Y044064D01*
X090348Y044060D01*
X090302Y044060D01*
X090255Y044064D01*
X090209Y044072D01*
X090164Y044084D01*
X090120Y044100D01*
X090077Y044119D01*
X090037Y044142D01*
X089998Y044168D01*
X089962Y044197D01*
X089928Y044229D01*
X089897Y044264D01*
X089869Y044302D01*
X089845Y044342D01*
X089824Y044383D01*
X089806Y044427D01*
X089793Y044471D01*
X089783Y044517D01*
X089777Y044563D01*
X089775Y044610D01*
X089775Y009610D02*
X089777Y009657D01*
X089783Y009703D01*
X089793Y009749D01*
X089806Y009793D01*
X089824Y009837D01*
X089845Y009878D01*
X089869Y009918D01*
X089897Y009956D01*
X089928Y009991D01*
X089962Y010023D01*
X089998Y010052D01*
X090037Y010078D01*
X090077Y010101D01*
X090120Y010120D01*
X090164Y010136D01*
X090209Y010148D01*
X090255Y010156D01*
X090302Y010160D01*
X090348Y010160D01*
X090395Y010156D01*
X090441Y010148D01*
X090486Y010136D01*
X090530Y010120D01*
X090573Y010101D01*
X090613Y010078D01*
X090652Y010052D01*
X090688Y010023D01*
X090722Y009991D01*
X090753Y009956D01*
X090781Y009918D01*
X090805Y009878D01*
X090826Y009837D01*
X090844Y009793D01*
X090857Y009749D01*
X090867Y009703D01*
X090873Y009657D01*
X090875Y009610D01*
X090873Y009563D01*
X090867Y009517D01*
X090857Y009471D01*
X090844Y009427D01*
X090826Y009383D01*
X090805Y009342D01*
X090781Y009302D01*
X090753Y009264D01*
X090722Y009229D01*
X090688Y009197D01*
X090652Y009168D01*
X090613Y009142D01*
X090573Y009119D01*
X090530Y009100D01*
X090486Y009084D01*
X090441Y009072D01*
X090395Y009064D01*
X090348Y009060D01*
X090302Y009060D01*
X090255Y009064D01*
X090209Y009072D01*
X090164Y009084D01*
X090120Y009100D01*
X090077Y009119D01*
X090037Y009142D01*
X089998Y009168D01*
X089962Y009197D01*
X089928Y009229D01*
X089897Y009264D01*
X089869Y009302D01*
X089845Y009342D01*
X089824Y009383D01*
X089806Y009427D01*
X089793Y009471D01*
X089783Y009517D01*
X089777Y009563D01*
X089775Y009610D01*
D11*
X051159Y022195D02*
X051129Y022164D01*
X051069Y022164D01*
X051039Y022195D01*
X050974Y022195D02*
X050944Y022164D01*
X050884Y022164D01*
X050854Y022195D01*
X050854Y022315D01*
X050884Y022345D01*
X050944Y022345D01*
X050974Y022315D01*
X050974Y022285D01*
X050944Y022255D01*
X050854Y022255D01*
X051039Y022315D02*
X051069Y022345D01*
X051129Y022345D01*
X051159Y022315D01*
X051159Y022195D01*
X050860Y024076D02*
X050799Y024076D01*
X050769Y024106D01*
X050705Y024106D02*
X050705Y024076D01*
X050705Y024106D02*
X050585Y024226D01*
X050585Y024256D01*
X050705Y024256D01*
X050769Y024226D02*
X050799Y024256D01*
X050860Y024256D01*
X050890Y024226D01*
X050890Y024106D01*
X050860Y024076D01*
X049160Y024556D02*
X049160Y024616D01*
X049130Y024646D01*
X049130Y024710D02*
X049100Y024710D01*
X049069Y024740D01*
X049069Y024801D01*
X049039Y024831D01*
X049009Y024831D01*
X048979Y024801D01*
X048979Y024740D01*
X049009Y024710D01*
X049039Y024710D01*
X049069Y024740D01*
X049069Y024801D02*
X049100Y024831D01*
X049130Y024831D01*
X049160Y024801D01*
X049160Y024740D01*
X049130Y024710D01*
X049009Y024646D02*
X048979Y024616D01*
X048979Y024556D01*
X049009Y024526D01*
X049130Y024526D01*
X049160Y024556D01*
M02*
