G75*
%MOIN*%
%OFA0B0*%
%FSLAX24Y24*%
%IPPOS*%
%LPD*%
%AMOC8*
5,1,8,0,0,1.08239X$1,22.5*
%
%ADD10C,0.0020*%
%ADD11C,0.0020*%
%ADD12C,0.0000*%
D10*
X022544Y019376D02*
X023757Y019376D01*
X023757Y020104D01*
X022544Y020104D01*
X022544Y019376D01*
X024736Y022734D02*
X025465Y022734D01*
X025465Y023946D01*
X024736Y023946D01*
X024736Y022734D01*
X025836Y022734D02*
X026565Y022734D01*
X026565Y023946D01*
X025836Y023946D01*
X025836Y022734D01*
D11*
X026666Y023305D02*
X026666Y023365D01*
X026696Y023395D01*
X026696Y023460D02*
X026666Y023460D01*
X026696Y023460D02*
X026816Y023580D01*
X026846Y023580D01*
X026846Y023460D01*
X026816Y023395D02*
X026846Y023365D01*
X026846Y023305D01*
X026816Y023275D01*
X026696Y023275D01*
X026666Y023305D01*
X024896Y024055D02*
X024866Y024025D01*
X024746Y024025D01*
X024716Y024055D01*
X024716Y024115D01*
X024746Y024145D01*
X024746Y024210D02*
X024776Y024210D01*
X024806Y024240D01*
X024806Y024300D01*
X024776Y024330D01*
X024746Y024330D01*
X024716Y024300D01*
X024716Y024240D01*
X024746Y024210D01*
X024806Y024240D02*
X024836Y024210D01*
X024866Y024210D01*
X024896Y024240D01*
X024896Y024300D01*
X024866Y024330D01*
X024836Y024330D01*
X024806Y024300D01*
X024866Y024145D02*
X024896Y024115D01*
X024896Y024055D01*
X023304Y020325D02*
X023334Y020295D01*
X023334Y020175D01*
X023304Y020144D01*
X023244Y020144D01*
X023214Y020175D01*
X023150Y020175D02*
X023120Y020144D01*
X023060Y020144D01*
X023030Y020175D01*
X023030Y020295D01*
X023060Y020325D01*
X023120Y020325D01*
X023150Y020295D01*
X023150Y020265D01*
X023120Y020235D01*
X023030Y020235D01*
X023214Y020295D02*
X023244Y020325D01*
X023304Y020325D01*
D12*
X008451Y032190D02*
X008451Y007200D01*
X071451Y007200D01*
X071451Y046580D01*
X013451Y046580D01*
X013451Y032190D01*
X008451Y032190D01*
X009301Y009390D02*
X009303Y009437D01*
X009309Y009483D01*
X009319Y009529D01*
X009332Y009573D01*
X009350Y009617D01*
X009371Y009658D01*
X009395Y009698D01*
X009423Y009736D01*
X009454Y009771D01*
X009488Y009803D01*
X009524Y009832D01*
X009563Y009858D01*
X009603Y009881D01*
X009646Y009900D01*
X009690Y009916D01*
X009735Y009928D01*
X009781Y009936D01*
X009828Y009940D01*
X009874Y009940D01*
X009921Y009936D01*
X009967Y009928D01*
X010012Y009916D01*
X010056Y009900D01*
X010099Y009881D01*
X010139Y009858D01*
X010178Y009832D01*
X010214Y009803D01*
X010248Y009771D01*
X010279Y009736D01*
X010307Y009698D01*
X010331Y009658D01*
X010352Y009617D01*
X010370Y009573D01*
X010383Y009529D01*
X010393Y009483D01*
X010399Y009437D01*
X010401Y009390D01*
X010399Y009343D01*
X010393Y009297D01*
X010383Y009251D01*
X010370Y009207D01*
X010352Y009163D01*
X010331Y009122D01*
X010307Y009082D01*
X010279Y009044D01*
X010248Y009009D01*
X010214Y008977D01*
X010178Y008948D01*
X010139Y008922D01*
X010099Y008899D01*
X010056Y008880D01*
X010012Y008864D01*
X009967Y008852D01*
X009921Y008844D01*
X009874Y008840D01*
X009828Y008840D01*
X009781Y008844D01*
X009735Y008852D01*
X009690Y008864D01*
X009646Y008880D01*
X009603Y008899D01*
X009563Y008922D01*
X009524Y008948D01*
X009488Y008977D01*
X009454Y009009D01*
X009423Y009044D01*
X009395Y009082D01*
X009371Y009122D01*
X009350Y009163D01*
X009332Y009207D01*
X009319Y009251D01*
X009309Y009297D01*
X009303Y009343D01*
X009301Y009390D01*
X069801Y009390D02*
X069803Y009437D01*
X069809Y009483D01*
X069819Y009529D01*
X069832Y009573D01*
X069850Y009617D01*
X069871Y009658D01*
X069895Y009698D01*
X069923Y009736D01*
X069954Y009771D01*
X069988Y009803D01*
X070024Y009832D01*
X070063Y009858D01*
X070103Y009881D01*
X070146Y009900D01*
X070190Y009916D01*
X070235Y009928D01*
X070281Y009936D01*
X070328Y009940D01*
X070374Y009940D01*
X070421Y009936D01*
X070467Y009928D01*
X070512Y009916D01*
X070556Y009900D01*
X070599Y009881D01*
X070639Y009858D01*
X070678Y009832D01*
X070714Y009803D01*
X070748Y009771D01*
X070779Y009736D01*
X070807Y009698D01*
X070831Y009658D01*
X070852Y009617D01*
X070870Y009573D01*
X070883Y009529D01*
X070893Y009483D01*
X070899Y009437D01*
X070901Y009390D01*
X070899Y009343D01*
X070893Y009297D01*
X070883Y009251D01*
X070870Y009207D01*
X070852Y009163D01*
X070831Y009122D01*
X070807Y009082D01*
X070779Y009044D01*
X070748Y009009D01*
X070714Y008977D01*
X070678Y008948D01*
X070639Y008922D01*
X070599Y008899D01*
X070556Y008880D01*
X070512Y008864D01*
X070467Y008852D01*
X070421Y008844D01*
X070374Y008840D01*
X070328Y008840D01*
X070281Y008844D01*
X070235Y008852D01*
X070190Y008864D01*
X070146Y008880D01*
X070103Y008899D01*
X070063Y008922D01*
X070024Y008948D01*
X069988Y008977D01*
X069954Y009009D01*
X069923Y009044D01*
X069895Y009082D01*
X069871Y009122D01*
X069850Y009163D01*
X069832Y009207D01*
X069819Y009251D01*
X069809Y009297D01*
X069803Y009343D01*
X069801Y009390D01*
X069801Y044390D02*
X069803Y044437D01*
X069809Y044483D01*
X069819Y044529D01*
X069832Y044573D01*
X069850Y044617D01*
X069871Y044658D01*
X069895Y044698D01*
X069923Y044736D01*
X069954Y044771D01*
X069988Y044803D01*
X070024Y044832D01*
X070063Y044858D01*
X070103Y044881D01*
X070146Y044900D01*
X070190Y044916D01*
X070235Y044928D01*
X070281Y044936D01*
X070328Y044940D01*
X070374Y044940D01*
X070421Y044936D01*
X070467Y044928D01*
X070512Y044916D01*
X070556Y044900D01*
X070599Y044881D01*
X070639Y044858D01*
X070678Y044832D01*
X070714Y044803D01*
X070748Y044771D01*
X070779Y044736D01*
X070807Y044698D01*
X070831Y044658D01*
X070852Y044617D01*
X070870Y044573D01*
X070883Y044529D01*
X070893Y044483D01*
X070899Y044437D01*
X070901Y044390D01*
X070899Y044343D01*
X070893Y044297D01*
X070883Y044251D01*
X070870Y044207D01*
X070852Y044163D01*
X070831Y044122D01*
X070807Y044082D01*
X070779Y044044D01*
X070748Y044009D01*
X070714Y043977D01*
X070678Y043948D01*
X070639Y043922D01*
X070599Y043899D01*
X070556Y043880D01*
X070512Y043864D01*
X070467Y043852D01*
X070421Y043844D01*
X070374Y043840D01*
X070328Y043840D01*
X070281Y043844D01*
X070235Y043852D01*
X070190Y043864D01*
X070146Y043880D01*
X070103Y043899D01*
X070063Y043922D01*
X070024Y043948D01*
X069988Y043977D01*
X069954Y044009D01*
X069923Y044044D01*
X069895Y044082D01*
X069871Y044122D01*
X069850Y044163D01*
X069832Y044207D01*
X069819Y044251D01*
X069809Y044297D01*
X069803Y044343D01*
X069801Y044390D01*
M02*
