G75*
%MOIN*%
%OFA0B0*%
%FSLAX24Y24*%
%IPPOS*%
%LPD*%
%AMOC8*
5,1,8,0,0,1.08239X$1,22.5*
%
%ADD10R,0.0690X0.1635*%
%ADD11R,0.1005X0.1084*%
%ADD12R,0.4158X0.4312*%
%ADD13R,0.0910X0.0480*%
%ADD14R,0.0414X0.0296*%
%ADD15R,0.0296X0.0414*%
%ADD16R,0.0375X0.0375*%
%ADD17R,0.0611X0.0454*%
%ADD18R,0.0769X0.0847*%
%ADD19C,0.0591*%
%ADD20C,0.1241*%
%ADD21R,0.0572X0.0414*%
%ADD22R,0.0926X0.0296*%
%ADD23R,0.0572X0.0336*%
%ADD24R,0.0336X0.0572*%
%ADD25R,0.0280X0.0560*%
%ADD26R,0.0560X0.0280*%
%ADD27C,0.0660*%
%ADD28R,0.0414X0.0572*%
%ADD29C,0.0660*%
%ADD30OC8,0.0660*%
%ADD31OC8,0.0540*%
%ADD32R,0.0769X0.1123*%
%ADD33C,0.0060*%
%ADD34C,0.0690*%
%ADD35OC8,0.0690*%
%ADD36C,0.1160*%
%ADD37R,0.0336X0.0257*%
%ADD38R,0.0414X0.0690*%
%ADD39R,0.0690X0.0414*%
%ADD40OC8,0.0600*%
%ADD41C,0.0089*%
%ADD42R,0.1280X0.1280*%
%ADD43R,0.1556X0.2422*%
%ADD44R,0.0454X0.0217*%
%ADD45R,0.0414X0.0237*%
%ADD46R,0.0217X0.0454*%
%ADD47R,0.0532X0.0277*%
%ADD48R,0.0414X0.0154*%
%ADD49R,0.0154X0.0414*%
%ADD50R,0.0651X0.0651*%
%ADD51R,0.0454X0.1320*%
%ADD52R,0.0651X0.0257*%
%ADD53R,0.1320X0.0454*%
%ADD54R,0.0257X0.0651*%
%ADD55OC8,0.0535*%
%ADD56R,0.0450X0.0470*%
%ADD57R,0.0470X0.0930*%
%ADD58R,0.0454X0.1084*%
%ADD59R,0.1084X0.0454*%
%ADD60R,0.0454X0.1359*%
%ADD61R,0.1359X0.0454*%
%ADD62R,0.0296X0.0257*%
%ADD63R,0.0454X0.0257*%
%ADD64C,0.0320*%
D10*
X062351Y012892D03*
X062351Y015688D03*
X062351Y022892D03*
X062351Y025688D03*
D11*
X051201Y026200D03*
X051201Y023680D03*
X051051Y016200D03*
X051051Y013680D03*
D12*
X042701Y013890D03*
X044151Y022890D03*
D13*
X040871Y022890D03*
X040871Y021890D03*
X040871Y023890D03*
X045981Y014890D03*
X045981Y013890D03*
X045981Y012890D03*
D14*
X024501Y017855D03*
X024501Y018445D03*
X024501Y019045D03*
X024501Y019635D03*
X023901Y019045D03*
X023901Y018455D03*
X022201Y018895D03*
X022201Y019485D03*
X022201Y019995D03*
X022201Y020585D03*
X022981Y023795D03*
X022981Y024385D03*
X023751Y024395D03*
X023751Y024985D03*
X022951Y026795D03*
X022951Y027385D03*
X018951Y030105D03*
X018951Y030695D03*
X022451Y030795D03*
X022451Y031385D03*
X022301Y033095D03*
X022301Y033685D03*
X021651Y033685D03*
X021651Y033095D03*
X024701Y031385D03*
X024701Y030795D03*
X027951Y030535D03*
X027951Y029945D03*
X016001Y024985D03*
X016001Y024395D03*
X021351Y015630D03*
X021351Y015040D03*
X055151Y033245D03*
X055151Y033835D03*
X055851Y033835D03*
X055851Y033245D03*
X057751Y041645D03*
X057751Y042235D03*
D15*
X053646Y033490D03*
X053055Y033490D03*
X052646Y033490D03*
X052055Y033490D03*
X035146Y041740D03*
X034555Y041740D03*
X027046Y022390D03*
X026455Y022390D03*
X025946Y022390D03*
X025355Y022390D03*
X024846Y022390D03*
X024255Y022390D03*
X029355Y019640D03*
X029946Y019640D03*
D16*
X032951Y019945D03*
X032951Y020535D03*
X035955Y022140D03*
X036546Y022140D03*
X036506Y024945D03*
X035915Y024945D03*
X035901Y025595D03*
X035901Y026185D03*
X027151Y031195D03*
X027151Y031785D03*
X024746Y029990D03*
X024155Y029990D03*
X019151Y032245D03*
X019151Y032835D03*
X020955Y034240D03*
X021546Y034240D03*
X032855Y042940D03*
X033446Y042940D03*
X034555Y042540D03*
X035146Y042540D03*
X051451Y036685D03*
X051451Y036095D03*
X058305Y040440D03*
X058896Y040440D03*
X058346Y042890D03*
X057755Y042890D03*
X024346Y023890D03*
X023755Y023890D03*
X021801Y023685D03*
X021801Y023095D03*
X023401Y021285D03*
X023401Y020695D03*
X019201Y020985D03*
X019201Y020395D03*
X017801Y021995D03*
X017801Y022585D03*
X018605Y022390D03*
X019196Y022390D03*
X015971Y020405D03*
X015971Y019815D03*
X032851Y015635D03*
X032851Y015045D03*
X038855Y015740D03*
X039446Y015740D03*
D17*
X022984Y025016D03*
X022984Y025764D03*
X022118Y025390D03*
D18*
X019702Y025390D03*
X018599Y025390D03*
D19*
X013351Y025390D03*
X013351Y024390D03*
X013351Y015390D03*
X013351Y014390D03*
D20*
X011351Y013390D03*
X011351Y017390D03*
X011351Y023390D03*
X011351Y027390D03*
D21*
X025101Y023714D03*
X025101Y022966D03*
X026201Y022966D03*
X026201Y023714D03*
X029651Y026016D03*
X029651Y026764D03*
X030451Y026764D03*
X030451Y026016D03*
X031251Y026016D03*
X031251Y026764D03*
X032051Y026764D03*
X032051Y026016D03*
X032851Y026016D03*
X032851Y026764D03*
X036651Y026364D03*
X036651Y025616D03*
X027951Y031116D03*
X027951Y031864D03*
D22*
X033927Y021590D03*
X033927Y021090D03*
X033927Y020590D03*
X033927Y020090D03*
X035974Y020090D03*
X035974Y020590D03*
X035974Y021090D03*
X035974Y021590D03*
X036274Y017240D03*
X036274Y016740D03*
X036274Y016240D03*
X036274Y015740D03*
X036274Y015240D03*
X036274Y014740D03*
X036274Y014240D03*
X034227Y014240D03*
X034227Y014740D03*
X034227Y015240D03*
X034227Y015740D03*
X034227Y016240D03*
X034227Y016740D03*
X034227Y017240D03*
D23*
X018501Y020316D03*
X018501Y021064D03*
X015301Y020816D03*
X015301Y021564D03*
X015301Y022016D03*
X015301Y022764D03*
X015311Y015384D03*
X015311Y014636D03*
D24*
X016627Y018790D03*
X017375Y018790D03*
X017827Y018790D03*
X018575Y018790D03*
X018575Y019590D03*
X017827Y019590D03*
X017275Y019990D03*
X016527Y019990D03*
X018527Y021690D03*
X019275Y021690D03*
X016775Y022290D03*
X016027Y022290D03*
X016027Y023090D03*
X016775Y023090D03*
X015975Y023890D03*
X015227Y023890D03*
X062112Y044400D03*
X062860Y044400D03*
D25*
X052853Y040680D03*
X052538Y040680D03*
X052223Y040680D03*
X051908Y040680D03*
X051593Y040680D03*
X051278Y040680D03*
X050963Y040680D03*
X050648Y040680D03*
X050648Y037300D03*
X050963Y037300D03*
X051278Y037300D03*
X051593Y037300D03*
X051908Y037300D03*
X052223Y037300D03*
X052538Y037300D03*
X052853Y037300D03*
D26*
X053441Y037888D03*
X053441Y038203D03*
X053441Y038518D03*
X053441Y038833D03*
X053441Y039147D03*
X053441Y039462D03*
X053441Y039777D03*
X053441Y040092D03*
X050061Y040092D03*
X050061Y039777D03*
X050061Y039462D03*
X050061Y039147D03*
X050061Y038833D03*
X050061Y038518D03*
X050061Y038203D03*
X050061Y037888D03*
D27*
X061051Y037890D02*
X061651Y037890D01*
X061651Y038890D02*
X061051Y038890D01*
X061051Y039890D02*
X061651Y039890D01*
X061651Y040890D02*
X061051Y040890D01*
X061051Y041890D02*
X061651Y041890D01*
X061651Y042890D02*
X061051Y042890D01*
X019451Y037440D02*
X018851Y037440D01*
X018851Y036440D02*
X019451Y036440D01*
X019451Y035440D02*
X018851Y035440D01*
D28*
X024077Y029190D03*
X024825Y029190D03*
X023525Y019740D03*
X022777Y019740D03*
D29*
X052051Y030740D03*
D30*
X053051Y030740D03*
X054051Y030740D03*
X054051Y031740D03*
X053051Y031740D03*
X052051Y031740D03*
X061651Y031690D03*
X062651Y031690D03*
X062651Y030690D03*
X062651Y029690D03*
X062651Y028690D03*
X061651Y028690D03*
X061651Y029690D03*
X061651Y030690D03*
X061651Y032690D03*
X062651Y032690D03*
X062651Y033690D03*
X062651Y034690D03*
X062651Y035690D03*
X061651Y035690D03*
X061651Y034690D03*
X061651Y033690D03*
X037951Y032390D03*
X037951Y031390D03*
X036951Y031390D03*
X036951Y032390D03*
X035951Y032390D03*
X035951Y031390D03*
X034951Y031390D03*
X034951Y032390D03*
X033951Y032390D03*
X033951Y031390D03*
X032951Y031390D03*
X032951Y032390D03*
X031951Y032390D03*
X031951Y031390D03*
X030951Y031390D03*
X030951Y032390D03*
D31*
X027351Y019790D03*
X026351Y019790D03*
X026351Y018790D03*
X027351Y018790D03*
D32*
X027917Y025190D03*
X027917Y026390D03*
X026184Y026390D03*
X026184Y025190D03*
D33*
X008451Y010200D02*
X008451Y007200D01*
X011451Y007200D01*
X008451Y043580D02*
X008451Y046580D01*
X011451Y046580D01*
X068451Y046580D02*
X071451Y046580D01*
X071451Y043580D01*
X071451Y010200D02*
X071451Y007200D01*
X068451Y007200D01*
D34*
X069351Y042390D03*
D35*
X069351Y041390D03*
X069351Y040390D03*
X069351Y039390D03*
X069351Y038390D03*
X069351Y037390D03*
X069351Y036390D03*
X069351Y035390D03*
X069351Y034390D03*
X069351Y033390D03*
X069351Y032390D03*
X069351Y031390D03*
X069351Y030390D03*
X069351Y029390D03*
X069351Y028390D03*
X069351Y027390D03*
X069351Y026390D03*
X069351Y025390D03*
X069351Y024390D03*
X069351Y023390D03*
X069351Y022390D03*
X069351Y021390D03*
X069351Y020390D03*
X069351Y019390D03*
X069351Y018390D03*
X069351Y017390D03*
X069351Y016390D03*
X069351Y015390D03*
X069351Y014390D03*
X069351Y013390D03*
X069351Y012390D03*
X069351Y011390D03*
X067351Y011390D03*
X067351Y012390D03*
X067351Y013390D03*
X067351Y014390D03*
X067351Y015390D03*
X067351Y016390D03*
X067351Y017390D03*
X067351Y018390D03*
X067351Y019390D03*
X067351Y020390D03*
X067351Y021390D03*
X067351Y022390D03*
X067351Y023390D03*
X067351Y024390D03*
X067351Y025390D03*
X067351Y026390D03*
X067351Y027390D03*
X067351Y028390D03*
X067351Y029390D03*
X067351Y030390D03*
X067351Y031390D03*
X067351Y032390D03*
X067351Y033390D03*
X067351Y034390D03*
X067351Y035390D03*
X067351Y036390D03*
X067351Y037390D03*
X067351Y038390D03*
X067351Y039390D03*
X067351Y040390D03*
X067351Y041390D03*
X067351Y042390D03*
D36*
X070351Y044390D03*
X070351Y009390D03*
X009851Y009390D03*
D37*
X053064Y034090D03*
X053576Y034090D03*
X059214Y039890D03*
X059726Y039890D03*
X058866Y040990D03*
X058354Y040990D03*
X033197Y043460D03*
X032685Y043460D03*
D38*
X047880Y022890D03*
X049021Y022890D03*
X048621Y012890D03*
X047480Y012890D03*
D39*
X048351Y014019D03*
X048351Y015161D03*
X049251Y020519D03*
X049251Y021661D03*
X037851Y025780D03*
X037851Y027000D03*
D40*
X039501Y038240D03*
X040501Y038240D03*
X040501Y039240D03*
X039501Y039240D03*
X039501Y040240D03*
X040501Y040240D03*
X040501Y041240D03*
X039501Y041240D03*
X030501Y041240D03*
X029501Y041240D03*
X029501Y040240D03*
X030501Y040240D03*
X030501Y039240D03*
X029501Y039240D03*
X029501Y038240D03*
X030501Y038240D03*
D41*
X033894Y025452D02*
X033984Y025452D01*
X033894Y025452D02*
X033894Y025778D01*
X033984Y025778D01*
X033984Y025452D01*
X033984Y025540D02*
X033894Y025540D01*
X033894Y025628D02*
X033984Y025628D01*
X033984Y025716D02*
X033894Y025716D01*
X034150Y025452D02*
X034240Y025452D01*
X034150Y025452D02*
X034150Y025778D01*
X034240Y025778D01*
X034240Y025452D01*
X034240Y025540D02*
X034150Y025540D01*
X034150Y025628D02*
X034240Y025628D01*
X034240Y025716D02*
X034150Y025716D01*
X034406Y025452D02*
X034496Y025452D01*
X034406Y025452D02*
X034406Y025778D01*
X034496Y025778D01*
X034496Y025452D01*
X034496Y025540D02*
X034406Y025540D01*
X034406Y025628D02*
X034496Y025628D01*
X034496Y025716D02*
X034406Y025716D01*
X034662Y025452D02*
X034752Y025452D01*
X034662Y025452D02*
X034662Y025778D01*
X034752Y025778D01*
X034752Y025452D01*
X034752Y025540D02*
X034662Y025540D01*
X034662Y025628D02*
X034752Y025628D01*
X034752Y025716D02*
X034662Y025716D01*
X034917Y025452D02*
X035007Y025452D01*
X034917Y025452D02*
X034917Y025778D01*
X035007Y025778D01*
X035007Y025452D01*
X035007Y025540D02*
X034917Y025540D01*
X034917Y025628D02*
X035007Y025628D01*
X035007Y025716D02*
X034917Y025716D01*
X035213Y025157D02*
X035539Y025157D01*
X035213Y025157D02*
X035213Y025247D01*
X035539Y025247D01*
X035539Y025157D01*
X035539Y025245D02*
X035213Y025245D01*
X035213Y024901D02*
X035539Y024901D01*
X035213Y024901D02*
X035213Y024991D01*
X035539Y024991D01*
X035539Y024901D01*
X035539Y024989D02*
X035213Y024989D01*
X035213Y024645D02*
X035539Y024645D01*
X035213Y024645D02*
X035213Y024735D01*
X035539Y024735D01*
X035539Y024645D01*
X035539Y024733D02*
X035213Y024733D01*
X035213Y024389D02*
X035539Y024389D01*
X035213Y024389D02*
X035213Y024479D01*
X035539Y024479D01*
X035539Y024389D01*
X035539Y024477D02*
X035213Y024477D01*
X035213Y024133D02*
X035539Y024133D01*
X035213Y024133D02*
X035213Y024223D01*
X035539Y024223D01*
X035539Y024133D01*
X035539Y024221D02*
X035213Y024221D01*
X035007Y023602D02*
X034917Y023602D01*
X034917Y023928D01*
X035007Y023928D01*
X035007Y023602D01*
X035007Y023690D02*
X034917Y023690D01*
X034917Y023778D02*
X035007Y023778D01*
X035007Y023866D02*
X034917Y023866D01*
X034752Y023602D02*
X034662Y023602D01*
X034662Y023928D01*
X034752Y023928D01*
X034752Y023602D01*
X034752Y023690D02*
X034662Y023690D01*
X034662Y023778D02*
X034752Y023778D01*
X034752Y023866D02*
X034662Y023866D01*
X034496Y023602D02*
X034406Y023602D01*
X034406Y023928D01*
X034496Y023928D01*
X034496Y023602D01*
X034496Y023690D02*
X034406Y023690D01*
X034406Y023778D02*
X034496Y023778D01*
X034496Y023866D02*
X034406Y023866D01*
X034240Y023602D02*
X034150Y023602D01*
X034150Y023928D01*
X034240Y023928D01*
X034240Y023602D01*
X034240Y023690D02*
X034150Y023690D01*
X034150Y023778D02*
X034240Y023778D01*
X034240Y023866D02*
X034150Y023866D01*
X033984Y023602D02*
X033894Y023602D01*
X033894Y023928D01*
X033984Y023928D01*
X033984Y023602D01*
X033984Y023690D02*
X033894Y023690D01*
X033894Y023778D02*
X033984Y023778D01*
X033984Y023866D02*
X033894Y023866D01*
X033688Y024133D02*
X033362Y024133D01*
X033362Y024223D01*
X033688Y024223D01*
X033688Y024133D01*
X033688Y024221D02*
X033362Y024221D01*
X033362Y024389D02*
X033688Y024389D01*
X033362Y024389D02*
X033362Y024479D01*
X033688Y024479D01*
X033688Y024389D01*
X033688Y024477D02*
X033362Y024477D01*
X033362Y024645D02*
X033688Y024645D01*
X033362Y024645D02*
X033362Y024735D01*
X033688Y024735D01*
X033688Y024645D01*
X033688Y024733D02*
X033362Y024733D01*
X033362Y024901D02*
X033688Y024901D01*
X033362Y024901D02*
X033362Y024991D01*
X033688Y024991D01*
X033688Y024901D01*
X033688Y024989D02*
X033362Y024989D01*
X033362Y025157D02*
X033688Y025157D01*
X033362Y025157D02*
X033362Y025247D01*
X033688Y025247D01*
X033688Y025157D01*
X033688Y025245D02*
X033362Y025245D01*
D42*
X034451Y024690D03*
D43*
X053587Y022890D03*
X058114Y022890D03*
X058114Y012890D03*
X053587Y012890D03*
D44*
X027041Y030007D03*
X027041Y030262D03*
X027041Y030518D03*
X027041Y030774D03*
X025260Y030774D03*
X025260Y030518D03*
X025260Y030262D03*
X025260Y030007D03*
X020941Y033157D03*
X020941Y033412D03*
X020941Y033668D03*
X020941Y033924D03*
X019160Y033924D03*
X019160Y033668D03*
X019160Y033412D03*
X019160Y033157D03*
X017792Y021573D03*
X017792Y021318D03*
X017792Y021062D03*
X017792Y020806D03*
X016010Y020806D03*
X016010Y021062D03*
X016010Y021318D03*
X016010Y021573D03*
D45*
X025816Y028345D03*
X025816Y028660D03*
X025816Y028975D03*
X025816Y029290D03*
X026485Y029290D03*
X026485Y028975D03*
X026485Y028660D03*
X026485Y028345D03*
X032516Y017185D03*
X032516Y016870D03*
X032516Y016555D03*
X032516Y016240D03*
X033185Y016240D03*
X033185Y016555D03*
X033185Y016870D03*
X033185Y017185D03*
X037316Y017185D03*
X037316Y016870D03*
X037316Y016555D03*
X037316Y016240D03*
X037985Y016240D03*
X037985Y016555D03*
X037985Y016870D03*
X037985Y017185D03*
X037985Y015240D03*
X037985Y014925D03*
X037985Y014610D03*
X037985Y014295D03*
X037316Y014295D03*
X037316Y014610D03*
X037316Y014925D03*
X037316Y015240D03*
D46*
X022985Y021299D03*
X022729Y021299D03*
X022473Y021299D03*
X022217Y021299D03*
X022217Y023081D03*
X022473Y023081D03*
X022729Y023081D03*
X022985Y023081D03*
D47*
X033739Y043466D03*
X033739Y044214D03*
X034762Y044214D03*
X034762Y043840D03*
X034762Y043466D03*
X057289Y039914D03*
X057289Y039540D03*
X057289Y039166D03*
X058312Y039166D03*
X058312Y039914D03*
D48*
X035061Y039842D03*
X035061Y040038D03*
X035061Y040235D03*
X035061Y039645D03*
X033840Y039645D03*
X033840Y039842D03*
X033840Y040038D03*
X033840Y040235D03*
D49*
X034155Y040550D03*
X034352Y040550D03*
X034549Y040550D03*
X034746Y040550D03*
X034746Y039330D03*
X034549Y039330D03*
X034352Y039330D03*
X034155Y039330D03*
D50*
X034451Y039940D03*
D51*
X030105Y020840D03*
X029396Y020840D03*
D52*
X031151Y020397D03*
X031151Y020083D03*
X031151Y021283D03*
X031151Y021597D03*
D53*
X020151Y015744D03*
X020151Y015036D03*
X020151Y029986D03*
X020151Y030694D03*
D54*
X020593Y028940D03*
X020908Y028940D03*
X019708Y028940D03*
X019393Y028940D03*
X019393Y016790D03*
X019708Y016790D03*
X020593Y016790D03*
X020908Y016790D03*
D55*
X014751Y029890D03*
X011751Y030890D03*
X009751Y029890D03*
D56*
X024701Y032195D03*
D57*
X025281Y032790D03*
X024121Y032790D03*
D58*
X047715Y037514D03*
X047715Y040466D03*
X055786Y040466D03*
X055786Y037514D03*
D59*
X053227Y034955D03*
X050274Y034955D03*
X050274Y043025D03*
X053227Y043025D03*
D60*
X055786Y042573D03*
X047715Y042573D03*
X047715Y035407D03*
X055786Y035407D03*
D61*
X055333Y034955D03*
X048168Y034955D03*
X048168Y043025D03*
X055333Y043025D03*
D62*
X022807Y025587D03*
X022807Y025193D03*
X022295Y025390D03*
D63*
X022196Y025390D03*
X022905Y025134D03*
X022905Y025646D03*
D64*
X022951Y026190D03*
X022951Y027890D03*
X021151Y028740D03*
X021151Y029140D03*
X020551Y029540D03*
X020151Y029540D03*
X020151Y029140D03*
X020151Y028740D03*
X019751Y029540D03*
X019151Y029140D03*
X019151Y028740D03*
X016901Y029340D03*
X014541Y028260D03*
X019151Y031840D03*
X020191Y031530D03*
X020951Y032840D03*
X020151Y033840D03*
X020951Y034790D03*
X021951Y034240D03*
X022951Y033690D03*
X023391Y035160D03*
X025431Y035110D03*
X027711Y034690D03*
X028841Y032750D03*
X030711Y035280D03*
X033451Y036590D03*
X035951Y037140D03*
X034451Y039940D03*
X035751Y040290D03*
X035851Y040890D03*
X036501Y041190D03*
X037001Y042640D03*
X035351Y043390D03*
X034101Y042540D03*
X033301Y041240D03*
X032351Y042940D03*
X032151Y043540D03*
X033651Y044740D03*
X028051Y043290D03*
X023061Y041500D03*
X023751Y038390D03*
X027451Y038040D03*
X018641Y041430D03*
X018351Y033390D03*
X018401Y032840D03*
X014081Y032410D03*
X023001Y031390D03*
X027051Y029590D03*
X028151Y029390D03*
X029651Y027240D03*
X030451Y027240D03*
X031251Y027240D03*
X032051Y027240D03*
X032851Y027240D03*
X033551Y025990D03*
X033251Y025590D03*
X032751Y025590D03*
X032251Y025590D03*
X031751Y025590D03*
X031251Y025590D03*
X030751Y025590D03*
X030251Y025590D03*
X029751Y025590D03*
X029251Y025590D03*
X028751Y025590D03*
X026201Y024190D03*
X025101Y024190D03*
X024351Y023390D03*
X022551Y023590D03*
X021801Y024140D03*
X021351Y023090D03*
X022051Y021890D03*
X022451Y021890D03*
X022851Y021890D03*
X023851Y021290D03*
X023901Y020690D03*
X024501Y020040D03*
X024051Y019740D03*
X022851Y020590D03*
X021851Y019740D03*
X019701Y021690D03*
X019601Y022390D03*
X018151Y022140D03*
X017801Y023040D03*
X016401Y021890D03*
X015301Y023190D03*
X015201Y024640D03*
X015451Y020390D03*
X015971Y019390D03*
X016701Y019290D03*
X019151Y016990D03*
X019151Y016590D03*
X019751Y016190D03*
X020151Y016190D03*
X020551Y016190D03*
X020151Y016590D03*
X020151Y016990D03*
X021151Y016990D03*
X021151Y016590D03*
X021951Y015040D03*
X025441Y015350D03*
X030161Y015910D03*
X030751Y017190D03*
X031751Y016240D03*
X032251Y015640D03*
X032401Y015040D03*
X033501Y015140D03*
X032291Y018830D03*
X032951Y019570D03*
X031351Y019840D03*
X030951Y019840D03*
X030551Y020440D03*
X030551Y020840D03*
X030951Y020840D03*
X031351Y020840D03*
X030551Y021240D03*
X030951Y021840D03*
X031351Y021840D03*
X030151Y022390D03*
X028901Y021240D03*
X028901Y020790D03*
X028901Y020340D03*
X029001Y019640D03*
X030491Y018830D03*
X033191Y021080D03*
X033051Y021590D03*
X034691Y021080D03*
X035191Y021080D03*
X036791Y021080D03*
X036961Y022140D03*
X035801Y023240D03*
X036251Y023840D03*
X036851Y023940D03*
X037551Y024440D03*
X037851Y024790D03*
X036901Y024945D03*
X038651Y025990D03*
X037851Y027490D03*
X036651Y026840D03*
X035901Y026640D03*
X034851Y025090D03*
X034851Y024690D03*
X034851Y024290D03*
X034451Y024290D03*
X034451Y024690D03*
X034451Y025090D03*
X034051Y025090D03*
X034051Y024690D03*
X034051Y024290D03*
X033501Y023590D03*
X033151Y024040D03*
X032651Y024140D03*
X034651Y022990D03*
X034641Y019180D03*
X037691Y018530D03*
X038191Y017620D03*
X038451Y016240D03*
X038551Y015240D03*
X038451Y014890D03*
X039901Y015740D03*
X040601Y016790D03*
X041351Y015390D03*
X042351Y015390D03*
X043351Y015390D03*
X044351Y015390D03*
X044351Y014390D03*
X043351Y014390D03*
X043351Y013390D03*
X044351Y013390D03*
X044351Y012390D03*
X043351Y012390D03*
X042351Y012390D03*
X041351Y012390D03*
X041351Y013390D03*
X042351Y013390D03*
X042351Y014390D03*
X041351Y014390D03*
X039331Y011350D03*
X035311Y011710D03*
X030691Y010520D03*
X026291Y011610D03*
X018271Y010620D03*
X014511Y010610D03*
X015301Y014190D03*
X018111Y014120D03*
X013061Y019230D03*
X011641Y020370D03*
X025101Y022040D03*
X026201Y022040D03*
X040201Y023890D03*
X040601Y023440D03*
X041201Y023440D03*
X041201Y024340D03*
X040601Y024340D03*
X041771Y027360D03*
X044061Y025980D03*
X047851Y027790D03*
X048251Y027390D03*
X048651Y026990D03*
X050451Y026540D03*
X050851Y026990D03*
X051551Y026990D03*
X051951Y026540D03*
X051951Y025890D03*
X051601Y025440D03*
X050851Y025440D03*
X050451Y025840D03*
X049181Y025060D03*
X052831Y028090D03*
X049851Y030940D03*
X052651Y033890D03*
X054051Y034140D03*
X054051Y033490D03*
X054651Y033790D03*
X055101Y034440D03*
X054001Y034940D03*
X055051Y035390D03*
X055801Y036390D03*
X055301Y037090D03*
X055301Y037840D03*
X055751Y038390D03*
X055801Y039690D03*
X056351Y040490D03*
X056751Y039990D03*
X057751Y040490D03*
X058901Y041540D03*
X059351Y040440D03*
X059001Y037640D03*
X057901Y034190D03*
X056751Y033290D03*
X055901Y034440D03*
X055251Y032840D03*
X055651Y031340D03*
X058811Y027530D03*
X061751Y026290D03*
X061751Y025690D03*
X061751Y025090D03*
X062451Y024640D03*
X062951Y025090D03*
X062951Y025690D03*
X062951Y026290D03*
X062301Y026740D03*
X060261Y018690D03*
X062351Y016740D03*
X062951Y016290D03*
X062951Y015740D03*
X062951Y015090D03*
X062301Y014640D03*
X061751Y015140D03*
X061751Y015740D03*
X061751Y016290D03*
X054881Y016900D03*
X051801Y016540D03*
X051401Y016990D03*
X050751Y016990D03*
X050301Y016540D03*
X050301Y015890D03*
X050701Y015440D03*
X051401Y015440D03*
X051801Y015890D03*
X047951Y016890D03*
X049551Y019890D03*
X040701Y020390D03*
X040551Y021140D03*
X041471Y029500D03*
X043161Y033210D03*
X047201Y034840D03*
X047201Y035890D03*
X048201Y035990D03*
X048651Y035390D03*
X049101Y034940D03*
X051301Y035690D03*
X050251Y036790D03*
X049551Y037190D03*
X048151Y037240D03*
X047201Y037840D03*
X047901Y038440D03*
X047201Y040690D03*
X044151Y040990D03*
X041751Y039040D03*
X042051Y038790D03*
X044251Y037240D03*
X050851Y038490D03*
X051051Y038090D03*
X051451Y037890D03*
X052151Y037890D03*
X051201Y038940D03*
X051851Y039440D03*
X052601Y039440D03*
X052701Y040090D03*
X053901Y040790D03*
X054151Y040190D03*
X054051Y039690D03*
X054251Y038890D03*
X051951Y041390D03*
X051351Y041390D03*
X050301Y042590D03*
X050251Y043590D03*
X048651Y043640D03*
X047501Y043640D03*
X050851Y039790D03*
X052851Y042590D03*
X053201Y043590D03*
X054401Y043040D03*
X054851Y043590D03*
X055901Y043590D03*
X056351Y043140D03*
X055301Y042040D03*
X061601Y044190D03*
X062001Y043740D03*
X061651Y044940D03*
X062901Y045100D03*
X063321Y044480D03*
X064701Y044880D03*
X065851Y044150D03*
X066891Y043640D03*
X068071Y044320D03*
X065991Y042330D03*
X042401Y044190D03*
X047821Y010430D03*
M02*
