%
M48
M72
T01C0.0100
T02C0.0315
T03C0.0320
T04C0.0354
T05C0.0360
T06C0.0400
T07C0.0787
T08C0.1100
%
T01
X14511Y10610
X18271Y10620
X18111Y14120
X19751Y16190
X20151Y16190
X20551Y16190
X20151Y16590
X20151Y16990
X21151Y16990
X21151Y16590
X21951Y15040
X19151Y16590
X19151Y16990
X16701Y19290
X15971Y19390
X15451Y20390
X16401Y21890
X15301Y23190
X15201Y24640
X17801Y23040
X18151Y22140
X19601Y22390
X19701Y21690
X21351Y23090
X21801Y24140
X22551Y23590
X24351Y23390
X25101Y24190
X26201Y24190
X28751Y25590
X29251Y25590
X29751Y25590
X30251Y25590
X30751Y25590
X31251Y25590
X31751Y25590
X32251Y25590
X32751Y25590
X33251Y25590
X33551Y25990
X34051Y25090
X34451Y25090
X34851Y25090
X34851Y24690
X34851Y24290
X34451Y24290
X34451Y24690
X34051Y24690
X34051Y24290
X33501Y23590
X33151Y24040
X32651Y24140
X34651Y22990
X35801Y23240
X36251Y23840
X36851Y23940
X37551Y24440
X37851Y24790
X36901Y24945
X38651Y25990
X37851Y27490
X36651Y26840
X35901Y26640
X32851Y27240
X32051Y27240
X31251Y27240
X30451Y27240
X29651Y27240
X28151Y29390
X27051Y29590
X28841Y32750
X27711Y34690
X25431Y35110
X23391Y35160
X21951Y34240
X22951Y33690
X20951Y32840
X20151Y33840
X20951Y34790
X18351Y33390
X18401Y32840
X19151Y31840
X20191Y31530
X23001Y31390
X20551Y29540
X20151Y29540
X20151Y29140
X20151Y28740
X19751Y29540
X19151Y29140
X19151Y28740
X21151Y28740
X21151Y29140
X22951Y27890
X22951Y26190
X22851Y21890
X22451Y21890
X22051Y21890
X22851Y20590
X23901Y20690
X23851Y21290
X25101Y22040
X26201Y22040
X24501Y20040
X24051Y19740
X21851Y19740
X25441Y15350
X30161Y15910
X30751Y17190
X31751Y16240
X32251Y15640
X32401Y15040
X33501Y15140
X32291Y18830
X32951Y19570
X31351Y19840
X30951Y19840
X30551Y20440
X30551Y20840
X30951Y20840
X31351Y20840
X30551Y21240
X30951Y21840
X31351Y21840
X30151Y22390
X28901Y21240
X28901Y20790
X28901Y20340
X29001Y19640
X30491Y18830
X33191Y21080
X33051Y21590
X34691Y21080
X35191Y21080
X36791Y21080
X36961Y22140
X40201Y23890
X40601Y23440
X41201Y23440
X41201Y24340
X40601Y24340
X41771Y27360
X44061Y25980
X47851Y27790
X48251Y27390
X48651Y26990
X50451Y26540
X50851Y26990
X51551Y26990
X51951Y26540
X51951Y25890
X51601Y25440
X50851Y25440
X50451Y25840
X49181Y25060
X52831Y28090
X49851Y30940
X52651Y33890
X54051Y34140
X54051Y33490
X54651Y33790
X55101Y34440
X54001Y34940
X55051Y35390
X55801Y36390
X55301Y37090
X55301Y37840
X55751Y38390
X55801Y39690
X56351Y40490
X56751Y39990
X57751Y40490
X58901Y41540
X59351Y40440
X59001Y37640
X57901Y34190
X56751Y33290
X55901Y34440
X55251Y32840
X55651Y31340
X58811Y27530
X61751Y26290
X61751Y25690
X61751Y25090
X62451Y24640
X62951Y25090
X62951Y25690
X62951Y26290
X62301Y26740
X60261Y18690
X62351Y16740
X62951Y16290
X62951Y15740
X62951Y15090
X62301Y14640
X61751Y15140
X61751Y15740
X61751Y16290
X54881Y16900
X51801Y16540
X51401Y16990
X50751Y16990
X50301Y16540
X50301Y15890
X50701Y15440
X51401Y15440
X51801Y15890
X47951Y16890
X49551Y19890
X44351Y15390
X43351Y15390
X43351Y14390
X44351Y14390
X44351Y13390
X43351Y13390
X43351Y12390
X44351Y12390
X42351Y12390
X41351Y12390
X41351Y13390
X42351Y13390
X42351Y14390
X41351Y14390
X41351Y15390
X42351Y15390
X40601Y16790
X39901Y15740
X38551Y15240
X38451Y14890
X38451Y16240
X38191Y17620
X37691Y18530
X34641Y19180
X40701Y20390
X40551Y21140
X41471Y29500
X43161Y33210
X47201Y34840
X47201Y35890
X48201Y35990
X48651Y35390
X49101Y34940
X51301Y35690
X50251Y36790
X49551Y37190
X48151Y37240
X47201Y37840
X47901Y38440
X47201Y40690
X44151Y40990
X41751Y39040
X42051Y38790
X44251Y37240
X50851Y38490
X51051Y38090
X51451Y37890
X52151Y37890
X51201Y38940
X51851Y39440
X52601Y39440
X52701Y40090
X53901Y40790
X54151Y40190
X54051Y39690
X54251Y38890
X51951Y41390
X51351Y41390
X50301Y42590
X50251Y43590
X48651Y43640
X47501Y43640
X50851Y39790
X52851Y42590
X53201Y43590
X54401Y43040
X54851Y43590
X55901Y43590
X56351Y43140
X55301Y42040
X61601Y44190
X62001Y43740
X61651Y44940
X62901Y45100
X63321Y44480
X64701Y44880
X65851Y44150
X66891Y43640
X68071Y44320
X65991Y42330
X42401Y44190
X37001Y42640
X36501Y41190
X35851Y40890
X35751Y40290
X34451Y39940
X33301Y41240
X34101Y42540
X35351Y43390
X33651Y44740
X32151Y43540
X32351Y42940
X28051Y43290
X23061Y41500
X23751Y38390
X27451Y38040
X30711Y35280
X33451Y36590
X35951Y37140
X18641Y41430
X14081Y32410
X16901Y29340
X14541Y28260
X11641Y20370
X13061Y19230
X15301Y14190
X26291Y11610
X30691Y10520
X35311Y11710
X39331Y11350
X47821Y10430
T02
X14751Y29890
X11751Y30890
X9751Y29890
T03
X26351Y19790
X27351Y19790
X27351Y18790
X26351Y18790
T04
X13351Y15390
X13351Y14390
X13351Y24390
X13351Y25390
T05
X29501Y38240
X30501Y38240
X30501Y39240
X29501Y39240
X29501Y40240
X30501Y40240
X30501Y41240
X29501Y41240
X39501Y41240
X40501Y41240
X40501Y40240
X39501Y40240
X39501Y39240
X40501Y39240
X40501Y38240
X39501Y38240
X67351Y38390
X67351Y39390
X67351Y40390
X67351Y41390
X67351Y42390
X69351Y42390
X69351Y41390
X69351Y40390
X69351Y39390
X69351Y38390
X69351Y37390
X69351Y36390
X69351Y35390
X69351Y34390
X69351Y33390
X69351Y32390
X69351Y31390
X69351Y30390
X69351Y29390
X69351Y28390
X69351Y27390
X69351Y26390
X69351Y25390
X69351Y24390
X69351Y23390
X69351Y22390
X69351Y21390
X69351Y20390
X69351Y19390
X69351Y18390
X69351Y17390
X69351Y16390
X69351Y15390
X69351Y14390
X69351Y13390
X69351Y12390
X69351Y11390
X67351Y11390
X67351Y12390
X67351Y13390
X67351Y14390
X67351Y15390
X67351Y16390
X67351Y17390
X67351Y18390
X67351Y19390
X67351Y20390
X67351Y21390
X67351Y22390
X67351Y23390
X67351Y24390
X67351Y25390
X67351Y26390
X67351Y27390
X67351Y28390
X67351Y29390
X67351Y30390
X67351Y31390
X67351Y32390
X67351Y33390
X67351Y34390
X67351Y35390
X67351Y36390
X67351Y37390
T06
X62651Y35690
X62651Y34690
X62651Y33690
X62651Y32690
X62651Y31690
X62651Y30690
X62651Y29690
X62651Y28690
X61651Y28690
X61651Y29690
X61651Y30690
X61651Y31690
X61651Y32690
X61651Y33690
X61651Y34690
X61651Y35690
X61351Y37890
X61351Y38890
X61351Y39890
X61351Y40890
X61351Y41890
X61351Y42890
X54051Y31740
X53051Y31740
X53051Y30740
X54051Y30740
X52051Y30740
X52051Y31740
X37951Y31390
X37951Y32390
X36951Y32390
X36951Y31390
X35951Y31390
X35951Y32390
X34951Y32390
X34951Y31390
X33951Y31390
X33951Y32390
X32951Y32390
X32951Y31390
X31951Y31390
X31951Y32390
X30951Y32390
X30951Y31390
X19151Y35440
X19151Y36440
X19151Y37440
T07
X11351Y27390
X11351Y23390
X11351Y17390
X11351Y13390
T08
X9851Y9390
X70351Y9390
X70351Y44390
M30
