G75*
%MOIN*%
%OFA0B0*%
%FSLAX24Y24*%
%IPPOS*%
%LPD*%
%AMOC8*
5,1,8,0,0,1.08239X$1,22.5*
%
%ADD10C,0.0040*%
%ADD11C,0.0150*%
%ADD12C,0.0120*%
%ADD13C,0.0100*%
%ADD14C,0.0020*%
%ADD15C,0.0160*%
%ADD16R,0.0500X0.1000*%
%ADD17C,0.0030*%
%ADD18C,0.0060*%
%ADD19C,0.0080*%
%ADD20R,0.0660X0.0380*%
%ADD21C,0.0020*%
%ADD22C,0.0992*%
%ADD23C,0.0050*%
%ADD24C,0.0000*%
%ADD25C,0.0070*%
%ADD26R,0.0150X0.0200*%
%ADD27R,0.1300X0.0200*%
%ADD28C,0.0178*%
D10*
X009370Y014160D02*
X009524Y014313D01*
X009370Y014467D01*
X009831Y014467D01*
X009754Y014620D02*
X009447Y014620D01*
X009370Y014697D01*
X009370Y014851D01*
X009447Y014927D01*
X009754Y014927D01*
X009831Y014851D01*
X009831Y014697D01*
X009754Y014620D01*
X009831Y014160D02*
X009370Y014160D01*
X009370Y015081D02*
X009370Y015311D01*
X009447Y015388D01*
X009754Y015388D01*
X009831Y015311D01*
X009831Y015081D01*
X009370Y015081D01*
X009907Y015541D02*
X009907Y015848D01*
X009831Y016002D02*
X009831Y016155D01*
X009831Y016078D02*
X009370Y016078D01*
X009370Y016002D02*
X009370Y016155D01*
X009370Y016308D02*
X009831Y016615D01*
X009370Y016615D01*
X009370Y016308D02*
X009831Y016308D01*
X010047Y024560D02*
X010354Y024560D01*
X010431Y024637D01*
X010431Y024790D01*
X010354Y024867D01*
X010354Y025020D02*
X010431Y025097D01*
X010431Y025251D01*
X010354Y025327D01*
X009970Y025327D01*
X009970Y025481D02*
X009970Y025711D01*
X010047Y025788D01*
X010200Y025788D01*
X010277Y025711D01*
X010277Y025481D01*
X010277Y025634D02*
X010431Y025788D01*
X010431Y025481D02*
X009970Y025481D01*
X009970Y025020D02*
X010354Y025020D01*
X010047Y024867D02*
X009970Y024790D01*
X009970Y024637D01*
X010047Y024560D01*
X015499Y026710D02*
X015729Y026710D01*
X015806Y026787D01*
X015729Y026863D01*
X015576Y026863D01*
X015499Y026940D01*
X015576Y027017D01*
X015806Y027017D01*
X015959Y026940D02*
X016036Y027017D01*
X016189Y027017D01*
X016266Y026940D01*
X016266Y026710D01*
X016420Y026787D02*
X016496Y026710D01*
X016650Y026710D01*
X016727Y026787D01*
X016727Y026940D01*
X016650Y027017D01*
X016496Y027017D01*
X016420Y026940D01*
X016420Y026787D01*
X016880Y026863D02*
X017034Y027017D01*
X017110Y027017D01*
X017264Y027017D02*
X017417Y027017D01*
X017340Y027094D02*
X017340Y026787D01*
X017417Y026710D01*
X016880Y026710D02*
X016880Y027017D01*
X015959Y027170D02*
X015959Y026710D01*
X021470Y025358D02*
X021547Y025434D01*
X021624Y025434D01*
X021700Y025358D01*
X021700Y025204D01*
X021624Y025127D01*
X021547Y025127D01*
X021470Y025204D01*
X021470Y025358D01*
X021700Y025358D02*
X021777Y025434D01*
X021854Y025434D01*
X021931Y025358D01*
X021931Y025204D01*
X021854Y025127D01*
X021777Y025127D01*
X021700Y025204D01*
X021547Y024974D02*
X021470Y024897D01*
X021470Y024744D01*
X021547Y024667D01*
X021854Y024667D01*
X021931Y024744D01*
X021931Y024897D01*
X021854Y024974D01*
X021931Y024513D02*
X021931Y024360D01*
X021931Y024437D02*
X021470Y024437D01*
X021470Y024513D02*
X021470Y024360D01*
X029471Y024787D02*
X029547Y024710D01*
X029701Y024710D01*
X029778Y024787D01*
X029931Y024710D02*
X030238Y024710D01*
X030391Y024710D02*
X030698Y025017D01*
X030698Y025094D01*
X030622Y025170D01*
X030468Y025170D01*
X030391Y025094D01*
X030084Y025170D02*
X030084Y024710D01*
X030391Y024710D02*
X030698Y024710D01*
X030852Y024940D02*
X031159Y024940D01*
X031312Y025017D02*
X031466Y025170D01*
X031466Y024710D01*
X031619Y024710D02*
X031312Y024710D01*
X031773Y024787D02*
X031849Y024710D01*
X032003Y024710D01*
X032080Y024787D01*
X032080Y024940D01*
X032003Y025017D01*
X031926Y025017D01*
X031773Y024940D01*
X031773Y025170D01*
X032080Y025170D01*
X034171Y026137D02*
X034247Y026060D01*
X034401Y026060D01*
X034478Y026137D01*
X034478Y026520D01*
X034631Y026367D02*
X034784Y026520D01*
X034784Y026060D01*
X034631Y026060D02*
X034938Y026060D01*
X034171Y026137D02*
X034171Y026520D01*
X034231Y028610D02*
X034231Y028917D01*
X034231Y029070D02*
X034231Y029147D01*
X034154Y029147D01*
X034154Y029070D01*
X034231Y029070D01*
X034154Y029301D02*
X034231Y029377D01*
X034231Y029531D01*
X034154Y029608D01*
X034077Y029608D01*
X034000Y029531D01*
X034000Y029301D01*
X034154Y029301D01*
X034000Y029301D02*
X033847Y029454D01*
X033770Y029608D01*
X033770Y029761D02*
X034077Y029761D01*
X034231Y029914D01*
X034077Y030068D01*
X033770Y030068D01*
X033231Y029914D02*
X033077Y030068D01*
X032770Y030068D01*
X032770Y029761D02*
X033077Y029761D01*
X033231Y029914D01*
X033231Y029608D02*
X033231Y029301D01*
X032924Y029608D01*
X032847Y029608D01*
X032770Y029531D01*
X032770Y029377D01*
X032847Y029301D01*
X033154Y029147D02*
X033231Y029147D01*
X033231Y029070D01*
X033154Y029070D01*
X033154Y029147D01*
X033154Y028917D02*
X033231Y028840D01*
X033231Y028687D01*
X033154Y028610D01*
X033000Y028763D02*
X033000Y028840D01*
X033077Y028917D01*
X033154Y028917D01*
X033000Y028840D02*
X032924Y028917D01*
X032847Y028917D01*
X032770Y028840D01*
X032770Y028687D01*
X032847Y028610D01*
X032231Y028687D02*
X032231Y028840D01*
X032154Y028917D01*
X032077Y028917D01*
X032000Y028840D01*
X032000Y028610D01*
X032154Y028610D01*
X032231Y028687D01*
X032000Y028610D02*
X031847Y028763D01*
X031770Y028917D01*
X032154Y029070D02*
X032154Y029147D01*
X032231Y029147D01*
X032231Y029070D01*
X032154Y029070D01*
X032000Y029301D02*
X032000Y029608D01*
X032077Y029761D02*
X031770Y029761D01*
X031770Y029531D02*
X032000Y029301D01*
X032231Y029531D02*
X031770Y029531D01*
X032077Y029761D02*
X032231Y029914D01*
X032077Y030068D01*
X031770Y030068D01*
X031231Y029914D02*
X031077Y030068D01*
X030770Y030068D01*
X030770Y029761D02*
X031077Y029761D01*
X031231Y029914D01*
X031231Y029531D02*
X030770Y029531D01*
X031000Y029301D01*
X031000Y029608D01*
X031154Y029147D02*
X031231Y029147D01*
X031231Y029070D01*
X031154Y029070D01*
X031154Y029147D01*
X031154Y028917D02*
X031077Y028917D01*
X031000Y028840D01*
X031000Y028610D01*
X031154Y028610D01*
X031231Y028687D01*
X031231Y028840D01*
X031154Y028917D01*
X030847Y028763D02*
X031000Y028610D01*
X030847Y028763D02*
X030770Y028917D01*
X033770Y028763D02*
X033924Y028610D01*
X033770Y028763D02*
X034231Y028763D01*
X034770Y028687D02*
X034847Y028610D01*
X035154Y028610D01*
X034847Y028917D01*
X035154Y028917D01*
X035231Y028840D01*
X035231Y028687D01*
X035154Y028610D01*
X034770Y028687D02*
X034770Y028840D01*
X034847Y028917D01*
X035154Y029070D02*
X035154Y029147D01*
X035231Y029147D01*
X035231Y029070D01*
X035154Y029070D01*
X035154Y029301D02*
X035077Y029301D01*
X035000Y029377D01*
X035000Y029531D01*
X035077Y029608D01*
X035154Y029608D01*
X035231Y029531D01*
X035231Y029377D01*
X035154Y029301D01*
X035000Y029377D02*
X034924Y029301D01*
X034847Y029301D01*
X034770Y029377D01*
X034770Y029531D01*
X034847Y029608D01*
X034924Y029608D01*
X035000Y029531D01*
X035077Y029761D02*
X034770Y029761D01*
X034770Y030068D02*
X035077Y030068D01*
X035231Y029914D01*
X035077Y029761D01*
X035770Y029761D02*
X036077Y029761D01*
X036231Y029914D01*
X036077Y030068D01*
X035770Y030068D01*
X036000Y029608D02*
X036000Y029301D01*
X035770Y029531D01*
X036231Y029531D01*
X036231Y029147D02*
X036231Y029070D01*
X036154Y029070D01*
X036154Y029147D01*
X036231Y029147D01*
X036154Y028917D02*
X036231Y028840D01*
X036231Y028687D01*
X036154Y028610D01*
X035847Y028917D01*
X036154Y028917D01*
X036154Y028610D02*
X035847Y028610D01*
X035770Y028687D01*
X035770Y028840D01*
X035847Y028917D01*
X036770Y028840D02*
X036847Y028917D01*
X037154Y028610D01*
X037231Y028687D01*
X037231Y028840D01*
X037154Y028917D01*
X036847Y028917D01*
X036770Y028840D02*
X036770Y028687D01*
X036847Y028610D01*
X037154Y028610D01*
X037154Y029070D02*
X037154Y029147D01*
X037231Y029147D01*
X037231Y029070D01*
X037154Y029070D01*
X037231Y029301D02*
X036924Y029608D01*
X036847Y029608D01*
X036770Y029531D01*
X036770Y029377D01*
X036847Y029301D01*
X037231Y029301D02*
X037231Y029608D01*
X037077Y029761D02*
X037231Y029914D01*
X037077Y030068D01*
X036770Y030068D01*
X036770Y029761D02*
X037077Y029761D01*
X037770Y029761D02*
X038077Y029761D01*
X038231Y029914D01*
X038077Y030068D01*
X037770Y030068D01*
X037770Y029454D02*
X038231Y029454D01*
X038231Y029301D02*
X038231Y029608D01*
X037924Y029301D02*
X037770Y029454D01*
X038154Y029147D02*
X038231Y029147D01*
X038231Y029070D01*
X038154Y029070D01*
X038154Y029147D01*
X038154Y028917D02*
X038231Y028840D01*
X038231Y028687D01*
X038154Y028610D01*
X037847Y028917D01*
X038154Y028917D01*
X038154Y028610D02*
X037847Y028610D01*
X037770Y028687D01*
X037770Y028840D01*
X037847Y028917D01*
X033405Y033457D02*
X033482Y033533D01*
X033482Y033917D01*
X033252Y033917D01*
X033175Y033840D01*
X033175Y033687D01*
X033252Y033610D01*
X033482Y033610D01*
X033405Y033457D02*
X033329Y033457D01*
X032945Y033610D02*
X032791Y033610D01*
X032715Y033687D01*
X032715Y033840D01*
X032791Y033917D01*
X032945Y033917D01*
X033022Y033840D01*
X033022Y033763D01*
X032715Y033763D01*
X032561Y033917D02*
X032484Y033917D01*
X032331Y033763D01*
X032331Y033610D02*
X032331Y033917D01*
X032178Y034070D02*
X032178Y033763D01*
X032024Y033610D01*
X031871Y033763D01*
X031871Y034070D01*
X034096Y033917D02*
X034403Y033917D01*
X034403Y033763D02*
X034096Y033763D01*
X035017Y033610D02*
X035324Y033610D01*
X035477Y033610D02*
X035554Y033610D01*
X035554Y033687D01*
X035477Y033687D01*
X035477Y033610D01*
X035170Y033610D02*
X035170Y034070D01*
X035017Y033917D01*
X035707Y033840D02*
X036014Y033840D01*
X036168Y033763D02*
X036321Y033610D01*
X036475Y033763D01*
X036475Y034070D01*
X036168Y034070D02*
X036168Y033763D01*
X035937Y033610D02*
X035937Y034070D01*
X035707Y033840D01*
X037088Y033840D02*
X037395Y033840D01*
X037242Y033687D02*
X037242Y033994D01*
X035077Y038432D02*
X035077Y038892D01*
X034847Y038662D01*
X035154Y038662D01*
X034693Y038508D02*
X034693Y038892D01*
X034386Y038892D02*
X034386Y038508D01*
X034463Y038432D01*
X034617Y038432D01*
X034693Y038508D01*
X035220Y043410D02*
X035220Y043563D01*
X035220Y043487D02*
X035681Y043487D01*
X035681Y043563D02*
X035681Y043410D01*
X035604Y043717D02*
X035681Y043794D01*
X035681Y043947D01*
X035604Y044024D01*
X035604Y044177D02*
X035681Y044254D01*
X035681Y044408D01*
X035604Y044484D01*
X035527Y044484D01*
X035450Y044408D01*
X035450Y044177D01*
X035604Y044177D01*
X035450Y044177D02*
X035297Y044331D01*
X035220Y044484D01*
X035297Y044024D02*
X035220Y043947D01*
X035220Y043794D01*
X035297Y043717D01*
X035604Y043717D01*
X032577Y043807D02*
X032500Y043730D01*
X032347Y043730D01*
X032270Y043807D01*
X032117Y043807D02*
X032117Y044114D01*
X032040Y044190D01*
X031810Y044190D01*
X031810Y043730D01*
X032040Y043730D01*
X032117Y043807D01*
X032270Y044114D02*
X032347Y044190D01*
X032500Y044190D01*
X032577Y044114D01*
X032577Y044037D01*
X032500Y043960D01*
X032577Y043883D01*
X032577Y043807D01*
X032500Y043960D02*
X032424Y043960D01*
X027345Y044337D02*
X027268Y044260D01*
X027115Y044260D01*
X027038Y044337D01*
X027345Y044644D01*
X027345Y044337D01*
X027345Y044644D02*
X027268Y044720D01*
X027115Y044720D01*
X027038Y044644D01*
X027038Y044337D01*
X026884Y044337D02*
X026884Y044260D01*
X026808Y044260D01*
X026808Y044337D01*
X026884Y044337D01*
X026654Y044260D02*
X026347Y044260D01*
X026654Y044567D01*
X026654Y044644D01*
X026577Y044720D01*
X026424Y044720D01*
X026347Y044644D01*
X026194Y044567D02*
X026040Y044260D01*
X025887Y044567D01*
X025273Y044567D02*
X025196Y044567D01*
X025043Y044413D01*
X025043Y044260D02*
X025043Y044567D01*
X024889Y044490D02*
X024889Y044413D01*
X024582Y044413D01*
X024582Y044337D02*
X024582Y044490D01*
X024659Y044567D01*
X024813Y044567D01*
X024889Y044490D01*
X024813Y044260D02*
X024659Y044260D01*
X024582Y044337D01*
X024429Y044260D02*
X024276Y044260D01*
X024352Y044260D02*
X024352Y044720D01*
X024276Y044720D01*
X024045Y044720D02*
X024045Y044260D01*
X023969Y044260D02*
X024122Y044260D01*
X023815Y044337D02*
X023815Y044490D01*
X023738Y044567D01*
X023585Y044567D01*
X023508Y044490D01*
X023508Y044337D01*
X023585Y044260D01*
X023738Y044260D01*
X023815Y044337D01*
X023969Y044720D02*
X024045Y044720D01*
X023355Y044567D02*
X023278Y044567D01*
X023125Y044413D01*
X023125Y044260D02*
X023125Y044567D01*
X022971Y044567D02*
X022818Y044567D01*
X022894Y044644D02*
X022894Y044337D01*
X022971Y044260D01*
X022971Y043970D02*
X022664Y043970D01*
X022664Y043740D01*
X022818Y043817D01*
X022894Y043817D01*
X022971Y043740D01*
X022971Y043587D01*
X022894Y043510D01*
X022741Y043510D01*
X022664Y043587D01*
X022511Y043510D02*
X022204Y043510D01*
X022357Y043510D02*
X022357Y043970D01*
X022204Y043817D01*
X022050Y043894D02*
X021743Y043587D01*
X021820Y043510D01*
X021974Y043510D01*
X022050Y043587D01*
X022050Y043894D01*
X021974Y043970D01*
X021820Y043970D01*
X021743Y043894D01*
X021743Y043587D01*
X021590Y043510D02*
X021283Y043510D01*
X021590Y043817D01*
X021590Y043894D01*
X021513Y043970D01*
X021360Y043970D01*
X021283Y043894D01*
X021283Y044260D02*
X021206Y044337D01*
X021206Y044644D01*
X021130Y044567D02*
X021283Y044567D01*
X021436Y044644D02*
X021436Y044337D01*
X021513Y044260D01*
X021667Y044260D01*
X021743Y044337D01*
X021897Y044337D02*
X021974Y044260D01*
X022127Y044260D01*
X022204Y044337D01*
X022204Y044490D01*
X022127Y044567D01*
X021974Y044567D01*
X021897Y044490D01*
X021897Y044337D01*
X021743Y044644D02*
X021667Y044720D01*
X021513Y044720D01*
X021436Y044644D01*
X020976Y044490D02*
X020976Y044260D01*
X020976Y044490D02*
X020899Y044567D01*
X020669Y044567D01*
X020669Y044260D01*
X020516Y044413D02*
X020209Y044413D01*
X020209Y044337D02*
X020209Y044490D01*
X020285Y044567D01*
X020439Y044567D01*
X020516Y044490D01*
X020516Y044413D01*
X020439Y044260D02*
X020285Y044260D01*
X020209Y044337D01*
X020055Y044567D02*
X019979Y044567D01*
X019825Y044413D01*
X019825Y044260D02*
X019825Y044567D01*
X019672Y044567D02*
X019595Y044567D01*
X019441Y044413D01*
X019441Y044260D02*
X019441Y044567D01*
X019288Y044567D02*
X019288Y044260D01*
X019058Y044260D01*
X018981Y044337D01*
X018981Y044567D01*
X018828Y044644D02*
X018751Y044720D01*
X018597Y044720D01*
X018521Y044644D01*
X018521Y044337D01*
X018597Y044260D01*
X018751Y044260D01*
X018828Y044337D01*
X018828Y043970D02*
X018828Y043510D01*
X018521Y043970D01*
X018521Y043510D01*
X018981Y043587D02*
X018981Y043894D01*
X019058Y043970D01*
X019211Y043970D01*
X019288Y043894D01*
X019441Y043970D02*
X019441Y043510D01*
X019441Y043663D02*
X019672Y043663D01*
X019748Y043740D01*
X019748Y043894D01*
X019672Y043970D01*
X019441Y043970D01*
X019288Y043587D02*
X019211Y043510D01*
X019058Y043510D01*
X018981Y043587D01*
X020362Y043740D02*
X020669Y043740D01*
X022357Y044260D02*
X022357Y044567D01*
X022587Y044567D01*
X022664Y044490D01*
X022664Y044260D01*
X021531Y040257D02*
X021531Y040026D01*
X021454Y039950D01*
X021300Y039950D01*
X021224Y040026D01*
X021224Y040257D01*
X021070Y040257D02*
X021531Y040257D01*
X021224Y039796D02*
X021224Y039719D01*
X021377Y039566D01*
X021224Y039566D02*
X021531Y039566D01*
X021531Y039412D02*
X021531Y039182D01*
X021454Y039106D01*
X021377Y039182D01*
X021377Y039412D01*
X021300Y039412D02*
X021531Y039412D01*
X021300Y039412D02*
X021224Y039336D01*
X021224Y039182D01*
X021224Y038952D02*
X021454Y038952D01*
X021531Y038875D01*
X021454Y038799D01*
X021531Y038722D01*
X021454Y038645D01*
X021224Y038645D01*
X021224Y038492D02*
X021224Y038415D01*
X021377Y038261D01*
X021224Y038261D02*
X021531Y038261D01*
X021454Y038108D02*
X021300Y038108D01*
X021224Y038031D01*
X021224Y037878D01*
X021300Y037801D01*
X021454Y037801D01*
X021531Y037878D01*
X021531Y038031D01*
X021454Y038108D01*
X021070Y037648D02*
X021070Y037341D01*
X021531Y037341D01*
X021300Y037341D02*
X021300Y037494D01*
X021224Y036727D02*
X021224Y036497D01*
X021300Y036420D01*
X021454Y036420D01*
X021531Y036497D01*
X021531Y036727D01*
X021070Y036727D01*
X021300Y036266D02*
X021377Y036266D01*
X021377Y035960D01*
X021300Y035960D02*
X021224Y036036D01*
X021224Y036190D01*
X021300Y036266D01*
X021531Y036190D02*
X021531Y036036D01*
X021454Y035960D01*
X021300Y035960D01*
X021300Y035806D02*
X021377Y035806D01*
X021377Y035499D01*
X021300Y035499D02*
X021224Y035576D01*
X021224Y035729D01*
X021300Y035806D01*
X021531Y035729D02*
X021531Y035576D01*
X021454Y035499D01*
X021300Y035499D01*
X021070Y035346D02*
X021070Y035039D01*
X021531Y035039D01*
X021300Y035039D02*
X021300Y035192D01*
X017131Y036391D02*
X017131Y036698D01*
X017131Y036851D02*
X016824Y036851D01*
X016824Y037081D01*
X016900Y037158D01*
X017131Y037158D01*
X017054Y037311D02*
X016977Y037388D01*
X016977Y037618D01*
X016900Y037618D02*
X017131Y037618D01*
X017131Y037388D01*
X017054Y037311D01*
X016824Y037388D02*
X016824Y037542D01*
X016900Y037618D01*
X016824Y037772D02*
X016824Y038002D01*
X016900Y038079D01*
X017054Y038079D01*
X017131Y038002D01*
X017131Y037772D01*
X016670Y037772D01*
X016670Y038232D02*
X016670Y038309D01*
X017131Y038309D01*
X017131Y038232D02*
X017131Y038386D01*
X017054Y038539D02*
X017131Y038616D01*
X017131Y038769D01*
X016977Y038846D02*
X016977Y038539D01*
X016900Y038539D02*
X016824Y038616D01*
X016824Y038769D01*
X016900Y038846D01*
X016977Y038846D01*
X016900Y039000D02*
X016824Y039076D01*
X016824Y039307D01*
X016670Y039307D02*
X017131Y039307D01*
X017131Y039076D01*
X017054Y039000D01*
X016900Y039000D01*
X016900Y038539D02*
X017054Y038539D01*
X015631Y038616D02*
X015554Y038539D01*
X015400Y038539D01*
X015324Y038616D01*
X015324Y038769D01*
X015400Y038846D01*
X015477Y038846D01*
X015477Y038539D01*
X015631Y038616D02*
X015631Y038769D01*
X015554Y039000D02*
X015400Y039000D01*
X015324Y039076D01*
X015324Y039307D01*
X015170Y039307D02*
X015631Y039307D01*
X015631Y039076D01*
X015554Y039000D01*
X015631Y038386D02*
X015631Y038232D01*
X015631Y038309D02*
X015170Y038309D01*
X015170Y038232D01*
X015324Y038002D02*
X015324Y037772D01*
X015170Y037772D02*
X015631Y037772D01*
X015631Y038002D01*
X015554Y038079D01*
X015400Y038079D01*
X015324Y038002D01*
X015400Y037618D02*
X015631Y037618D01*
X015631Y037388D01*
X015554Y037311D01*
X015477Y037388D01*
X015477Y037618D01*
X015400Y037618D02*
X015324Y037542D01*
X015324Y037388D01*
X015324Y037158D02*
X015324Y036928D01*
X015400Y036851D01*
X015477Y036928D01*
X015477Y037081D01*
X015554Y037158D01*
X015631Y037081D01*
X015631Y036851D01*
X015631Y036698D02*
X015631Y036544D01*
X015631Y036621D02*
X015324Y036621D01*
X015324Y036544D01*
X015247Y036391D02*
X015170Y036314D01*
X015170Y036084D01*
X015631Y036084D01*
X015631Y036314D01*
X015554Y036391D01*
X015247Y036391D01*
X015170Y036621D02*
X015094Y036621D01*
X016670Y036698D02*
X016670Y036391D01*
X017131Y036391D01*
X016900Y036391D02*
X016900Y036544D01*
X011481Y035384D02*
X011327Y035538D01*
X011020Y035538D01*
X011020Y035231D02*
X011327Y035231D01*
X011481Y035384D01*
X011404Y035077D02*
X011481Y035001D01*
X011481Y034847D01*
X011404Y034770D01*
X011250Y034770D02*
X011174Y034924D01*
X011174Y035001D01*
X011250Y035077D01*
X011404Y035077D01*
X011250Y034770D02*
X011020Y034770D01*
X011020Y035077D01*
X011250Y034617D02*
X011250Y034310D01*
X011097Y034463D02*
X011404Y034463D01*
X025720Y033657D02*
X026181Y033657D01*
X025720Y033350D01*
X026181Y033350D01*
X026104Y033196D02*
X025797Y033196D01*
X025720Y033119D01*
X025720Y032966D01*
X025797Y032889D01*
X026104Y032889D01*
X026181Y032966D01*
X026181Y033119D01*
X026104Y033196D01*
X026181Y032736D02*
X025720Y032736D01*
X025874Y032582D01*
X025720Y032429D01*
X026181Y032429D01*
X029547Y025170D02*
X029471Y025094D01*
X029471Y024787D01*
X029547Y025170D02*
X029701Y025170D01*
X029778Y025094D01*
X029931Y025017D02*
X030084Y025170D01*
X047440Y033892D02*
X047747Y033892D01*
X047900Y033892D02*
X047900Y034352D01*
X048054Y034199D01*
X048207Y034352D01*
X048207Y033892D01*
X048361Y033892D02*
X048514Y033892D01*
X048437Y033892D02*
X048437Y034352D01*
X048361Y034352D02*
X048514Y034352D01*
X049128Y034276D02*
X049128Y034199D01*
X049205Y034122D01*
X049358Y034122D01*
X049435Y034045D01*
X049435Y033969D01*
X049358Y033892D01*
X049205Y033892D01*
X049128Y033969D01*
X049128Y034276D02*
X049205Y034352D01*
X049358Y034352D01*
X049435Y034276D01*
X049588Y034352D02*
X049588Y033892D01*
X049588Y034122D02*
X049665Y034199D01*
X049819Y034199D01*
X049895Y034122D01*
X049895Y033892D01*
X050049Y033892D02*
X050202Y033892D01*
X050126Y033892D02*
X050126Y034199D01*
X050049Y034199D01*
X050126Y034352D02*
X050126Y034429D01*
X050432Y034199D02*
X050586Y034199D01*
X050663Y034122D01*
X050663Y034045D01*
X050356Y034045D01*
X050356Y033969D02*
X050356Y034122D01*
X050432Y034199D01*
X050356Y033969D02*
X050432Y033892D01*
X050586Y033892D01*
X050816Y033892D02*
X050970Y033892D01*
X050893Y033892D02*
X050893Y034352D01*
X050816Y034352D01*
X051123Y034122D02*
X051200Y034199D01*
X051430Y034199D01*
X051430Y034352D02*
X051430Y033892D01*
X051200Y033892D01*
X051123Y033969D01*
X051123Y034122D01*
X047747Y034352D02*
X047440Y034352D01*
X047440Y033892D01*
X047440Y034122D02*
X047593Y034122D01*
X052771Y029670D02*
X052924Y029670D01*
X052847Y029670D02*
X052847Y029210D01*
X052771Y029210D02*
X052924Y029210D01*
X053078Y029287D02*
X053154Y029210D01*
X053308Y029210D01*
X053384Y029287D01*
X053384Y029363D01*
X053308Y029440D01*
X053154Y029440D01*
X053078Y029517D01*
X053078Y029594D01*
X053154Y029670D01*
X053308Y029670D01*
X053384Y029594D01*
X053538Y029670D02*
X053768Y029670D01*
X053845Y029594D01*
X053845Y029440D01*
X053768Y029363D01*
X053538Y029363D01*
X053538Y029210D02*
X053538Y029670D01*
X054459Y029670D02*
X054689Y029670D01*
X054766Y029594D01*
X054766Y029440D01*
X054689Y029363D01*
X054459Y029363D01*
X054459Y029210D02*
X054459Y029670D01*
X054919Y029517D02*
X054919Y029210D01*
X054919Y029363D02*
X055073Y029517D01*
X055149Y029517D01*
X055303Y029440D02*
X055303Y029287D01*
X055380Y029210D01*
X055533Y029210D01*
X055610Y029287D01*
X055610Y029440D01*
X055533Y029517D01*
X055380Y029517D01*
X055303Y029440D01*
X055763Y029440D02*
X055763Y029287D01*
X055840Y029210D01*
X056070Y029210D01*
X056070Y029133D02*
X056070Y029517D01*
X055840Y029517D01*
X055763Y029440D01*
X055917Y029057D02*
X055993Y029057D01*
X056070Y029133D01*
X060736Y024999D02*
X061642Y025904D01*
X061957Y025904D01*
X062744Y025904D02*
X063059Y025904D01*
X063965Y024999D01*
X063965Y022676D01*
X062744Y022676D01*
X061957Y022676D02*
X060736Y022676D01*
X060736Y024999D01*
X061997Y025806D02*
X061920Y025786D01*
X061845Y025763D01*
X061771Y025735D01*
X061699Y025704D01*
X061628Y025669D01*
X061559Y025631D01*
X061493Y025589D01*
X061428Y025544D01*
X061366Y025496D01*
X061306Y025444D01*
X061249Y025390D01*
X061195Y025333D01*
X061143Y025273D01*
X061095Y025211D01*
X061050Y025146D01*
X061009Y025079D01*
X060971Y025010D01*
X060936Y024939D01*
X060905Y024867D01*
X060877Y024793D01*
X060854Y024718D01*
X060834Y024642D01*
X060818Y024564D01*
X060806Y024486D01*
X060798Y024408D01*
X060794Y024329D01*
X060794Y024251D01*
X060798Y024172D01*
X060806Y024094D01*
X060818Y024016D01*
X060834Y023938D01*
X060854Y023862D01*
X060877Y023787D01*
X060905Y023713D01*
X060936Y023641D01*
X060971Y023570D01*
X061009Y023501D01*
X061050Y023434D01*
X061095Y023369D01*
X061143Y023307D01*
X061195Y023247D01*
X061249Y023190D01*
X061306Y023136D01*
X061366Y023084D01*
X061428Y023036D01*
X061493Y022991D01*
X061559Y022949D01*
X061628Y022911D01*
X061699Y022876D01*
X061771Y022845D01*
X061845Y022817D01*
X061920Y022794D01*
X061997Y022774D01*
X062705Y022774D02*
X062782Y022794D01*
X062857Y022817D01*
X062931Y022845D01*
X063003Y022876D01*
X063074Y022911D01*
X063143Y022949D01*
X063209Y022991D01*
X063274Y023036D01*
X063336Y023084D01*
X063396Y023136D01*
X063453Y023190D01*
X063507Y023247D01*
X063559Y023307D01*
X063607Y023369D01*
X063652Y023434D01*
X063693Y023501D01*
X063731Y023570D01*
X063766Y023641D01*
X063797Y023713D01*
X063825Y023787D01*
X063848Y023862D01*
X063868Y023938D01*
X063884Y024016D01*
X063896Y024094D01*
X063904Y024172D01*
X063908Y024251D01*
X063908Y024329D01*
X063904Y024408D01*
X063896Y024486D01*
X063884Y024564D01*
X063868Y024642D01*
X063848Y024718D01*
X063825Y024793D01*
X063797Y024867D01*
X063766Y024939D01*
X063731Y025010D01*
X063693Y025079D01*
X063652Y025146D01*
X063607Y025211D01*
X063559Y025273D01*
X063507Y025333D01*
X063453Y025390D01*
X063396Y025444D01*
X063336Y025496D01*
X063274Y025544D01*
X063209Y025589D01*
X063143Y025631D01*
X063074Y025669D01*
X063003Y025704D01*
X062931Y025735D01*
X062857Y025763D01*
X062782Y025786D01*
X062705Y025806D01*
X056481Y019653D02*
X056405Y019729D01*
X056251Y019729D01*
X056174Y019653D01*
X056481Y019653D02*
X056481Y019576D01*
X056174Y019269D01*
X056481Y019269D01*
X056021Y019269D02*
X055714Y019269D01*
X055714Y019729D01*
X060736Y015904D02*
X061957Y015904D01*
X062744Y015904D02*
X063965Y015904D01*
X063965Y013581D01*
X063059Y012676D01*
X062744Y012676D01*
X061957Y012676D02*
X061642Y012676D01*
X060736Y013581D01*
X060736Y015904D01*
X061997Y015806D02*
X061920Y015786D01*
X061845Y015763D01*
X061771Y015735D01*
X061699Y015704D01*
X061628Y015669D01*
X061559Y015631D01*
X061493Y015589D01*
X061428Y015544D01*
X061366Y015496D01*
X061306Y015444D01*
X061249Y015390D01*
X061195Y015333D01*
X061143Y015273D01*
X061095Y015211D01*
X061050Y015146D01*
X061009Y015079D01*
X060971Y015010D01*
X060936Y014939D01*
X060905Y014867D01*
X060877Y014793D01*
X060854Y014718D01*
X060834Y014642D01*
X060818Y014564D01*
X060806Y014486D01*
X060798Y014408D01*
X060794Y014329D01*
X060794Y014251D01*
X060798Y014172D01*
X060806Y014094D01*
X060818Y014016D01*
X060834Y013938D01*
X060854Y013862D01*
X060877Y013787D01*
X060905Y013713D01*
X060936Y013641D01*
X060971Y013570D01*
X061009Y013501D01*
X061050Y013434D01*
X061095Y013369D01*
X061143Y013307D01*
X061195Y013247D01*
X061249Y013190D01*
X061306Y013136D01*
X061366Y013084D01*
X061428Y013036D01*
X061493Y012991D01*
X061559Y012949D01*
X061628Y012911D01*
X061699Y012876D01*
X061771Y012845D01*
X061845Y012817D01*
X061920Y012794D01*
X061997Y012774D01*
X062705Y012774D02*
X062782Y012794D01*
X062857Y012817D01*
X062931Y012845D01*
X063003Y012876D01*
X063074Y012911D01*
X063143Y012949D01*
X063209Y012991D01*
X063274Y013036D01*
X063336Y013084D01*
X063396Y013136D01*
X063453Y013190D01*
X063507Y013247D01*
X063559Y013307D01*
X063607Y013369D01*
X063652Y013434D01*
X063693Y013501D01*
X063731Y013570D01*
X063766Y013641D01*
X063797Y013713D01*
X063825Y013787D01*
X063848Y013862D01*
X063868Y013938D01*
X063884Y014016D01*
X063896Y014094D01*
X063904Y014172D01*
X063908Y014251D01*
X063908Y014329D01*
X063904Y014408D01*
X063896Y014486D01*
X063884Y014564D01*
X063868Y014642D01*
X063848Y014718D01*
X063825Y014793D01*
X063797Y014867D01*
X063766Y014939D01*
X063731Y015010D01*
X063693Y015079D01*
X063652Y015146D01*
X063607Y015211D01*
X063559Y015273D01*
X063507Y015333D01*
X063453Y015390D01*
X063396Y015444D01*
X063336Y015496D01*
X063274Y015544D01*
X063209Y015589D01*
X063143Y015631D01*
X063074Y015669D01*
X063003Y015704D01*
X062931Y015735D01*
X062857Y015763D01*
X062782Y015786D01*
X062705Y015806D01*
X056328Y009629D02*
X056328Y009169D01*
X056481Y009169D02*
X056174Y009169D01*
X056021Y009169D02*
X055714Y009169D01*
X055714Y009629D01*
X056174Y009476D02*
X056328Y009629D01*
X062620Y037410D02*
X062620Y037717D01*
X062620Y037870D02*
X062620Y038177D01*
X062620Y038024D02*
X063081Y038024D01*
X063081Y038331D02*
X063081Y038561D01*
X063004Y038638D01*
X062697Y038638D01*
X062620Y038561D01*
X062620Y038331D01*
X063081Y038331D01*
X063081Y038791D02*
X063081Y038945D01*
X063081Y038868D02*
X062620Y038868D01*
X062620Y038791D02*
X062620Y038945D01*
X062620Y039558D02*
X063081Y039558D01*
X062850Y039558D02*
X062850Y039865D01*
X062850Y040019D02*
X062774Y040096D01*
X062774Y040249D01*
X062850Y040326D01*
X062927Y040326D01*
X062927Y040019D01*
X063004Y040019D02*
X062850Y040019D01*
X063004Y040019D02*
X063081Y040096D01*
X063081Y040249D01*
X063004Y040479D02*
X062927Y040556D01*
X062927Y040786D01*
X062850Y040786D02*
X063081Y040786D01*
X063081Y040556D01*
X063004Y040479D01*
X062774Y040556D02*
X062774Y040709D01*
X062850Y040786D01*
X062850Y040940D02*
X062774Y041016D01*
X062774Y041247D01*
X062620Y041247D02*
X063081Y041247D01*
X063081Y041016D01*
X063004Y040940D01*
X062850Y040940D01*
X062850Y041400D02*
X062774Y041477D01*
X062774Y041630D01*
X062850Y041707D01*
X062927Y041707D01*
X062927Y041400D01*
X063004Y041400D02*
X062850Y041400D01*
X063004Y041400D02*
X063081Y041477D01*
X063081Y041630D01*
X063081Y041860D02*
X062774Y041860D01*
X062927Y041860D02*
X062774Y042014D01*
X062774Y042091D01*
X063871Y042120D02*
X064178Y042120D01*
X064331Y042120D02*
X064638Y041660D01*
X064331Y041660D02*
X064638Y042120D01*
X064791Y042660D02*
X064791Y043120D01*
X065022Y043120D01*
X065098Y043044D01*
X065098Y042890D01*
X065022Y042813D01*
X064791Y042813D01*
X064945Y042813D02*
X065098Y042660D01*
X064484Y042660D02*
X064484Y043120D01*
X064331Y043120D02*
X064638Y043120D01*
X064178Y043044D02*
X064101Y043120D01*
X063871Y043120D01*
X063871Y042660D01*
X064101Y042660D01*
X064178Y042737D01*
X064178Y043044D01*
X064024Y042120D02*
X064024Y041660D01*
X064101Y041120D02*
X063871Y041120D01*
X063871Y040660D01*
X063871Y040813D02*
X064101Y040813D01*
X064178Y040890D01*
X064178Y041044D01*
X064101Y041120D01*
X064331Y041120D02*
X064638Y040660D01*
X064331Y040660D02*
X064638Y041120D01*
X064178Y040660D02*
X064024Y040813D01*
X063871Y040270D02*
X063871Y039963D01*
X064024Y039810D01*
X064178Y039963D01*
X064178Y040270D01*
X064331Y040270D02*
X064331Y039887D01*
X064408Y039810D01*
X064561Y039810D01*
X064638Y039887D01*
X064638Y040270D01*
X064791Y040194D02*
X064791Y040117D01*
X064868Y040040D01*
X065022Y040040D01*
X065098Y039963D01*
X065098Y039887D01*
X065022Y039810D01*
X064868Y039810D01*
X064791Y039887D01*
X064791Y040194D02*
X064868Y040270D01*
X065022Y040270D01*
X065098Y040194D01*
X065252Y040270D02*
X065482Y040270D01*
X065559Y040194D01*
X065559Y040117D01*
X065482Y040040D01*
X065252Y040040D01*
X065252Y039810D02*
X065252Y040270D01*
X065482Y040040D02*
X065559Y039963D01*
X065559Y039887D01*
X065482Y039810D01*
X065252Y039810D01*
X063081Y039865D02*
X062620Y039865D01*
X062850Y037563D02*
X062850Y037410D01*
X062620Y037410D02*
X063081Y037410D01*
X059711Y039060D02*
X059711Y039520D01*
X059481Y039290D01*
X059788Y039290D01*
X059328Y039137D02*
X059328Y039444D01*
X059251Y039520D01*
X059021Y039520D01*
X059021Y039060D01*
X059251Y039060D01*
X059328Y039137D01*
X058168Y038770D02*
X057938Y038540D01*
X058245Y038540D01*
X058168Y038310D02*
X058168Y038770D01*
X057784Y038694D02*
X057708Y038770D01*
X057554Y038770D01*
X057478Y038694D01*
X057478Y038387D01*
X057554Y038310D01*
X057708Y038310D01*
X057784Y038387D01*
X057324Y038310D02*
X057171Y038310D01*
X057247Y038310D02*
X057247Y038770D01*
X057171Y038770D02*
X057324Y038770D01*
X058361Y041260D02*
X058591Y041260D01*
X058668Y041337D01*
X058668Y041644D01*
X058591Y041720D01*
X058361Y041720D01*
X058361Y041260D01*
X058821Y041260D02*
X059128Y041567D01*
X059128Y041644D01*
X059051Y041720D01*
X058898Y041720D01*
X058821Y041644D01*
X058821Y041260D02*
X059128Y041260D01*
D11*
X016101Y026540D02*
X016001Y026440D01*
X016001Y025540D01*
X015801Y025740D01*
X016001Y025540D02*
X016201Y025740D01*
D12*
X029851Y027890D02*
X029851Y034890D01*
X038851Y034890D01*
X038851Y027890D01*
X029851Y027890D01*
D13*
X033516Y025497D02*
X033644Y025625D01*
X035258Y025625D02*
X035386Y025497D01*
X035386Y023883D02*
X035258Y023755D01*
X033644Y023755D02*
X033516Y023883D01*
X017151Y033940D02*
X017151Y035440D01*
X016651Y035440D01*
X016651Y033940D01*
X017151Y033940D01*
X015651Y033940D02*
X015151Y033940D01*
X015151Y035440D01*
X015651Y035440D01*
X015651Y033940D01*
X060051Y036890D02*
X060051Y043890D01*
X063351Y043890D01*
X063351Y036890D01*
X060051Y036890D01*
X073301Y011961D02*
X073301Y011361D01*
X073301Y011661D02*
X072400Y011661D01*
X072700Y011361D01*
X072400Y011041D02*
X072400Y010740D01*
X072400Y010890D02*
X073151Y010890D01*
X073301Y010740D01*
X073301Y010590D01*
X073151Y010440D01*
D14*
X071451Y011640D02*
X069851Y011640D01*
X069851Y012640D02*
X071451Y012640D01*
X071451Y011640D01*
X071451Y013140D02*
X069851Y013140D01*
X071451Y013140D02*
X071451Y014640D01*
X069851Y014640D01*
X069851Y015140D02*
X071451Y015140D01*
X071451Y018640D01*
X069851Y018640D01*
X069851Y019140D02*
X071451Y019140D01*
X071451Y022640D01*
X069851Y022640D01*
X069851Y023140D02*
X071451Y023140D01*
X071451Y026640D01*
X069851Y026640D01*
X069851Y027140D02*
X071451Y027140D01*
X071451Y030640D01*
X069851Y030640D01*
X069851Y031140D02*
X071451Y031140D01*
X071451Y034640D01*
X069851Y034640D01*
X069851Y035140D02*
X071451Y035140D01*
X071451Y038640D01*
X069851Y038640D01*
X069851Y039140D02*
X071451Y039140D01*
X071451Y040640D01*
X069851Y040640D01*
X069851Y041140D02*
X071451Y041140D01*
X071451Y042140D01*
X069851Y042140D01*
X058243Y043263D02*
X058213Y043233D01*
X058153Y043233D01*
X058123Y043263D01*
X058123Y043293D01*
X058153Y043323D01*
X058213Y043323D01*
X058243Y043293D01*
X058243Y043263D01*
X058213Y043323D02*
X058243Y043353D01*
X058243Y043383D01*
X058213Y043413D01*
X058153Y043413D01*
X058123Y043383D01*
X058123Y043353D01*
X058153Y043323D01*
X058059Y043353D02*
X058059Y043383D01*
X058029Y043413D01*
X057969Y043413D01*
X057939Y043383D01*
X057875Y043383D02*
X057845Y043413D01*
X057785Y043413D01*
X057755Y043383D01*
X057755Y043263D01*
X057785Y043233D01*
X057845Y043233D01*
X057875Y043263D01*
X057939Y043233D02*
X058059Y043353D01*
X058059Y043233D02*
X057939Y043233D01*
X057361Y042323D02*
X057241Y042323D01*
X057361Y042202D01*
X057391Y042232D01*
X057391Y042293D01*
X057361Y042323D01*
X057241Y042323D02*
X057210Y042293D01*
X057210Y042232D01*
X057241Y042202D01*
X057361Y042202D01*
X057361Y042138D02*
X057391Y042108D01*
X057391Y042048D01*
X057361Y042018D01*
X057241Y042138D01*
X057361Y042138D01*
X057361Y042018D02*
X057241Y042018D01*
X057210Y042048D01*
X057210Y042108D01*
X057241Y042138D01*
X057391Y041954D02*
X057391Y041834D01*
X057391Y041894D02*
X057210Y041894D01*
X057271Y041834D01*
X057301Y041770D02*
X057331Y041740D01*
X057331Y041650D01*
X057391Y041650D02*
X057210Y041650D01*
X057210Y041740D01*
X057241Y041770D01*
X057301Y041770D01*
X057331Y041710D02*
X057391Y041770D01*
X052548Y038830D02*
X052428Y038830D01*
X052428Y038740D01*
X052488Y038770D01*
X052518Y038770D01*
X052548Y038740D01*
X052548Y038680D01*
X052518Y038650D01*
X052458Y038650D01*
X052428Y038680D01*
X052364Y038680D02*
X052333Y038650D01*
X052273Y038650D01*
X052243Y038680D01*
X052243Y038800D01*
X052273Y038830D01*
X052333Y038830D01*
X052364Y038800D01*
X052181Y038830D02*
X052121Y038830D01*
X052151Y038830D02*
X052151Y038650D01*
X052121Y038650D02*
X052181Y038650D01*
X051758Y036533D02*
X051878Y036413D01*
X051908Y036413D01*
X051908Y036349D02*
X051908Y036229D01*
X051788Y036349D01*
X051758Y036349D01*
X051728Y036319D01*
X051728Y036259D01*
X051758Y036229D01*
X051758Y036164D02*
X051728Y036134D01*
X051728Y036074D01*
X051758Y036044D01*
X051878Y036044D01*
X051908Y036074D01*
X051908Y036134D01*
X051878Y036164D01*
X051728Y036413D02*
X051728Y036533D01*
X051758Y036533D01*
X051781Y033965D02*
X051871Y033965D01*
X051901Y033935D01*
X051901Y033875D01*
X051871Y033845D01*
X051781Y033845D01*
X051841Y033845D02*
X051901Y033785D01*
X051965Y033785D02*
X052085Y033905D01*
X052085Y033935D01*
X052055Y033965D01*
X051995Y033965D01*
X051965Y033935D01*
X051965Y033785D02*
X052085Y033785D01*
X052149Y033815D02*
X052179Y033785D01*
X052239Y033785D01*
X052269Y033815D01*
X052269Y033845D01*
X052239Y033875D01*
X052209Y033875D01*
X052239Y033875D02*
X052269Y033905D01*
X052269Y033935D01*
X052239Y033965D01*
X052179Y033965D01*
X052149Y033935D01*
X051781Y033965D02*
X051781Y033785D01*
X053261Y033830D02*
X053351Y033830D01*
X053381Y033800D01*
X053381Y033680D01*
X053351Y033650D01*
X053261Y033650D01*
X053261Y033830D01*
X053445Y033770D02*
X053505Y033830D01*
X053505Y033650D01*
X053445Y033650D02*
X053565Y033650D01*
X053579Y033165D02*
X053549Y033135D01*
X053579Y033165D02*
X053639Y033165D01*
X053669Y033135D01*
X053669Y033105D01*
X053549Y032985D01*
X053669Y032985D01*
X053485Y032985D02*
X053365Y032985D01*
X053485Y033105D01*
X053485Y033135D01*
X053455Y033165D01*
X053395Y033165D01*
X053365Y033135D01*
X053301Y033135D02*
X053301Y033075D01*
X053271Y033045D01*
X053181Y033045D01*
X053241Y033045D02*
X053301Y032985D01*
X053181Y032985D02*
X053181Y033165D01*
X053271Y033165D01*
X053301Y033135D01*
X055775Y032928D02*
X055775Y032868D01*
X055805Y032838D01*
X055835Y032838D01*
X055866Y032868D01*
X055866Y032958D01*
X055926Y032958D02*
X055805Y032958D01*
X055775Y032928D01*
X055926Y032958D02*
X055956Y032928D01*
X055956Y032868D01*
X055926Y032838D01*
X055956Y032774D02*
X055956Y032654D01*
X055956Y032714D02*
X055775Y032714D01*
X055835Y032654D01*
X055805Y032590D02*
X055866Y032590D01*
X055896Y032560D01*
X055896Y032470D01*
X055956Y032470D02*
X055775Y032470D01*
X055775Y032560D01*
X055805Y032590D01*
X055896Y032530D02*
X055956Y032590D01*
X052361Y025386D02*
X052391Y025356D01*
X052391Y025296D01*
X052361Y025266D01*
X052391Y025202D02*
X052210Y025202D01*
X052241Y025266D02*
X052210Y025296D01*
X052210Y025356D01*
X052241Y025386D01*
X052271Y025386D01*
X052301Y025356D01*
X052331Y025386D01*
X052361Y025386D01*
X052301Y025356D02*
X052301Y025326D01*
X052391Y025202D02*
X052210Y025082D01*
X052391Y025082D01*
X052361Y025018D02*
X052391Y024988D01*
X052391Y024928D01*
X052361Y024898D01*
X052241Y024898D01*
X052210Y024928D01*
X052210Y024988D01*
X052241Y025018D01*
X043788Y025300D02*
X043668Y025300D01*
X043788Y025420D01*
X043788Y025450D01*
X043758Y025480D01*
X043698Y025480D01*
X043668Y025450D01*
X043604Y025450D02*
X043573Y025480D01*
X043513Y025480D01*
X043483Y025450D01*
X043483Y025330D01*
X043513Y025300D01*
X043573Y025300D01*
X043604Y025330D01*
X043421Y025300D02*
X043361Y025300D01*
X043391Y025300D02*
X043391Y025480D01*
X043361Y025480D02*
X043421Y025480D01*
X037296Y025736D02*
X037296Y025796D01*
X037266Y025826D01*
X037236Y025890D02*
X037236Y025981D01*
X037206Y026011D01*
X037146Y026011D01*
X037116Y025981D01*
X037116Y025890D01*
X037296Y025890D01*
X037236Y025951D02*
X037296Y026011D01*
X037296Y026075D02*
X037296Y026195D01*
X037296Y026135D02*
X037116Y026135D01*
X037176Y026075D01*
X037146Y026259D02*
X037116Y026289D01*
X037116Y026349D01*
X037146Y026379D01*
X037176Y026379D01*
X037296Y026259D01*
X037296Y026379D01*
X037146Y025826D02*
X037116Y025796D01*
X037116Y025736D01*
X037146Y025706D01*
X037266Y025706D01*
X037296Y025736D01*
X036348Y024602D02*
X036288Y024602D01*
X036258Y024572D01*
X036194Y024572D02*
X036164Y024602D01*
X036104Y024602D01*
X036074Y024572D01*
X036074Y024452D01*
X036104Y024422D01*
X036164Y024422D01*
X036194Y024452D01*
X036258Y024422D02*
X036378Y024542D01*
X036378Y024572D01*
X036348Y024602D01*
X036378Y024422D02*
X036258Y024422D01*
X035493Y025803D02*
X035523Y025833D01*
X035523Y025893D01*
X035493Y025923D01*
X035523Y025987D02*
X035523Y026107D01*
X035523Y026171D02*
X035523Y026292D01*
X035523Y026232D02*
X035343Y026232D01*
X035403Y026171D01*
X035373Y026356D02*
X035343Y026386D01*
X035343Y026446D01*
X035373Y026476D01*
X035403Y026476D01*
X035523Y026356D01*
X035523Y026476D01*
X035523Y025987D02*
X035343Y025987D01*
X035373Y025923D02*
X035343Y025893D01*
X035343Y025833D01*
X035373Y025803D01*
X035493Y025803D01*
X035487Y019780D02*
X035487Y019600D01*
X035547Y019600D02*
X035426Y019600D01*
X035362Y019630D02*
X035332Y019600D01*
X035272Y019600D01*
X035242Y019630D01*
X035242Y019750D01*
X035272Y019780D01*
X035332Y019780D01*
X035362Y019750D01*
X035426Y019720D02*
X035487Y019780D01*
X035178Y019720D02*
X035178Y019600D01*
X035178Y019690D02*
X035058Y019690D01*
X035058Y019720D02*
X035118Y019780D01*
X035178Y019720D01*
X035058Y019720D02*
X035058Y019600D01*
X034994Y019630D02*
X034994Y019750D01*
X034964Y019780D01*
X034874Y019780D01*
X034874Y019600D01*
X034964Y019600D01*
X034994Y019630D01*
X033197Y017900D02*
X033167Y017930D01*
X033106Y017930D01*
X033076Y017900D01*
X033076Y017870D01*
X033106Y017840D01*
X033167Y017840D01*
X033197Y017810D01*
X033197Y017780D01*
X033167Y017750D01*
X033106Y017750D01*
X033076Y017780D01*
X033012Y017780D02*
X032982Y017750D01*
X032922Y017750D01*
X032892Y017780D01*
X032892Y017900D01*
X032922Y017930D01*
X032982Y017930D01*
X033012Y017900D01*
X032828Y017900D02*
X032798Y017930D01*
X032708Y017930D01*
X032708Y017750D01*
X032798Y017750D01*
X032828Y017780D01*
X032828Y017900D01*
X032141Y017238D02*
X032141Y017118D01*
X032141Y017178D02*
X031960Y017178D01*
X032021Y017118D01*
X032141Y017054D02*
X032141Y016934D01*
X032141Y016994D02*
X031960Y016994D01*
X032021Y016934D01*
X031991Y016870D02*
X032051Y016870D01*
X032081Y016840D01*
X032081Y016750D01*
X032141Y016750D02*
X031960Y016750D01*
X031960Y016840D01*
X031991Y016870D01*
X032081Y016810D02*
X032141Y016870D01*
X033205Y015798D02*
X033175Y015768D01*
X033175Y015708D01*
X033205Y015678D01*
X033205Y015614D02*
X033175Y015584D01*
X033175Y015493D01*
X033356Y015493D01*
X033356Y015584D01*
X033326Y015614D01*
X033205Y015614D01*
X033356Y015678D02*
X033235Y015798D01*
X033205Y015798D01*
X033356Y015798D02*
X033356Y015678D01*
X033326Y015429D02*
X033356Y015399D01*
X033356Y015339D01*
X033326Y015309D01*
X033205Y015309D01*
X033175Y015339D01*
X033175Y015399D01*
X033205Y015429D01*
X034320Y013830D02*
X034380Y013830D01*
X034350Y013830D02*
X034350Y013650D01*
X034320Y013650D02*
X034380Y013650D01*
X034442Y013680D02*
X034472Y013650D01*
X034532Y013650D01*
X034562Y013680D01*
X034626Y013680D02*
X034656Y013650D01*
X034717Y013650D01*
X034747Y013680D01*
X034747Y013710D01*
X034717Y013740D01*
X034687Y013740D01*
X034717Y013740D02*
X034747Y013770D01*
X034747Y013800D01*
X034717Y013830D01*
X034656Y013830D01*
X034626Y013800D01*
X034562Y013800D02*
X034532Y013830D01*
X034472Y013830D01*
X034442Y013800D01*
X034442Y013680D01*
X037124Y013530D02*
X037124Y013350D01*
X037214Y013350D01*
X037244Y013380D01*
X037244Y013500D01*
X037214Y013530D01*
X037124Y013530D01*
X037308Y013500D02*
X037308Y013380D01*
X037338Y013350D01*
X037398Y013350D01*
X037428Y013380D01*
X037492Y013350D02*
X037612Y013350D01*
X037676Y013350D02*
X037676Y013530D01*
X037706Y013440D02*
X037797Y013350D01*
X037676Y013410D02*
X037797Y013530D01*
X037492Y013530D02*
X037492Y013350D01*
X037428Y013500D02*
X037398Y013530D01*
X037338Y013530D01*
X037308Y013500D01*
X037311Y015500D02*
X037311Y015680D01*
X037401Y015680D01*
X037431Y015650D01*
X037431Y015590D01*
X037401Y015560D01*
X037311Y015560D01*
X037371Y015560D02*
X037431Y015500D01*
X037495Y015530D02*
X037525Y015500D01*
X037585Y015500D01*
X037615Y015530D01*
X037615Y015650D01*
X037585Y015680D01*
X037525Y015680D01*
X037495Y015650D01*
X037495Y015620D01*
X037525Y015590D01*
X037615Y015590D01*
X037602Y015800D02*
X037602Y015980D01*
X037542Y015920D01*
X037478Y015890D02*
X037448Y015860D01*
X037358Y015860D01*
X037358Y015800D02*
X037358Y015980D01*
X037448Y015980D01*
X037478Y015950D01*
X037478Y015890D01*
X037418Y015860D02*
X037478Y015800D01*
X037542Y015800D02*
X037662Y015800D01*
X037726Y015830D02*
X037847Y015950D01*
X037847Y015830D01*
X037817Y015800D01*
X037756Y015800D01*
X037726Y015830D01*
X037726Y015950D01*
X037756Y015980D01*
X037817Y015980D01*
X037847Y015950D01*
X038649Y016095D02*
X038649Y016215D01*
X038679Y016245D01*
X038739Y016245D01*
X038769Y016215D01*
X038833Y016245D02*
X038923Y016245D01*
X038953Y016215D01*
X038953Y016095D01*
X038923Y016065D01*
X038833Y016065D01*
X038833Y016245D01*
X038769Y016095D02*
X038739Y016065D01*
X038679Y016065D01*
X038649Y016095D01*
X039017Y016065D02*
X039137Y016065D01*
X039077Y016065D02*
X039077Y016245D01*
X039017Y016185D01*
X037797Y017750D02*
X037797Y017870D01*
X037737Y017930D01*
X037676Y017870D01*
X037676Y017750D01*
X037676Y017840D02*
X037797Y017840D01*
X037612Y017930D02*
X037492Y017930D01*
X037552Y017930D02*
X037552Y017750D01*
X037428Y017750D02*
X037428Y017870D01*
X037368Y017930D01*
X037308Y017870D01*
X037308Y017750D01*
X037244Y017780D02*
X037244Y017900D01*
X037214Y017930D01*
X037124Y017930D01*
X037124Y017750D01*
X037214Y017750D01*
X037244Y017780D01*
X037308Y017840D02*
X037428Y017840D01*
X037060Y017780D02*
X037060Y017900D01*
X037030Y017930D01*
X036940Y017930D01*
X036940Y017750D01*
X037030Y017750D01*
X037060Y017780D01*
X041220Y016530D02*
X041280Y016530D01*
X041250Y016530D02*
X041250Y016350D01*
X041220Y016350D02*
X041280Y016350D01*
X041342Y016380D02*
X041372Y016350D01*
X041432Y016350D01*
X041462Y016380D01*
X041526Y016350D02*
X041647Y016350D01*
X041587Y016350D02*
X041587Y016530D01*
X041526Y016470D01*
X041462Y016500D02*
X041432Y016530D01*
X041372Y016530D01*
X041342Y016500D01*
X041342Y016380D01*
X049660Y014908D02*
X049691Y014938D01*
X049721Y014938D01*
X049751Y014908D01*
X049781Y014938D01*
X049811Y014938D01*
X049841Y014908D01*
X049841Y014848D01*
X049811Y014818D01*
X049751Y014878D02*
X049751Y014908D01*
X049660Y014908D02*
X049660Y014848D01*
X049691Y014818D01*
X049691Y014754D02*
X049751Y014754D01*
X049781Y014724D01*
X049781Y014634D01*
X049841Y014634D02*
X049660Y014634D01*
X049660Y014724D01*
X049691Y014754D01*
X049691Y014570D02*
X049660Y014540D01*
X049660Y014480D01*
X049691Y014450D01*
X049811Y014450D01*
X049841Y014480D01*
X049841Y014540D01*
X049811Y014570D01*
X064372Y013915D02*
X064552Y013915D01*
X064552Y013855D02*
X064552Y013975D01*
X064432Y013855D02*
X064372Y013915D01*
X064402Y013791D02*
X064462Y013791D01*
X064492Y013761D01*
X064492Y013671D01*
X064552Y013671D02*
X064372Y013671D01*
X064372Y013761D01*
X064402Y013791D01*
X064402Y013607D02*
X064372Y013577D01*
X064372Y013517D01*
X064402Y013487D01*
X064522Y013487D01*
X064552Y013517D01*
X064552Y013577D01*
X064522Y013607D01*
X064549Y023661D02*
X064579Y023691D01*
X064579Y023751D01*
X064549Y023781D01*
X064579Y023845D02*
X064399Y023845D01*
X064579Y023965D01*
X064399Y023965D01*
X064459Y024029D02*
X064399Y024089D01*
X064579Y024089D01*
X064579Y024029D02*
X064579Y024149D01*
X064429Y023781D02*
X064399Y023751D01*
X064399Y023691D01*
X064429Y023661D01*
X064549Y023661D01*
X041351Y036640D02*
X041351Y042840D01*
X038651Y042840D01*
X038651Y041440D01*
X038651Y040540D01*
X038651Y038940D02*
X038651Y037040D01*
X038651Y036640D02*
X041351Y036640D01*
X038651Y036640D02*
X038651Y038440D01*
X031351Y036640D02*
X031351Y042840D01*
X028651Y042840D01*
X028651Y041440D01*
X028651Y040540D01*
X028651Y038940D02*
X028651Y037040D01*
X028651Y036640D02*
X031351Y036640D01*
X028651Y036640D02*
X028651Y038440D01*
X021537Y034715D02*
X021507Y034745D01*
X021447Y034745D01*
X021417Y034715D01*
X021353Y034715D02*
X021353Y034685D01*
X021323Y034655D01*
X021353Y034625D01*
X021353Y034595D01*
X021323Y034565D01*
X021263Y034565D01*
X021233Y034595D01*
X021169Y034595D02*
X021139Y034565D01*
X021079Y034565D01*
X021049Y034595D01*
X021049Y034715D01*
X021079Y034745D01*
X021139Y034745D01*
X021169Y034715D01*
X021233Y034715D02*
X021263Y034745D01*
X021323Y034745D01*
X021353Y034715D01*
X021323Y034655D02*
X021293Y034655D01*
X021417Y034565D02*
X021537Y034685D01*
X021537Y034715D01*
X021537Y034565D02*
X021417Y034565D01*
X019545Y033952D02*
X019547Y033971D01*
X019553Y033990D01*
X019562Y034007D01*
X019575Y034022D01*
X019590Y034033D01*
X019608Y034042D01*
X019626Y034047D01*
X019646Y034048D01*
X019665Y034045D01*
X019683Y034038D01*
X019700Y034028D01*
X019714Y034015D01*
X019725Y033999D01*
X019733Y033981D01*
X019737Y033962D01*
X019737Y033942D01*
X019733Y033923D01*
X019725Y033905D01*
X019714Y033889D01*
X019700Y033876D01*
X019683Y033866D01*
X019665Y033859D01*
X019646Y033856D01*
X019626Y033857D01*
X019608Y033862D01*
X019590Y033871D01*
X019575Y033882D01*
X019562Y033897D01*
X019553Y033914D01*
X019547Y033933D01*
X019545Y033952D01*
X019861Y032730D02*
X019981Y032730D01*
X020045Y032730D02*
X020165Y032730D01*
X020229Y032730D02*
X020229Y032550D01*
X020289Y032610D01*
X020349Y032550D01*
X020349Y032730D01*
X020413Y032730D02*
X020503Y032730D01*
X020533Y032700D01*
X020533Y032580D01*
X020503Y032550D01*
X020413Y032550D01*
X020413Y032730D01*
X020105Y032640D02*
X020045Y032640D01*
X020045Y032550D02*
X020045Y032730D01*
X019921Y032640D02*
X019861Y032640D01*
X019861Y032550D02*
X019861Y032730D01*
X018626Y032597D02*
X018626Y032537D01*
X018596Y032507D01*
X018596Y032442D02*
X018626Y032412D01*
X018626Y032352D01*
X018596Y032322D01*
X018596Y032258D02*
X018626Y032228D01*
X018626Y032168D01*
X018596Y032138D01*
X018476Y032138D01*
X018446Y032168D01*
X018446Y032228D01*
X018476Y032258D01*
X018476Y032322D02*
X018446Y032352D01*
X018446Y032412D01*
X018476Y032442D01*
X018506Y032442D01*
X018536Y032412D01*
X018566Y032442D01*
X018596Y032442D01*
X018536Y032412D02*
X018536Y032382D01*
X018476Y032507D02*
X018446Y032537D01*
X018446Y032597D01*
X018476Y032627D01*
X018506Y032627D01*
X018536Y032597D01*
X018566Y032627D01*
X018596Y032627D01*
X018626Y032597D01*
X018536Y032597D02*
X018536Y032567D01*
X021546Y032572D02*
X021726Y032572D01*
X021726Y032512D02*
X021726Y032632D01*
X021696Y032696D02*
X021666Y032696D01*
X021636Y032726D01*
X021636Y032786D01*
X021666Y032816D01*
X021696Y032816D01*
X021726Y032786D01*
X021726Y032726D01*
X021696Y032696D01*
X021636Y032726D02*
X021606Y032696D01*
X021576Y032696D01*
X021546Y032726D01*
X021546Y032786D01*
X021576Y032816D01*
X021606Y032816D01*
X021636Y032786D01*
X021546Y032572D02*
X021606Y032512D01*
X021636Y032448D02*
X021666Y032418D01*
X021666Y032328D01*
X021666Y032388D02*
X021726Y032448D01*
X021636Y032448D02*
X021576Y032448D01*
X021546Y032418D01*
X021546Y032328D01*
X021726Y032328D01*
X022225Y032320D02*
X022225Y032410D01*
X022255Y032440D01*
X022316Y032440D01*
X022346Y032410D01*
X022346Y032320D01*
X022406Y032320D02*
X022225Y032320D01*
X022346Y032380D02*
X022406Y032440D01*
X022406Y032504D02*
X022406Y032624D01*
X022406Y032564D02*
X022225Y032564D01*
X022285Y032504D01*
X022225Y032688D02*
X022225Y032808D01*
X022255Y032808D01*
X022376Y032688D01*
X022406Y032688D01*
X025060Y031413D02*
X025241Y031413D01*
X025241Y031473D02*
X025241Y031352D01*
X025241Y031288D02*
X025060Y031288D01*
X025121Y031352D02*
X025060Y031413D01*
X025241Y031288D02*
X025060Y031168D01*
X025241Y031168D01*
X025211Y031104D02*
X025091Y031104D01*
X025060Y031074D01*
X025060Y031014D01*
X025091Y030984D01*
X025211Y030984D01*
X025241Y031014D01*
X025241Y031074D01*
X025211Y031104D01*
X025241Y030920D02*
X025060Y030920D01*
X025121Y030860D01*
X025060Y030800D01*
X025241Y030800D01*
X025645Y030802D02*
X025647Y030821D01*
X025653Y030840D01*
X025662Y030857D01*
X025675Y030872D01*
X025690Y030883D01*
X025708Y030892D01*
X025726Y030897D01*
X025746Y030898D01*
X025765Y030895D01*
X025783Y030888D01*
X025800Y030878D01*
X025814Y030865D01*
X025825Y030849D01*
X025833Y030831D01*
X025837Y030812D01*
X025837Y030792D01*
X025833Y030773D01*
X025825Y030755D01*
X025814Y030739D01*
X025800Y030726D01*
X025783Y030716D01*
X025765Y030709D01*
X025746Y030706D01*
X025726Y030707D01*
X025708Y030712D01*
X025690Y030721D01*
X025675Y030732D01*
X025662Y030747D01*
X025653Y030764D01*
X025647Y030783D01*
X025645Y030802D01*
X026593Y031533D02*
X026623Y031503D01*
X026743Y031503D01*
X026773Y031533D01*
X026773Y031593D01*
X026743Y031623D01*
X026773Y031687D02*
X026773Y031807D01*
X026743Y031871D02*
X026773Y031901D01*
X026773Y031962D01*
X026743Y031992D01*
X026713Y031992D01*
X026683Y031962D01*
X026683Y031932D01*
X026683Y031962D02*
X026653Y031992D01*
X026623Y031992D01*
X026593Y031962D01*
X026593Y031901D01*
X026623Y031871D01*
X026593Y031687D02*
X026773Y031687D01*
X026623Y031623D02*
X026593Y031593D01*
X026593Y031533D01*
X027276Y032196D02*
X027306Y032166D01*
X027426Y032166D01*
X027456Y032196D01*
X027456Y032256D01*
X027426Y032286D01*
X027396Y032350D02*
X027396Y032441D01*
X027366Y032471D01*
X027306Y032471D01*
X027276Y032441D01*
X027276Y032350D01*
X027456Y032350D01*
X027396Y032411D02*
X027456Y032471D01*
X027426Y032535D02*
X027456Y032565D01*
X027456Y032625D01*
X027426Y032655D01*
X027396Y032655D01*
X027366Y032625D01*
X027366Y032595D01*
X027366Y032625D02*
X027336Y032655D01*
X027306Y032655D01*
X027276Y032625D01*
X027276Y032565D01*
X027306Y032535D01*
X027306Y032286D02*
X027276Y032256D01*
X027276Y032196D01*
X023633Y030043D02*
X023543Y029953D01*
X023663Y029953D01*
X023633Y029863D02*
X023633Y030043D01*
X023479Y029863D02*
X023359Y029863D01*
X023359Y030043D01*
X023295Y030013D02*
X023265Y030043D01*
X023205Y030043D01*
X023175Y030013D01*
X023175Y029893D01*
X023205Y029863D01*
X023265Y029863D01*
X023295Y029893D01*
X023326Y029286D02*
X023356Y029256D01*
X023356Y029196D01*
X023326Y029166D01*
X023236Y029166D01*
X023296Y029166D02*
X023356Y029106D01*
X023420Y029196D02*
X023540Y029196D01*
X023510Y029286D02*
X023420Y029196D01*
X023510Y029106D02*
X023510Y029286D01*
X023326Y029286D02*
X023236Y029286D01*
X023236Y029106D01*
X023172Y029136D02*
X023142Y029106D01*
X023082Y029106D01*
X023052Y029136D01*
X023052Y029256D01*
X023082Y029286D01*
X023142Y029286D01*
X023172Y029256D01*
X021077Y027930D02*
X020957Y027930D01*
X021017Y027930D02*
X021017Y027750D01*
X020893Y027750D02*
X020773Y027750D01*
X020773Y027930D01*
X020893Y027930D01*
X020833Y027840D02*
X020773Y027840D01*
X020710Y027750D02*
X020650Y027750D01*
X020680Y027750D02*
X020680Y027930D01*
X020650Y027930D02*
X020710Y027930D01*
X020586Y027930D02*
X020586Y027780D01*
X020556Y027750D01*
X020496Y027750D01*
X020466Y027780D01*
X020466Y027930D01*
X020402Y027900D02*
X020402Y027780D01*
X020371Y027750D01*
X020311Y027750D01*
X020281Y027780D01*
X020281Y027900D01*
X020311Y027930D01*
X020371Y027930D01*
X020402Y027900D01*
X020341Y027810D02*
X020402Y027750D01*
X020217Y027720D02*
X020097Y027720D01*
X020033Y027780D02*
X020033Y027840D01*
X019973Y027840D01*
X019913Y027780D02*
X019943Y027750D01*
X020003Y027750D01*
X020033Y027780D01*
X019913Y027780D02*
X019913Y027900D01*
X019943Y027930D01*
X020003Y027930D01*
X020033Y027900D01*
X019849Y027930D02*
X019729Y027930D01*
X019729Y027750D01*
X019849Y027750D01*
X019789Y027840D02*
X019729Y027840D01*
X019665Y027750D02*
X019665Y027930D01*
X019545Y027930D02*
X019665Y027750D01*
X019545Y027750D02*
X019545Y027930D01*
X019481Y027930D02*
X019481Y027810D01*
X019421Y027750D01*
X019361Y027810D01*
X019361Y027930D01*
X019399Y026130D02*
X019399Y025980D01*
X019369Y025950D01*
X019309Y025950D01*
X019279Y025980D01*
X019279Y026130D01*
X019215Y026100D02*
X019185Y026130D01*
X019125Y026130D01*
X019095Y026100D01*
X019095Y025980D01*
X019125Y025950D01*
X019185Y025950D01*
X019215Y025980D01*
X019215Y026100D01*
X019031Y025950D02*
X018911Y025950D01*
X018911Y026130D01*
X019463Y026130D02*
X019583Y026130D01*
X019523Y026130D02*
X019523Y025950D01*
X019647Y025950D02*
X019767Y025950D01*
X019707Y025950D02*
X019707Y026130D01*
X019647Y026070D01*
X022174Y026280D02*
X022204Y026250D01*
X022264Y026250D01*
X022294Y026280D01*
X022294Y026400D01*
X022264Y026430D01*
X022204Y026430D01*
X022174Y026400D01*
X022174Y026280D01*
X022234Y026310D02*
X022294Y026250D01*
X022358Y026250D02*
X022358Y026430D01*
X022478Y026430D01*
X022542Y026430D02*
X022632Y026430D01*
X022662Y026400D01*
X022662Y026370D01*
X022632Y026340D01*
X022542Y026340D01*
X022542Y026250D02*
X022632Y026250D01*
X022662Y026280D01*
X022662Y026310D01*
X022632Y026340D01*
X022726Y026370D02*
X022787Y026430D01*
X022787Y026250D01*
X022847Y026250D02*
X022726Y026250D01*
X022542Y026250D02*
X022542Y026430D01*
X022418Y026340D02*
X022358Y026340D01*
X024110Y024874D02*
X024110Y024814D01*
X024141Y024784D01*
X024141Y024720D02*
X024201Y024720D01*
X024231Y024690D01*
X024231Y024600D01*
X024291Y024600D02*
X024110Y024600D01*
X024110Y024690D01*
X024141Y024720D01*
X024231Y024660D02*
X024291Y024720D01*
X024291Y024784D02*
X024171Y024904D01*
X024141Y024904D01*
X024110Y024874D01*
X024291Y024904D02*
X024291Y024784D01*
X024705Y024330D02*
X024705Y024210D01*
X024795Y024210D01*
X024765Y024270D01*
X024765Y024300D01*
X024795Y024330D01*
X024855Y024330D01*
X024885Y024300D01*
X024885Y024240D01*
X024855Y024210D01*
X024855Y024145D02*
X024885Y024115D01*
X024885Y024055D01*
X024855Y024025D01*
X024735Y024025D01*
X024705Y024055D01*
X024705Y024115D01*
X024735Y024145D01*
X024043Y023483D02*
X024043Y023453D01*
X024013Y023423D01*
X024043Y023393D01*
X024043Y023363D01*
X024013Y023333D01*
X023953Y023333D01*
X023923Y023363D01*
X023859Y023363D02*
X023829Y023333D01*
X023769Y023333D01*
X023739Y023363D01*
X023739Y023483D01*
X023769Y023513D01*
X023829Y023513D01*
X023859Y023483D01*
X023923Y023483D02*
X023953Y023513D01*
X024013Y023513D01*
X024043Y023483D01*
X024013Y023423D02*
X023983Y023423D01*
X022916Y022600D02*
X022918Y022619D01*
X022924Y022638D01*
X022933Y022655D01*
X022946Y022670D01*
X022961Y022681D01*
X022979Y022690D01*
X022997Y022695D01*
X023017Y022696D01*
X023036Y022693D01*
X023054Y022686D01*
X023071Y022676D01*
X023085Y022663D01*
X023096Y022647D01*
X023104Y022629D01*
X023108Y022610D01*
X023108Y022590D01*
X023104Y022571D01*
X023096Y022553D01*
X023085Y022537D01*
X023071Y022524D01*
X023054Y022514D01*
X023036Y022507D01*
X023017Y022504D01*
X022997Y022505D01*
X022979Y022510D01*
X022961Y022519D01*
X022946Y022530D01*
X022933Y022545D01*
X022924Y022562D01*
X022918Y022581D01*
X022916Y022600D01*
X024288Y021995D02*
X024378Y021995D01*
X024408Y021965D01*
X024408Y021905D01*
X024378Y021875D01*
X024288Y021875D01*
X024288Y021815D02*
X024288Y021995D01*
X024348Y021875D02*
X024408Y021815D01*
X024472Y021815D02*
X024592Y021815D01*
X024532Y021815D02*
X024532Y021995D01*
X024472Y021935D01*
X024657Y021905D02*
X024777Y021905D01*
X024747Y021815D02*
X024747Y021995D01*
X024657Y021905D01*
X024406Y021198D02*
X024406Y021078D01*
X024406Y021138D02*
X024225Y021138D01*
X024285Y021078D01*
X024406Y021014D02*
X024406Y020893D01*
X024225Y020893D01*
X024255Y020829D02*
X024225Y020799D01*
X024225Y020739D01*
X024255Y020709D01*
X024376Y020709D01*
X024406Y020739D01*
X024406Y020799D01*
X024376Y020829D01*
X024741Y020388D02*
X024710Y020358D01*
X024710Y020298D01*
X024741Y020268D01*
X024741Y020388D02*
X024771Y020388D01*
X024891Y020268D01*
X024891Y020388D01*
X024891Y020204D02*
X024891Y020084D01*
X024891Y020144D02*
X024710Y020144D01*
X024771Y020084D01*
X024801Y020020D02*
X024831Y019990D01*
X024831Y019900D01*
X024891Y019900D02*
X024710Y019900D01*
X024710Y019990D01*
X024741Y020020D01*
X024801Y020020D01*
X024831Y019960D02*
X024891Y020020D01*
X023321Y020175D02*
X023321Y020205D01*
X023291Y020235D01*
X023201Y020235D01*
X023201Y020175D01*
X023231Y020144D01*
X023291Y020144D01*
X023321Y020175D01*
X023261Y020295D02*
X023201Y020235D01*
X023261Y020295D02*
X023321Y020325D01*
X023137Y020295D02*
X023107Y020325D01*
X023047Y020325D01*
X023017Y020295D01*
X023017Y020175D01*
X023047Y020144D01*
X023107Y020144D01*
X023137Y020175D01*
X023360Y019098D02*
X023391Y019038D01*
X023451Y018978D01*
X023451Y019068D01*
X023481Y019098D01*
X023511Y019098D01*
X023541Y019068D01*
X023541Y019008D01*
X023511Y018978D01*
X023451Y018978D01*
X023481Y018914D02*
X023511Y018914D01*
X023541Y018884D01*
X023541Y018824D01*
X023511Y018794D01*
X023541Y018730D02*
X023481Y018670D01*
X023481Y018700D02*
X023481Y018610D01*
X023541Y018610D02*
X023360Y018610D01*
X023360Y018700D01*
X023391Y018730D01*
X023451Y018730D01*
X023481Y018700D01*
X023391Y018794D02*
X023360Y018824D01*
X023360Y018884D01*
X023391Y018914D01*
X023421Y018914D01*
X023451Y018884D01*
X023481Y018914D01*
X023451Y018884D02*
X023451Y018854D01*
X024910Y018298D02*
X024941Y018298D01*
X025061Y018178D01*
X025091Y018178D01*
X025061Y018114D02*
X025091Y018084D01*
X025091Y018024D01*
X025061Y017994D01*
X025091Y017930D02*
X025031Y017870D01*
X025031Y017900D02*
X025031Y017810D01*
X025091Y017810D02*
X024910Y017810D01*
X024910Y017900D01*
X024941Y017930D01*
X025001Y017930D01*
X025031Y017900D01*
X024941Y017994D02*
X024910Y018024D01*
X024910Y018084D01*
X024941Y018114D01*
X024971Y018114D01*
X025001Y018084D01*
X025031Y018114D01*
X025061Y018114D01*
X025001Y018084D02*
X025001Y018054D01*
X024910Y018178D02*
X024910Y018298D01*
X025331Y019290D02*
X025333Y019368D01*
X025339Y019445D01*
X025349Y019522D01*
X025363Y019598D01*
X025380Y019674D01*
X025402Y019749D01*
X025427Y019822D01*
X025456Y019894D01*
X025489Y019964D01*
X025525Y020033D01*
X025565Y020100D01*
X025608Y020164D01*
X025654Y020227D01*
X025703Y020287D01*
X025756Y020344D01*
X025811Y020399D01*
X025869Y020450D01*
X025930Y020499D01*
X025992Y020544D01*
X026058Y020587D01*
X026125Y020625D01*
X026194Y020661D01*
X026265Y020692D01*
X026337Y020721D01*
X026411Y020745D01*
X026486Y020765D01*
X026562Y020782D01*
X026638Y020795D01*
X026715Y020804D01*
X026793Y020809D01*
X026870Y020810D01*
X026948Y020807D01*
X027025Y020800D01*
X027102Y020789D01*
X027178Y020774D01*
X027254Y020756D01*
X027328Y020733D01*
X027401Y020707D01*
X027473Y020677D01*
X027543Y020643D01*
X027611Y020606D01*
X027677Y020566D01*
X027741Y020522D01*
X027803Y020475D01*
X027862Y020425D01*
X027919Y020372D01*
X027973Y020316D01*
X028024Y020257D01*
X028072Y020196D01*
X028116Y020132D01*
X028158Y020067D01*
X028196Y019999D01*
X028230Y019929D01*
X028261Y019858D01*
X028288Y019785D01*
X028311Y019711D01*
X028331Y019636D01*
X028347Y019560D01*
X028359Y019484D01*
X028367Y019406D01*
X028371Y019329D01*
X028371Y019251D01*
X028367Y019174D01*
X028359Y019096D01*
X028347Y019020D01*
X028331Y018944D01*
X028311Y018869D01*
X028288Y018795D01*
X028261Y018722D01*
X028230Y018651D01*
X028196Y018581D01*
X028158Y018513D01*
X028116Y018448D01*
X028072Y018384D01*
X028024Y018323D01*
X027973Y018264D01*
X027919Y018208D01*
X027862Y018155D01*
X027803Y018105D01*
X027741Y018058D01*
X027677Y018014D01*
X027611Y017974D01*
X027543Y017937D01*
X027473Y017903D01*
X027401Y017873D01*
X027328Y017847D01*
X027254Y017824D01*
X027178Y017806D01*
X027102Y017791D01*
X027025Y017780D01*
X026948Y017773D01*
X026870Y017770D01*
X026793Y017771D01*
X026715Y017776D01*
X026638Y017785D01*
X026562Y017798D01*
X026486Y017815D01*
X026411Y017835D01*
X026337Y017859D01*
X026265Y017888D01*
X026194Y017919D01*
X026125Y017955D01*
X026058Y017993D01*
X025992Y018036D01*
X025930Y018081D01*
X025869Y018130D01*
X025811Y018181D01*
X025756Y018236D01*
X025703Y018293D01*
X025654Y018353D01*
X025608Y018416D01*
X025565Y018480D01*
X025525Y018547D01*
X025489Y018616D01*
X025456Y018686D01*
X025427Y018758D01*
X025402Y018831D01*
X025380Y018906D01*
X025363Y018982D01*
X025349Y019058D01*
X025339Y019135D01*
X025333Y019212D01*
X025331Y019290D01*
X025411Y021860D02*
X025411Y022040D01*
X025501Y022040D01*
X025531Y022010D01*
X025531Y021950D01*
X025501Y021920D01*
X025411Y021920D01*
X025471Y021920D02*
X025531Y021860D01*
X025595Y021890D02*
X025625Y021860D01*
X025685Y021860D01*
X025715Y021890D01*
X025715Y021950D01*
X025685Y021980D01*
X025655Y021980D01*
X025595Y021950D01*
X025595Y022040D01*
X025715Y022040D01*
X026711Y022020D02*
X026801Y022020D01*
X026831Y021990D01*
X026831Y021930D01*
X026801Y021900D01*
X026711Y021900D01*
X026771Y021900D02*
X026831Y021840D01*
X026895Y021930D02*
X027015Y021930D01*
X026985Y021840D02*
X026985Y022020D01*
X026895Y021930D01*
X026711Y021840D02*
X026711Y022020D01*
X026685Y023275D02*
X026805Y023275D01*
X026835Y023305D01*
X026835Y023365D01*
X026805Y023395D01*
X026745Y023460D02*
X026745Y023580D01*
X026655Y023550D02*
X026745Y023460D01*
X026685Y023395D02*
X026655Y023365D01*
X026655Y023305D01*
X026685Y023275D01*
X026655Y023550D02*
X026835Y023550D01*
X025749Y025150D02*
X025629Y025150D01*
X025749Y025270D01*
X025749Y025300D01*
X025719Y025330D01*
X025659Y025330D01*
X025629Y025300D01*
X025565Y025300D02*
X025535Y025330D01*
X025475Y025330D01*
X025445Y025300D01*
X025445Y025270D01*
X025475Y025240D01*
X025535Y025240D01*
X025565Y025210D01*
X025565Y025180D01*
X025535Y025150D01*
X025475Y025150D01*
X025445Y025180D01*
X025381Y025150D02*
X025321Y025210D01*
X025351Y025210D02*
X025261Y025210D01*
X025261Y025150D02*
X025261Y025330D01*
X025351Y025330D01*
X025381Y025300D01*
X025381Y025240D01*
X025351Y025210D01*
X025375Y026350D02*
X025345Y026380D01*
X025375Y026350D02*
X025435Y026350D01*
X025465Y026380D01*
X025465Y026410D01*
X025435Y026440D01*
X025375Y026440D01*
X025345Y026470D01*
X025345Y026500D01*
X025375Y026530D01*
X025435Y026530D01*
X025465Y026500D01*
X025529Y026470D02*
X025589Y026530D01*
X025589Y026350D01*
X025529Y026350D02*
X025649Y026350D01*
X025281Y026350D02*
X025221Y026410D01*
X025251Y026410D02*
X025161Y026410D01*
X025161Y026350D02*
X025161Y026530D01*
X025251Y026530D01*
X025281Y026500D01*
X025281Y026440D01*
X025251Y026410D01*
X022121Y024486D02*
X022121Y024366D01*
X022121Y024426D02*
X021940Y024426D01*
X022001Y024366D01*
X022031Y024302D02*
X022061Y024272D01*
X022061Y024182D01*
X022121Y024182D02*
X021940Y024182D01*
X021940Y024272D01*
X021971Y024302D01*
X022031Y024302D01*
X022061Y024242D02*
X022121Y024302D01*
X021506Y023798D02*
X021506Y023678D01*
X021385Y023798D01*
X021355Y023798D01*
X021325Y023768D01*
X021325Y023708D01*
X021355Y023678D01*
X021506Y023614D02*
X021506Y023493D01*
X021325Y023493D01*
X021355Y023429D02*
X021325Y023399D01*
X021325Y023339D01*
X021355Y023309D01*
X021476Y023309D01*
X021506Y023339D01*
X021506Y023399D01*
X021476Y023429D01*
X018958Y022885D02*
X018958Y022855D01*
X018928Y022825D01*
X018868Y022825D01*
X018838Y022855D01*
X018838Y022885D01*
X018868Y022915D01*
X018928Y022915D01*
X018958Y022885D01*
X018928Y022825D02*
X018958Y022795D01*
X018958Y022765D01*
X018928Y022735D01*
X018868Y022735D01*
X018838Y022765D01*
X018838Y022795D01*
X018868Y022825D01*
X018774Y022735D02*
X018654Y022735D01*
X018714Y022735D02*
X018714Y022915D01*
X018654Y022855D01*
X018590Y022885D02*
X018560Y022915D01*
X018500Y022915D01*
X018470Y022885D01*
X018470Y022765D01*
X018500Y022735D01*
X018560Y022735D01*
X018590Y022765D01*
X018013Y023333D02*
X018043Y023363D01*
X018043Y023393D01*
X018013Y023423D01*
X017923Y023423D01*
X017923Y023363D01*
X017953Y023333D01*
X018013Y023333D01*
X017923Y023423D02*
X017983Y023483D01*
X018043Y023513D01*
X017859Y023333D02*
X017739Y023333D01*
X017739Y023513D01*
X017675Y023483D02*
X017645Y023513D01*
X017585Y023513D01*
X017555Y023483D01*
X017555Y023363D01*
X017585Y023333D01*
X017645Y023333D01*
X017675Y023363D01*
X017274Y023377D02*
X017094Y023377D01*
X017154Y023317D01*
X017274Y023317D02*
X017274Y023437D01*
X017274Y023253D02*
X017274Y023133D01*
X017274Y023193D02*
X017094Y023193D01*
X017154Y023133D01*
X017184Y023069D02*
X017214Y023039D01*
X017214Y022949D01*
X017274Y022949D02*
X017094Y022949D01*
X017094Y023039D01*
X017124Y023069D01*
X017184Y023069D01*
X017214Y023009D02*
X017274Y023069D01*
X017274Y022885D02*
X017094Y022885D01*
X017154Y022825D01*
X017094Y022765D01*
X017274Y022765D01*
X017211Y022588D02*
X017181Y022588D01*
X017151Y022558D01*
X017151Y022468D01*
X017211Y022468D01*
X017241Y022498D01*
X017241Y022558D01*
X017211Y022588D01*
X017091Y022528D02*
X017151Y022468D01*
X017151Y022404D02*
X017181Y022374D01*
X017181Y022284D01*
X017241Y022284D02*
X017060Y022284D01*
X017060Y022374D01*
X017091Y022404D01*
X017151Y022404D01*
X017181Y022344D02*
X017241Y022404D01*
X017241Y022220D02*
X017060Y022220D01*
X017121Y022160D01*
X017060Y022100D01*
X017241Y022100D01*
X017091Y022528D02*
X017060Y022588D01*
X016952Y023733D02*
X016892Y023733D01*
X016862Y023763D01*
X016982Y023883D01*
X016982Y023763D01*
X016952Y023733D01*
X016862Y023763D02*
X016862Y023883D01*
X016892Y023913D01*
X016952Y023913D01*
X016982Y023883D01*
X016798Y023733D02*
X016678Y023733D01*
X016738Y023733D02*
X016738Y023913D01*
X016678Y023853D01*
X016614Y023823D02*
X016584Y023793D01*
X016494Y023793D01*
X016554Y023793D02*
X016614Y023733D01*
X016614Y023823D02*
X016614Y023883D01*
X016584Y023913D01*
X016494Y023913D01*
X016494Y023733D01*
X016430Y023733D02*
X016430Y023913D01*
X016369Y023853D01*
X016309Y023913D01*
X016309Y023733D01*
X014891Y022688D02*
X014891Y022568D01*
X014891Y022628D02*
X014710Y022628D01*
X014771Y022568D01*
X014801Y022504D02*
X014831Y022474D01*
X014831Y022384D01*
X014891Y022384D02*
X014710Y022384D01*
X014710Y022474D01*
X014741Y022504D01*
X014801Y022504D01*
X014831Y022444D02*
X014891Y022504D01*
X014891Y022320D02*
X014710Y022320D01*
X014771Y022260D01*
X014710Y022200D01*
X014891Y022200D01*
X014891Y021438D02*
X014891Y021318D01*
X014771Y021438D01*
X014741Y021438D01*
X014710Y021408D01*
X014710Y021348D01*
X014741Y021318D01*
X014741Y021254D02*
X014801Y021254D01*
X014831Y021224D01*
X014831Y021134D01*
X014891Y021134D02*
X014710Y021134D01*
X014710Y021224D01*
X014741Y021254D01*
X014831Y021194D02*
X014891Y021254D01*
X014891Y021070D02*
X014710Y021070D01*
X014771Y021010D01*
X014710Y020950D01*
X014891Y020950D01*
X015473Y020022D02*
X015473Y019901D01*
X015563Y019901D01*
X015533Y019962D01*
X015533Y019992D01*
X015563Y020022D01*
X015623Y020022D01*
X015653Y019992D01*
X015653Y019931D01*
X015623Y019901D01*
X015653Y019837D02*
X015653Y019717D01*
X015473Y019717D01*
X015503Y019653D02*
X015473Y019623D01*
X015473Y019563D01*
X015503Y019533D01*
X015623Y019533D01*
X015653Y019563D01*
X015653Y019623D01*
X015623Y019653D01*
X016961Y019580D02*
X016961Y019400D01*
X017081Y019400D02*
X017081Y019580D01*
X017021Y019520D01*
X016961Y019580D01*
X017145Y019580D02*
X017145Y019400D01*
X017145Y019460D02*
X017235Y019460D01*
X017265Y019490D01*
X017265Y019550D01*
X017235Y019580D01*
X017145Y019580D01*
X017205Y019460D02*
X017265Y019400D01*
X017329Y019430D02*
X017359Y019400D01*
X017419Y019400D01*
X017449Y019430D01*
X017449Y019460D01*
X017419Y019490D01*
X017389Y019490D01*
X017419Y019490D02*
X017449Y019520D01*
X017449Y019550D01*
X017419Y019580D01*
X017359Y019580D01*
X017329Y019550D01*
X018161Y019950D02*
X018161Y020130D01*
X018221Y020070D01*
X018281Y020130D01*
X018281Y019950D01*
X018345Y019950D02*
X018345Y020130D01*
X018435Y020130D01*
X018465Y020100D01*
X018465Y020040D01*
X018435Y020010D01*
X018345Y020010D01*
X018405Y020010D02*
X018465Y019950D01*
X018529Y020040D02*
X018649Y020040D01*
X018619Y019950D02*
X018619Y020130D01*
X018529Y020040D01*
X018841Y019736D02*
X018810Y019706D01*
X018810Y019646D01*
X018841Y019616D01*
X018871Y019616D01*
X018901Y019646D01*
X018901Y019736D01*
X018961Y019736D02*
X018841Y019736D01*
X018961Y019736D02*
X018991Y019706D01*
X018991Y019646D01*
X018961Y019616D01*
X018991Y019552D02*
X018931Y019492D01*
X018931Y019522D02*
X018931Y019432D01*
X018991Y019432D02*
X018810Y019432D01*
X018810Y019522D01*
X018841Y019552D01*
X018901Y019552D01*
X018931Y019522D01*
X018991Y019368D02*
X018810Y019368D01*
X018871Y019308D01*
X018810Y019248D01*
X018991Y019248D01*
X018961Y018936D02*
X018991Y018906D01*
X018991Y018846D01*
X018961Y018816D01*
X018931Y018816D01*
X018901Y018846D01*
X018901Y018906D01*
X018931Y018936D01*
X018961Y018936D01*
X018901Y018906D02*
X018871Y018936D01*
X018841Y018936D01*
X018810Y018906D01*
X018810Y018846D01*
X018841Y018816D01*
X018871Y018816D01*
X018901Y018846D01*
X018901Y018752D02*
X018931Y018722D01*
X018931Y018632D01*
X018991Y018632D02*
X018810Y018632D01*
X018810Y018722D01*
X018841Y018752D01*
X018901Y018752D01*
X018931Y018692D02*
X018991Y018752D01*
X018991Y018568D02*
X018810Y018568D01*
X018871Y018508D01*
X018810Y018448D01*
X018991Y018448D01*
X019330Y017980D02*
X019330Y017860D01*
X019390Y017800D01*
X019451Y017860D01*
X019451Y017980D01*
X019515Y017980D02*
X019605Y017980D01*
X019635Y017950D01*
X019635Y017890D01*
X019605Y017860D01*
X019515Y017860D01*
X019515Y017800D02*
X019515Y017980D01*
X019699Y017950D02*
X019699Y017830D01*
X019729Y017800D01*
X019789Y017800D01*
X019819Y017830D01*
X019819Y017950D01*
X019789Y017980D01*
X019729Y017980D01*
X019699Y017950D01*
X019883Y017950D02*
X019883Y017920D01*
X019913Y017890D01*
X019973Y017890D01*
X020003Y017860D01*
X020003Y017830D01*
X019973Y017800D01*
X019913Y017800D01*
X019883Y017830D01*
X019883Y017950D02*
X019913Y017980D01*
X019973Y017980D01*
X020003Y017950D01*
X020067Y017770D02*
X020187Y017770D01*
X020251Y017830D02*
X020281Y017800D01*
X020341Y017800D01*
X020371Y017830D01*
X020371Y017950D01*
X020341Y017980D01*
X020281Y017980D01*
X020251Y017950D01*
X020251Y017830D01*
X020311Y017860D02*
X020371Y017800D01*
X020435Y017830D02*
X020465Y017800D01*
X020525Y017800D01*
X020555Y017830D01*
X020555Y017980D01*
X020620Y017980D02*
X020680Y017980D01*
X020650Y017980D02*
X020650Y017800D01*
X020620Y017800D02*
X020680Y017800D01*
X020742Y017800D02*
X020862Y017800D01*
X020802Y017890D02*
X020742Y017890D01*
X020742Y017980D02*
X020742Y017800D01*
X020742Y017980D02*
X020862Y017980D01*
X020926Y017980D02*
X021047Y017980D01*
X020987Y017980D02*
X020987Y017800D01*
X020435Y017830D02*
X020435Y017980D01*
X021560Y018898D02*
X021560Y018988D01*
X021591Y019018D01*
X021651Y019018D01*
X021681Y018988D01*
X021681Y018898D01*
X021681Y018958D02*
X021741Y019018D01*
X021711Y019082D02*
X021741Y019112D01*
X021741Y019172D01*
X021711Y019202D01*
X021651Y019202D01*
X021621Y019172D01*
X021621Y019142D01*
X021651Y019082D01*
X021560Y019082D01*
X021560Y019202D01*
X021591Y019266D02*
X021560Y019296D01*
X021560Y019356D01*
X021591Y019386D01*
X021711Y019266D01*
X021741Y019296D01*
X021741Y019356D01*
X021711Y019386D01*
X021591Y019386D01*
X021591Y019266D02*
X021711Y019266D01*
X021741Y018898D02*
X021560Y018898D01*
X019708Y020244D02*
X019528Y020244D01*
X019588Y020304D01*
X019528Y020364D01*
X019708Y020364D01*
X019678Y020429D02*
X019708Y020459D01*
X019708Y020519D01*
X019678Y020549D01*
X019708Y020613D02*
X019708Y020733D01*
X019708Y020673D02*
X019528Y020673D01*
X019588Y020613D01*
X019558Y020549D02*
X019528Y020519D01*
X019528Y020459D01*
X019558Y020429D01*
X019678Y020429D01*
X019661Y021240D02*
X019661Y021420D01*
X019601Y021360D01*
X019541Y021420D01*
X019541Y021240D01*
X019725Y021240D02*
X019725Y021420D01*
X019815Y021420D01*
X019845Y021390D01*
X019845Y021330D01*
X019815Y021300D01*
X019725Y021300D01*
X019785Y021300D02*
X019845Y021240D01*
X019909Y021270D02*
X019939Y021240D01*
X019999Y021240D01*
X020029Y021270D01*
X020029Y021330D01*
X019999Y021360D01*
X019969Y021360D01*
X019909Y021330D01*
X019909Y021420D01*
X020029Y021420D01*
X017214Y020778D02*
X017216Y020797D01*
X017222Y020816D01*
X017231Y020833D01*
X017244Y020848D01*
X017259Y020859D01*
X017277Y020868D01*
X017295Y020873D01*
X017315Y020874D01*
X017334Y020871D01*
X017352Y020864D01*
X017369Y020854D01*
X017383Y020841D01*
X017394Y020825D01*
X017402Y020807D01*
X017406Y020788D01*
X017406Y020768D01*
X017402Y020749D01*
X017394Y020731D01*
X017383Y020715D01*
X017369Y020702D01*
X017352Y020692D01*
X017334Y020685D01*
X017315Y020682D01*
X017295Y020683D01*
X017277Y020688D01*
X017259Y020697D01*
X017244Y020708D01*
X017231Y020723D01*
X017222Y020740D01*
X017216Y020759D01*
X017214Y020778D01*
X017235Y018380D02*
X017265Y018350D01*
X017265Y018290D01*
X017235Y018260D01*
X017145Y018260D01*
X017205Y018260D02*
X017265Y018200D01*
X017329Y018200D02*
X017329Y018230D01*
X017449Y018350D01*
X017449Y018380D01*
X017329Y018380D01*
X017235Y018380D02*
X017145Y018380D01*
X017145Y018200D01*
X017081Y018200D02*
X017081Y018380D01*
X017021Y018320D01*
X016961Y018380D01*
X016961Y018200D01*
X014921Y015006D02*
X014801Y015006D01*
X014921Y014886D01*
X014951Y014916D01*
X014951Y014976D01*
X014921Y015006D01*
X014921Y014886D02*
X014801Y014886D01*
X014770Y014916D01*
X014770Y014976D01*
X014801Y015006D01*
X014801Y014822D02*
X014770Y014792D01*
X014770Y014732D01*
X014801Y014702D01*
X014801Y014638D02*
X014861Y014638D01*
X014891Y014608D01*
X014891Y014518D01*
X014891Y014578D02*
X014951Y014638D01*
X014951Y014702D02*
X014831Y014822D01*
X014801Y014822D01*
X014951Y014822D02*
X014951Y014702D01*
X014801Y014638D02*
X014770Y014608D01*
X014770Y014518D01*
X014951Y014518D01*
X011950Y022050D02*
X011863Y022137D01*
X011776Y022050D01*
X011776Y022310D01*
X011692Y022310D02*
X011518Y022310D01*
X011518Y022050D01*
X011518Y022180D02*
X011605Y022180D01*
X011434Y022310D02*
X011261Y022310D01*
X011261Y022050D01*
X011261Y022180D02*
X011347Y022180D01*
X011950Y022050D02*
X011950Y022310D01*
X027060Y028648D02*
X027060Y028738D01*
X027091Y028768D01*
X027151Y028768D01*
X027181Y028738D01*
X027181Y028648D01*
X027181Y028708D02*
X027241Y028768D01*
X027241Y028832D02*
X027241Y028952D01*
X027241Y028892D02*
X027060Y028892D01*
X027121Y028832D01*
X027091Y029016D02*
X027060Y029046D01*
X027060Y029106D01*
X027091Y029136D01*
X027121Y029136D01*
X027151Y029106D01*
X027181Y029136D01*
X027211Y029136D01*
X027241Y029106D01*
X027241Y029046D01*
X027211Y029016D01*
X027151Y029076D02*
X027151Y029106D01*
X027241Y028648D02*
X027060Y028648D01*
D15*
X020651Y034440D02*
X020651Y039940D01*
X014651Y039940D01*
X014651Y032940D01*
X018351Y032940D01*
D16*
X016901Y034440D03*
X015401Y034940D03*
D17*
X018080Y030466D02*
X018142Y030466D01*
X018389Y030219D01*
X018451Y030219D01*
X018265Y029974D02*
X018265Y029851D01*
X018080Y029851D02*
X018080Y030098D01*
X018080Y030219D02*
X018080Y030466D01*
X018080Y029851D02*
X018451Y029851D01*
X018465Y029019D02*
X018341Y029019D01*
X018280Y028957D01*
X018158Y028957D02*
X018096Y029019D01*
X017973Y029019D01*
X017911Y028957D01*
X017911Y028710D01*
X017973Y028649D01*
X018096Y028649D01*
X018158Y028710D01*
X018280Y028649D02*
X018526Y028896D01*
X018526Y028957D01*
X018465Y029019D01*
X018648Y029019D02*
X018648Y028834D01*
X018771Y028896D01*
X018833Y028896D01*
X018895Y028834D01*
X018895Y028710D01*
X018833Y028649D01*
X018710Y028649D01*
X018648Y028710D01*
X018526Y028649D02*
X018280Y028649D01*
X018648Y029019D02*
X018895Y029019D01*
X020415Y028470D02*
X020415Y028223D01*
X020477Y028161D01*
X020600Y028161D01*
X020662Y028223D01*
X020783Y028161D02*
X021030Y028408D01*
X021030Y028470D01*
X020968Y028532D01*
X020845Y028532D01*
X020783Y028470D01*
X020662Y028470D02*
X020600Y028532D01*
X020477Y028532D01*
X020415Y028470D01*
X020783Y028161D02*
X021030Y028161D01*
X021152Y028223D02*
X021213Y028161D01*
X021337Y028161D01*
X021399Y028223D01*
X021399Y028285D01*
X021337Y028346D01*
X021152Y028346D01*
X021152Y028223D01*
X021152Y028346D02*
X021275Y028470D01*
X021399Y028532D01*
X022250Y027616D02*
X022312Y027493D01*
X022436Y027369D01*
X022436Y027554D01*
X022497Y027616D01*
X022559Y027616D01*
X022621Y027554D01*
X022621Y027431D01*
X022559Y027369D01*
X022436Y027369D01*
X022621Y027248D02*
X022621Y027001D01*
X022621Y026879D02*
X022497Y026756D01*
X022497Y026818D02*
X022497Y026633D01*
X022621Y026633D02*
X022250Y026633D01*
X022250Y026818D01*
X022312Y026879D01*
X022436Y026879D01*
X022497Y026818D01*
X022374Y027001D02*
X022250Y027124D01*
X022621Y027124D01*
X022215Y026748D02*
X022462Y026501D01*
X022524Y026501D01*
X022462Y026380D02*
X022524Y026318D01*
X022524Y026195D01*
X022462Y026133D01*
X022215Y026133D01*
X022154Y026195D01*
X022154Y026318D01*
X022215Y026380D01*
X022154Y026501D02*
X022154Y026748D01*
X022215Y026748D01*
X022154Y026011D02*
X022154Y025887D01*
X022154Y025949D02*
X022524Y025949D01*
X022524Y025887D02*
X022524Y026011D01*
X021301Y029880D02*
X021362Y029942D01*
X021362Y030065D01*
X021301Y030127D01*
X021362Y030248D02*
X021116Y030495D01*
X021054Y030495D01*
X020992Y030433D01*
X020992Y030310D01*
X021054Y030248D01*
X021054Y030127D02*
X020992Y030065D01*
X020992Y029942D01*
X021054Y029880D01*
X021301Y029880D01*
X021362Y030248D02*
X021362Y030495D01*
X021177Y030617D02*
X021177Y030863D01*
X020992Y030802D02*
X021177Y030617D01*
X021362Y030802D02*
X020992Y030802D01*
X021750Y030879D02*
X021750Y030633D01*
X022121Y030633D01*
X021936Y030633D02*
X021936Y030756D01*
X021936Y031001D02*
X021936Y031248D01*
X022121Y031186D02*
X021750Y031186D01*
X021936Y031001D01*
X028430Y030294D02*
X028430Y030171D01*
X028492Y030109D01*
X028430Y029988D02*
X028430Y029741D01*
X028801Y029741D01*
X028615Y029741D02*
X028615Y029864D01*
X028739Y030109D02*
X028801Y030171D01*
X028801Y030294D01*
X028739Y030356D01*
X028677Y030356D01*
X028615Y030294D01*
X028615Y030233D01*
X028615Y030294D02*
X028554Y030356D01*
X028492Y030356D01*
X028430Y030294D01*
X038404Y026631D02*
X038774Y026631D01*
X038774Y026754D02*
X038774Y026507D01*
X038712Y026386D02*
X038774Y026324D01*
X038774Y026201D01*
X038712Y026139D01*
X038465Y026139D01*
X038404Y026201D01*
X038404Y026324D01*
X038465Y026386D01*
X038527Y026507D02*
X038404Y026631D01*
X036676Y022840D02*
X036737Y022779D01*
X036737Y022717D01*
X036676Y022655D01*
X036737Y022593D01*
X036737Y022532D01*
X036676Y022470D01*
X036552Y022470D01*
X036490Y022532D01*
X036369Y022470D02*
X036122Y022470D01*
X036369Y022717D01*
X036369Y022779D01*
X036307Y022840D01*
X036184Y022840D01*
X036122Y022779D01*
X036001Y022779D02*
X035939Y022840D01*
X035816Y022840D01*
X035754Y022779D01*
X035754Y022532D01*
X035816Y022470D01*
X035939Y022470D01*
X036001Y022532D01*
X036490Y022779D02*
X036552Y022840D01*
X036676Y022840D01*
X036676Y022655D02*
X036614Y022655D01*
X033651Y020645D02*
X033651Y020398D01*
X033404Y020645D01*
X033342Y020645D01*
X033280Y020584D01*
X033280Y020460D01*
X033342Y020398D01*
X033342Y020277D02*
X033280Y020215D01*
X033280Y020092D01*
X033342Y020030D01*
X033342Y019909D02*
X033280Y019847D01*
X033280Y019724D01*
X033342Y019662D01*
X033589Y019662D01*
X033651Y019724D01*
X033651Y019847D01*
X033589Y019909D01*
X033651Y020030D02*
X033404Y020277D01*
X033342Y020277D01*
X033651Y020277D02*
X033651Y020030D01*
X032079Y020966D02*
X032079Y021090D01*
X032018Y021151D01*
X032079Y021273D02*
X031832Y021520D01*
X031771Y021520D01*
X031709Y021458D01*
X031709Y021334D01*
X031771Y021273D01*
X031771Y021151D02*
X031709Y021090D01*
X031709Y020966D01*
X031771Y020904D01*
X032018Y020904D01*
X032079Y020966D01*
X032079Y021273D02*
X032079Y021520D01*
X032079Y021641D02*
X032079Y021888D01*
X032079Y021764D02*
X031709Y021764D01*
X031832Y021641D01*
X030119Y021743D02*
X030057Y021682D01*
X029934Y021682D01*
X029872Y021743D01*
X030119Y021990D01*
X030119Y021743D01*
X029872Y021743D02*
X029872Y021990D01*
X029934Y022052D01*
X030057Y022052D01*
X030119Y021990D01*
X029751Y021682D02*
X029504Y021682D01*
X029627Y021682D02*
X029627Y022052D01*
X029504Y021929D01*
X029383Y021990D02*
X029321Y022052D01*
X029197Y022052D01*
X029136Y021990D01*
X029136Y021743D01*
X029197Y021682D01*
X029321Y021682D01*
X029383Y021743D01*
X031442Y019484D02*
X031442Y019237D01*
X031442Y019116D02*
X031442Y018869D01*
X031442Y018992D02*
X031072Y018992D01*
X031195Y018869D01*
X031133Y018748D02*
X031072Y018686D01*
X031072Y018562D01*
X031133Y018501D01*
X031380Y018501D01*
X031442Y018562D01*
X031442Y018686D01*
X031380Y018748D01*
X031195Y019237D02*
X031072Y019361D01*
X031442Y019361D01*
X029908Y019179D02*
X029908Y019117D01*
X029847Y019055D01*
X029723Y019055D01*
X029662Y019117D01*
X029662Y019179D01*
X029723Y019240D01*
X029847Y019240D01*
X029908Y019179D01*
X029847Y019055D02*
X029908Y018993D01*
X029908Y018932D01*
X029847Y018870D01*
X029723Y018870D01*
X029662Y018932D01*
X029662Y018993D01*
X029723Y019055D01*
X029540Y019240D02*
X029293Y019240D01*
X029293Y018870D01*
X029293Y019055D02*
X029417Y019055D01*
X021701Y019672D02*
X021330Y019672D01*
X021330Y019858D01*
X021392Y019919D01*
X021515Y019919D01*
X021577Y019858D01*
X021577Y019672D01*
X021577Y019796D02*
X021701Y019919D01*
X021701Y020041D02*
X021701Y020288D01*
X021701Y020164D02*
X021330Y020164D01*
X021454Y020041D01*
X021515Y020409D02*
X021454Y020533D01*
X021454Y020594D01*
X021515Y020656D01*
X021639Y020656D01*
X021701Y020594D01*
X021701Y020471D01*
X021639Y020409D01*
X021515Y020409D02*
X021330Y020409D01*
X021330Y020656D01*
X021879Y017188D02*
X021879Y016941D01*
X021879Y017064D02*
X021509Y017064D01*
X021632Y016941D01*
X021632Y016820D02*
X021694Y016758D01*
X021756Y016820D01*
X021818Y016820D01*
X021879Y016758D01*
X021879Y016634D01*
X021818Y016573D01*
X021818Y016451D02*
X021879Y016390D01*
X021879Y016266D01*
X021818Y016204D01*
X021571Y016204D01*
X021509Y016266D01*
X021509Y016390D01*
X021571Y016451D01*
X021571Y016573D02*
X021509Y016634D01*
X021509Y016758D01*
X021571Y016820D01*
X021632Y016820D01*
X021694Y016758D02*
X021694Y016696D01*
X021409Y014743D02*
X021162Y014743D01*
X021100Y014681D01*
X021100Y014558D01*
X021162Y014496D01*
X021224Y014496D01*
X021286Y014558D01*
X021286Y014743D01*
X021409Y014743D02*
X021471Y014681D01*
X021471Y014558D01*
X021409Y014496D01*
X021286Y014251D02*
X021286Y014128D01*
X021471Y014128D02*
X021100Y014128D01*
X021100Y014374D01*
X019209Y014987D02*
X019209Y015110D01*
X019147Y015172D01*
X019209Y015293D02*
X018962Y015540D01*
X018900Y015540D01*
X018839Y015479D01*
X018839Y015355D01*
X018900Y015293D01*
X018900Y015172D02*
X018839Y015110D01*
X018839Y014987D01*
X018900Y014925D01*
X019147Y014925D01*
X019209Y014987D01*
X019209Y015293D02*
X019209Y015540D01*
X019147Y015662D02*
X019209Y015723D01*
X019209Y015847D01*
X019147Y015909D01*
X018900Y015909D01*
X018839Y015847D01*
X018839Y015723D01*
X018900Y015662D01*
X018962Y015662D01*
X019024Y015723D01*
X019024Y015909D01*
X018680Y016251D02*
X018433Y016251D01*
X018372Y016312D01*
X018372Y016436D01*
X018433Y016498D01*
X018433Y016619D02*
X018372Y016681D01*
X018372Y016804D01*
X018433Y016866D01*
X018495Y016866D01*
X018557Y016804D01*
X018618Y016866D01*
X018680Y016866D01*
X018742Y016804D01*
X018742Y016681D01*
X018680Y016619D01*
X018680Y016498D02*
X018742Y016436D01*
X018742Y016312D01*
X018680Y016251D01*
X018557Y016742D02*
X018557Y016804D01*
X018680Y016987D02*
X018433Y017234D01*
X018680Y017234D01*
X018742Y017172D01*
X018742Y017049D01*
X018680Y016987D01*
X018433Y016987D01*
X018372Y017049D01*
X018372Y017172D01*
X018433Y017234D01*
X047493Y014371D02*
X047555Y014433D01*
X047616Y014433D01*
X047678Y014371D01*
X047678Y014248D01*
X047616Y014186D01*
X047555Y014186D01*
X047493Y014248D01*
X047493Y014371D01*
X047678Y014371D02*
X047740Y014433D01*
X047801Y014433D01*
X047863Y014371D01*
X047863Y014248D01*
X047801Y014186D01*
X047740Y014186D01*
X047678Y014248D01*
X047678Y014064D02*
X047740Y014003D01*
X047740Y013818D01*
X047740Y013941D02*
X047863Y014064D01*
X047678Y014064D02*
X047555Y014064D01*
X047493Y014003D01*
X047493Y013818D01*
X047863Y013818D01*
X048116Y012403D02*
X048302Y012403D01*
X048363Y012341D01*
X048363Y012218D01*
X048302Y012156D01*
X048116Y012156D01*
X048116Y012033D02*
X048116Y012403D01*
X048240Y012156D02*
X048363Y012033D01*
X048485Y012094D02*
X048546Y012033D01*
X048670Y012033D01*
X048732Y012094D01*
X048732Y012156D01*
X048670Y012218D01*
X048485Y012218D01*
X048485Y012094D01*
X048485Y012218D02*
X048608Y012341D01*
X048732Y012403D01*
X049738Y021156D02*
X049738Y021341D01*
X049799Y021403D01*
X049923Y021403D01*
X049985Y021341D01*
X049985Y021156D01*
X050108Y021156D02*
X049738Y021156D01*
X049985Y021279D02*
X050108Y021403D01*
X050108Y021524D02*
X050046Y021524D01*
X049799Y021771D01*
X049738Y021771D01*
X049738Y021524D01*
X049132Y022094D02*
X049070Y022033D01*
X048946Y022033D01*
X048885Y022094D01*
X048763Y022033D02*
X048640Y022156D01*
X048702Y022156D02*
X048516Y022156D01*
X048516Y022033D02*
X048516Y022403D01*
X048702Y022403D01*
X048763Y022341D01*
X048763Y022218D01*
X048702Y022156D01*
X048885Y022341D02*
X048946Y022403D01*
X049070Y022403D01*
X049132Y022341D01*
X049132Y022279D01*
X049070Y022218D01*
X049132Y022156D01*
X049132Y022094D01*
X049070Y022218D02*
X049008Y022218D01*
X059727Y028455D02*
X059727Y028825D01*
X059851Y028825D02*
X059851Y028455D01*
X059913Y028578D02*
X059666Y028578D01*
X059666Y028702D02*
X059851Y028702D01*
X059913Y028702D01*
X060402Y028825D02*
X060649Y028825D01*
X060649Y028764D01*
X060402Y028517D01*
X060402Y028455D01*
X060464Y029455D02*
X060587Y029455D01*
X060649Y029517D01*
X060649Y029578D01*
X060587Y029640D01*
X060402Y029640D01*
X060402Y029517D01*
X060464Y029455D01*
X060402Y029640D02*
X060526Y029764D01*
X060649Y029825D01*
X060587Y030455D02*
X060464Y030455D01*
X060402Y030517D01*
X060402Y030640D02*
X060526Y030702D01*
X060587Y030702D01*
X060649Y030640D01*
X060649Y030517D01*
X060587Y030455D01*
X060402Y030640D02*
X060402Y030825D01*
X060649Y030825D01*
X060587Y031455D02*
X060587Y031825D01*
X060402Y031640D01*
X060649Y031640D01*
X059913Y031578D02*
X059666Y031578D01*
X059666Y031702D02*
X059851Y031702D01*
X059913Y031702D01*
X059851Y031825D02*
X059851Y031455D01*
X059727Y031455D02*
X059727Y031825D01*
X059727Y030825D02*
X059727Y030455D01*
X059851Y030455D02*
X059851Y030825D01*
X059851Y030702D02*
X059913Y030702D01*
X059851Y030702D02*
X059666Y030702D01*
X059666Y030578D02*
X059913Y030578D01*
X059851Y029825D02*
X059851Y029455D01*
X059727Y029455D02*
X059727Y029825D01*
X059666Y029702D02*
X059851Y029702D01*
X059913Y029702D01*
X059913Y029578D02*
X059666Y029578D01*
X063965Y030107D02*
X064336Y030107D01*
X064336Y029922D01*
X064274Y029860D01*
X064150Y029860D01*
X064089Y029922D01*
X064089Y030107D01*
X064150Y029739D02*
X064212Y029739D01*
X064212Y029492D01*
X064150Y029492D02*
X064089Y029553D01*
X064089Y029677D01*
X064150Y029739D01*
X064336Y029677D02*
X064336Y029553D01*
X064274Y029492D01*
X064150Y029492D01*
X064150Y029370D02*
X064212Y029370D01*
X064212Y029123D01*
X064150Y029123D02*
X064089Y029185D01*
X064089Y029308D01*
X064150Y029370D01*
X064336Y029308D02*
X064336Y029185D01*
X064274Y029123D01*
X064150Y029123D01*
X063965Y029002D02*
X063965Y028755D01*
X064336Y028755D01*
X064150Y028755D02*
X064150Y028878D01*
X064565Y028755D02*
X064936Y028755D01*
X064936Y028940D01*
X064874Y029002D01*
X064750Y029002D01*
X064689Y028940D01*
X064689Y028755D01*
X064874Y029123D02*
X064812Y029185D01*
X064812Y029370D01*
X064750Y029370D02*
X064936Y029370D01*
X064936Y029185D01*
X064874Y029123D01*
X064689Y029185D02*
X064689Y029308D01*
X064750Y029370D01*
X064750Y029492D02*
X064874Y029492D01*
X064936Y029553D01*
X064936Y029739D01*
X064936Y029860D02*
X064565Y029860D01*
X064689Y029739D02*
X064689Y029553D01*
X064750Y029492D01*
X064812Y029860D02*
X064689Y030045D01*
X064689Y030167D02*
X064689Y030352D01*
X064750Y030414D01*
X064874Y030414D01*
X064936Y030352D01*
X064936Y030167D01*
X064936Y030045D02*
X064812Y029860D01*
X064689Y030167D02*
X065059Y030167D01*
X064936Y030535D02*
X064936Y030659D01*
X064936Y030597D02*
X064565Y030597D01*
X064565Y030535D01*
X064336Y030597D02*
X063965Y030597D01*
X063965Y030843D01*
X064089Y031027D02*
X064150Y030965D01*
X064274Y030965D01*
X064336Y031027D01*
X064336Y031150D01*
X064274Y031212D01*
X064150Y031212D01*
X064089Y031150D01*
X064089Y031027D01*
X064089Y031333D02*
X064336Y031333D01*
X064212Y031333D02*
X064089Y031457D01*
X064089Y031518D01*
X064089Y031640D02*
X064274Y031640D01*
X064336Y031702D01*
X064274Y031764D01*
X064336Y031825D01*
X064274Y031887D01*
X064089Y031887D01*
X064089Y032070D02*
X064089Y032194D01*
X064150Y032255D01*
X064336Y032255D01*
X064336Y032070D01*
X064274Y032008D01*
X064212Y032070D01*
X064212Y032255D01*
X064212Y032377D02*
X064089Y032500D01*
X064089Y032562D01*
X064150Y032684D02*
X064089Y032745D01*
X064089Y032931D01*
X063965Y032931D02*
X064336Y032931D01*
X064336Y032745D01*
X064274Y032684D01*
X064150Y032684D01*
X064089Y032377D02*
X064336Y032377D01*
X064689Y032316D02*
X064689Y032501D01*
X064750Y032622D02*
X064689Y032684D01*
X064689Y032807D01*
X064750Y032869D01*
X064812Y032869D01*
X064812Y032622D01*
X064874Y032622D02*
X064750Y032622D01*
X064874Y032622D02*
X064936Y032684D01*
X064936Y032807D01*
X064936Y032991D02*
X064936Y033114D01*
X064936Y033052D02*
X064565Y033052D01*
X064565Y032991D01*
X064750Y033236D02*
X064689Y033298D01*
X064689Y033421D01*
X064750Y033483D01*
X064812Y033483D01*
X064812Y033236D01*
X064874Y033236D02*
X064750Y033236D01*
X064874Y033236D02*
X064936Y033298D01*
X064936Y033421D01*
X064874Y033604D02*
X064750Y033604D01*
X064689Y033666D01*
X064689Y033851D01*
X064689Y033973D02*
X064689Y034096D01*
X064627Y034035D02*
X064874Y034035D01*
X064936Y034096D01*
X064936Y033851D02*
X064936Y033666D01*
X064874Y033604D01*
X064874Y032501D02*
X064812Y032439D01*
X064812Y032316D01*
X064750Y032254D01*
X064689Y032316D01*
X064936Y032254D02*
X064936Y032439D01*
X064874Y032501D01*
X064812Y031764D02*
X064750Y031764D01*
X064689Y031703D01*
X064689Y031579D01*
X064750Y031517D01*
X064874Y031517D01*
X064936Y031579D01*
X064936Y031703D01*
X064812Y031764D02*
X064812Y031517D01*
X064750Y031396D02*
X064936Y031396D01*
X064750Y031396D02*
X064689Y031334D01*
X064689Y031149D01*
X064936Y031149D01*
X064936Y031028D02*
X064936Y030842D01*
X064874Y030781D01*
X064812Y030842D01*
X064812Y031028D01*
X064750Y031028D02*
X064936Y031028D01*
X064750Y031028D02*
X064689Y030966D01*
X064689Y030842D01*
X064150Y030720D02*
X064150Y030597D01*
X060649Y032517D02*
X060587Y032455D01*
X060464Y032455D01*
X060402Y032517D01*
X060526Y032640D02*
X060587Y032640D01*
X060649Y032578D01*
X060649Y032517D01*
X060587Y032640D02*
X060649Y032702D01*
X060649Y032764D01*
X060587Y032825D01*
X060464Y032825D01*
X060402Y032764D01*
X059913Y032702D02*
X059851Y032702D01*
X059666Y032702D01*
X059666Y032578D02*
X059913Y032578D01*
X059851Y032455D02*
X059851Y032825D01*
X059727Y032825D02*
X059727Y032455D01*
X059727Y033455D02*
X059727Y033825D01*
X059851Y033825D02*
X059851Y033455D01*
X059913Y033578D02*
X059666Y033578D01*
X059666Y033702D02*
X059851Y033702D01*
X059913Y033702D01*
X060402Y033764D02*
X060464Y033825D01*
X060587Y033825D01*
X060649Y033764D01*
X060649Y033702D01*
X060402Y033455D01*
X060649Y033455D01*
X060649Y034455D02*
X060402Y034455D01*
X060526Y034455D02*
X060526Y034825D01*
X060402Y034702D01*
X059913Y034702D02*
X059851Y034702D01*
X059666Y034702D01*
X059666Y034578D02*
X059913Y034578D01*
X059851Y034455D02*
X059851Y034825D01*
X059727Y034825D02*
X059727Y034455D01*
X059696Y035455D02*
X059696Y035825D01*
X059820Y035825D02*
X059820Y035455D01*
X059881Y035578D02*
X059634Y035578D01*
X059634Y035702D02*
X059820Y035702D01*
X059881Y035702D01*
X060371Y035764D02*
X060371Y035517D01*
X060618Y035764D01*
X060618Y035517D01*
X060556Y035455D01*
X060433Y035455D01*
X060371Y035517D01*
X060371Y035764D02*
X060433Y035825D01*
X060556Y035825D01*
X060618Y035764D01*
X059145Y035764D02*
X059145Y035517D01*
X059083Y035455D01*
X058960Y035455D01*
X058898Y035517D01*
X058898Y035764D01*
X058960Y035825D01*
X059083Y035825D01*
X059145Y035764D01*
X058776Y035825D02*
X058652Y035825D01*
X058714Y035825D02*
X058714Y035455D01*
X058652Y035455D02*
X058776Y035455D01*
X058531Y035640D02*
X058469Y035578D01*
X058284Y035578D01*
X058284Y035455D02*
X058284Y035825D01*
X058469Y035825D01*
X058531Y035764D01*
X058531Y035640D01*
X058163Y035640D02*
X058039Y035640D01*
X058163Y035640D02*
X058163Y035517D01*
X058101Y035455D01*
X057977Y035455D01*
X057916Y035517D01*
X057916Y035764D01*
X057977Y035825D01*
X058101Y035825D01*
X058163Y035764D01*
X054821Y034066D02*
X054821Y033819D01*
X054821Y033698D02*
X054821Y033451D01*
X054574Y033698D01*
X054512Y033698D01*
X054450Y033636D01*
X054450Y033513D01*
X054512Y033451D01*
X054512Y033329D02*
X054636Y033329D01*
X054697Y033268D01*
X054697Y033083D01*
X054697Y033206D02*
X054821Y033329D01*
X054821Y033083D02*
X054450Y033083D01*
X054450Y033268D01*
X054512Y033329D01*
X054574Y033819D02*
X054450Y033943D01*
X054821Y033943D01*
X059266Y040270D02*
X059389Y040270D01*
X059451Y040332D01*
X059572Y040270D02*
X059819Y040270D01*
X059696Y040270D02*
X059696Y040640D01*
X059572Y040517D01*
X059451Y040579D02*
X059389Y040640D01*
X059266Y040640D01*
X059204Y040579D01*
X059204Y040332D01*
X059266Y040270D01*
X059940Y040332D02*
X060002Y040270D01*
X060126Y040270D01*
X060187Y040332D01*
X060187Y040579D01*
X060126Y040640D01*
X060002Y040640D01*
X059940Y040579D01*
X059940Y040517D01*
X060002Y040455D01*
X060187Y040455D01*
X061949Y044848D02*
X062196Y044848D01*
X062318Y044910D02*
X062379Y044848D01*
X062503Y044848D01*
X062565Y044910D01*
X062565Y044972D01*
X062503Y045033D01*
X062441Y045033D01*
X062503Y045033D02*
X062565Y045095D01*
X062565Y045157D01*
X062503Y045218D01*
X062379Y045218D01*
X062318Y045157D01*
X061949Y045218D02*
X061949Y044848D01*
X036456Y042710D02*
X036456Y042649D01*
X036209Y042402D01*
X036209Y042340D01*
X036088Y042340D02*
X035841Y042340D01*
X035964Y042340D02*
X035964Y042710D01*
X035841Y042587D01*
X035719Y042649D02*
X035658Y042710D01*
X035534Y042710D01*
X035472Y042649D01*
X035472Y042402D01*
X035534Y042340D01*
X035658Y042340D01*
X035719Y042402D01*
X035678Y041940D02*
X035740Y041879D01*
X035740Y041755D01*
X035678Y041693D01*
X035493Y041693D01*
X035493Y041570D02*
X035493Y041940D01*
X035678Y041940D01*
X035862Y041879D02*
X035923Y041940D01*
X036047Y041940D01*
X036108Y041879D01*
X036108Y041817D01*
X035862Y041570D01*
X036108Y041570D01*
X036230Y041632D02*
X036292Y041570D01*
X036415Y041570D01*
X036477Y041632D01*
X036477Y041755D01*
X036415Y041817D01*
X036353Y041817D01*
X036230Y041755D01*
X036230Y041940D01*
X036477Y041940D01*
X035740Y041570D02*
X035617Y041693D01*
X036209Y042710D02*
X036456Y042710D01*
X033556Y042449D02*
X033309Y042202D01*
X033371Y042140D01*
X033494Y042140D01*
X033556Y042202D01*
X033556Y042449D01*
X033494Y042510D01*
X033371Y042510D01*
X033309Y042449D01*
X033309Y042202D01*
X033188Y042140D02*
X032941Y042140D01*
X033188Y042387D01*
X033188Y042449D01*
X033126Y042510D01*
X033003Y042510D01*
X032941Y042449D01*
X032819Y042449D02*
X032758Y042510D01*
X032634Y042510D01*
X032572Y042449D01*
X032572Y042202D01*
X032634Y042140D01*
X032758Y042140D01*
X032819Y042202D01*
D18*
X008251Y005790D02*
X007551Y005790D01*
X007551Y008390D01*
X007551Y045390D01*
X007551Y047990D01*
X008251Y047990D01*
X009851Y047990D01*
X009851Y045690D01*
X011101Y045690D01*
X011101Y043140D01*
X008451Y043140D01*
X008451Y010640D01*
X011101Y010640D01*
X011101Y008090D01*
X009851Y008090D01*
X009851Y005790D01*
X008251Y005790D01*
X008251Y008390D01*
X007551Y008390D01*
X008701Y009390D02*
X009301Y008390D01*
X010401Y008390D01*
X011001Y009390D01*
X010401Y010390D01*
X009301Y010390D01*
X008701Y009390D01*
X009301Y009390D02*
X009303Y009437D01*
X009309Y009483D01*
X009319Y009529D01*
X009332Y009573D01*
X009350Y009617D01*
X009371Y009658D01*
X009395Y009698D01*
X009423Y009736D01*
X009454Y009771D01*
X009488Y009803D01*
X009524Y009832D01*
X009563Y009858D01*
X009603Y009881D01*
X009646Y009900D01*
X009690Y009916D01*
X009735Y009928D01*
X009781Y009936D01*
X009828Y009940D01*
X009874Y009940D01*
X009921Y009936D01*
X009967Y009928D01*
X010012Y009916D01*
X010056Y009900D01*
X010099Y009881D01*
X010139Y009858D01*
X010178Y009832D01*
X010214Y009803D01*
X010248Y009771D01*
X010279Y009736D01*
X010307Y009698D01*
X010331Y009658D01*
X010352Y009617D01*
X010370Y009573D01*
X010383Y009529D01*
X010393Y009483D01*
X010399Y009437D01*
X010401Y009390D01*
X010399Y009343D01*
X010393Y009297D01*
X010383Y009251D01*
X010370Y009207D01*
X010352Y009163D01*
X010331Y009122D01*
X010307Y009082D01*
X010279Y009044D01*
X010248Y009009D01*
X010214Y008977D01*
X010178Y008948D01*
X010139Y008922D01*
X010099Y008899D01*
X010056Y008880D01*
X010012Y008864D01*
X009967Y008852D01*
X009921Y008844D01*
X009874Y008840D01*
X009828Y008840D01*
X009781Y008844D01*
X009735Y008852D01*
X009690Y008864D01*
X009646Y008880D01*
X009603Y008899D01*
X009563Y008922D01*
X009524Y008948D01*
X009488Y008977D01*
X009454Y009009D01*
X009423Y009044D01*
X009395Y009082D01*
X009371Y009122D01*
X009350Y009163D01*
X009332Y009207D01*
X009319Y009251D01*
X009309Y009297D01*
X009303Y009343D01*
X009301Y009390D01*
X016389Y020550D02*
X017413Y020550D01*
X017433Y020552D01*
X017453Y020556D01*
X017471Y020564D01*
X017488Y020574D01*
X017504Y020587D01*
X017517Y020603D01*
X017527Y020620D01*
X017535Y020638D01*
X017539Y020658D01*
X017541Y020678D01*
X017541Y020662D02*
X017541Y021701D01*
X017539Y021721D01*
X017535Y021741D01*
X017527Y021759D01*
X017517Y021776D01*
X017504Y021792D01*
X017488Y021805D01*
X017471Y021815D01*
X017453Y021823D01*
X017433Y021827D01*
X017413Y021829D01*
X016389Y021829D01*
X016369Y021827D01*
X016349Y021823D01*
X016331Y021815D01*
X016314Y021805D01*
X016298Y021792D01*
X016285Y021776D01*
X016275Y021759D01*
X016267Y021741D01*
X016263Y021721D01*
X016261Y021701D01*
X016261Y020678D01*
X016263Y020658D01*
X016267Y020638D01*
X016275Y020620D01*
X016285Y020603D01*
X016298Y020587D01*
X016314Y020574D01*
X016331Y020564D01*
X016349Y020556D01*
X016369Y020552D01*
X016389Y020550D01*
X021961Y021679D02*
X021961Y022702D01*
X021963Y022722D01*
X021967Y022742D01*
X021975Y022760D01*
X021985Y022777D01*
X021998Y022793D01*
X022014Y022806D01*
X022031Y022816D01*
X022049Y022824D01*
X022069Y022828D01*
X022089Y022830D01*
X023129Y022830D01*
X023113Y022830D02*
X023133Y022828D01*
X023153Y022824D01*
X023171Y022816D01*
X023188Y022806D01*
X023204Y022793D01*
X023217Y022777D01*
X023227Y022760D01*
X023235Y022742D01*
X023239Y022722D01*
X023241Y022702D01*
X023241Y021679D01*
X023239Y021659D01*
X023235Y021639D01*
X023227Y021621D01*
X023217Y021604D01*
X023204Y021588D01*
X023188Y021575D01*
X023171Y021565D01*
X023153Y021557D01*
X023133Y021553D01*
X023113Y021551D01*
X022089Y021551D01*
X022069Y021553D01*
X022049Y021557D01*
X022031Y021565D01*
X022014Y021575D01*
X021998Y021588D01*
X021985Y021604D01*
X021975Y021621D01*
X021967Y021639D01*
X021963Y021659D01*
X021961Y021679D01*
X026651Y021390D02*
X026651Y021090D01*
X026651Y021390D02*
X027051Y021390D01*
X027051Y021090D01*
X025051Y019290D02*
X025053Y019374D01*
X025059Y019459D01*
X025069Y019542D01*
X025083Y019626D01*
X025100Y019708D01*
X025122Y019790D01*
X025147Y019870D01*
X025176Y019949D01*
X025209Y020027D01*
X025245Y020103D01*
X025285Y020178D01*
X025329Y020250D01*
X025375Y020321D01*
X025425Y020389D01*
X025478Y020454D01*
X025534Y020517D01*
X025593Y020578D01*
X025655Y020635D01*
X025719Y020690D01*
X025786Y020741D01*
X025855Y020790D01*
X025927Y020835D01*
X026000Y020876D01*
X026075Y020914D01*
X026152Y020949D01*
X026231Y020980D01*
X026311Y021007D01*
X026392Y021030D01*
X026474Y021050D01*
X026557Y021066D01*
X026640Y021078D01*
X026725Y021086D01*
X026809Y021090D01*
X026893Y021090D01*
X026977Y021086D01*
X027062Y021078D01*
X027145Y021066D01*
X027228Y021050D01*
X027310Y021030D01*
X027391Y021007D01*
X027471Y020980D01*
X027550Y020949D01*
X027627Y020914D01*
X027702Y020876D01*
X027775Y020835D01*
X027847Y020790D01*
X027916Y020741D01*
X027983Y020690D01*
X028047Y020635D01*
X028109Y020578D01*
X028168Y020517D01*
X028224Y020454D01*
X028277Y020389D01*
X028327Y020321D01*
X028373Y020250D01*
X028417Y020178D01*
X028457Y020103D01*
X028493Y020027D01*
X028526Y019949D01*
X028555Y019870D01*
X028580Y019790D01*
X028602Y019708D01*
X028619Y019626D01*
X028633Y019542D01*
X028643Y019459D01*
X028649Y019374D01*
X028651Y019290D01*
X028649Y019206D01*
X028643Y019121D01*
X028633Y019038D01*
X028619Y018954D01*
X028602Y018872D01*
X028580Y018790D01*
X028555Y018710D01*
X028526Y018631D01*
X028493Y018553D01*
X028457Y018477D01*
X028417Y018402D01*
X028373Y018330D01*
X028327Y018259D01*
X028277Y018191D01*
X028224Y018126D01*
X028168Y018063D01*
X028109Y018002D01*
X028047Y017945D01*
X027983Y017890D01*
X027916Y017839D01*
X027847Y017790D01*
X027775Y017745D01*
X027702Y017704D01*
X027627Y017666D01*
X027550Y017631D01*
X027471Y017600D01*
X027391Y017573D01*
X027310Y017550D01*
X027228Y017530D01*
X027145Y017514D01*
X027062Y017502D01*
X026977Y017494D01*
X026893Y017490D01*
X026809Y017490D01*
X026725Y017494D01*
X026640Y017502D01*
X026557Y017514D01*
X026474Y017530D01*
X026392Y017550D01*
X026311Y017573D01*
X026231Y017600D01*
X026152Y017631D01*
X026075Y017666D01*
X026000Y017704D01*
X025927Y017745D01*
X025855Y017790D01*
X025786Y017839D01*
X025719Y017890D01*
X025655Y017945D01*
X025593Y018002D01*
X025534Y018063D01*
X025478Y018126D01*
X025425Y018191D01*
X025375Y018259D01*
X025329Y018330D01*
X025285Y018402D01*
X025245Y018477D01*
X025209Y018553D01*
X025176Y018631D01*
X025147Y018710D01*
X025122Y018790D01*
X025100Y018872D01*
X025083Y018954D01*
X025069Y019038D01*
X025059Y019121D01*
X025053Y019206D01*
X025051Y019290D01*
X013441Y029277D02*
X013335Y029170D01*
X013014Y029170D01*
X013014Y029811D01*
X013335Y029811D01*
X013441Y029704D01*
X013441Y029277D01*
X012797Y029170D02*
X012797Y029811D01*
X012370Y029811D02*
X012370Y029170D01*
X012583Y029384D01*
X012797Y029170D01*
X012152Y029811D02*
X011725Y029811D01*
X011725Y029170D01*
X011725Y029490D02*
X011939Y029490D01*
X011508Y029811D02*
X011081Y029811D01*
X011081Y029170D01*
X011081Y029490D02*
X011294Y029490D01*
X018651Y035090D02*
X018901Y034940D01*
X019401Y034940D01*
X019651Y035090D01*
X019538Y034180D02*
X020562Y034180D01*
X020582Y034178D01*
X020602Y034174D01*
X020620Y034166D01*
X020637Y034156D01*
X020653Y034143D01*
X020666Y034127D01*
X020676Y034110D01*
X020684Y034092D01*
X020688Y034072D01*
X020690Y034052D01*
X020690Y033029D01*
X020688Y033009D01*
X020684Y032989D01*
X020676Y032971D01*
X020666Y032954D01*
X020653Y032938D01*
X020637Y032925D01*
X020620Y032915D01*
X020602Y032907D01*
X020582Y032903D01*
X020562Y032901D01*
X019538Y032901D01*
X019518Y032903D01*
X019498Y032907D01*
X019480Y032915D01*
X019463Y032925D01*
X019447Y032938D01*
X019434Y032954D01*
X019424Y032971D01*
X019416Y032989D01*
X019412Y033009D01*
X019410Y033029D01*
X019410Y034068D01*
X019410Y034052D02*
X019412Y034072D01*
X019416Y034092D01*
X019424Y034110D01*
X019434Y034127D01*
X019447Y034143D01*
X019463Y034156D01*
X019480Y034166D01*
X019498Y034174D01*
X019518Y034178D01*
X019538Y034180D01*
X019651Y035790D02*
X019401Y035940D01*
X018901Y035940D01*
X018651Y035790D01*
X018901Y035940D02*
X018651Y036090D01*
X019401Y035940D02*
X019651Y036090D01*
X019651Y036790D02*
X019401Y036940D01*
X018901Y036940D01*
X018651Y036790D01*
X018901Y036940D02*
X018651Y037090D01*
X018651Y037790D02*
X018901Y037940D01*
X019401Y037940D01*
X019651Y037790D01*
X019651Y037090D02*
X019401Y036940D01*
X017801Y041490D02*
X017211Y041490D01*
X017211Y042530D01*
X017511Y042830D01*
X017461Y042890D01*
X017431Y042920D01*
X017411Y042960D01*
X017411Y044190D01*
X017011Y044190D01*
X017001Y044240D01*
X017801Y044240D01*
X014301Y044240D01*
X014301Y044520D01*
X014881Y044520D01*
X014891Y044420D01*
X014931Y044340D01*
X014991Y044280D01*
X015081Y044240D01*
X015211Y044250D01*
X015301Y044300D01*
X015351Y044380D01*
X015431Y044380D01*
X015501Y044410D01*
X015571Y044450D01*
X015641Y044460D01*
X015691Y044420D01*
X015741Y044350D01*
X015781Y044300D01*
X015831Y044250D01*
X015931Y044240D01*
X016011Y044260D01*
X016071Y044380D01*
X016111Y044460D01*
X016161Y044550D01*
X016181Y044590D01*
X016201Y044540D01*
X016221Y044460D01*
X016251Y044400D01*
X016301Y044330D01*
X016351Y044270D01*
X016431Y044230D01*
X016521Y044240D01*
X016591Y044330D01*
X016661Y044430D01*
X016701Y044470D01*
X016731Y044470D01*
X016801Y044440D01*
X016841Y044420D01*
X016921Y044400D01*
X016981Y044390D01*
X016991Y044380D01*
X017031Y044320D01*
X017081Y044280D01*
X017151Y044250D01*
X017211Y044240D01*
X017311Y044260D01*
X017401Y044330D01*
X017441Y044420D01*
X017461Y044530D01*
X017801Y044530D01*
X017801Y044240D01*
X017801Y041490D01*
X017801Y041528D02*
X017211Y041528D01*
X017241Y041528D02*
X016602Y041528D01*
X016601Y041528D02*
X015441Y041528D01*
X015431Y041528D02*
X015111Y041528D01*
X015121Y041528D02*
X014301Y041528D01*
X014301Y041490D02*
X015121Y041490D01*
X015121Y041790D01*
X014821Y042100D01*
X014891Y042190D01*
X014911Y042280D01*
X014931Y042450D01*
X014931Y044190D01*
X015151Y044190D01*
X015151Y044240D01*
X014301Y044240D01*
X014301Y041490D01*
X014301Y041586D02*
X015121Y041586D01*
X015111Y041586D02*
X015431Y041586D01*
X015441Y041586D02*
X016601Y041586D01*
X016604Y041586D02*
X017241Y041586D01*
X017211Y041586D02*
X017801Y041586D01*
X017801Y041645D02*
X017211Y041645D01*
X017241Y041645D02*
X016606Y041645D01*
X016601Y041645D02*
X015441Y041645D01*
X015431Y041645D02*
X015111Y041645D01*
X015121Y041645D02*
X014301Y041645D01*
X014301Y041703D02*
X015121Y041703D01*
X015111Y041703D02*
X015431Y041703D01*
X015441Y041703D02*
X016601Y041703D01*
X016608Y041703D02*
X017241Y041703D01*
X017211Y041703D02*
X017801Y041703D01*
X017801Y041762D02*
X017211Y041762D01*
X017241Y041762D02*
X016610Y041762D01*
X016601Y041762D02*
X015441Y041762D01*
X015431Y041762D02*
X015111Y041762D01*
X015111Y041770D02*
X015211Y041880D01*
X015281Y041980D01*
X015331Y042120D01*
X015351Y042370D01*
X015351Y044190D01*
X015151Y044190D01*
X015151Y044240D01*
X015431Y044240D01*
X015431Y041490D01*
X015111Y041490D01*
X015111Y041770D01*
X015121Y041762D02*
X014301Y041762D01*
X014301Y041820D02*
X015091Y041820D01*
X015156Y041820D02*
X015431Y041820D01*
X015441Y041820D02*
X016583Y041820D01*
X016601Y041800D02*
X016471Y041950D01*
X016411Y042100D01*
X016391Y042260D01*
X016381Y042860D01*
X016261Y042830D01*
X016121Y042810D01*
X015971Y042840D01*
X015831Y042910D01*
X015751Y042970D01*
X015631Y043090D01*
X015561Y043200D01*
X015521Y043320D01*
X015481Y043470D01*
X015491Y043600D01*
X015521Y043740D01*
X015591Y043880D01*
X015681Y043970D01*
X015801Y044060D01*
X015901Y044120D01*
X016041Y044160D01*
X016151Y044170D01*
X016271Y044150D01*
X016361Y044120D01*
X016361Y044240D01*
X015441Y044240D01*
X015441Y041490D01*
X016601Y041490D01*
X017241Y041490D01*
X017241Y042530D01*
X017181Y042550D01*
X017091Y042650D01*
X017021Y042740D01*
X017001Y042860D01*
X017001Y044240D01*
X016371Y044240D01*
X016371Y044160D01*
X016361Y044190D01*
X016811Y044190D01*
X016811Y042240D01*
X016821Y042190D01*
X016861Y042130D01*
X016911Y042080D01*
X016611Y041780D01*
X016601Y041490D01*
X016601Y041800D01*
X016651Y041820D02*
X017241Y041820D01*
X017211Y041820D02*
X017801Y041820D01*
X017801Y041879D02*
X017211Y041879D01*
X017241Y041879D02*
X016709Y041879D01*
X016768Y041937D02*
X017241Y041937D01*
X017211Y041937D02*
X017801Y041937D01*
X017801Y041996D02*
X017211Y041996D01*
X017241Y041996D02*
X016826Y041996D01*
X016885Y042054D02*
X017241Y042054D01*
X017211Y042054D02*
X017801Y042054D01*
X017801Y042113D02*
X017211Y042113D01*
X017241Y042113D02*
X016878Y042113D01*
X016833Y042171D02*
X017241Y042171D01*
X017211Y042171D02*
X017801Y042171D01*
X017801Y042230D02*
X017211Y042230D01*
X017241Y042230D02*
X016813Y042230D01*
X016811Y042288D02*
X017241Y042288D01*
X017211Y042288D02*
X017801Y042288D01*
X017801Y042347D02*
X017211Y042347D01*
X017241Y042347D02*
X016811Y042347D01*
X016811Y042405D02*
X017241Y042405D01*
X017211Y042405D02*
X017801Y042405D01*
X017801Y042464D02*
X017211Y042464D01*
X017241Y042464D02*
X016811Y042464D01*
X016811Y042522D02*
X017241Y042522D01*
X017211Y042522D02*
X017801Y042522D01*
X017801Y042581D02*
X017261Y042581D01*
X017320Y042639D02*
X017801Y042639D01*
X017801Y042698D02*
X017378Y042698D01*
X017437Y042756D02*
X017801Y042756D01*
X017801Y042815D02*
X017495Y042815D01*
X017475Y042873D02*
X017801Y042873D01*
X017801Y042932D02*
X017425Y042932D01*
X017411Y042990D02*
X017801Y042990D01*
X017801Y043049D02*
X017411Y043049D01*
X017411Y043107D02*
X017801Y043107D01*
X017801Y043166D02*
X017411Y043166D01*
X017411Y043224D02*
X017801Y043224D01*
X017801Y043283D02*
X017411Y043283D01*
X017411Y043341D02*
X017801Y043341D01*
X017801Y043400D02*
X017411Y043400D01*
X017411Y043458D02*
X017801Y043458D01*
X017801Y043517D02*
X017411Y043517D01*
X017411Y043575D02*
X017801Y043575D01*
X017801Y043634D02*
X017411Y043634D01*
X017411Y043692D02*
X017801Y043692D01*
X017801Y043751D02*
X017411Y043751D01*
X017411Y043809D02*
X017801Y043809D01*
X017801Y043868D02*
X017411Y043868D01*
X017411Y043926D02*
X017801Y043926D01*
X017801Y043985D02*
X017411Y043985D01*
X017411Y044043D02*
X017801Y044043D01*
X017801Y044102D02*
X017411Y044102D01*
X017411Y044160D02*
X017801Y044160D01*
X017801Y044219D02*
X017005Y044219D01*
X017001Y044219D02*
X016371Y044219D01*
X016361Y044219D02*
X015441Y044219D01*
X015431Y044219D02*
X015151Y044219D01*
X014301Y044219D01*
X014301Y044277D02*
X014997Y044277D01*
X014935Y044336D02*
X014301Y044336D01*
X014301Y044394D02*
X014904Y044394D01*
X014887Y044453D02*
X014301Y044453D01*
X014301Y044500D02*
X014891Y044480D01*
X014891Y044560D01*
X014951Y044640D01*
X015011Y044700D01*
X015081Y044720D01*
X015161Y044720D01*
X015231Y044710D01*
X015281Y044680D01*
X015321Y044640D01*
X015351Y044590D01*
X015361Y044560D01*
X015401Y044560D01*
X015451Y044580D01*
X015511Y044610D01*
X015561Y044630D01*
X015621Y044650D01*
X015661Y044650D01*
X015711Y044630D01*
X015751Y044600D01*
X015801Y044560D01*
X015841Y044510D01*
X015861Y044470D01*
X015891Y044430D01*
X015931Y044490D01*
X015981Y044590D01*
X016021Y044650D01*
X016061Y044710D01*
X016101Y044760D01*
X016131Y044780D01*
X016181Y044790D01*
X016211Y044780D01*
X016241Y044760D01*
X016281Y044710D01*
X016321Y044650D01*
X016341Y044590D01*
X016361Y044550D01*
X016381Y044500D01*
X016401Y044460D01*
X016421Y044430D01*
X016441Y044410D01*
X016471Y044430D01*
X016511Y044490D01*
X016541Y044540D01*
X016581Y044590D01*
X016631Y044640D01*
X016691Y044650D01*
X016761Y044650D01*
X016821Y044630D01*
X016851Y044610D01*
X016891Y044580D01*
X016931Y044560D01*
X016971Y044560D01*
X017011Y044630D01*
X017071Y044690D01*
X017131Y044720D01*
X017181Y044730D01*
X017241Y044730D01*
X017301Y044710D01*
X017351Y044680D01*
X017391Y044640D01*
X017421Y044600D01*
X017441Y044550D01*
X017451Y044500D01*
X017801Y044500D01*
X017801Y044990D01*
X014301Y044990D01*
X014301Y044500D01*
X014301Y044511D02*
X014891Y044511D01*
X014882Y044511D02*
X014301Y044511D01*
X014301Y044570D02*
X014898Y044570D01*
X014942Y044628D02*
X014301Y044628D01*
X014301Y044687D02*
X014997Y044687D01*
X015270Y044687D02*
X016045Y044687D01*
X016006Y044628D02*
X015713Y044628D01*
X015789Y044570D02*
X015970Y044570D01*
X015941Y044511D02*
X015840Y044511D01*
X015874Y044453D02*
X015906Y044453D01*
X016078Y044394D02*
X016255Y044394D01*
X016224Y044453D02*
X016107Y044453D01*
X016139Y044511D02*
X016208Y044511D01*
X016189Y044570D02*
X016170Y044570D01*
X016328Y044628D02*
X016619Y044628D01*
X016564Y044570D02*
X016351Y044570D01*
X016376Y044511D02*
X016523Y044511D01*
X016486Y044453D02*
X016406Y044453D01*
X016297Y044336D02*
X016048Y044336D01*
X016019Y044277D02*
X016345Y044277D01*
X016361Y044160D02*
X016210Y044160D01*
X016371Y044160D02*
X016371Y044160D01*
X016550Y044277D02*
X017087Y044277D01*
X017020Y044336D02*
X016595Y044336D01*
X016636Y044394D02*
X016956Y044394D01*
X016976Y044570D02*
X016911Y044570D01*
X016823Y044628D02*
X017010Y044628D01*
X017067Y044687D02*
X016296Y044687D01*
X016253Y044745D02*
X017801Y044745D01*
X017801Y044687D02*
X017340Y044687D01*
X017400Y044628D02*
X017801Y044628D01*
X017801Y044570D02*
X017433Y044570D01*
X017448Y044511D02*
X017801Y044511D01*
X017457Y044511D01*
X017447Y044453D02*
X017801Y044453D01*
X017801Y044394D02*
X017429Y044394D01*
X017403Y044336D02*
X017801Y044336D01*
X017801Y044277D02*
X017333Y044277D01*
X017001Y044160D02*
X016811Y044160D01*
X016811Y044102D02*
X017001Y044102D01*
X017001Y044043D02*
X016811Y044043D01*
X016811Y043985D02*
X017001Y043985D01*
X017001Y043926D02*
X016811Y043926D01*
X016811Y043868D02*
X017001Y043868D01*
X017001Y043809D02*
X016811Y043809D01*
X016811Y043751D02*
X017001Y043751D01*
X017001Y043692D02*
X016811Y043692D01*
X016811Y043634D02*
X017001Y043634D01*
X017001Y043575D02*
X016811Y043575D01*
X016811Y043517D02*
X017001Y043517D01*
X017001Y043458D02*
X016811Y043458D01*
X016811Y043400D02*
X017001Y043400D01*
X017001Y043341D02*
X016811Y043341D01*
X016811Y043283D02*
X017001Y043283D01*
X017001Y043224D02*
X016811Y043224D01*
X016811Y043166D02*
X017001Y043166D01*
X017001Y043107D02*
X016811Y043107D01*
X016811Y043049D02*
X017001Y043049D01*
X017001Y042990D02*
X016811Y042990D01*
X016811Y042932D02*
X017001Y042932D01*
X017001Y042873D02*
X016811Y042873D01*
X016811Y042815D02*
X017008Y042815D01*
X017018Y042756D02*
X016811Y042756D01*
X016811Y042698D02*
X017054Y042698D01*
X017100Y042639D02*
X016811Y042639D01*
X016811Y042581D02*
X017153Y042581D01*
X016386Y042522D02*
X015441Y042522D01*
X015431Y042522D02*
X015351Y042522D01*
X015351Y042464D02*
X015431Y042464D01*
X015441Y042464D02*
X016387Y042464D01*
X016388Y042405D02*
X015441Y042405D01*
X015431Y042405D02*
X015351Y042405D01*
X015349Y042347D02*
X015431Y042347D01*
X015441Y042347D02*
X016389Y042347D01*
X016390Y042288D02*
X015441Y042288D01*
X015431Y042288D02*
X015344Y042288D01*
X015339Y042230D02*
X015431Y042230D01*
X015441Y042230D02*
X016394Y042230D01*
X016402Y042171D02*
X015441Y042171D01*
X015431Y042171D02*
X015335Y042171D01*
X015328Y042113D02*
X015431Y042113D01*
X015441Y042113D02*
X016409Y042113D01*
X016429Y042054D02*
X015441Y042054D01*
X015431Y042054D02*
X015307Y042054D01*
X015286Y041996D02*
X015431Y041996D01*
X015441Y041996D02*
X016452Y041996D01*
X016482Y041937D02*
X015441Y041937D01*
X015431Y041937D02*
X015251Y041937D01*
X015209Y041879D02*
X015431Y041879D01*
X015441Y041879D02*
X016532Y041879D01*
X016385Y042581D02*
X015441Y042581D01*
X015431Y042581D02*
X015351Y042581D01*
X015351Y042639D02*
X015431Y042639D01*
X015441Y042639D02*
X016384Y042639D01*
X016383Y042698D02*
X015441Y042698D01*
X015431Y042698D02*
X015351Y042698D01*
X015351Y042756D02*
X015431Y042756D01*
X015441Y042756D02*
X016382Y042756D01*
X016381Y042815D02*
X016153Y042815D01*
X016097Y042815D02*
X015441Y042815D01*
X015431Y042815D02*
X015351Y042815D01*
X015351Y042873D02*
X015431Y042873D01*
X015441Y042873D02*
X015904Y042873D01*
X015802Y042932D02*
X015441Y042932D01*
X015431Y042932D02*
X015351Y042932D01*
X015351Y042990D02*
X015431Y042990D01*
X015441Y042990D02*
X015730Y042990D01*
X015672Y043049D02*
X015441Y043049D01*
X015431Y043049D02*
X015351Y043049D01*
X015351Y043107D02*
X015431Y043107D01*
X015441Y043107D02*
X015620Y043107D01*
X015582Y043166D02*
X015441Y043166D01*
X015431Y043166D02*
X015351Y043166D01*
X015351Y043224D02*
X015431Y043224D01*
X015441Y043224D02*
X015553Y043224D01*
X015533Y043283D02*
X015441Y043283D01*
X015431Y043283D02*
X015351Y043283D01*
X015351Y043341D02*
X015431Y043341D01*
X015441Y043341D02*
X015515Y043341D01*
X015499Y043400D02*
X015441Y043400D01*
X015431Y043400D02*
X015351Y043400D01*
X015351Y043458D02*
X015431Y043458D01*
X015441Y043458D02*
X015484Y043458D01*
X015484Y043517D02*
X015441Y043517D01*
X015431Y043517D02*
X015351Y043517D01*
X015351Y043575D02*
X015431Y043575D01*
X015441Y043575D02*
X015489Y043575D01*
X015498Y043634D02*
X015441Y043634D01*
X015431Y043634D02*
X015351Y043634D01*
X015351Y043692D02*
X015431Y043692D01*
X015441Y043692D02*
X015510Y043692D01*
X015526Y043751D02*
X015441Y043751D01*
X015431Y043751D02*
X015351Y043751D01*
X015351Y043809D02*
X015431Y043809D01*
X015441Y043809D02*
X015555Y043809D01*
X015584Y043868D02*
X015441Y043868D01*
X015431Y043868D02*
X015351Y043868D01*
X015351Y043926D02*
X015431Y043926D01*
X015441Y043926D02*
X015637Y043926D01*
X015700Y043985D02*
X015441Y043985D01*
X015431Y043985D02*
X015351Y043985D01*
X015351Y044043D02*
X015431Y044043D01*
X015441Y044043D02*
X015778Y044043D01*
X015870Y044102D02*
X015441Y044102D01*
X015431Y044102D02*
X015351Y044102D01*
X015351Y044160D02*
X015431Y044160D01*
X015441Y044160D02*
X016042Y044160D01*
X015803Y044277D02*
X015260Y044277D01*
X015323Y044336D02*
X015752Y044336D01*
X015709Y044394D02*
X015464Y044394D01*
X015589Y044453D02*
X015650Y044453D01*
X015556Y044628D02*
X015328Y044628D01*
X015357Y044570D02*
X015425Y044570D01*
X014931Y044160D02*
X014301Y044160D01*
X014301Y044102D02*
X014931Y044102D01*
X014931Y044043D02*
X014301Y044043D01*
X014301Y043985D02*
X014931Y043985D01*
X014931Y043926D02*
X014301Y043926D01*
X014301Y043868D02*
X014931Y043868D01*
X014931Y043809D02*
X014301Y043809D01*
X014301Y043751D02*
X014931Y043751D01*
X014931Y043692D02*
X014301Y043692D01*
X014301Y043634D02*
X014931Y043634D01*
X014931Y043575D02*
X014301Y043575D01*
X014301Y043517D02*
X014931Y043517D01*
X014931Y043458D02*
X014301Y043458D01*
X014301Y043400D02*
X014931Y043400D01*
X014931Y043341D02*
X014301Y043341D01*
X014301Y043283D02*
X014931Y043283D01*
X014931Y043224D02*
X014301Y043224D01*
X014301Y043166D02*
X014931Y043166D01*
X014931Y043107D02*
X014301Y043107D01*
X014301Y043049D02*
X014931Y043049D01*
X014931Y042990D02*
X014301Y042990D01*
X014301Y042932D02*
X014931Y042932D01*
X014931Y042873D02*
X014301Y042873D01*
X014301Y042815D02*
X014931Y042815D01*
X014931Y042756D02*
X014301Y042756D01*
X014301Y042698D02*
X014931Y042698D01*
X014931Y042639D02*
X014301Y042639D01*
X014301Y042581D02*
X014931Y042581D01*
X014931Y042522D02*
X014301Y042522D01*
X014301Y042464D02*
X014931Y042464D01*
X014925Y042405D02*
X014301Y042405D01*
X014301Y042347D02*
X014918Y042347D01*
X014912Y042288D02*
X014301Y042288D01*
X014301Y042230D02*
X014899Y042230D01*
X014876Y042171D02*
X014301Y042171D01*
X014301Y042113D02*
X014830Y042113D01*
X014865Y042054D02*
X014301Y042054D01*
X014301Y041996D02*
X014922Y041996D01*
X014978Y041937D02*
X014301Y041937D01*
X014301Y041879D02*
X015035Y041879D01*
X015852Y043480D02*
X015854Y043512D01*
X015860Y043543D01*
X015869Y043574D01*
X015883Y043603D01*
X015900Y043630D01*
X015920Y043654D01*
X015942Y043677D01*
X015968Y043696D01*
X015996Y043712D01*
X016025Y043724D01*
X016056Y043733D01*
X016087Y043738D01*
X016119Y043739D01*
X016151Y043736D01*
X016182Y043729D01*
X016212Y043719D01*
X016240Y043704D01*
X016267Y043687D01*
X016291Y043666D01*
X016313Y043642D01*
X016331Y043616D01*
X016346Y043588D01*
X016358Y043559D01*
X016366Y043528D01*
X016370Y043496D01*
X016370Y043464D01*
X016366Y043432D01*
X016358Y043401D01*
X016346Y043372D01*
X016331Y043344D01*
X016313Y043318D01*
X016291Y043294D01*
X016267Y043273D01*
X016241Y043256D01*
X016212Y043241D01*
X016182Y043231D01*
X016151Y043224D01*
X016119Y043221D01*
X016087Y043222D01*
X016056Y043227D01*
X016025Y043236D01*
X015996Y043248D01*
X015968Y043264D01*
X015942Y043283D01*
X015920Y043306D01*
X015900Y043330D01*
X015883Y043357D01*
X015869Y043386D01*
X015860Y043417D01*
X015854Y043448D01*
X015852Y043480D01*
X016079Y043490D02*
X016081Y043499D01*
X016086Y043506D01*
X016094Y043511D01*
X016103Y043512D01*
X016112Y043509D01*
X016119Y043503D01*
X016123Y043495D01*
X016123Y043485D01*
X016119Y043477D01*
X016112Y043471D01*
X016103Y043468D01*
X016094Y043469D01*
X016086Y043474D01*
X016081Y043481D01*
X016079Y043490D01*
X016057Y043490D02*
X016059Y043504D01*
X016064Y043517D01*
X016073Y043528D01*
X016084Y043537D01*
X016097Y043542D01*
X016111Y043544D01*
X016125Y043542D01*
X016138Y043537D01*
X016149Y043528D01*
X016158Y043517D01*
X016163Y043504D01*
X016165Y043490D01*
X016163Y043476D01*
X016158Y043463D01*
X016149Y043452D01*
X016138Y043443D01*
X016125Y043438D01*
X016111Y043436D01*
X016097Y043438D01*
X016084Y043443D01*
X016073Y043452D01*
X016064Y043463D01*
X016059Y043476D01*
X016057Y043490D01*
X015902Y043490D02*
X015904Y043518D01*
X015910Y043546D01*
X015919Y043573D01*
X015932Y043599D01*
X015949Y043622D01*
X015968Y043643D01*
X015990Y043661D01*
X016015Y043676D01*
X016041Y043687D01*
X016068Y043695D01*
X016097Y043699D01*
X016125Y043699D01*
X016154Y043695D01*
X016181Y043687D01*
X016207Y043676D01*
X016232Y043661D01*
X016254Y043643D01*
X016273Y043622D01*
X016290Y043599D01*
X016303Y043573D01*
X016312Y043546D01*
X016318Y043518D01*
X016320Y043490D01*
X016318Y043462D01*
X016312Y043434D01*
X016303Y043407D01*
X016290Y043381D01*
X016273Y043358D01*
X016254Y043337D01*
X016232Y043319D01*
X016207Y043304D01*
X016181Y043293D01*
X016154Y043285D01*
X016125Y043281D01*
X016097Y043281D01*
X016068Y043285D01*
X016041Y043293D01*
X016015Y043304D01*
X015990Y043319D01*
X015968Y043337D01*
X015949Y043358D01*
X015932Y043381D01*
X015919Y043407D01*
X015910Y043434D01*
X015904Y043462D01*
X015902Y043490D01*
X016019Y043490D02*
X016021Y043510D01*
X016027Y043529D01*
X016036Y043547D01*
X016049Y043562D01*
X016064Y043575D01*
X016082Y043584D01*
X016101Y043590D01*
X016121Y043592D01*
X016141Y043590D01*
X016160Y043584D01*
X016178Y043575D01*
X016193Y043562D01*
X016206Y043547D01*
X016215Y043529D01*
X016221Y043510D01*
X016223Y043490D01*
X016221Y043470D01*
X016215Y043451D01*
X016206Y043433D01*
X016193Y043418D01*
X016178Y043405D01*
X016160Y043396D01*
X016141Y043390D01*
X016121Y043388D01*
X016101Y043390D01*
X016082Y043396D01*
X016064Y043405D01*
X016049Y043418D01*
X016036Y043433D01*
X016027Y043451D01*
X016021Y043470D01*
X016019Y043490D01*
X015963Y043490D02*
X015965Y043515D01*
X015971Y043539D01*
X015980Y043562D01*
X015993Y043583D01*
X016009Y043602D01*
X016028Y043618D01*
X016049Y043631D01*
X016072Y043640D01*
X016096Y043646D01*
X016121Y043648D01*
X016146Y043646D01*
X016170Y043640D01*
X016193Y043631D01*
X016214Y043618D01*
X016233Y043602D01*
X016249Y043583D01*
X016262Y043562D01*
X016271Y043539D01*
X016277Y043515D01*
X016279Y043490D01*
X016277Y043465D01*
X016271Y043441D01*
X016262Y043418D01*
X016249Y043397D01*
X016233Y043378D01*
X016214Y043362D01*
X016193Y043349D01*
X016170Y043340D01*
X016146Y043334D01*
X016121Y043332D01*
X016096Y043334D01*
X016072Y043340D01*
X016049Y043349D01*
X016028Y043362D01*
X016009Y043378D01*
X015993Y043397D01*
X015980Y043418D01*
X015971Y043441D01*
X015965Y043465D01*
X015963Y043490D01*
X016683Y044453D02*
X016771Y044453D01*
X016089Y044745D02*
X014301Y044745D01*
X014301Y044804D02*
X017801Y044804D01*
X017801Y044862D02*
X014301Y044862D01*
X014301Y044921D02*
X017801Y044921D01*
X017801Y044979D02*
X014301Y044979D01*
X011001Y044390D02*
X010401Y043390D01*
X009301Y043390D01*
X008701Y044390D01*
X009301Y045390D01*
X010401Y045390D01*
X011001Y044390D01*
X009301Y044390D02*
X009303Y044437D01*
X009309Y044483D01*
X009319Y044529D01*
X009332Y044573D01*
X009350Y044617D01*
X009371Y044658D01*
X009395Y044698D01*
X009423Y044736D01*
X009454Y044771D01*
X009488Y044803D01*
X009524Y044832D01*
X009563Y044858D01*
X009603Y044881D01*
X009646Y044900D01*
X009690Y044916D01*
X009735Y044928D01*
X009781Y044936D01*
X009828Y044940D01*
X009874Y044940D01*
X009921Y044936D01*
X009967Y044928D01*
X010012Y044916D01*
X010056Y044900D01*
X010099Y044881D01*
X010139Y044858D01*
X010178Y044832D01*
X010214Y044803D01*
X010248Y044771D01*
X010279Y044736D01*
X010307Y044698D01*
X010331Y044658D01*
X010352Y044617D01*
X010370Y044573D01*
X010383Y044529D01*
X010393Y044483D01*
X010399Y044437D01*
X010401Y044390D01*
X010399Y044343D01*
X010393Y044297D01*
X010383Y044251D01*
X010370Y044207D01*
X010352Y044163D01*
X010331Y044122D01*
X010307Y044082D01*
X010279Y044044D01*
X010248Y044009D01*
X010214Y043977D01*
X010178Y043948D01*
X010139Y043922D01*
X010099Y043899D01*
X010056Y043880D01*
X010012Y043864D01*
X009967Y043852D01*
X009921Y043844D01*
X009874Y043840D01*
X009828Y043840D01*
X009781Y043844D01*
X009735Y043852D01*
X009690Y043864D01*
X009646Y043880D01*
X009603Y043899D01*
X009563Y043922D01*
X009524Y043948D01*
X009488Y043977D01*
X009454Y044009D01*
X009423Y044044D01*
X009395Y044082D01*
X009371Y044122D01*
X009350Y044163D01*
X009332Y044207D01*
X009319Y044251D01*
X009309Y044297D01*
X009303Y044343D01*
X009301Y044390D01*
X008251Y045390D02*
X007551Y045390D01*
X008251Y045390D02*
X008251Y047990D01*
X028251Y043240D02*
X028251Y041540D01*
X028301Y041540D01*
X028301Y040940D01*
X028251Y040940D01*
X028451Y040990D01*
X028451Y041440D01*
X028651Y041440D01*
X028751Y041440D01*
X028751Y042740D01*
X031251Y042740D01*
X031251Y036740D01*
X028751Y036740D01*
X028751Y037040D01*
X028751Y038440D01*
X028651Y038440D01*
X028451Y038440D01*
X028451Y038240D01*
X028451Y037240D01*
X028451Y037040D01*
X028651Y037040D01*
X028751Y037040D01*
X028451Y037240D02*
X028251Y037390D01*
X028251Y038940D01*
X028651Y038940D01*
X028751Y038940D01*
X028751Y038440D01*
X028451Y038240D02*
X028251Y038090D01*
X028251Y036240D01*
X031751Y036240D01*
X031751Y036740D01*
X031851Y036740D01*
X031851Y037240D01*
X031751Y037240D01*
X031751Y039490D01*
X031851Y039490D01*
X031851Y039990D01*
X031751Y039990D01*
X031751Y042240D01*
X031851Y042240D01*
X031851Y042740D01*
X031751Y042740D01*
X031751Y043240D01*
X028251Y043240D01*
X028751Y041440D02*
X028751Y040540D01*
X028651Y040540D01*
X028451Y040540D01*
X028251Y040540D01*
X028251Y040940D01*
X028451Y040990D02*
X028451Y040540D01*
X028251Y040540D02*
X028251Y038940D01*
X028751Y038940D02*
X029051Y038940D01*
X029051Y040540D01*
X028751Y040540D01*
X033932Y043280D02*
X033932Y043317D01*
X033932Y043280D02*
X034570Y043280D01*
X034570Y043317D01*
X034570Y043634D02*
X034570Y043671D01*
X034570Y044009D02*
X034570Y044046D01*
X034570Y044363D02*
X034570Y044400D01*
X033932Y044400D01*
X033932Y044363D01*
X033932Y044046D02*
X033932Y043634D01*
X038251Y043240D02*
X038251Y041540D01*
X038301Y041540D01*
X038301Y040940D01*
X038251Y040940D01*
X038451Y040990D01*
X038451Y041440D01*
X038651Y041440D01*
X038751Y041440D01*
X038751Y042740D01*
X041251Y042740D01*
X041251Y036740D01*
X038751Y036740D01*
X038751Y037040D01*
X038751Y038440D01*
X038651Y038440D01*
X038451Y038440D01*
X038451Y038240D01*
X038451Y037240D01*
X038451Y037040D01*
X038651Y037040D01*
X038751Y037040D01*
X038451Y037240D02*
X038251Y037390D01*
X038251Y038940D01*
X038651Y038940D01*
X038751Y038940D01*
X038751Y038440D01*
X038451Y038240D02*
X038251Y038090D01*
X038251Y036240D01*
X041751Y036240D01*
X041751Y036740D01*
X041851Y036740D01*
X041851Y037240D01*
X041751Y037240D01*
X041751Y039490D01*
X041851Y039490D01*
X041851Y039990D01*
X041751Y039990D01*
X041751Y042240D01*
X041851Y042240D01*
X041851Y042740D01*
X041751Y042740D01*
X041751Y043240D01*
X038251Y043240D01*
X038751Y041440D02*
X038751Y040540D01*
X038651Y040540D01*
X038451Y040540D01*
X038251Y040540D01*
X038251Y040940D01*
X038451Y040990D02*
X038451Y040540D01*
X038251Y040540D02*
X038251Y038940D01*
X038751Y038940D02*
X039051Y038940D01*
X039051Y040540D01*
X038751Y040540D01*
X038201Y032890D02*
X037701Y032890D01*
X037451Y032640D01*
X037201Y032890D01*
X036701Y032890D01*
X036451Y032640D01*
X036201Y032890D01*
X035701Y032890D01*
X035451Y032640D01*
X035201Y032890D01*
X034701Y032890D01*
X034451Y032640D01*
X034201Y032890D01*
X033701Y032890D01*
X033451Y032640D01*
X033201Y032890D01*
X032701Y032890D01*
X032451Y032640D01*
X032201Y032890D01*
X031701Y032890D01*
X031451Y032640D01*
X031201Y032890D01*
X030701Y032890D01*
X030451Y032640D01*
X030451Y031890D01*
X030451Y031140D01*
X030701Y030890D01*
X031201Y030890D01*
X031451Y031140D01*
X031701Y030890D01*
X032201Y030890D01*
X032451Y031140D01*
X032701Y030890D01*
X033201Y030890D01*
X033451Y031140D01*
X033701Y030890D01*
X034201Y030890D01*
X034451Y031140D01*
X034701Y030890D01*
X035201Y030890D01*
X035451Y031140D01*
X035701Y030890D01*
X036201Y030890D01*
X036451Y031140D01*
X036701Y030890D01*
X037201Y030890D01*
X037451Y031140D01*
X037701Y030890D01*
X038201Y030890D01*
X038451Y031140D01*
X038451Y032640D01*
X038201Y032890D01*
X026790Y030902D02*
X026790Y029879D01*
X026788Y029859D01*
X026784Y029839D01*
X026776Y029821D01*
X026766Y029804D01*
X026753Y029788D01*
X026737Y029775D01*
X026720Y029765D01*
X026702Y029757D01*
X026682Y029753D01*
X026662Y029751D01*
X025638Y029751D01*
X025618Y029753D01*
X025598Y029757D01*
X025580Y029765D01*
X025563Y029775D01*
X025547Y029788D01*
X025534Y029804D01*
X025524Y029821D01*
X025516Y029839D01*
X025512Y029859D01*
X025510Y029879D01*
X025510Y030918D01*
X025510Y030902D02*
X025512Y030922D01*
X025516Y030942D01*
X025524Y030960D01*
X025534Y030977D01*
X025547Y030993D01*
X025563Y031006D01*
X025580Y031016D01*
X025598Y031024D01*
X025618Y031028D01*
X025638Y031030D01*
X026662Y031030D01*
X026682Y031028D01*
X026702Y031024D01*
X026720Y031016D01*
X026737Y031006D01*
X026753Y030993D01*
X026766Y030977D01*
X026776Y030960D01*
X026784Y030942D01*
X026788Y030922D01*
X026790Y030902D01*
X050371Y037610D02*
X050371Y040370D01*
X052991Y040370D01*
X053131Y040230D01*
X053131Y037610D01*
X050371Y037610D01*
X052690Y040070D02*
X052692Y040093D01*
X052698Y040116D01*
X052707Y040137D01*
X052720Y040157D01*
X052736Y040174D01*
X052754Y040188D01*
X052774Y040199D01*
X052796Y040207D01*
X052819Y040211D01*
X052843Y040211D01*
X052866Y040207D01*
X052888Y040199D01*
X052908Y040188D01*
X052926Y040174D01*
X052942Y040157D01*
X052955Y040137D01*
X052964Y040116D01*
X052970Y040093D01*
X052972Y040070D01*
X052970Y040047D01*
X052964Y040024D01*
X052955Y040003D01*
X052942Y039983D01*
X052926Y039966D01*
X052908Y039952D01*
X052888Y039941D01*
X052866Y039933D01*
X052843Y039929D01*
X052819Y039929D01*
X052796Y039933D01*
X052774Y039941D01*
X052754Y039952D01*
X052736Y039966D01*
X052720Y039983D01*
X052707Y040003D01*
X052698Y040024D01*
X052692Y040047D01*
X052690Y040070D01*
X057482Y040063D02*
X057482Y040100D01*
X058120Y040100D01*
X058120Y040063D01*
X058120Y039746D02*
X058120Y039334D01*
X058120Y039017D02*
X058120Y038980D01*
X057482Y038980D01*
X057482Y039017D01*
X057482Y039334D02*
X057482Y039371D01*
X057482Y039709D02*
X057482Y039746D01*
X060851Y039540D02*
X061101Y039390D01*
X061601Y039390D01*
X061851Y039240D01*
X061601Y039390D02*
X061851Y039540D01*
X061851Y040240D02*
X061601Y040390D01*
X061851Y040540D01*
X061601Y040390D02*
X061101Y040390D01*
X060851Y040540D01*
X061101Y040390D02*
X060851Y040240D01*
X061101Y039390D02*
X060851Y039240D01*
X060851Y038540D02*
X061101Y038390D01*
X061601Y038390D01*
X061851Y038540D01*
X061601Y038390D02*
X061851Y038240D01*
X061851Y037540D02*
X061601Y037390D01*
X061101Y037390D01*
X060851Y037540D01*
X060851Y038240D02*
X061101Y038390D01*
X061401Y036190D02*
X062901Y036190D01*
X063151Y035940D01*
X063151Y035440D01*
X062901Y035190D01*
X061401Y035190D01*
X061151Y034940D01*
X061151Y034440D01*
X061401Y034190D01*
X062901Y034190D01*
X063151Y033940D01*
X063151Y033440D01*
X062901Y033190D01*
X061401Y033190D01*
X061151Y032940D01*
X061151Y032440D01*
X061401Y032190D01*
X062901Y032190D01*
X063151Y031940D01*
X063151Y031440D01*
X062901Y031190D01*
X061401Y031190D01*
X061151Y030940D01*
X061151Y030440D01*
X061401Y030190D01*
X062901Y030190D01*
X063151Y029940D01*
X063151Y029440D01*
X062901Y029190D01*
X063151Y028940D01*
X063151Y028440D01*
X062901Y028190D01*
X061401Y028190D01*
X061151Y028440D01*
X061151Y028940D01*
X061401Y029190D01*
X062901Y029190D01*
X062901Y030190D02*
X063151Y030440D01*
X063151Y030940D01*
X062901Y031190D01*
X062901Y032190D02*
X063151Y032440D01*
X063151Y032940D01*
X062901Y033190D01*
X062901Y034190D02*
X063151Y034440D01*
X063151Y034940D01*
X062901Y035190D01*
X061401Y035190D02*
X061151Y035440D01*
X061151Y035940D01*
X061401Y036190D01*
X061401Y034190D02*
X061151Y033940D01*
X061151Y033440D01*
X061401Y033190D01*
X061401Y032190D02*
X061151Y031940D01*
X061151Y031440D01*
X061401Y031190D01*
X061401Y030190D02*
X061151Y029940D01*
X061151Y029440D01*
X061401Y029190D01*
X054551Y030490D02*
X054301Y030240D01*
X053801Y030240D01*
X053551Y030490D01*
X053301Y030240D01*
X052801Y030240D01*
X052551Y030490D01*
X052301Y030240D01*
X051801Y030240D01*
X051551Y030490D01*
X051551Y031990D01*
X051801Y032240D01*
X052301Y032240D01*
X052551Y031990D01*
X052801Y032240D01*
X053301Y032240D01*
X053551Y031990D01*
X053801Y032240D01*
X054301Y032240D01*
X054551Y031990D01*
X054551Y030490D01*
X060851Y041240D02*
X061101Y041390D01*
X060851Y041540D01*
X061101Y041390D02*
X061601Y041390D01*
X061851Y041540D01*
X061601Y041390D02*
X061851Y041240D01*
X061851Y042240D02*
X061601Y042390D01*
X061851Y042540D01*
X061601Y042390D02*
X061101Y042390D01*
X060851Y042540D01*
X061101Y042390D02*
X060851Y042240D01*
X060851Y043240D02*
X061101Y043390D01*
X061601Y043390D01*
X061851Y043240D01*
X067381Y043287D02*
X067381Y042993D01*
X067454Y042920D01*
X067601Y042920D01*
X067674Y042993D01*
X067674Y043287D02*
X067601Y043360D01*
X067454Y043360D01*
X067381Y043287D01*
X068881Y043214D02*
X068881Y042920D01*
X068881Y043140D02*
X069174Y043140D01*
X069174Y043214D02*
X069174Y042920D01*
X069174Y043214D02*
X069027Y043360D01*
X068881Y043214D01*
X069351Y043390D02*
X069851Y043390D01*
X069851Y042140D01*
X069851Y041140D01*
X069851Y040640D01*
X069851Y039140D01*
X069851Y038640D01*
X069851Y035140D01*
X069851Y034640D01*
X069851Y031140D01*
X069851Y030640D01*
X069851Y027140D01*
X069851Y026640D01*
X069851Y023140D01*
X069851Y022640D01*
X069851Y019140D01*
X069851Y018640D01*
X069851Y015140D01*
X069851Y014640D01*
X069851Y013140D01*
X069851Y012640D01*
X069851Y011640D01*
X069851Y010390D01*
X070851Y010390D01*
X071481Y009760D01*
X071481Y008390D01*
X072101Y008390D01*
X072101Y009390D01*
X074351Y009390D01*
X074351Y044390D01*
X072101Y044390D01*
X072101Y045390D01*
X071481Y045390D01*
X071481Y043890D01*
X070981Y043390D01*
X069851Y043390D01*
X069351Y043390D02*
X069351Y045390D01*
X071481Y045390D01*
X069851Y044390D02*
X069853Y044434D01*
X069859Y044478D01*
X069869Y044521D01*
X069882Y044563D01*
X069899Y044604D01*
X069920Y044643D01*
X069944Y044680D01*
X069971Y044715D01*
X070001Y044747D01*
X070034Y044777D01*
X070070Y044803D01*
X070107Y044827D01*
X070147Y044846D01*
X070188Y044863D01*
X070231Y044875D01*
X070274Y044884D01*
X070318Y044889D01*
X070362Y044890D01*
X070406Y044887D01*
X070450Y044880D01*
X070493Y044869D01*
X070535Y044855D01*
X070575Y044837D01*
X070614Y044815D01*
X070650Y044791D01*
X070684Y044763D01*
X070716Y044732D01*
X070745Y044698D01*
X070771Y044662D01*
X070793Y044624D01*
X070812Y044584D01*
X070827Y044542D01*
X070839Y044500D01*
X070847Y044456D01*
X070851Y044412D01*
X070851Y044368D01*
X070847Y044324D01*
X070839Y044280D01*
X070827Y044238D01*
X070812Y044196D01*
X070793Y044156D01*
X070771Y044118D01*
X070745Y044082D01*
X070716Y044048D01*
X070684Y044017D01*
X070650Y043989D01*
X070614Y043965D01*
X070575Y043943D01*
X070535Y043925D01*
X070493Y043911D01*
X070450Y043900D01*
X070406Y043893D01*
X070362Y043890D01*
X070318Y043891D01*
X070274Y043896D01*
X070231Y043905D01*
X070188Y043917D01*
X070147Y043934D01*
X070107Y043953D01*
X070070Y043977D01*
X070034Y044003D01*
X070001Y044033D01*
X069971Y044065D01*
X069944Y044100D01*
X069920Y044137D01*
X069899Y044176D01*
X069882Y044217D01*
X069869Y044259D01*
X069859Y044302D01*
X069853Y044346D01*
X069851Y044390D01*
X070527Y042860D02*
X070527Y042420D01*
X070381Y042420D02*
X070674Y042420D01*
X070381Y042714D02*
X070527Y042860D01*
X070454Y011360D02*
X070601Y011360D01*
X070674Y011287D01*
X070674Y011214D01*
X070601Y011140D01*
X070674Y011067D01*
X070674Y010993D01*
X070601Y010920D01*
X070454Y010920D01*
X070381Y010993D01*
X070527Y011140D02*
X070601Y011140D01*
X070381Y011287D02*
X070454Y011360D01*
X070841Y011287D02*
X070914Y011360D01*
X071061Y011360D01*
X071135Y011287D01*
X071135Y011214D01*
X070841Y010920D01*
X071135Y010920D01*
X069851Y010390D02*
X069351Y010390D01*
X069351Y008390D01*
X071481Y008390D01*
X069851Y009390D02*
X069853Y009434D01*
X069859Y009478D01*
X069869Y009521D01*
X069882Y009563D01*
X069899Y009604D01*
X069920Y009643D01*
X069944Y009680D01*
X069971Y009715D01*
X070001Y009747D01*
X070034Y009777D01*
X070070Y009803D01*
X070107Y009827D01*
X070147Y009846D01*
X070188Y009863D01*
X070231Y009875D01*
X070274Y009884D01*
X070318Y009889D01*
X070362Y009890D01*
X070406Y009887D01*
X070450Y009880D01*
X070493Y009869D01*
X070535Y009855D01*
X070575Y009837D01*
X070614Y009815D01*
X070650Y009791D01*
X070684Y009763D01*
X070716Y009732D01*
X070745Y009698D01*
X070771Y009662D01*
X070793Y009624D01*
X070812Y009584D01*
X070827Y009542D01*
X070839Y009500D01*
X070847Y009456D01*
X070851Y009412D01*
X070851Y009368D01*
X070847Y009324D01*
X070839Y009280D01*
X070827Y009238D01*
X070812Y009196D01*
X070793Y009156D01*
X070771Y009118D01*
X070745Y009082D01*
X070716Y009048D01*
X070684Y009017D01*
X070650Y008989D01*
X070614Y008965D01*
X070575Y008943D01*
X070535Y008925D01*
X070493Y008911D01*
X070450Y008900D01*
X070406Y008893D01*
X070362Y008890D01*
X070318Y008891D01*
X070274Y008896D01*
X070231Y008905D01*
X070188Y008917D01*
X070147Y008934D01*
X070107Y008953D01*
X070070Y008977D01*
X070034Y009003D01*
X070001Y009033D01*
X069971Y009065D01*
X069944Y009100D01*
X069920Y009137D01*
X069899Y009176D01*
X069882Y009217D01*
X069869Y009259D01*
X069859Y009302D01*
X069853Y009346D01*
X069851Y009390D01*
D19*
X044834Y011884D02*
X044834Y015896D01*
X042017Y020884D02*
X042017Y024896D01*
X022767Y024996D02*
X022334Y024996D01*
X022334Y025784D02*
X022767Y025784D01*
X014057Y028254D02*
X014057Y022526D01*
X008486Y022526D01*
X008486Y028254D01*
X014057Y028254D01*
X008457Y027910D02*
X005042Y027910D01*
X005042Y022870D01*
X008447Y022870D01*
X004992Y023461D02*
X000140Y023461D01*
X000140Y027319D01*
X005002Y027319D01*
X005042Y017910D02*
X008457Y017910D01*
X008486Y018254D02*
X008486Y012526D01*
X014057Y012526D01*
X014057Y018254D01*
X008486Y018254D01*
X005042Y017910D02*
X005042Y012870D01*
X008447Y012870D01*
X004992Y013461D02*
X000140Y013461D01*
X000140Y017319D01*
X005002Y017319D01*
D20*
X041721Y021890D03*
X041721Y022890D03*
X041721Y023890D03*
X045131Y014890D03*
X045131Y013890D03*
X045131Y012890D03*
D21*
X047253Y012447D02*
X048848Y012447D01*
X048848Y013333D01*
X047253Y013333D01*
X047253Y012447D01*
X047908Y013793D02*
X047908Y015387D01*
X048794Y015387D01*
X048794Y013793D01*
X047908Y013793D01*
X039653Y015464D02*
X039653Y016016D01*
X038649Y016016D01*
X038649Y015464D01*
X039653Y015464D01*
X037966Y015397D02*
X037966Y014138D01*
X037336Y014138D01*
X037336Y015397D01*
X037966Y015397D01*
X037966Y016083D02*
X037336Y016083D01*
X037336Y017342D01*
X037966Y017342D01*
X037966Y016083D01*
X033166Y016083D02*
X032536Y016083D01*
X032536Y017342D01*
X033166Y017342D01*
X033166Y016083D01*
X033126Y015842D02*
X033126Y014838D01*
X032575Y014838D01*
X032575Y015842D01*
X033126Y015842D01*
X030113Y019355D02*
X029188Y019355D01*
X029188Y019925D01*
X030113Y019925D01*
X030113Y019355D01*
X032675Y019738D02*
X032675Y020742D01*
X033226Y020742D01*
X033226Y019738D01*
X032675Y019738D01*
X035749Y021864D02*
X036753Y021864D01*
X036753Y022416D01*
X035749Y022416D01*
X035749Y021864D01*
X035709Y024669D02*
X036713Y024669D01*
X036713Y025221D01*
X035709Y025221D01*
X035709Y024669D01*
X035625Y025388D02*
X035625Y026392D01*
X036176Y026392D01*
X036176Y025388D01*
X035625Y025388D01*
X036286Y025384D02*
X037015Y025384D01*
X037015Y026596D01*
X036286Y026596D01*
X036286Y025384D01*
X033215Y025784D02*
X032486Y025784D01*
X032486Y026996D01*
X033215Y026996D01*
X033215Y025784D01*
X032415Y025784D02*
X031686Y025784D01*
X031686Y026996D01*
X032415Y026996D01*
X032415Y025784D01*
X031615Y025784D02*
X030886Y025784D01*
X030886Y026996D01*
X031615Y026996D01*
X031615Y025784D01*
X030815Y025784D02*
X030086Y025784D01*
X030086Y026996D01*
X030815Y026996D01*
X030815Y025784D01*
X030015Y025784D02*
X029286Y025784D01*
X029286Y026996D01*
X030015Y026996D01*
X030015Y025784D01*
X026565Y023946D02*
X026565Y022734D01*
X025836Y022734D01*
X025836Y023946D01*
X026565Y023946D01*
X025465Y023946D02*
X024736Y023946D01*
X024736Y022734D01*
X025465Y022734D01*
X025465Y023946D01*
X024553Y024166D02*
X024553Y023614D01*
X023549Y023614D01*
X023549Y024166D01*
X024553Y024166D01*
X024036Y024227D02*
X024036Y025153D01*
X023465Y025153D01*
X023465Y024227D01*
X024036Y024227D01*
X023266Y024553D02*
X023266Y023627D01*
X022695Y023627D01*
X022695Y024553D01*
X023266Y024553D01*
X022076Y023892D02*
X021525Y023892D01*
X021525Y022888D01*
X022076Y022888D01*
X022076Y023892D01*
X024088Y022675D02*
X025013Y022675D01*
X025013Y022105D01*
X024088Y022105D01*
X024088Y022675D01*
X025188Y022675D02*
X025188Y022105D01*
X026113Y022105D01*
X026113Y022675D01*
X025188Y022675D01*
X026288Y022675D02*
X026288Y022105D01*
X027213Y022105D01*
X027213Y022675D01*
X026288Y022675D01*
X023676Y021492D02*
X023676Y020488D01*
X023125Y020488D01*
X023125Y021492D01*
X023676Y021492D01*
X022486Y020753D02*
X022486Y019827D01*
X021915Y019827D01*
X021915Y020753D01*
X022486Y020753D01*
X022544Y020104D02*
X023757Y020104D01*
X023757Y019376D01*
X022544Y019376D01*
X022544Y020104D01*
X022486Y019653D02*
X021915Y019653D01*
X021915Y018727D01*
X022486Y018727D01*
X022486Y019653D01*
X023615Y019213D02*
X023615Y018287D01*
X024186Y018287D01*
X024186Y019213D01*
X023615Y019213D01*
X024215Y018877D02*
X024215Y019803D01*
X024786Y019803D01*
X024786Y018877D01*
X024215Y018877D01*
X024215Y018613D02*
X024215Y017687D01*
X024786Y017687D01*
X024786Y018613D01*
X024215Y018613D01*
X021636Y015798D02*
X021065Y015798D01*
X021065Y014872D01*
X021636Y014872D01*
X021636Y015798D01*
X018762Y018416D02*
X017640Y018416D01*
X017640Y019164D01*
X018762Y019164D01*
X018762Y018416D01*
X018762Y019216D02*
X018762Y019964D01*
X017640Y019964D01*
X017640Y019216D01*
X018762Y019216D01*
X018875Y020129D02*
X018127Y020129D01*
X018127Y021251D01*
X018875Y021251D01*
X018875Y020129D01*
X018925Y020188D02*
X019476Y020188D01*
X019476Y021192D01*
X018925Y021192D01*
X018925Y020188D01*
X019462Y021316D02*
X018340Y021316D01*
X018340Y022064D01*
X019462Y022064D01*
X019462Y021316D01*
X019403Y022114D02*
X018399Y022114D01*
X018399Y022666D01*
X019403Y022666D01*
X019403Y022114D01*
X018076Y021788D02*
X018076Y022792D01*
X017525Y022792D01*
X017525Y021788D01*
X018076Y021788D01*
X016962Y021916D02*
X016962Y022664D01*
X015840Y022664D01*
X015840Y021916D01*
X016962Y021916D01*
X015675Y021829D02*
X014927Y021829D01*
X014927Y022951D01*
X015675Y022951D01*
X015675Y021829D01*
X015675Y021751D02*
X015675Y020629D01*
X014927Y020629D01*
X014927Y021751D01*
X015675Y021751D01*
X015840Y022716D02*
X015840Y023464D01*
X016962Y023464D01*
X016962Y022716D01*
X015840Y022716D01*
X016162Y023516D02*
X015040Y023516D01*
X015040Y024264D01*
X016162Y024264D01*
X016162Y023516D01*
X016286Y024227D02*
X016286Y025153D01*
X015715Y025153D01*
X015715Y024227D01*
X016286Y024227D01*
X016246Y020612D02*
X016246Y019608D01*
X015695Y019608D01*
X015695Y020612D01*
X016246Y020612D01*
X016340Y020364D02*
X017462Y020364D01*
X017462Y019616D01*
X016340Y019616D01*
X016340Y020364D01*
X016440Y019164D02*
X016440Y018416D01*
X017562Y018416D01*
X017562Y019164D01*
X016440Y019164D01*
X015685Y015571D02*
X014937Y015571D01*
X014937Y014449D01*
X015685Y014449D01*
X015685Y015571D01*
X022665Y026627D02*
X022665Y027553D01*
X023236Y027553D01*
X023236Y026627D01*
X022665Y026627D01*
X023844Y028826D02*
X023844Y029554D01*
X025057Y029554D01*
X025057Y028826D01*
X023844Y028826D01*
X023949Y029714D02*
X024953Y029714D01*
X024953Y030266D01*
X023949Y030266D01*
X023949Y029714D01*
X024415Y030627D02*
X024415Y031553D01*
X024986Y031553D01*
X024986Y030627D01*
X024415Y030627D01*
X022736Y030627D02*
X022736Y031553D01*
X022165Y031553D01*
X022165Y030627D01*
X022736Y030627D01*
X022586Y032927D02*
X022015Y032927D01*
X022015Y033853D01*
X022586Y033853D01*
X022586Y032927D01*
X021936Y032927D02*
X021936Y033853D01*
X021365Y033853D01*
X021365Y032927D01*
X021936Y032927D01*
X021753Y033964D02*
X020749Y033964D01*
X020749Y034516D01*
X021753Y034516D01*
X021753Y033964D01*
X019426Y033042D02*
X019426Y032038D01*
X018875Y032038D01*
X018875Y033042D01*
X019426Y033042D01*
X019236Y030863D02*
X019236Y029937D01*
X018665Y029937D01*
X018665Y030863D01*
X019236Y030863D01*
X025836Y029447D02*
X025836Y028188D01*
X026466Y028188D01*
X026466Y029447D01*
X025836Y029447D01*
X026875Y030988D02*
X026875Y031992D01*
X027426Y031992D01*
X027426Y030988D01*
X026875Y030988D01*
X027586Y030884D02*
X028315Y030884D01*
X028315Y032096D01*
X027586Y032096D01*
X027586Y030884D01*
X027665Y030703D02*
X027665Y029777D01*
X028236Y029777D01*
X028236Y030703D01*
X027665Y030703D01*
X034388Y041455D02*
X035313Y041455D01*
X035313Y042025D01*
X034388Y042025D01*
X034388Y041455D01*
X034349Y042264D02*
X035353Y042264D01*
X035353Y042816D01*
X034349Y042816D01*
X034349Y042264D01*
X033653Y042664D02*
X032649Y042664D01*
X032649Y043216D01*
X033653Y043216D01*
X033653Y042664D01*
X051175Y036892D02*
X051175Y035888D01*
X051726Y035888D01*
X051726Y036892D01*
X051175Y036892D01*
X051888Y033775D02*
X051888Y033205D01*
X052813Y033205D01*
X052813Y033775D01*
X051888Y033775D01*
X052888Y033775D02*
X052888Y033205D01*
X053813Y033205D01*
X053813Y033775D01*
X052888Y033775D01*
X054865Y034003D02*
X054865Y033077D01*
X055436Y033077D01*
X055436Y034003D01*
X054865Y034003D01*
X055565Y034003D02*
X055565Y033077D01*
X056136Y033077D01*
X056136Y034003D01*
X055565Y034003D01*
X058099Y040164D02*
X059103Y040164D01*
X059103Y040716D01*
X058099Y040716D01*
X058099Y040164D01*
X058036Y041477D02*
X058036Y042403D01*
X057465Y042403D01*
X057465Y041477D01*
X058036Y041477D01*
X057549Y042614D02*
X058553Y042614D01*
X058553Y043166D01*
X057549Y043166D01*
X057549Y042614D01*
X061925Y044026D02*
X061925Y044774D01*
X063047Y044774D01*
X063047Y044026D01*
X061925Y044026D01*
X049248Y023333D02*
X047653Y023333D01*
X047653Y022447D01*
X049248Y022447D01*
X049248Y023333D01*
X048808Y021887D02*
X048808Y020293D01*
X049694Y020293D01*
X049694Y021887D01*
X048808Y021887D01*
D22*
X001925Y025390D03*
X001925Y015390D03*
D23*
X016505Y021090D02*
X016580Y021015D01*
X016730Y021015D01*
X016805Y021090D01*
X016805Y021465D01*
X016965Y021390D02*
X017040Y021465D01*
X017190Y021465D01*
X017265Y021390D01*
X017265Y021315D01*
X016965Y021015D01*
X017265Y021015D01*
X016505Y021090D02*
X016505Y021465D01*
X022101Y025040D02*
X022101Y025740D01*
X023001Y025740D01*
X023001Y025040D01*
X022101Y025040D01*
X023500Y023055D02*
X023575Y023055D01*
X023650Y022980D01*
X023726Y023055D01*
X023801Y023055D01*
X023876Y022980D01*
X023876Y022830D01*
X023801Y022755D01*
X023801Y022594D02*
X023425Y022594D01*
X023500Y022755D02*
X023425Y022830D01*
X023425Y022980D01*
X023500Y023055D01*
X023650Y022980D02*
X023650Y022905D01*
X023801Y022594D02*
X023876Y022519D01*
X023876Y022369D01*
X023801Y022294D01*
X023425Y022294D01*
X029144Y021598D02*
X029144Y020082D01*
X030357Y020082D01*
X030357Y021598D01*
X029144Y021598D01*
X030796Y021755D02*
X030796Y021125D01*
X031505Y021125D01*
X031505Y021755D01*
X030796Y021755D01*
X030796Y020555D02*
X030796Y019925D01*
X031505Y019925D01*
X031505Y020555D01*
X030796Y020555D01*
X027949Y017015D02*
X027799Y017015D01*
X027724Y016940D01*
X027724Y016640D01*
X027799Y016565D01*
X027949Y016565D01*
X028024Y016640D01*
X028024Y016940D02*
X027949Y017015D01*
X027567Y017015D02*
X027417Y017015D01*
X027492Y017015D02*
X027492Y016565D01*
X027417Y016565D02*
X027567Y016565D01*
X027107Y016790D02*
X026957Y016790D01*
X026957Y016565D02*
X026957Y017015D01*
X027257Y017015D01*
X026797Y017015D02*
X026496Y017015D01*
X026496Y016565D01*
X026797Y016565D01*
X026647Y016790D02*
X026496Y016790D01*
X026336Y016790D02*
X026261Y016715D01*
X026036Y016715D01*
X026036Y016565D02*
X026036Y017015D01*
X026261Y017015D01*
X026336Y016940D01*
X026336Y016790D01*
X026186Y016715D02*
X026336Y016565D01*
X025876Y016715D02*
X025876Y017015D01*
X025876Y016715D02*
X025726Y016565D01*
X025576Y016715D01*
X025576Y017015D01*
X021066Y017144D02*
X021066Y016436D01*
X020436Y016436D01*
X020436Y017144D01*
X021066Y017144D01*
X020909Y015996D02*
X019393Y015996D01*
X019393Y014784D01*
X020909Y014784D01*
X020909Y015996D01*
X019866Y016436D02*
X019866Y017144D01*
X019236Y017144D01*
X019236Y016436D01*
X019866Y016436D01*
X019866Y028586D02*
X019236Y028586D01*
X019236Y029294D01*
X019866Y029294D01*
X019866Y028586D01*
X020436Y028586D02*
X021066Y028586D01*
X021066Y029294D01*
X020436Y029294D01*
X020436Y028586D01*
X020909Y029734D02*
X019393Y029734D01*
X019393Y030946D01*
X020909Y030946D01*
X020909Y029734D01*
X024076Y032165D02*
X024076Y033415D01*
X025326Y033415D01*
X025326Y032165D01*
X024076Y032165D01*
X027476Y029365D02*
X027701Y029365D01*
X027776Y029290D01*
X027776Y029215D01*
X027701Y029140D01*
X027476Y029140D01*
X027701Y029140D02*
X027776Y029065D01*
X027776Y028990D01*
X027701Y028915D01*
X027476Y028915D01*
X027476Y029365D01*
X027936Y029365D02*
X027936Y028990D01*
X028011Y028915D01*
X028161Y028915D01*
X028236Y028990D01*
X028236Y029365D01*
X028396Y029365D02*
X028396Y028915D01*
X028396Y029140D02*
X028547Y029140D01*
X028396Y029365D02*
X028697Y029365D01*
X031451Y031090D02*
X031451Y031790D01*
X031351Y031890D01*
X030451Y031890D01*
X037408Y027227D02*
X038294Y027227D01*
X038294Y025553D01*
X037408Y025553D01*
X037408Y027227D01*
X037418Y025445D02*
X037418Y025406D01*
X038284Y025406D01*
X038284Y025445D01*
X037418Y025445D01*
X047420Y034659D02*
X047420Y043321D01*
X056081Y043321D01*
X056081Y034659D01*
X047420Y034659D01*
X051976Y030065D02*
X051976Y029615D01*
X051826Y029615D02*
X052126Y029615D01*
X051826Y029915D02*
X051976Y030065D01*
X054676Y031590D02*
X054751Y031515D01*
X054901Y031515D01*
X054976Y031590D01*
X054976Y031665D01*
X054901Y031740D01*
X054676Y031740D01*
X054676Y031590D01*
X054676Y031740D02*
X054826Y031890D01*
X054976Y031965D01*
X052898Y025843D02*
X058803Y025843D01*
X058803Y019937D01*
X052898Y019937D01*
X052898Y025843D01*
X054451Y022890D02*
X054651Y022890D01*
X054653Y022917D01*
X054658Y022944D01*
X054668Y022970D01*
X054680Y022994D01*
X054696Y023016D01*
X054714Y023036D01*
X054736Y023053D01*
X054759Y023068D01*
X054784Y023078D01*
X054810Y023086D01*
X054837Y023090D01*
X054865Y023090D01*
X054892Y023086D01*
X054918Y023078D01*
X054943Y023068D01*
X054966Y023053D01*
X054988Y023036D01*
X055006Y023016D01*
X055022Y022994D01*
X055034Y022970D01*
X055044Y022944D01*
X055049Y022917D01*
X055051Y022890D01*
X055053Y022917D01*
X055058Y022944D01*
X055068Y022970D01*
X055080Y022994D01*
X055096Y023016D01*
X055114Y023036D01*
X055136Y023053D01*
X055159Y023068D01*
X055184Y023078D01*
X055210Y023086D01*
X055237Y023090D01*
X055265Y023090D01*
X055292Y023086D01*
X055318Y023078D01*
X055343Y023068D01*
X055366Y023053D01*
X055388Y023036D01*
X055406Y023016D01*
X055422Y022994D01*
X055434Y022970D01*
X055444Y022944D01*
X055449Y022917D01*
X055451Y022890D01*
X055453Y022917D01*
X055458Y022944D01*
X055468Y022970D01*
X055480Y022994D01*
X055496Y023016D01*
X055514Y023036D01*
X055536Y023053D01*
X055559Y023068D01*
X055584Y023078D01*
X055610Y023086D01*
X055637Y023090D01*
X055665Y023090D01*
X055692Y023086D01*
X055718Y023078D01*
X055743Y023068D01*
X055766Y023053D01*
X055788Y023036D01*
X055806Y023016D01*
X055822Y022994D01*
X055834Y022970D01*
X055844Y022944D01*
X055849Y022917D01*
X055851Y022890D01*
X054431Y022890D02*
X054433Y022965D01*
X054439Y023040D01*
X054449Y023114D01*
X054463Y023188D01*
X054480Y023261D01*
X054502Y023332D01*
X054527Y023403D01*
X054556Y023472D01*
X054588Y023540D01*
X054624Y023605D01*
X054664Y023669D01*
X054707Y023731D01*
X054753Y023790D01*
X054802Y023847D01*
X054854Y023901D01*
X054908Y023952D01*
X054966Y024000D01*
X055025Y024045D01*
X055088Y024087D01*
X055152Y024126D01*
X055218Y024161D01*
X055286Y024193D01*
X055356Y024221D01*
X055426Y024245D01*
X055499Y024266D01*
X055572Y024282D01*
X055646Y024295D01*
X055720Y024304D01*
X055795Y024309D01*
X055870Y024310D01*
X055945Y024307D01*
X056019Y024300D01*
X056093Y024289D01*
X056167Y024274D01*
X056240Y024256D01*
X056311Y024233D01*
X056381Y024207D01*
X056450Y024177D01*
X056517Y024144D01*
X056583Y024107D01*
X056646Y024067D01*
X056707Y024023D01*
X056765Y023976D01*
X056821Y023927D01*
X056875Y023874D01*
X056925Y023819D01*
X056973Y023761D01*
X057017Y023700D01*
X057058Y023638D01*
X057096Y023573D01*
X057130Y023506D01*
X057161Y023438D01*
X057188Y023368D01*
X057212Y023297D01*
X057231Y023224D01*
X057247Y023151D01*
X057259Y023077D01*
X057267Y023002D01*
X057271Y022927D01*
X057271Y022853D01*
X057267Y022778D01*
X057259Y022703D01*
X057247Y022629D01*
X057231Y022556D01*
X057212Y022483D01*
X057188Y022412D01*
X057161Y022342D01*
X057130Y022274D01*
X057096Y022207D01*
X057058Y022142D01*
X057017Y022080D01*
X056973Y022019D01*
X056925Y021961D01*
X056875Y021906D01*
X056821Y021853D01*
X056765Y021804D01*
X056707Y021757D01*
X056646Y021713D01*
X056583Y021673D01*
X056517Y021636D01*
X056450Y021603D01*
X056381Y021573D01*
X056311Y021547D01*
X056240Y021524D01*
X056167Y021506D01*
X056093Y021491D01*
X056019Y021480D01*
X055945Y021473D01*
X055870Y021470D01*
X055795Y021471D01*
X055720Y021476D01*
X055646Y021485D01*
X055572Y021498D01*
X055499Y021514D01*
X055426Y021535D01*
X055356Y021559D01*
X055286Y021587D01*
X055218Y021619D01*
X055152Y021654D01*
X055088Y021693D01*
X055025Y021735D01*
X054966Y021780D01*
X054908Y021828D01*
X054854Y021879D01*
X054802Y021933D01*
X054753Y021990D01*
X054707Y022049D01*
X054664Y022111D01*
X054624Y022175D01*
X054588Y022240D01*
X054556Y022308D01*
X054527Y022377D01*
X054502Y022448D01*
X054480Y022519D01*
X054463Y022592D01*
X054449Y022666D01*
X054439Y022740D01*
X054433Y022815D01*
X054431Y022890D01*
X055851Y022890D02*
X055853Y022917D01*
X055858Y022944D01*
X055868Y022970D01*
X055880Y022994D01*
X055896Y023016D01*
X055914Y023036D01*
X055936Y023053D01*
X055959Y023068D01*
X055984Y023078D01*
X056010Y023086D01*
X056037Y023090D01*
X056065Y023090D01*
X056092Y023086D01*
X056118Y023078D01*
X056143Y023068D01*
X056166Y023053D01*
X056188Y023036D01*
X056206Y023016D01*
X056222Y022994D01*
X056234Y022970D01*
X056244Y022944D01*
X056249Y022917D01*
X056251Y022890D01*
X056253Y022917D01*
X056258Y022944D01*
X056268Y022970D01*
X056280Y022994D01*
X056296Y023016D01*
X056314Y023036D01*
X056336Y023053D01*
X056359Y023068D01*
X056384Y023078D01*
X056410Y023086D01*
X056437Y023090D01*
X056465Y023090D01*
X056492Y023086D01*
X056518Y023078D01*
X056543Y023068D01*
X056566Y023053D01*
X056588Y023036D01*
X056606Y023016D01*
X056622Y022994D01*
X056634Y022970D01*
X056644Y022944D01*
X056649Y022917D01*
X056651Y022890D01*
X056653Y022917D01*
X056658Y022944D01*
X056668Y022970D01*
X056680Y022994D01*
X056696Y023016D01*
X056714Y023036D01*
X056736Y023053D01*
X056759Y023068D01*
X056784Y023078D01*
X056810Y023086D01*
X056837Y023090D01*
X056865Y023090D01*
X056892Y023086D01*
X056918Y023078D01*
X056943Y023068D01*
X056966Y023053D01*
X056988Y023036D01*
X057006Y023016D01*
X057022Y022994D01*
X057034Y022970D01*
X057044Y022944D01*
X057049Y022917D01*
X057051Y022890D01*
X057251Y022890D01*
X058803Y015843D02*
X052898Y015843D01*
X052898Y009937D01*
X058803Y009937D01*
X058803Y015843D01*
X057251Y012890D02*
X057051Y012890D01*
X057049Y012917D01*
X057044Y012944D01*
X057034Y012970D01*
X057022Y012994D01*
X057006Y013016D01*
X056988Y013036D01*
X056966Y013053D01*
X056943Y013068D01*
X056918Y013078D01*
X056892Y013086D01*
X056865Y013090D01*
X056837Y013090D01*
X056810Y013086D01*
X056784Y013078D01*
X056759Y013068D01*
X056736Y013053D01*
X056714Y013036D01*
X056696Y013016D01*
X056680Y012994D01*
X056668Y012970D01*
X056658Y012944D01*
X056653Y012917D01*
X056651Y012890D01*
X056649Y012917D01*
X056644Y012944D01*
X056634Y012970D01*
X056622Y012994D01*
X056606Y013016D01*
X056588Y013036D01*
X056566Y013053D01*
X056543Y013068D01*
X056518Y013078D01*
X056492Y013086D01*
X056465Y013090D01*
X056437Y013090D01*
X056410Y013086D01*
X056384Y013078D01*
X056359Y013068D01*
X056336Y013053D01*
X056314Y013036D01*
X056296Y013016D01*
X056280Y012994D01*
X056268Y012970D01*
X056258Y012944D01*
X056253Y012917D01*
X056251Y012890D01*
X056249Y012917D01*
X056244Y012944D01*
X056234Y012970D01*
X056222Y012994D01*
X056206Y013016D01*
X056188Y013036D01*
X056166Y013053D01*
X056143Y013068D01*
X056118Y013078D01*
X056092Y013086D01*
X056065Y013090D01*
X056037Y013090D01*
X056010Y013086D01*
X055984Y013078D01*
X055959Y013068D01*
X055936Y013053D01*
X055914Y013036D01*
X055896Y013016D01*
X055880Y012994D01*
X055868Y012970D01*
X055858Y012944D01*
X055853Y012917D01*
X055851Y012890D01*
X054431Y012890D02*
X054433Y012965D01*
X054439Y013040D01*
X054449Y013114D01*
X054463Y013188D01*
X054480Y013261D01*
X054502Y013332D01*
X054527Y013403D01*
X054556Y013472D01*
X054588Y013540D01*
X054624Y013605D01*
X054664Y013669D01*
X054707Y013731D01*
X054753Y013790D01*
X054802Y013847D01*
X054854Y013901D01*
X054908Y013952D01*
X054966Y014000D01*
X055025Y014045D01*
X055088Y014087D01*
X055152Y014126D01*
X055218Y014161D01*
X055286Y014193D01*
X055356Y014221D01*
X055426Y014245D01*
X055499Y014266D01*
X055572Y014282D01*
X055646Y014295D01*
X055720Y014304D01*
X055795Y014309D01*
X055870Y014310D01*
X055945Y014307D01*
X056019Y014300D01*
X056093Y014289D01*
X056167Y014274D01*
X056240Y014256D01*
X056311Y014233D01*
X056381Y014207D01*
X056450Y014177D01*
X056517Y014144D01*
X056583Y014107D01*
X056646Y014067D01*
X056707Y014023D01*
X056765Y013976D01*
X056821Y013927D01*
X056875Y013874D01*
X056925Y013819D01*
X056973Y013761D01*
X057017Y013700D01*
X057058Y013638D01*
X057096Y013573D01*
X057130Y013506D01*
X057161Y013438D01*
X057188Y013368D01*
X057212Y013297D01*
X057231Y013224D01*
X057247Y013151D01*
X057259Y013077D01*
X057267Y013002D01*
X057271Y012927D01*
X057271Y012853D01*
X057267Y012778D01*
X057259Y012703D01*
X057247Y012629D01*
X057231Y012556D01*
X057212Y012483D01*
X057188Y012412D01*
X057161Y012342D01*
X057130Y012274D01*
X057096Y012207D01*
X057058Y012142D01*
X057017Y012080D01*
X056973Y012019D01*
X056925Y011961D01*
X056875Y011906D01*
X056821Y011853D01*
X056765Y011804D01*
X056707Y011757D01*
X056646Y011713D01*
X056583Y011673D01*
X056517Y011636D01*
X056450Y011603D01*
X056381Y011573D01*
X056311Y011547D01*
X056240Y011524D01*
X056167Y011506D01*
X056093Y011491D01*
X056019Y011480D01*
X055945Y011473D01*
X055870Y011470D01*
X055795Y011471D01*
X055720Y011476D01*
X055646Y011485D01*
X055572Y011498D01*
X055499Y011514D01*
X055426Y011535D01*
X055356Y011559D01*
X055286Y011587D01*
X055218Y011619D01*
X055152Y011654D01*
X055088Y011693D01*
X055025Y011735D01*
X054966Y011780D01*
X054908Y011828D01*
X054854Y011879D01*
X054802Y011933D01*
X054753Y011990D01*
X054707Y012049D01*
X054664Y012111D01*
X054624Y012175D01*
X054588Y012240D01*
X054556Y012308D01*
X054527Y012377D01*
X054502Y012448D01*
X054480Y012519D01*
X054463Y012592D01*
X054449Y012666D01*
X054439Y012740D01*
X054433Y012815D01*
X054431Y012890D01*
X054451Y012890D02*
X054651Y012890D01*
X054653Y012917D01*
X054658Y012944D01*
X054668Y012970D01*
X054680Y012994D01*
X054696Y013016D01*
X054714Y013036D01*
X054736Y013053D01*
X054759Y013068D01*
X054784Y013078D01*
X054810Y013086D01*
X054837Y013090D01*
X054865Y013090D01*
X054892Y013086D01*
X054918Y013078D01*
X054943Y013068D01*
X054966Y013053D01*
X054988Y013036D01*
X055006Y013016D01*
X055022Y012994D01*
X055034Y012970D01*
X055044Y012944D01*
X055049Y012917D01*
X055051Y012890D01*
X055053Y012917D01*
X055058Y012944D01*
X055068Y012970D01*
X055080Y012994D01*
X055096Y013016D01*
X055114Y013036D01*
X055136Y013053D01*
X055159Y013068D01*
X055184Y013078D01*
X055210Y013086D01*
X055237Y013090D01*
X055265Y013090D01*
X055292Y013086D01*
X055318Y013078D01*
X055343Y013068D01*
X055366Y013053D01*
X055388Y013036D01*
X055406Y013016D01*
X055422Y012994D01*
X055434Y012970D01*
X055444Y012944D01*
X055449Y012917D01*
X055451Y012890D01*
X055453Y012917D01*
X055458Y012944D01*
X055468Y012970D01*
X055480Y012994D01*
X055496Y013016D01*
X055514Y013036D01*
X055536Y013053D01*
X055559Y013068D01*
X055584Y013078D01*
X055610Y013086D01*
X055637Y013090D01*
X055665Y013090D01*
X055692Y013086D01*
X055718Y013078D01*
X055743Y013068D01*
X055766Y013053D01*
X055788Y013036D01*
X055806Y013016D01*
X055822Y012994D01*
X055834Y012970D01*
X055844Y012944D01*
X055849Y012917D01*
X055851Y012890D01*
X063801Y034834D02*
X063876Y034909D01*
X063876Y034984D01*
X063801Y035059D01*
X063425Y035059D01*
X063425Y034984D02*
X063425Y035134D01*
X063425Y035294D02*
X063425Y035519D01*
X063500Y035594D01*
X063650Y035594D01*
X063726Y035519D01*
X063726Y035294D01*
X063876Y035294D02*
X063425Y035294D01*
X063500Y035755D02*
X063425Y035830D01*
X063425Y035980D01*
X063500Y036055D01*
X063575Y036055D01*
X063650Y035980D01*
X063726Y036055D01*
X063801Y036055D01*
X063876Y035980D01*
X063876Y035830D01*
X063801Y035755D01*
X063650Y035905D02*
X063650Y035980D01*
X040726Y041805D02*
X040425Y042105D01*
X040350Y042105D01*
X040275Y042030D01*
X040275Y041880D01*
X040350Y041805D01*
X040726Y041805D02*
X040726Y042105D01*
X039726Y042105D02*
X039726Y041805D01*
X039726Y041955D02*
X039275Y041955D01*
X039425Y041805D01*
X038801Y039755D02*
X038726Y039755D01*
X038650Y039680D01*
X038650Y039530D01*
X038575Y039455D01*
X038500Y039455D01*
X038425Y039530D01*
X038425Y039680D01*
X038500Y039755D01*
X038575Y039755D01*
X038650Y039680D01*
X038650Y039530D02*
X038726Y039455D01*
X038801Y039455D01*
X038876Y039530D01*
X038876Y039680D01*
X038801Y039755D01*
X035238Y039153D02*
X033663Y039153D01*
X033663Y040727D01*
X035238Y040727D01*
X035238Y039153D01*
X034057Y040924D02*
X033466Y040924D01*
X033466Y040334D01*
X030726Y041805D02*
X030425Y042105D01*
X030350Y042105D01*
X030275Y042030D01*
X030275Y041880D01*
X030350Y041805D01*
X030726Y041805D02*
X030726Y042105D01*
X029726Y042105D02*
X029726Y041805D01*
X029726Y041955D02*
X029275Y041955D01*
X029425Y041805D01*
X028801Y039755D02*
X028876Y039680D01*
X028876Y039530D01*
X028801Y039455D01*
X028726Y039455D01*
X028650Y039530D01*
X028650Y039680D01*
X028726Y039755D01*
X028801Y039755D01*
X028650Y039680D02*
X028575Y039755D01*
X028500Y039755D01*
X028425Y039680D01*
X028425Y039530D01*
X028500Y039455D01*
X028575Y039455D01*
X028650Y039530D01*
X016751Y031890D02*
X016751Y028890D01*
X008451Y028890D01*
X008451Y031890D01*
X016751Y031890D01*
D24*
X013451Y032190D02*
X013451Y046580D01*
X071451Y046580D01*
X071451Y007200D01*
X008451Y007200D01*
X008451Y032190D01*
X013451Y032190D01*
X009301Y009390D02*
X009303Y009437D01*
X009309Y009483D01*
X009319Y009529D01*
X009332Y009573D01*
X009350Y009617D01*
X009371Y009658D01*
X009395Y009698D01*
X009423Y009736D01*
X009454Y009771D01*
X009488Y009803D01*
X009524Y009832D01*
X009563Y009858D01*
X009603Y009881D01*
X009646Y009900D01*
X009690Y009916D01*
X009735Y009928D01*
X009781Y009936D01*
X009828Y009940D01*
X009874Y009940D01*
X009921Y009936D01*
X009967Y009928D01*
X010012Y009916D01*
X010056Y009900D01*
X010099Y009881D01*
X010139Y009858D01*
X010178Y009832D01*
X010214Y009803D01*
X010248Y009771D01*
X010279Y009736D01*
X010307Y009698D01*
X010331Y009658D01*
X010352Y009617D01*
X010370Y009573D01*
X010383Y009529D01*
X010393Y009483D01*
X010399Y009437D01*
X010401Y009390D01*
X010399Y009343D01*
X010393Y009297D01*
X010383Y009251D01*
X010370Y009207D01*
X010352Y009163D01*
X010331Y009122D01*
X010307Y009082D01*
X010279Y009044D01*
X010248Y009009D01*
X010214Y008977D01*
X010178Y008948D01*
X010139Y008922D01*
X010099Y008899D01*
X010056Y008880D01*
X010012Y008864D01*
X009967Y008852D01*
X009921Y008844D01*
X009874Y008840D01*
X009828Y008840D01*
X009781Y008844D01*
X009735Y008852D01*
X009690Y008864D01*
X009646Y008880D01*
X009603Y008899D01*
X009563Y008922D01*
X009524Y008948D01*
X009488Y008977D01*
X009454Y009009D01*
X009423Y009044D01*
X009395Y009082D01*
X009371Y009122D01*
X009350Y009163D01*
X009332Y009207D01*
X009319Y009251D01*
X009309Y009297D01*
X009303Y009343D01*
X009301Y009390D01*
X069801Y009390D02*
X069803Y009437D01*
X069809Y009483D01*
X069819Y009529D01*
X069832Y009573D01*
X069850Y009617D01*
X069871Y009658D01*
X069895Y009698D01*
X069923Y009736D01*
X069954Y009771D01*
X069988Y009803D01*
X070024Y009832D01*
X070063Y009858D01*
X070103Y009881D01*
X070146Y009900D01*
X070190Y009916D01*
X070235Y009928D01*
X070281Y009936D01*
X070328Y009940D01*
X070374Y009940D01*
X070421Y009936D01*
X070467Y009928D01*
X070512Y009916D01*
X070556Y009900D01*
X070599Y009881D01*
X070639Y009858D01*
X070678Y009832D01*
X070714Y009803D01*
X070748Y009771D01*
X070779Y009736D01*
X070807Y009698D01*
X070831Y009658D01*
X070852Y009617D01*
X070870Y009573D01*
X070883Y009529D01*
X070893Y009483D01*
X070899Y009437D01*
X070901Y009390D01*
X070899Y009343D01*
X070893Y009297D01*
X070883Y009251D01*
X070870Y009207D01*
X070852Y009163D01*
X070831Y009122D01*
X070807Y009082D01*
X070779Y009044D01*
X070748Y009009D01*
X070714Y008977D01*
X070678Y008948D01*
X070639Y008922D01*
X070599Y008899D01*
X070556Y008880D01*
X070512Y008864D01*
X070467Y008852D01*
X070421Y008844D01*
X070374Y008840D01*
X070328Y008840D01*
X070281Y008844D01*
X070235Y008852D01*
X070190Y008864D01*
X070146Y008880D01*
X070103Y008899D01*
X070063Y008922D01*
X070024Y008948D01*
X069988Y008977D01*
X069954Y009009D01*
X069923Y009044D01*
X069895Y009082D01*
X069871Y009122D01*
X069850Y009163D01*
X069832Y009207D01*
X069819Y009251D01*
X069809Y009297D01*
X069803Y009343D01*
X069801Y009390D01*
X069801Y044390D02*
X069803Y044437D01*
X069809Y044483D01*
X069819Y044529D01*
X069832Y044573D01*
X069850Y044617D01*
X069871Y044658D01*
X069895Y044698D01*
X069923Y044736D01*
X069954Y044771D01*
X069988Y044803D01*
X070024Y044832D01*
X070063Y044858D01*
X070103Y044881D01*
X070146Y044900D01*
X070190Y044916D01*
X070235Y044928D01*
X070281Y044936D01*
X070328Y044940D01*
X070374Y044940D01*
X070421Y044936D01*
X070467Y044928D01*
X070512Y044916D01*
X070556Y044900D01*
X070599Y044881D01*
X070639Y044858D01*
X070678Y044832D01*
X070714Y044803D01*
X070748Y044771D01*
X070779Y044736D01*
X070807Y044698D01*
X070831Y044658D01*
X070852Y044617D01*
X070870Y044573D01*
X070883Y044529D01*
X070893Y044483D01*
X070899Y044437D01*
X070901Y044390D01*
X070899Y044343D01*
X070893Y044297D01*
X070883Y044251D01*
X070870Y044207D01*
X070852Y044163D01*
X070831Y044122D01*
X070807Y044082D01*
X070779Y044044D01*
X070748Y044009D01*
X070714Y043977D01*
X070678Y043948D01*
X070639Y043922D01*
X070599Y043899D01*
X070556Y043880D01*
X070512Y043864D01*
X070467Y043852D01*
X070421Y043844D01*
X070374Y043840D01*
X070328Y043840D01*
X070281Y043844D01*
X070235Y043852D01*
X070190Y043864D01*
X070146Y043880D01*
X070103Y043899D01*
X070063Y043922D01*
X070024Y043948D01*
X069988Y043977D01*
X069954Y044009D01*
X069923Y044044D01*
X069895Y044082D01*
X069871Y044122D01*
X069850Y044163D01*
X069832Y044207D01*
X069819Y044251D01*
X069809Y044297D01*
X069803Y044343D01*
X069801Y044390D01*
D25*
X071935Y042682D02*
X071935Y042472D01*
X072040Y042367D01*
X071935Y042682D02*
X072040Y042787D01*
X072145Y042787D01*
X072566Y042367D01*
X072566Y042787D01*
X072935Y042574D02*
X072935Y042364D01*
X073040Y042259D01*
X073461Y042259D01*
X073566Y042364D01*
X073566Y042574D01*
X073461Y042679D01*
X073040Y042679D02*
X072935Y042574D01*
X072566Y042142D02*
X072566Y041722D01*
X072566Y041932D02*
X071935Y041932D01*
X072145Y041722D01*
X071935Y041498D02*
X072040Y041288D01*
X072250Y041077D01*
X072250Y041393D01*
X072355Y041498D01*
X072461Y041498D01*
X072566Y041393D01*
X072566Y041183D01*
X072461Y041077D01*
X072250Y041077D01*
X072566Y040853D02*
X072566Y040433D01*
X072566Y040643D02*
X071935Y040643D01*
X072145Y040433D01*
X072250Y040209D02*
X072250Y039788D01*
X071935Y040104D01*
X072566Y040104D01*
X073145Y040104D02*
X073145Y039893D01*
X073250Y039788D01*
X073461Y039788D01*
X073566Y039893D01*
X073566Y040104D01*
X073461Y040209D01*
X073250Y040209D01*
X073145Y040104D01*
X073145Y040433D02*
X073566Y040433D01*
X073355Y040433D02*
X073145Y040643D01*
X073145Y040748D01*
X073145Y040970D02*
X073145Y041075D01*
X073250Y041180D01*
X073145Y041285D01*
X073250Y041390D01*
X073566Y041390D01*
X073566Y041180D02*
X073250Y041180D01*
X073145Y040970D02*
X073566Y040970D01*
X073250Y039569D02*
X073250Y039359D01*
X073040Y039464D02*
X072935Y039569D01*
X073040Y039464D02*
X073566Y039464D01*
X073566Y039134D02*
X073145Y039134D01*
X073145Y038714D02*
X073461Y038714D01*
X073566Y038819D01*
X073566Y039134D01*
X073566Y038490D02*
X073566Y038175D01*
X073461Y038070D01*
X073355Y038175D01*
X073355Y038490D01*
X073250Y038490D02*
X073566Y038490D01*
X073250Y038490D02*
X073145Y038385D01*
X073145Y038175D01*
X073145Y037845D02*
X073250Y037740D01*
X073250Y037425D01*
X072935Y037425D02*
X073566Y037425D01*
X073566Y037740D01*
X073461Y037845D01*
X073355Y037845D01*
X073250Y037740D01*
X073145Y037845D02*
X073040Y037845D01*
X072935Y037740D01*
X072935Y037425D01*
X072566Y037425D02*
X072566Y037740D01*
X072461Y037845D01*
X072040Y037845D01*
X071935Y037740D01*
X071935Y037425D01*
X072566Y037425D01*
X072566Y038070D02*
X072566Y038280D01*
X072566Y038175D02*
X071935Y038175D01*
X071935Y038070D02*
X071935Y038280D01*
X071935Y038499D02*
X072566Y038920D01*
X071935Y038920D01*
X071935Y038499D02*
X072566Y038499D01*
X040895Y043630D02*
X040790Y043525D01*
X040580Y043525D01*
X040475Y043630D01*
X040475Y044050D01*
X040580Y044156D01*
X040790Y044156D01*
X040895Y044050D01*
X040251Y044156D02*
X040251Y043525D01*
X039830Y044156D01*
X039830Y043525D01*
X039606Y043525D02*
X039186Y043525D01*
X039186Y044156D01*
X039606Y044156D01*
X039396Y043840D02*
X039186Y043840D01*
X031045Y044000D02*
X031045Y043580D01*
X030940Y043475D01*
X030625Y043475D01*
X030625Y044106D01*
X030940Y044106D01*
X031045Y044000D01*
X030401Y044000D02*
X030295Y044106D01*
X030085Y044106D01*
X029980Y044000D01*
X029980Y043580D01*
X030085Y043475D01*
X030295Y043475D01*
X030401Y043580D01*
X029756Y043475D02*
X029336Y043475D01*
X029336Y044106D01*
D26*
X069776Y042390D03*
X069776Y041390D03*
X069776Y040390D03*
X069776Y039390D03*
X069776Y038390D03*
X069776Y037390D03*
X069776Y036390D03*
X069776Y035390D03*
X069776Y034390D03*
X069776Y033390D03*
X069776Y032390D03*
X069776Y031390D03*
X069776Y030390D03*
X069776Y029390D03*
X069776Y028390D03*
X069776Y027390D03*
X069776Y026390D03*
X069776Y025390D03*
X069776Y024390D03*
X069776Y023390D03*
X069776Y022390D03*
X069776Y021390D03*
X069776Y020390D03*
X069776Y019390D03*
X069776Y018390D03*
X069776Y017390D03*
X069776Y016390D03*
X069776Y015390D03*
X069776Y014390D03*
X069776Y013390D03*
X069776Y012390D03*
X069776Y011390D03*
D27*
X068351Y011390D03*
X068351Y012390D03*
X068351Y013390D03*
X068351Y014390D03*
X068351Y015390D03*
X068351Y016390D03*
X068351Y017390D03*
X068351Y018390D03*
X068351Y019390D03*
X068351Y020390D03*
X068351Y021390D03*
X068351Y022390D03*
X068351Y023390D03*
X068351Y024390D03*
X068351Y025390D03*
X068351Y026390D03*
X068351Y027390D03*
X068351Y028390D03*
X068351Y029390D03*
X068351Y030390D03*
X068351Y031390D03*
X068351Y032390D03*
X068351Y033390D03*
X068351Y034390D03*
X068351Y035390D03*
X068351Y036390D03*
X068351Y037390D03*
X068351Y038390D03*
X068351Y039390D03*
X068351Y040390D03*
X068351Y041390D03*
X068351Y042390D03*
D28*
X033703Y025438D03*
M02*
